<svg version="1.1" viewBox="0.0 0.0 602.0 341.0" fill="none" stroke="none" stroke-linecap="square" stroke-miterlimit="10" width="602" height="341" xmlns:xlink="http://www.w3.org/1999/xlink" xmlns="http://www.w3.org/2000/svg"><path fill="#ffffff" fill-opacity="0.0" d="M0 0L602.0 0L602.0 341.0L0 341.0L0 0Z" fill-rule="nonzero"/><path stroke="#333333" stroke-width="1.0" stroke-linecap="butt" d="M86.5 294.5L591.5 294.5" fill-rule="nonzero"/><path stroke="#f5cde2" stroke-width="1.0" stroke-linecap="butt" d="M86.5 227.5L591.5 227.5" fill-rule="nonzero"/><path stroke="#f5cde2" stroke-width="1.0" stroke-linecap="butt" d="M86.5 160.5L591.5 160.5" fill-rule="nonzero"/><path stroke="#f5cde2" stroke-width="1.0" stroke-linecap="butt" d="M86.5 92.5L591.5 92.5" fill-rule="nonzero"/><path stroke="#f5cde2" stroke-width="1.0" stroke-linecap="butt" d="M86.5 25.5L591.5 25.5" fill-rule="nonzero"/><clipPath id="id_0"><path d="M86.5 25.5L591.5 25.5L591.5 294.5L86.5 294.5L86.5 25.5Z" clip-rule="nonzero"/></clipPath><path stroke="#000000" stroke-width="2.0" stroke-linecap="butt" stroke-opacity="0.0" clip-path="url(#id_0)" d="M229.0 295.0L214.0 295.0L214.0 131.0C214.0 129.89543 214.89543 129.0 216.0 129.0L227.0 129.0C228.10457 129.0 229.0 129.89543 229.0 131.0Z" fill-rule="nonzero"/><path fill="#235753" clip-path="url(#id_0)" d="M229.0 295.0L214.0 295.0L214.0 131.0C214.0 129.89543 214.89543 129.0 216.0 129.0L227.0 129.0C228.10457 129.0 229.0 129.89543 229.0 131.0Z" fill-rule="nonzero"/><path stroke="#000000" stroke-width="2.0" stroke-linecap="butt" stroke-opacity="0.0" clip-path="url(#id_0)" d="M584.0 295.0L569.0 295.0L569.0 285.0C569.0 283.89542 569.89545 283.0 571.0 283.0L582.0 283.0C583.10455 283.0 584.0 283.89542 584.0 285.0Z" fill-rule="nonzero"/><path fill="#235753" clip-path="url(#id_0)" d="M584.0 295.0L569.0 295.0L569.0 285.0C569.0 283.89542 569.89545 283.0 571.0 283.0L582.0 283.0C583.10455 283.0 584.0 283.89542 584.0 285.0Z" fill-rule="nonzero"/><path fill="#235753" d="M26.849825 217.33437L18.256075 217.33437L18.256075 215.59999L22.068575 215.59999L18.256075 212.08437L18.256075 209.75624L21.599825 212.99062L26.849825 209.58437L26.849825 211.81874L22.818575 214.19374L24.256075 215.59999L26.849825 215.59999L26.849825 217.33437ZM19.787325 209.36562L18.256075 209.36562L18.256075 207.70937L19.787325 207.70937L19.787325 209.36562ZM26.849825 209.36562L20.631075 209.36562L20.631075 207.70937L26.849825 207.70937L26.849825 209.36562ZM26.849825 206.36562L18.256075 206.36562L18.256075 204.70937L26.849825 204.70937L26.849825 206.36562ZM23.6467 203.74062Q22.8342 203.74062 22.068575 203.33437Q21.287325 202.92812 20.8967 202.19374Q20.49045 201.45937 20.49045 200.53749Q20.49045 199.13124 21.412325 198.22499Q22.318575 197.31874 23.724825 197.31874Q25.131075 197.31874 26.068575 198.24062Q26.99045 199.14687 26.99045 200.52187Q26.99045 201.38124 26.599825 202.16249Q26.2092 202.92812 25.474825 203.33437Q24.724825 203.74062 23.6467 203.74062ZM23.74045 202.05312Q24.662325 202.05312 25.162325 201.61562Q25.6467 201.17812 25.6467 200.53749Q25.6467 199.88124 25.162325 199.45937Q24.662325 199.02187 23.724825 199.02187Q22.818575 199.02187 22.3342 199.45937Q21.8342 199.88124 21.8342 200.53749Q21.8342 201.17812 22.3342 201.61562Q22.818575 202.05312 23.74045 202.05312ZM20.631075 193.50624L21.943575 193.50624L21.943575 194.63124L24.443575 194.63124Q25.2092 194.63124 25.3342 194.59999Q25.4592 194.56874 25.55295 194.45937Q25.631075 194.33437 25.631075 194.17812Q25.631075 193.94374 25.4592 193.52187L26.74045 193.38124Q26.99045 193.94374 26.99045 194.67812Q26.99045 195.11562 26.849825 195.47499Q26.693575 195.83437 26.4592 196.00624Q26.2092 196.16249 25.818575 196.24062Q25.5217 196.28749 24.6467 196.28749L21.943575 196.28749L21.943575 197.03749L20.631075 197.03749L20.631075 196.28749L19.3967 196.28749L18.42795 194.63124L20.631075 194.63124L20.631075 193.50624ZM23.6467 192.74062Q22.8342 192.74062 22.068575 192.33437Q21.287325 191.92812 20.8967 191.19374Q20.49045 190.45937 20.49045 189.53749Q20.49045 188.13124 21.412325 187.22499Q22.318575 186.31874 23.724825 186.31874Q25.131075 186.31874 26.068575 187.24062Q26.99045 188.14687 26.99045 189.52187Q26.99045 190.38124 26.599825 191.16249Q26.2092 191.92812 25.474825 192.33437Q24.724825 192.74062 23.6467 192.74062ZM23.74045 191.05312Q24.662325 191.05312 25.162325 190.61562Q25.6467 190.17812 25.6467 189.53749Q25.6467 188.88124 25.162325 188.45937Q24.662325 188.02187 23.724825 188.02187Q22.818575 188.02187 22.3342 188.45937Q21.8342 188.88124 21.8342 189.53749Q21.8342 190.17812 22.3342 190.61562Q22.818575 191.05312 23.74045 191.05312ZM26.849825 179.70937L26.849825 181.34999L23.67795 181.34999Q22.662325 181.34999 22.36545 181.45937Q22.068575 181.55312 21.912325 181.80312Q21.74045 182.03749 21.74045 182.36562Q21.74045 182.80312 21.974825 183.14687Q22.2092 183.47499 22.599825 183.59999Q22.99045 183.72499 24.037325 183.72499L26.849825 183.72499L26.849825 185.38124L20.631075 185.38124L20.631075 183.84999L21.537325 183.84999Q20.49045 183.03749 20.49045 181.78749Q20.49045 181.25624 20.693575 180.80312Q20.881075 180.34999 21.193575 180.11562Q21.49045 179.88124 21.881075 179.80312Q22.256075 179.70937 22.974825 179.70937L26.849825 179.70937ZM26.849825 172.70937L26.849825 174.34999L23.67795 174.34999Q22.662325 174.34999 22.36545 174.45937Q22.068575 174.55312 21.912325 174.80312Q21.74045 175.03749 21.74045 175.36562Q21.74045 175.80312 21.974825 176.14687Q22.2092 176.47499 22.599825 176.59999Q22.99045 176.72499 24.037325 176.72499L26.849825 176.72499L26.849825 178.38124L20.631075 178.38124L20.631075 176.84999L21.537325 176.84999Q20.49045 176.03749 20.49045 174.78749Q20.49045 174.25624 20.693575 173.80312Q20.881075 173.34999 21.193575 173.11562Q21.49045 172.88124 21.881075 172.80312Q22.256075 172.70937 22.974825 172.70937L26.849825 172.70937ZM24.86545 167.75624L25.1467 166.11562Q26.05295 166.42812 26.5217 167.11562Q26.99045 167.80312 26.99045 168.81874Q26.99045 170.44374 25.92795 171.22499Q25.0842 171.84999 23.787325 171.84999Q22.24045 171.84999 21.36545 171.03749Q20.49045 170.22499 20.49045 168.99062Q20.49045 167.59999 21.412325 166.80312Q22.318575 165.99062 24.2092 166.03749L24.2092 170.16249Q24.943575 170.13124 25.349825 169.75624Q25.756075 169.38124 25.756075 168.80312Q25.756075 168.42812 25.55295 168.16249Q25.3342 167.89687 24.86545 167.75624ZM23.2092 167.66249Q22.49045 167.67812 22.11545 168.03749Q21.74045 168.38124 21.74045 168.89687Q21.74045 169.42812 22.131075 169.78749Q22.537325 170.13124 23.2092 170.13124L23.2092 167.66249ZM26.849825 158.70937L26.849825 160.34999L23.67795 160.34999Q22.662325 160.34999 22.36545 160.45937Q22.068575 160.55312 21.912325 160.80312Q21.74045 161.03749 21.74045 161.36562Q21.74045 161.80312 21.974825 162.14687Q22.2092 162.47499 22.599825 162.59999Q22.99045 162.72499 24.037325 162.72499L26.849825 162.72499L26.849825 164.38124L20.631075 164.38124L20.631075 162.84999L21.537325 162.84999Q20.49045 162.03749 20.49045 160.78749Q20.49045 160.25624 20.693575 159.80312Q20.881075 159.34999 21.193575 159.11562Q21.49045 158.88124 21.881075 158.80312Q22.256075 158.70937 22.974825 158.70937L26.849825 158.70937ZM23.693575 148.84999L24.224825 147.17812Q25.631075 147.55312 26.318575 148.45937Q26.99045 149.36562 26.99045 150.74062Q26.99045 152.45937 25.8342 153.56874Q24.662325 154.66249 22.631075 154.66249Q20.49045 154.66249 19.30295 153.55312Q18.11545 152.44374 18.11545 150.63124Q18.11545 149.05312 19.037325 148.06874Q19.599825 147.49062 20.631075 147.19374L21.037325 148.91249Q20.36545 149.06874 19.99045 149.55312Q19.599825 150.03749 19.599825 150.72499Q19.599825 151.67812 20.287325 152.27187Q20.9592 152.86562 22.506075 152.86562Q24.131075 152.86562 24.818575 152.28749Q25.506075 151.69374 25.506075 150.75624Q25.506075 150.06874 25.068575 149.56874Q24.631075 149.06874 23.693575 148.84999ZM22.599825 146.70937Q21.287325 146.70937 20.3967 146.30312Q19.74045 146.02187 19.224825 145.52187Q18.7092 145.00624 18.4592 144.39687Q18.11545 143.59999 18.11545 142.55312Q18.11545 140.64687 19.30295 139.50624Q20.474825 138.36562 22.568575 138.36562Q24.6467 138.36562 25.818575 139.50624Q26.99045 140.63124 26.99045 142.52187Q26.99045 144.44374 25.8342 145.58437Q24.662325 146.70937 22.599825 146.70937ZM22.55295 144.91249Q24.006075 144.91249 24.756075 144.24062Q25.506075 143.56874 25.506075 142.53749Q25.506075 141.49062 24.7717 140.83437Q24.0217 140.16249 22.5217 140.16249Q21.05295 140.16249 20.3342 140.81874Q19.599825 141.45937 19.599825 142.53749Q19.599825 143.59999 20.3342 144.25624Q21.068575 144.91249 22.55295 144.91249ZM25.318575 132.14687L26.849825 132.14687L26.849825 137.92812Q25.974825 137.83437 25.2092 137.36562Q24.42795 136.89687 23.1467 135.50624Q22.11545 134.39687 21.74045 134.14687Q21.224825 133.80312 20.724825 133.80312Q20.17795 133.80312 19.881075 134.09999Q19.5842 134.39687 19.5842 134.91249Q19.5842 135.42812 19.8967 135.74062Q20.2092 136.03749 20.92795 136.08437L20.7717 137.72499Q19.412325 137.58437 18.818575 136.81874Q18.224825 136.03749 18.224825 134.88124Q18.224825 133.59999 18.912325 132.88124Q19.599825 132.14687 20.61545 132.14687Q21.193575 132.14687 21.724825 132.36562Q22.24045 132.56874 22.818575 133.02187Q23.193575 133.31874 23.912325 134.09999Q24.631075 134.88124 24.86545 135.08437Q25.099825 135.28749 25.318575 135.42812L25.318575 132.14687Z" fill-rule="nonzero"/><path fill="#235753" d="M76.796875 289.875Q78.046875 289.875 78.75 290.76562Q79.578125 291.8125 79.578125 294.26562Q79.578125 296.70312 78.734375 297.76562Q78.046875 298.64062 76.796875 298.64062Q75.546875 298.64062 74.765625 297.6875Q74.0 296.71875 74.0 294.25Q74.0 291.8125 74.84375 290.75Q75.546875 289.875 76.796875 289.875ZM76.796875 291.23438Q76.5 291.23438 76.265625 291.4375Q76.03125 291.625 75.890625 292.10938Q75.734375 292.75 75.734375 294.26562Q75.734375 295.78125 75.875 296.34375Q76.03125 296.90625 76.265625 297.09375Q76.5 297.28125 76.796875 297.28125Q77.09375 297.28125 77.328125 297.09375Q77.5625 296.90625 77.6875 296.40625Q77.859375 295.78125 77.859375 294.26562Q77.859375 292.75 77.703125 292.1875Q77.5625 291.625 77.328125 291.4375Q77.09375 291.23438 76.796875 291.23438Z" fill-rule="nonzero"/><path fill="#235753" d="M55.578125 229.71875L55.578125 231.25L49.796875 231.25Q49.890625 230.375 50.359375 229.60938Q50.828125 228.82812 52.21875 227.54688Q53.328125 226.51562 53.578125 226.14062Q53.921875 225.625 53.921875 225.125Q53.921875 224.57812 53.625 224.28125Q53.328125 223.98438 52.8125 223.98438Q52.296875 223.98438 51.984375 224.29688Q51.6875 224.60938 51.640625 225.32812L50.0 225.17188Q50.140625 223.8125 50.90625 223.21875Q51.6875 222.625 52.84375 222.625Q54.125 222.625 54.84375 223.3125Q55.578125 224.0 55.578125 225.01562Q55.578125 225.59375 55.359375 226.125Q55.15625 226.64062 54.703125 227.21875Q54.40625 227.59375 53.625 228.3125Q52.84375 229.03125 52.640625 229.26562Q52.4375 229.5 52.296875 229.71875L55.578125 229.71875ZM57.359375 231.25L57.359375 229.60938L59.015625 229.60938L59.015625 231.25L57.359375 231.25ZM60.03125 229.04688L61.671875 228.875Q61.75 229.42188 62.09375 229.75Q62.4375 230.07812 62.890625 230.07812Q63.40625 230.07812 63.765625 229.65625Q64.125 229.23438 64.125 228.39062Q64.125 227.60938 63.765625 227.21875Q63.40625 226.8125 62.84375 226.8125Q62.125 226.8125 61.5625 227.4375L60.234375 227.25L61.078125 222.78125L65.4375 222.78125L65.4375 224.3125L62.328125 224.3125L62.0625 225.78125Q62.625 225.5 63.1875 225.5Q64.28125 225.5 65.046875 226.29688Q65.8125 227.09375 65.8125 228.35938Q65.8125 229.42188 65.203125 230.26562Q64.359375 231.39062 62.875 231.39062Q61.6875 231.39062 60.9375 230.76562Q60.1875 230.125 60.03125 229.04688ZM69.796875 222.625Q71.046875 222.625 71.75 223.51562Q72.578125 224.5625 72.578125 227.01562Q72.578125 229.45312 71.734375 230.51562Q71.046875 231.39062 69.796875 231.39062Q68.546875 231.39062 67.765625 230.4375Q67.0 229.46875 67.0 227.0Q67.0 224.5625 67.84375 223.5Q68.546875 222.625 69.796875 222.625ZM69.796875 223.98438Q69.5 223.98438 69.265625 224.1875Q69.03125 224.375 68.890625 224.85938Q68.734375 225.5 68.734375 227.01562Q68.734375 228.53125 68.875 229.09375Q69.03125 229.65625 69.265625 229.84375Q69.5 230.03125 69.796875 230.03125Q70.09375 230.03125 70.328125 229.84375Q70.5625 229.65625 70.6875 229.15625Q70.859375 228.53125 70.859375 227.01562Q70.859375 225.5 70.703125 224.9375Q70.5625 224.375 70.328125 224.1875Q70.09375 223.98438 69.796875 223.98438ZM76.796875 222.625Q78.046875 222.625 78.75 223.51562Q79.578125 224.5625 79.578125 227.01562Q79.578125 229.45312 78.734375 230.51562Q78.046875 231.39062 76.796875 231.39062Q75.546875 231.39062 74.765625 230.4375Q74.0 229.46875 74.0 227.0Q74.0 224.5625 74.84375 223.5Q75.546875 222.625 76.796875 222.625ZM76.796875 223.98438Q76.5 223.98438 76.265625 224.1875Q76.03125 224.375 75.890625 224.85938Q75.734375 225.5 75.734375 227.01562Q75.734375 228.53125 75.875 229.09375Q76.03125 229.65625 76.265625 229.84375Q76.5 230.03125 76.796875 230.03125Q77.09375 230.03125 77.328125 229.84375Q77.5625 229.65625 77.6875 229.15625Q77.859375 228.53125 77.859375 227.01562Q77.859375 225.5 77.703125 224.9375Q77.5625 224.375 77.328125 224.1875Q77.09375 223.98438 76.796875 223.98438Z" fill-rule="nonzero"/><path fill="#235753" d="M50.03125 161.79688L51.671875 161.625Q51.75 162.17188 52.09375 162.5Q52.4375 162.82812 52.890625 162.82812Q53.40625 162.82812 53.765625 162.40625Q54.125 161.98438 54.125 161.14062Q54.125 160.35938 53.765625 159.96875Q53.40625 159.5625 52.84375 159.5625Q52.125 159.5625 51.5625 160.1875L50.234375 160.0L51.078125 155.53125L55.4375 155.53125L55.4375 157.0625L52.328125 157.0625L52.0625 158.53125Q52.625 158.25 53.1875 158.25Q54.28125 158.25 55.046875 159.04688Q55.8125 159.84375 55.8125 161.10938Q55.8125 162.17188 55.203125 163.01562Q54.359375 164.14062 52.875 164.14062Q51.6875 164.14062 50.9375 163.51562Q50.1875 162.875 50.03125 161.79688ZM57.359375 164.0L57.359375 162.35938L59.015625 162.35938L59.015625 164.0L57.359375 164.0ZM62.796875 155.375Q64.046875 155.375 64.75 156.26562Q65.578125 157.3125 65.578125 159.76562Q65.578125 162.20312 64.734375 163.26562Q64.046875 164.14062 62.796875 164.14062Q61.546875 164.14062 60.765625 163.1875Q60.0 162.21875 60.0 159.75Q60.0 157.3125 60.84375 156.25Q61.546875 155.375 62.796875 155.375ZM62.796875 156.73438Q62.5 156.73438 62.265625 156.9375Q62.03125 157.125 61.890625 157.60938Q61.734375 158.25 61.734375 159.76562Q61.734375 161.28125 61.875 161.84375Q62.03125 162.40625 62.265625 162.59375Q62.5 162.78125 62.796875 162.78125Q63.09375 162.78125 63.328125 162.59375Q63.5625 162.40625 63.6875 161.90625Q63.859375 161.28125 63.859375 159.76562Q63.859375 158.25 63.703125 157.6875Q63.5625 157.125 63.328125 156.9375Q63.09375 156.73438 62.796875 156.73438ZM69.796875 155.375Q71.046875 155.375 71.75 156.26562Q72.578125 157.3125 72.578125 159.76562Q72.578125 162.20312 71.734375 163.26562Q71.046875 164.14062 69.796875 164.14062Q68.546875 164.14062 67.765625 163.1875Q67.0 162.21875 67.0 159.75Q67.0 157.3125 67.84375 156.25Q68.546875 155.375 69.796875 155.375ZM69.796875 156.73438Q69.5 156.73438 69.265625 156.9375Q69.03125 157.125 68.890625 157.60938Q68.734375 158.25 68.734375 159.76562Q68.734375 161.28125 68.875 161.84375Q69.03125 162.40625 69.265625 162.59375Q69.5 162.78125 69.796875 162.78125Q70.09375 162.78125 70.328125 162.59375Q70.5625 162.40625 70.6875 161.90625Q70.859375 161.28125 70.859375 159.76562Q70.859375 158.25 70.703125 157.6875Q70.5625 157.125 70.328125 156.9375Q70.09375 156.73438 69.796875 156.73438ZM76.796875 155.375Q78.046875 155.375 78.75 156.26562Q79.578125 157.3125 79.578125 159.76562Q79.578125 162.20312 78.734375 163.26562Q78.046875 164.14062 76.796875 164.14062Q75.546875 164.14062 74.765625 163.1875Q74.0 162.21875 74.0 159.75Q74.0 157.3125 74.84375 156.25Q75.546875 155.375 76.796875 155.375ZM76.796875 156.73438Q76.5 156.73438 76.265625 156.9375Q76.03125 157.125 75.890625 157.60938Q75.734375 158.25 75.734375 159.76562Q75.734375 161.28125 75.875 161.84375Q76.03125 162.40625 76.265625 162.59375Q76.5 162.78125 76.796875 162.78125Q77.09375 162.78125 77.328125 162.59375Q77.5625 162.40625 77.6875 161.90625Q77.859375 161.28125 77.859375 159.76562Q77.859375 158.25 77.703125 157.6875Q77.5625 157.125 77.328125 156.9375Q77.09375 156.73438 76.796875 156.73438Z" fill-rule="nonzero"/><path fill="#235753" d="M50.015625 89.8125L50.015625 88.28125L55.640625 88.28125L55.640625 89.46875Q54.9375 90.15625 54.21875 91.4375Q53.5 92.71875 53.125 94.171875Q52.75 95.609375 52.75 96.75L51.171875 96.75Q51.203125 94.96875 51.890625 93.125Q52.59375 91.265625 53.75 89.8125L50.015625 89.8125ZM57.359375 96.75L57.359375 95.109375L59.015625 95.109375L59.015625 96.75L57.359375 96.75ZM60.03125 94.546875L61.671875 94.375Q61.75 94.921875 62.09375 95.25Q62.4375 95.578125 62.890625 95.578125Q63.40625 95.578125 63.765625 95.15625Q64.125 94.734375 64.125 93.890625Q64.125 93.109375 63.765625 92.71875Q63.40625 92.3125 62.84375 92.3125Q62.125 92.3125 61.5625 92.9375L60.234375 92.75L61.078125 88.28125L65.4375 88.28125L65.4375 89.8125L62.328125 89.8125L62.0625 91.28125Q62.625 91.0 63.1875 91.0Q64.28125 91.0 65.046875 91.796875Q65.8125 92.59375 65.8125 93.859375Q65.8125 94.921875 65.203125 95.765625Q64.359375 96.890625 62.875 96.890625Q61.6875 96.890625 60.9375 96.265625Q60.1875 95.625 60.03125 94.546875ZM69.796875 88.125Q71.046875 88.125 71.75 89.015625Q72.578125 90.0625 72.578125 92.515625Q72.578125 94.953125 71.734375 96.015625Q71.046875 96.890625 69.796875 96.890625Q68.546875 96.890625 67.765625 95.9375Q67.0 94.96875 67.0 92.5Q67.0 90.0625 67.84375 89.0Q68.546875 88.125 69.796875 88.125ZM69.796875 89.484375Q69.5 89.484375 69.265625 89.6875Q69.03125 89.875 68.890625 90.359375Q68.734375 91.0 68.734375 92.515625Q68.734375 94.03125 68.875 94.59375Q69.03125 95.15625 69.265625 95.34375Q69.5 95.53125 69.796875 95.53125Q70.09375 95.53125 70.328125 95.34375Q70.5625 95.15625 70.6875 94.65625Q70.859375 94.03125 70.859375 92.515625Q70.859375 91.0 70.703125 90.4375Q70.5625 89.875 70.328125 89.6875Q70.09375 89.484375 69.796875 89.484375ZM76.796875 88.125Q78.046875 88.125 78.75 89.015625Q79.578125 90.0625 79.578125 92.515625Q79.578125 94.953125 78.734375 96.015625Q78.046875 96.890625 76.796875 96.890625Q75.546875 96.890625 74.765625 95.9375Q74.0 94.96875 74.0 92.5Q74.0 90.0625 74.84375 89.0Q75.546875 88.125 76.796875 88.125ZM76.796875 89.484375Q76.5 89.484375 76.265625 89.6875Q76.03125 89.875 75.890625 90.359375Q75.734375 91.0 75.734375 92.515625Q75.734375 94.03125 75.875 94.59375Q76.03125 95.15625 76.265625 95.34375Q76.5 95.53125 76.796875 95.53125Q77.09375 95.53125 77.328125 95.34375Q77.5625 95.15625 77.6875 94.65625Q77.859375 94.03125 77.859375 92.515625Q77.859375 91.0 77.703125 90.4375Q77.5625 89.875 77.328125 89.6875Q77.09375 89.484375 76.796875 89.484375Z" fill-rule="nonzero"/><path fill="#235753" d="M47.21875 29.5L45.578125 29.5L45.578125 23.296875Q44.671875 24.140625 43.453125 24.546875L43.453125 23.046875Q44.09375 22.84375 44.84375 22.25Q45.609375 21.65625 45.890625 20.875L47.21875 20.875L47.21875 29.5ZM52.796875 20.875Q54.046875 20.875 54.75 21.765625Q55.578125 22.8125 55.578125 25.265625Q55.578125 27.703125 54.734375 28.765625Q54.046875 29.640625 52.796875 29.640625Q51.546875 29.640625 50.765625 28.6875Q50.0 27.71875 50.0 25.25Q50.0 22.8125 50.84375 21.75Q51.546875 20.875 52.796875 20.875ZM52.796875 22.234375Q52.5 22.234375 52.265625 22.4375Q52.03125 22.625 51.890625 23.109375Q51.734375 23.75 51.734375 25.265625Q51.734375 26.78125 51.875 27.34375Q52.03125 27.90625 52.265625 28.09375Q52.5 28.28125 52.796875 28.28125Q53.09375 28.28125 53.328125 28.09375Q53.5625 27.90625 53.6875 27.40625Q53.859375 26.78125 53.859375 25.265625Q53.859375 23.75 53.703125 23.1875Q53.5625 22.625 53.328125 22.4375Q53.09375 22.234375 52.796875 22.234375ZM57.359375 29.5L57.359375 27.859375L59.015625 27.859375L59.015625 29.5L57.359375 29.5ZM62.796875 20.875Q64.046875 20.875 64.75 21.765625Q65.578125 22.8125 65.578125 25.265625Q65.578125 27.703125 64.734375 28.765625Q64.046875 29.640625 62.796875 29.640625Q61.546875 29.640625 60.765625 28.6875Q60.0 27.71875 60.0 25.25Q60.0 22.8125 60.84375 21.75Q61.546875 20.875 62.796875 20.875ZM62.796875 22.234375Q62.5 22.234375 62.265625 22.4375Q62.03125 22.625 61.890625 23.109375Q61.734375 23.75 61.734375 25.265625Q61.734375 26.78125 61.875 27.34375Q62.03125 27.90625 62.265625 28.09375Q62.5 28.28125 62.796875 28.28125Q63.09375 28.28125 63.328125 28.09375Q63.5625 27.90625 63.6875 27.40625Q63.859375 26.78125 63.859375 25.265625Q63.859375 23.75 63.703125 23.1875Q63.5625 22.625 63.328125 22.4375Q63.09375 22.234375 62.796875 22.234375ZM69.796875 20.875Q71.046875 20.875 71.75 21.765625Q72.578125 22.8125 72.578125 25.265625Q72.578125 27.703125 71.734375 28.765625Q71.046875 29.640625 69.796875 29.640625Q68.546875 29.640625 67.765625 28.6875Q67.0 27.71875 67.0 25.25Q67.0 22.8125 67.84375 21.75Q68.546875 20.875 69.796875 20.875ZM69.796875 22.234375Q69.5 22.234375 69.265625 22.4375Q69.03125 22.625 68.890625 23.109375Q68.734375 23.75 68.734375 25.265625Q68.734375 26.78125 68.875 27.34375Q69.03125 27.90625 69.265625 28.09375Q69.5 28.28125 69.796875 28.28125Q70.09375 28.28125 70.328125 28.09375Q70.5625 27.90625 70.6875 27.40625Q70.859375 26.78125 70.859375 25.265625Q70.859375 23.75 70.703125 23.1875Q70.5625 22.625 70.328125 22.4375Q70.09375 22.234375 69.796875 22.234375ZM76.796875 20.875Q78.046875 20.875 78.75 21.765625Q79.578125 22.8125 79.578125 25.265625Q79.578125 27.703125 78.734375 28.765625Q78.046875 29.640625 76.796875 29.640625Q75.546875 29.640625 74.765625 28.6875Q74.0 27.71875 74.0 25.25Q74.0 22.8125 74.84375 21.75Q75.546875 20.875 76.796875 20.875ZM76.796875 22.234375Q76.5 22.234375 76.265625 22.4375Q76.03125 22.625 75.890625 23.109375Q75.734375 23.75 75.734375 25.265625Q75.734375 26.78125 75.875 27.34375Q76.03125 27.90625 76.265625 28.09375Q76.5 28.28125 76.796875 28.28125Q77.09375 28.28125 77.328125 28.09375Q77.5625 27.90625 77.6875 27.40625Q77.859375 26.78125 77.859375 25.265625Q77.859375 23.75 77.703125 23.1875Q77.5625 22.625 77.328125 22.4375Q77.09375 22.234375 76.796875 22.234375Z" fill-rule="nonzero"/><path fill="#235753" d="M94.54417 309.96875L94.54417 311.5L88.76292 311.5Q88.85667 310.625 89.32542 309.85938Q89.79417 309.07812 91.18479 307.79688Q92.29417 306.76562 92.54417 306.39062Q92.88792 305.875 92.88792 305.375Q92.88792 304.82812 92.59104 304.53125Q92.29417 304.23438 91.77854 304.23438Q91.26292 304.23438 90.95042 304.54688Q90.65354 304.85938 90.60667 305.57812L88.96604 305.42188Q89.10667 304.0625 89.87229 303.46875Q90.65354 302.875 91.80979 302.875Q93.09104 302.875 93.80979 303.5625Q94.54417 304.25 94.54417 305.26562Q94.54417 305.84375 94.32542 306.375Q94.12229 306.89062 93.66917 307.46875Q93.37229 307.84375 92.59104 308.5625Q91.80979 309.28125 91.60667 309.51562Q91.40354 309.75 91.26292 309.96875L94.54417 309.96875ZM98.76292 302.875Q100.01292 302.875 100.71604 303.76562Q101.54417 304.8125 101.54417 307.26562Q101.54417 309.70312 100.70042 310.76562Q100.01292 311.64062 98.76292 311.64062Q97.51292 311.64062 96.73167 310.6875Q95.96604 309.71875 95.96604 307.25Q95.96604 304.8125 96.80979 303.75Q97.51292 302.875 98.76292 302.875ZM98.76292 304.23438Q98.46604 304.23438 98.23167 304.4375Q97.99729 304.625 97.85667 305.10938Q97.70042 305.75 97.70042 307.26562Q97.70042 308.78125 97.84104 309.34375Q97.99729 309.90625 98.23167 310.09375Q98.46604 310.28125 98.76292 310.28125Q99.05979 310.28125 99.29417 310.09375Q99.52854 309.90625 99.65354 309.40625Q99.82542 308.78125 99.82542 307.26562Q99.82542 305.75 99.66917 305.1875Q99.52854 304.625 99.29417 304.4375Q99.05979 304.23438 98.76292 304.23438ZM108.54417 309.96875L108.54417 311.5L102.76292 311.5Q102.85667 310.625 103.32542 309.85938Q103.79417 309.07812 105.18479 307.79688Q106.29417 306.76562 106.54417 306.39062Q106.88792 305.875 106.88792 305.375Q106.88792 304.82812 106.59104 304.53125Q106.29417 304.23438 105.77854 304.23438Q105.26292 304.23438 104.95042 304.54688Q104.65354 304.85938 104.60667 305.57812L102.96604 305.42188Q103.10667 304.0625 103.87229 303.46875Q104.65354 302.875 105.80979 302.875Q107.09104 302.875 107.80979 303.5625Q108.54417 304.25 108.54417 305.26562Q108.54417 305.84375 108.32542 306.375Q108.12229 306.89062 107.66917 307.46875Q107.37229 307.84375 106.59104 308.5625Q105.80979 309.28125 105.60667 309.51562Q105.40354 309.75 105.26292 309.96875L108.54417 309.96875ZM109.99729 309.29688L111.63792 309.125Q111.71604 309.67188 112.05979 310.0Q112.40354 310.32812 112.85667 310.32812Q113.37229 310.32812 113.73167 309.90625Q114.09104 309.48438 114.09104 308.64062Q114.09104 307.85938 113.73167 307.46875Q113.37229 307.0625 112.80979 307.0625Q112.09104 307.0625 111.52854 307.6875L110.20042 307.5L111.04417 303.03125L115.40354 303.03125L115.40354 304.5625L112.29417 304.5625L112.02854 306.03125Q112.59104 305.75 113.15354 305.75Q114.24729 305.75 115.01292 306.54688Q115.77854 307.34375 115.77854 308.60938Q115.77854 309.67188 115.16917 310.51562Q114.32542 311.64062 112.84104 311.64062Q111.65354 311.64062 110.90354 311.01562Q110.15354 310.375 109.99729 309.29688Z" fill-rule="nonzero"/><path fill="#235753" d="M212.81114 309.96875L212.81114 311.5L207.02989 311.5Q207.12364 310.625 207.59239 309.85938Q208.06114 309.07812 209.45177 307.79688Q210.56114 306.76562 210.81114 306.39062Q211.15489 305.875 211.15489 305.375Q211.15489 304.82812 210.85802 304.53125Q210.56114 304.23438 210.04552 304.23438Q209.52989 304.23438 209.21739 304.54688Q208.92052 304.85938 208.87364 305.57812L207.23302 305.42188Q207.37364 304.0625 208.13927 303.46875Q208.92052 302.875 210.07677 302.875Q211.35802 302.875 212.07677 303.5625Q212.81114 304.25 212.81114 305.26562Q212.81114 305.84375 212.59239 306.375Q212.38927 306.89062 211.93614 307.46875Q211.63927 307.84375 210.85802 308.5625Q210.07677 309.28125 209.87364 309.51562Q209.67052 309.75 209.52989 309.96875L212.81114 309.96875ZM217.02989 302.875Q218.27989 302.875 218.98302 303.76562Q219.81114 304.8125 219.81114 307.26562Q219.81114 309.70312 218.96739 310.76562Q218.27989 311.64062 217.02989 311.64062Q215.77989 311.64062 214.99864 310.6875Q214.23302 309.71875 214.23302 307.25Q214.23302 304.8125 215.07677 303.75Q215.77989 302.875 217.02989 302.875ZM217.02989 304.23438Q216.73302 304.23438 216.49864 304.4375Q216.26427 304.625 216.12364 305.10938Q215.96739 305.75 215.96739 307.26562Q215.96739 308.78125 216.10802 309.34375Q216.26427 309.90625 216.49864 310.09375Q216.73302 310.28125 217.02989 310.28125Q217.32677 310.28125 217.56114 310.09375Q217.79552 309.90625 217.92052 309.40625Q218.09239 308.78125 218.09239 307.26562Q218.09239 305.75 217.93614 305.1875Q217.79552 304.625 217.56114 304.4375Q217.32677 304.23438 217.02989 304.23438ZM221.18614 309.21875L222.77989 309.03125Q222.85802 309.64062 223.18614 309.96875Q223.52989 310.28125 223.99864 310.28125Q224.51427 310.28125 224.85802 309.89062Q225.20177 309.5 225.20177 308.84375Q225.20177 308.23438 224.85802 307.875Q224.52989 307.5 224.06114 307.5Q223.73302 307.5 223.29552 307.625L223.48302 306.28125Q224.15489 306.29688 224.49864 306.0Q224.85802 305.6875 224.85802 305.17188Q224.85802 304.75 224.59239 304.5Q224.34239 304.23438 223.90489 304.23438Q223.48302 304.23438 223.18614 304.53125Q222.88927 304.8125 222.82677 305.375L221.31114 305.125Q221.46739 304.34375 221.77989 303.875Q222.10802 303.40625 222.67052 303.14062Q223.24864 302.875 223.95177 302.875Q225.17052 302.875 225.90489 303.64062Q226.49864 304.28125 226.49864 305.07812Q226.49864 306.20312 225.26427 306.875Q226.01427 307.04688 226.45177 307.59375Q226.88927 308.14062 226.88927 308.92188Q226.88927 310.04688 226.06114 310.84375Q225.23302 311.64062 224.01427 311.64062Q222.84239 311.64062 222.07677 310.96875Q221.31114 310.29688 221.18614 309.21875ZM231.02989 302.875Q232.27989 302.875 232.98302 303.76562Q233.81114 304.8125 233.81114 307.26562Q233.81114 309.70312 232.96739 310.76562Q232.27989 311.64062 231.02989 311.64062Q229.77989 311.64062 228.99864 310.6875Q228.23302 309.71875 228.23302 307.25Q228.23302 304.8125 229.07677 303.75Q229.77989 302.875 231.02989 302.875ZM231.02989 304.23438Q230.73302 304.23438 230.49864 304.4375Q230.26427 304.625 230.12364 305.10938Q229.96739 305.75 229.96739 307.26562Q229.96739 308.78125 230.10802 309.34375Q230.26427 309.90625 230.49864 310.09375Q230.73302 310.28125 231.02989 310.28125Q231.32677 310.28125 231.56114 310.09375Q231.79552 309.90625 231.92052 309.40625Q232.09239 308.78125 232.09239 307.26562Q232.09239 305.75 231.93614 305.1875Q231.79552 304.625 231.56114 304.4375Q231.32677 304.23438 231.02989 304.23438Z" fill-rule="nonzero"/><path fill="#235753" d="M331.07812 309.96875L331.07812 311.5L325.29688 311.5Q325.39062 310.625 325.85938 309.85938Q326.32812 309.07812 327.71875 307.79688Q328.82812 306.76562 329.07812 306.39062Q329.42188 305.875 329.42188 305.375Q329.42188 304.82812 329.125 304.53125Q328.82812 304.23438 328.3125 304.23438Q327.79688 304.23438 327.48438 304.54688Q327.1875 304.85938 327.14062 305.57812L325.5 305.42188Q325.64062 304.0625 326.40625 303.46875Q327.1875 302.875 328.34375 302.875Q329.625 302.875 330.34375 303.5625Q331.07812 304.25 331.07812 305.26562Q331.07812 305.84375 330.85938 306.375Q330.65625 306.89062 330.20312 307.46875Q329.90625 307.84375 329.125 308.5625Q328.34375 309.28125 328.14062 309.51562Q327.9375 309.75 327.79688 309.96875L331.07812 309.96875ZM335.29688 302.875Q336.54688 302.875 337.25 303.76562Q338.07812 304.8125 338.07812 307.26562Q338.07812 309.70312 337.23438 310.76562Q336.54688 311.64062 335.29688 311.64062Q334.04688 311.64062 333.26562 310.6875Q332.5 309.71875 332.5 307.25Q332.5 304.8125 333.34375 303.75Q334.04688 302.875 335.29688 302.875ZM335.29688 304.23438Q335.0 304.23438 334.76562 304.4375Q334.53125 304.625 334.39062 305.10938Q334.23438 305.75 334.23438 307.26562Q334.23438 308.78125 334.375 309.34375Q334.53125 309.90625 334.76562 310.09375Q335.0 310.28125 335.29688 310.28125Q335.59375 310.28125 335.82812 310.09375Q336.0625 309.90625 336.1875 309.40625Q336.35938 308.78125 336.35938 307.26562Q336.35938 305.75 336.20312 305.1875Q336.0625 304.625 335.82812 304.4375Q335.59375 304.23438 335.29688 304.23438ZM339.45312 309.21875L341.04688 309.03125Q341.125 309.64062 341.45312 309.96875Q341.79688 310.28125 342.26562 310.28125Q342.78125 310.28125 343.125 309.89062Q343.46875 309.5 343.46875 308.84375Q343.46875 308.23438 343.125 307.875Q342.79688 307.5 342.32812 307.5Q342.0 307.5 341.5625 307.625L341.75 306.28125Q342.42188 306.29688 342.76562 306.0Q343.125 305.6875 343.125 305.17188Q343.125 304.75 342.85938 304.5Q342.60938 304.23438 342.17188 304.23438Q341.75 304.23438 341.45312 304.53125Q341.15625 304.8125 341.09375 305.375L339.57812 305.125Q339.73438 304.34375 340.04688 303.875Q340.375 303.40625 340.9375 303.14062Q341.51562 302.875 342.21875 302.875Q343.4375 302.875 344.17188 303.64062Q344.76562 304.28125 344.76562 305.07812Q344.76562 306.20312 343.53125 306.875Q344.28125 307.04688 344.71875 307.59375Q345.15625 308.14062 345.15625 308.92188Q345.15625 310.04688 344.32812 310.84375Q343.5 311.64062 342.28125 311.64062Q341.10938 311.64062 340.34375 310.96875Q339.57812 310.29688 339.45312 309.21875ZM346.53125 309.29688L348.17188 309.125Q348.25 309.67188 348.59375 310.0Q348.9375 310.32812 349.39062 310.32812Q349.90625 310.32812 350.26562 309.90625Q350.625 309.48438 350.625 308.64062Q350.625 307.85938 350.26562 307.46875Q349.90625 307.0625 349.34375 307.0625Q348.625 307.0625 348.0625 307.6875L346.73438 307.5L347.57812 303.03125L351.9375 303.03125L351.9375 304.5625L348.82812 304.5625L348.5625 306.03125Q349.125 305.75 349.6875 305.75Q350.78125 305.75 351.54688 306.54688Q352.3125 307.34375 352.3125 308.60938Q352.3125 309.67188 351.70312 310.51562Q350.85938 311.64062 349.375 311.64062Q348.1875 311.64062 347.4375 311.01562Q346.6875 310.375 346.53125 309.29688Z" fill-rule="nonzero"/><path fill="#235753" d="M449.3451 309.96875L449.3451 311.5L443.56384 311.5Q443.6576 310.625 444.12634 309.85938Q444.5951 309.07812 445.98572 307.79688Q447.0951 306.76562 447.3451 306.39062Q447.68884 305.875 447.68884 305.375Q447.68884 304.82812 447.39197 304.53125Q447.0951 304.23438 446.57947 304.23438Q446.06384 304.23438 445.75134 304.54688Q445.45447 304.85938 445.4076 305.57812L443.76697 305.42188Q443.9076 304.0625 444.67322 303.46875Q445.45447 302.875 446.61072 302.875Q447.89197 302.875 448.61072 303.5625Q449.3451 304.25 449.3451 305.26562Q449.3451 305.84375 449.12634 306.375Q448.92322 306.89062 448.4701 307.46875Q448.17322 307.84375 447.39197 308.5625Q446.61072 309.28125 446.4076 309.51562Q446.20447 309.75 446.06384 309.96875L449.3451 309.96875ZM453.56384 302.875Q454.81384 302.875 455.51697 303.76562Q456.3451 304.8125 456.3451 307.26562Q456.3451 309.70312 455.50134 310.76562Q454.81384 311.64062 453.56384 311.64062Q452.31384 311.64062 451.5326 310.6875Q450.76697 309.71875 450.76697 307.25Q450.76697 304.8125 451.61072 303.75Q452.31384 302.875 453.56384 302.875ZM453.56384 304.23438Q453.26697 304.23438 453.0326 304.4375Q452.79822 304.625 452.6576 305.10938Q452.50134 305.75 452.50134 307.26562Q452.50134 308.78125 452.64197 309.34375Q452.79822 309.90625 453.0326 310.09375Q453.26697 310.28125 453.56384 310.28125Q453.86072 310.28125 454.0951 310.09375Q454.32947 309.90625 454.45447 309.40625Q454.62634 308.78125 454.62634 307.26562Q454.62634 305.75 454.4701 305.1875Q454.32947 304.625 454.0951 304.4375Q453.86072 304.23438 453.56384 304.23438ZM461.00134 311.5L461.00134 309.76562L457.48572 309.76562L457.48572 308.32812L461.2201 302.875L462.5951 302.875L462.5951 308.32812L463.67322 308.32812L463.67322 309.76562L462.5951 309.76562L462.5951 311.5L461.00134 311.5ZM461.00134 308.32812L461.00134 305.39062L459.0326 308.32812L461.00134 308.32812ZM467.56384 302.875Q468.81384 302.875 469.51697 303.76562Q470.3451 304.8125 470.3451 307.26562Q470.3451 309.70312 469.50134 310.76562Q468.81384 311.64062 467.56384 311.64062Q466.31384 311.64062 465.5326 310.6875Q464.76697 309.71875 464.76697 307.25Q464.76697 304.8125 465.61072 303.75Q466.31384 302.875 467.56384 302.875ZM467.56384 304.23438Q467.26697 304.23438 467.0326 304.4375Q466.79822 304.625 466.6576 305.10938Q466.50134 305.75 466.50134 307.26562Q466.50134 308.78125 466.64197 309.34375Q466.79822 309.90625 467.0326 310.09375Q467.26697 310.28125 467.56384 310.28125Q467.86072 310.28125 468.0951 310.09375Q468.32947 309.90625 468.45447 309.40625Q468.62634 308.78125 468.62634 307.26562Q468.62634 305.75 468.4701 305.1875Q468.32947 304.625 468.0951 304.4375Q467.86072 304.23438 467.56384 304.23438Z" fill-rule="nonzero"/><path fill="#235753" d="M567.61206 309.96875L567.61206 311.5L561.8308 311.5Q561.92456 310.625 562.3933 309.85938Q562.86206 309.07812 564.2527 307.79688Q565.36206 306.76562 565.61206 306.39062Q565.9558 305.875 565.9558 305.375Q565.9558 304.82812 565.65894 304.53125Q565.36206 304.23438 564.84644 304.23438Q564.3308 304.23438 564.0183 304.54688Q563.72144 304.85938 563.67456 305.57812L562.03394 305.42188Q562.17456 304.0625 562.9402 303.46875Q563.72144 302.875 564.8777 302.875Q566.15894 302.875 566.8777 303.5625Q567.61206 304.25 567.61206 305.26562Q567.61206 305.84375 567.3933 306.375Q567.1902 306.89062 566.73706 307.46875Q566.4402 307.84375 565.65894 308.5625Q564.8777 309.28125 564.67456 309.51562Q564.47144 309.75 564.3308 309.96875L567.61206 309.96875ZM571.8308 302.875Q573.0808 302.875 573.78394 303.76562Q574.61206 304.8125 574.61206 307.26562Q574.61206 309.70312 573.7683 310.76562Q573.0808 311.64062 571.8308 311.64062Q570.5808 311.64062 569.79956 310.6875Q569.03394 309.71875 569.03394 307.25Q569.03394 304.8125 569.8777 303.75Q570.5808 302.875 571.8308 302.875ZM571.8308 304.23438Q571.53394 304.23438 571.29956 304.4375Q571.0652 304.625 570.92456 305.10938Q570.7683 305.75 570.7683 307.26562Q570.7683 308.78125 570.90894 309.34375Q571.0652 309.90625 571.29956 310.09375Q571.53394 310.28125 571.8308 310.28125Q572.1277 310.28125 572.36206 310.09375Q572.59644 309.90625 572.72144 309.40625Q572.8933 308.78125 572.8933 307.26562Q572.8933 305.75 572.73706 305.1875Q572.59644 304.625 572.36206 304.4375Q572.1277 304.23438 571.8308 304.23438ZM579.2683 311.5L579.2683 309.76562L575.7527 309.76562L575.7527 308.32812L579.48706 302.875L580.86206 302.875L580.86206 308.32812L581.9402 308.32812L581.9402 309.76562L580.86206 309.76562L580.86206 311.5L579.2683 311.5ZM579.2683 308.32812L579.2683 305.39062L577.29956 308.32812L579.2683 308.32812ZM583.0652 309.29688L584.7058 309.125Q584.78394 309.67188 585.1277 310.0Q585.47144 310.32812 585.92456 310.32812Q586.4402 310.32812 586.79956 309.90625Q587.15894 309.48438 587.15894 308.64062Q587.15894 307.85938 586.79956 307.46875Q586.4402 307.0625 585.8777 307.0625Q585.15894 307.0625 584.59644 307.6875L583.2683 307.5L584.11206 303.03125L588.47144 303.03125L588.47144 304.5625L585.36206 304.5625L585.09644 306.03125Q585.65894 305.75 586.22144 305.75Q587.3152 305.75 588.0808 306.54688Q588.84644 307.34375 588.84644 308.60938Q588.84644 309.67188 588.23706 310.51562Q587.3933 311.64062 585.90894 311.64062Q584.72144 311.64062 583.97144 311.01562Q583.22144 310.375 583.0652 309.29688Z" fill-rule="nonzero"/></svg>