<svg version="1.1" viewBox="0.0 0.0 602.0 371.0" fill="none" stroke="none" stroke-linecap="square"
     stroke-miterlimit="10" width="602" height="371" xmlns:xlink="http://www.w3.org/1999/xlink"
     xmlns="http://www.w3.org/2000/svg">
    <path fill="#ffffff" fill-opacity="0.0" d="M0 0L602.0 0L602.0 371.0L0 371.0L0 0Z" fill-rule="nonzero"/>
    <path stroke="#ffffff" stroke-width="1.0" stroke-linecap="butt" d="M86.5 324.5L591.5 324.5" fill-rule="nonzero"/>
    <path stroke="#f5cde2" stroke-width="1.0" stroke-linecap="butt" d="M86.5 257.5L591.5 257.5" fill-rule="nonzero"/>
    <path stroke="#f5cde2" stroke-width="1.0" stroke-linecap="butt" d="M86.5 190.5L591.5 190.5" fill-rule="nonzero"/>
    <path stroke="#f5cde2" stroke-width="1.0" stroke-linecap="butt" d="M86.5 122.5L591.5 122.5" fill-rule="nonzero"/>
    <path stroke="#f5cde2" stroke-width="1.0" stroke-linecap="butt" d="M86.5 55.5L591.5 55.5" fill-rule="nonzero"/>
    <clipPath id="id_0">
        <path d="M86.5 55.5L591.5 55.5L591.5 324.5L86.5 324.5L86.5 55.5Z" clip-rule="nonzero"/>
    </clipPath>
    <path stroke="#000000" stroke-width="2.0" stroke-linecap="butt" stroke-opacity="0.0" clip-path="url(#id_0)"
          d="M101.0 325.0L95.0 325.0L95.0 45.0C95.0 43.89543 95.89543 43.0 97.0 43.0L99.0 43.0C100.10457 43.0 101.0 43.89543 101.0 45.0Z"
          fill-rule="nonzero"/>
    <path fill="#cc0070" clip-path="url(#id_0)"
          d="M101.0 325.0L95.0 325.0L95.0 45.0C95.0 43.89543 95.89543 43.0 97.0 43.0L99.0 43.0C100.10457 43.0 101.0 43.89543 101.0 45.0Z"
          fill-rule="nonzero"/>
    <path stroke="#000000" stroke-width="2.0" stroke-linecap="butt" stroke-opacity="0.0" clip-path="url(#id_0)"
          d="M125.0 325.0L119.0 325.0L119.0 67.0C119.0 65.89543 119.89543 65.0 121.0 65.0L123.0 65.0C124.10457 65.0 125.0 65.89543 125.0 67.0Z"
          fill-rule="nonzero"/>
    <path fill="#cc0070" clip-path="url(#id_0)"
          d="M125.0 325.0L119.0 325.0L119.0 67.0C119.0 65.89543 119.89543 65.0 121.0 65.0L123.0 65.0C124.10457 65.0 125.0 65.89543 125.0 67.0Z"
          fill-rule="nonzero"/>
    <path stroke="#000000" stroke-width="2.0" stroke-linecap="butt" stroke-opacity="0.0" clip-path="url(#id_0)"
          d="M149.0 325.0L143.0 325.0L143.0 90.0C143.0 88.89543 143.89543 88.0 145.0 88.0L147.0 88.0C148.10457 88.0 149.0 88.89543 149.0 90.0Z"
          fill-rule="nonzero"/>
    <path fill="#cc0070" clip-path="url(#id_0)"
          d="M149.0 325.0L143.0 325.0L143.0 90.0C143.0 88.89543 143.89543 88.0 145.0 88.0L147.0 88.0C148.10457 88.0 149.0 88.89543 149.0 90.0Z"
          fill-rule="nonzero"/>
    <path stroke="#000000" stroke-width="2.0" stroke-linecap="butt" stroke-opacity="0.0" clip-path="url(#id_0)"
          d="M172.0 325.0L166.0 325.0L166.0 112.0C166.0 110.89543 166.89543 110.0 168.0 110.0L170.0 110.0C171.10457 110.0 172.0 110.89543 172.0 112.0Z"
          fill-rule="nonzero"/>
    <path fill="#cc0070" clip-path="url(#id_0)"
          d="M172.0 325.0L166.0 325.0L166.0 112.0C166.0 110.89543 166.89543 110.0 168.0 110.0L170.0 110.0C171.10457 110.0 172.0 110.89543 172.0 112.0Z"
          fill-rule="nonzero"/>
    <path stroke="#000000" stroke-width="2.0" stroke-linecap="butt" stroke-opacity="0.0" clip-path="url(#id_0)"
          d="M196.0 325.0L190.0 325.0L190.0 134.0C190.0 132.89543 190.89543 132.0 192.0 132.0L194.0 132.0C195.10457 132.0 196.0 132.89543 196.0 134.0Z"
          fill-rule="nonzero"/>
    <path fill="#cc0070" clip-path="url(#id_0)"
          d="M196.0 325.0L190.0 325.0L190.0 134.0C190.0 132.89543 190.89543 132.0 192.0 132.0L194.0 132.0C195.10457 132.0 196.0 132.89543 196.0 134.0Z"
          fill-rule="nonzero"/>
    <path stroke="#000000" stroke-width="2.0" stroke-linecap="butt" stroke-opacity="0.0" clip-path="url(#id_0)"
          d="M220.0 325.0L214.0 325.0L214.0 157.0C214.0 155.89543 214.89543 155.0 216.0 155.0L218.0 155.0C219.10457 155.0 220.0 155.89543 220.0 157.0Z"
          fill-rule="nonzero"/>
    <path fill="#cc0070" clip-path="url(#id_0)"
          d="M220.0 325.0L214.0 325.0L214.0 157.0C214.0 155.89543 214.89543 155.0 216.0 155.0L218.0 155.0C219.10457 155.0 220.0 155.89543 220.0 157.0Z"
          fill-rule="nonzero"/>
    <path stroke="#000000" stroke-width="2.0" stroke-linecap="butt" stroke-opacity="0.0" clip-path="url(#id_0)"
          d="M338.0 325.0L332.0 325.0L332.0 233.0C332.0 231.89543 332.89542 231.0 334.0 231.0L336.0 231.0C337.10458 231.0 338.0 231.89543 338.0 233.0Z"
          fill-rule="nonzero"/>
    <path fill="#cc0070" clip-path="url(#id_0)"
          d="M338.0 325.0L332.0 325.0L332.0 233.0C332.0 231.89543 332.89542 231.0 334.0 231.0L336.0 231.0C337.10458 231.0 338.0 231.89543 338.0 233.0Z"
          fill-rule="nonzero"/>
    <path stroke="#000000" stroke-width="2.0" stroke-linecap="butt" stroke-opacity="0.0" clip-path="url(#id_0)"
          d="M456.0 325.0L450.0 325.0L450.0 279.0C450.0 277.89542 450.89542 277.0 452.0 277.0L454.0 277.0C455.10458 277.0 456.0 277.89542 456.0 279.0Z"
          fill-rule="nonzero"/>
    <path fill="#cc0070" clip-path="url(#id_0)"
          d="M456.0 325.0L450.0 325.0L450.0 279.0C450.0 277.89542 450.89542 277.0 452.0 277.0L454.0 277.0C455.10458 277.0 456.0 277.89542 456.0 279.0Z"
          fill-rule="nonzero"/>
    <path stroke="#000000" stroke-width="2.0" stroke-linecap="butt" stroke-opacity="0.0" clip-path="url(#id_0)"
          d="M575.0 325.0L569.0 325.0L569.0 315.0C569.0 313.89542 569.89545 313.0 571.0 313.0L573.0 313.0C574.10455 313.0 575.0 313.89542 575.0 315.0Z"
          fill-rule="nonzero"/>
    <path fill="#cc0070" clip-path="url(#id_0)"
          d="M575.0 325.0L569.0 325.0L569.0 315.0C569.0 313.89542 569.89545 313.0 571.0 313.0L573.0 313.0C574.10455 313.0 575.0 313.89542 575.0 315.0Z"
          fill-rule="nonzero"/>
    <path stroke="#000000" stroke-width="2.0" stroke-linecap="butt" stroke-opacity="0.0" clip-path="url(#id_0)"
          d="M133.0 325.0L127.0 325.0L127.0 68.0C127.0 66.89543 127.89543 66.0 129.0 66.0L131.0 66.0C132.10457 66.0 133.0 66.89543 133.0 68.0Z"
          fill-rule="nonzero"/>
    <path fill="#a9d8d8" clip-path="url(#id_0)"
          d="M133.0 325.0L127.0 325.0L127.0 68.0C127.0 66.89543 127.89543 66.0 129.0 66.0L131.0 66.0C132.10457 66.0 133.0 66.89543 133.0 68.0Z"
          fill-rule="nonzero"/>
    <path stroke="#000000" stroke-width="2.0" stroke-linecap="butt" stroke-opacity="0.0" clip-path="url(#id_0)"
          d="M157.0 325.0L151.0 325.0L151.0 91.0C151.0 89.89543 151.89543 89.0 153.0 89.0L155.0 89.0C156.10457 89.0 157.0 89.89543 157.0 91.0Z"
          fill-rule="nonzero"/>
    <path fill="#a9d8d8" clip-path="url(#id_0)"
          d="M157.0 325.0L151.0 325.0L151.0 91.0C151.0 89.89543 151.89543 89.0 153.0 89.0L155.0 89.0C156.10457 89.0 157.0 89.89543 157.0 91.0Z"
          fill-rule="nonzero"/>
    <path stroke="#000000" stroke-width="2.0" stroke-linecap="butt" stroke-opacity="0.0" clip-path="url(#id_0)"
          d="M180.0 325.0L174.0 325.0L174.0 115.0C174.0 113.89543 174.89543 113.0 176.0 113.0L178.0 113.0C179.10457 113.0 180.0 113.89543 180.0 115.0Z"
          fill-rule="nonzero"/>
    <path fill="#a9d8d8" clip-path="url(#id_0)"
          d="M180.0 325.0L174.0 325.0L174.0 115.0C174.0 113.89543 174.89543 113.0 176.0 113.0L178.0 113.0C179.10457 113.0 180.0 113.89543 180.0 115.0Z"
          fill-rule="nonzero"/>
    <path stroke="#000000" stroke-width="2.0" stroke-linecap="butt" stroke-opacity="0.0" clip-path="url(#id_0)"
          d="M204.0 325.0L198.0 325.0L198.0 138.0C198.0 136.89543 198.89543 136.0 200.0 136.0L202.0 136.0C203.10457 136.0 204.0 136.89543 204.0 138.0Z"
          fill-rule="nonzero"/>
    <path fill="#a9d8d8" clip-path="url(#id_0)"
          d="M204.0 325.0L198.0 325.0L198.0 138.0C198.0 136.89543 198.89543 136.0 200.0 136.0L202.0 136.0C203.10457 136.0 204.0 136.89543 204.0 138.0Z"
          fill-rule="nonzero"/>
    <path stroke="#000000" stroke-width="2.0" stroke-linecap="butt" stroke-opacity="0.0" clip-path="url(#id_0)"
          d="M228.0 325.0L222.0 325.0L222.0 161.0C222.0 159.89543 222.89543 159.0 224.0 159.0L226.0 159.0C227.10457 159.0 228.0 159.89543 228.0 161.0Z"
          fill-rule="nonzero"/>
    <path fill="#a9d8d8" clip-path="url(#id_0)"
          d="M228.0 325.0L222.0 325.0L222.0 161.0C222.0 159.89543 222.89543 159.0 224.0 159.0L226.0 159.0C227.10457 159.0 228.0 159.89543 228.0 161.0Z"
          fill-rule="nonzero"/>
    <path stroke="#000000" stroke-width="2.0" stroke-linecap="butt" stroke-opacity="0.0" clip-path="url(#id_0)"
          d="M251.0 325.0L245.0 325.0L245.0 180.0C245.0 178.89543 245.89543 178.0 247.0 178.0L249.0 178.0C250.10457 178.0 251.0 178.89543 251.0 180.0Z"
          fill-rule="nonzero"/>
    <path fill="#a9d8d8" clip-path="url(#id_0)"
          d="M251.0 325.0L245.0 325.0L245.0 180.0C245.0 178.89543 245.89543 178.0 247.0 178.0L249.0 178.0C250.10457 178.0 251.0 178.89543 251.0 180.0Z"
          fill-rule="nonzero"/>
    <path stroke="#000000" stroke-width="2.0" stroke-linecap="butt" stroke-opacity="0.0" clip-path="url(#id_0)"
          d="M275.0 325.0L269.0 325.0L269.0 199.0C269.0 197.89543 269.89542 197.0 271.0 197.0L273.0 197.0C274.10458 197.0 275.0 197.89543 275.0 199.0Z"
          fill-rule="nonzero"/>
    <path fill="#a9d8d8" clip-path="url(#id_0)"
          d="M275.0 325.0L269.0 325.0L269.0 199.0C269.0 197.89543 269.89542 197.0 271.0 197.0L273.0 197.0C274.10458 197.0 275.0 197.89543 275.0 199.0Z"
          fill-rule="nonzero"/>
    <path stroke="#000000" stroke-width="2.0" stroke-linecap="butt" stroke-opacity="0.0" clip-path="url(#id_0)"
          d="M299.0 325.0L293.0 325.0L293.0 218.0C293.0 216.89543 293.89542 216.0 295.0 216.0L297.0 216.0C298.10458 216.0 299.0 216.89543 299.0 218.0Z"
          fill-rule="nonzero"/>
    <path fill="#a9d8d8" clip-path="url(#id_0)"
          d="M299.0 325.0L293.0 325.0L293.0 218.0C293.0 216.89543 293.89542 216.0 295.0 216.0L297.0 216.0C298.10458 216.0 299.0 216.89543 299.0 218.0Z"
          fill-rule="nonzero"/>
    <path stroke="#000000" stroke-width="2.0" stroke-linecap="butt" stroke-opacity="0.0" clip-path="url(#id_0)"
          d="M322.0 325.0L316.0 325.0L316.0 237.0C316.0 235.89543 316.89542 235.0 318.0 235.0L320.0 235.0C321.10458 235.0 322.0 235.89543 322.0 237.0Z"
          fill-rule="nonzero"/>
    <path fill="#a9d8d8" clip-path="url(#id_0)"
          d="M322.0 325.0L316.0 325.0L316.0 237.0C316.0 235.89543 316.89542 235.0 318.0 235.0L320.0 235.0C321.10458 235.0 322.0 235.89543 322.0 237.0Z"
          fill-rule="nonzero"/>
    <path stroke="#000000" stroke-width="2.0" stroke-linecap="butt" stroke-opacity="0.0" clip-path="url(#id_0)"
          d="M346.0 325.0L340.0 325.0L340.0 256.0C340.0 254.89543 340.89542 254.0 342.0 254.0L344.0 254.0C345.10458 254.0 346.0 254.89543 346.0 256.0Z"
          fill-rule="nonzero"/>
    <path fill="#a9d8d8" clip-path="url(#id_0)"
          d="M346.0 325.0L340.0 325.0L340.0 256.0C340.0 254.89543 340.89542 254.0 342.0 254.0L344.0 254.0C345.10458 254.0 346.0 254.89543 346.0 256.0Z"
          fill-rule="nonzero"/>
    <path stroke="#000000" stroke-width="2.0" stroke-linecap="butt" stroke-opacity="0.0" clip-path="url(#id_0)"
          d="M370.0 325.0L364.0 325.0L364.0 268.0C364.0 266.89542 364.89542 266.0 366.0 266.0L368.0 266.0C369.10458 266.0 370.0 266.89542 370.0 268.0Z"
          fill-rule="nonzero"/>
    <path fill="#a9d8d8" clip-path="url(#id_0)"
          d="M370.0 325.0L364.0 325.0L364.0 268.0C364.0 266.89542 364.89542 266.0 366.0 266.0L368.0 266.0C369.10458 266.0 370.0 266.89542 370.0 268.0Z"
          fill-rule="nonzero"/>
    <path stroke="#000000" stroke-width="2.0" stroke-linecap="butt" stroke-opacity="0.0" clip-path="url(#id_0)"
          d="M393.0 325.0L387.0 325.0L387.0 280.0C387.0 278.89542 387.89542 278.0 389.0 278.0L391.0 278.0C392.10458 278.0 393.0 278.89542 393.0 280.0Z"
          fill-rule="nonzero"/>
    <path fill="#a9d8d8" clip-path="url(#id_0)"
          d="M393.0 325.0L387.0 325.0L387.0 280.0C387.0 278.89542 387.89542 278.0 389.0 278.0L391.0 278.0C392.10458 278.0 393.0 278.89542 393.0 280.0Z"
          fill-rule="nonzero"/>
    <path stroke="#000000" stroke-width="2.0" stroke-linecap="butt" stroke-opacity="0.0" clip-path="url(#id_0)"
          d="M417.0 325.0L411.0 325.0L411.0 292.0C411.0 290.89542 411.89542 290.0 413.0 290.0L415.0 290.0C416.10458 290.0 417.0 290.89542 417.0 292.0Z"
          fill-rule="nonzero"/>
    <path fill="#a9d8d8" clip-path="url(#id_0)"
          d="M417.0 325.0L411.0 325.0L411.0 292.0C411.0 290.89542 411.89542 290.0 413.0 290.0L415.0 290.0C416.10458 290.0 417.0 290.89542 417.0 292.0Z"
          fill-rule="nonzero"/>
    <path stroke="#000000" stroke-width="2.0" stroke-linecap="butt" stroke-opacity="0.0" clip-path="url(#id_0)"
          d="M441.0 325.0L435.0 325.0L435.0 303.0C435.0 301.89542 435.89542 301.0 437.0 301.0L439.0 301.0C440.10458 301.0 441.0 301.89542 441.0 303.0Z"
          fill-rule="nonzero"/>
    <path fill="#a9d8d8" clip-path="url(#id_0)"
          d="M441.0 325.0L435.0 325.0L435.0 303.0C435.0 301.89542 435.89542 301.0 437.0 301.0L439.0 301.0C440.10458 301.0 441.0 301.89542 441.0 303.0Z"
          fill-rule="nonzero"/>
    <path stroke="#000000" stroke-width="2.0" stroke-linecap="butt" stroke-opacity="0.0" clip-path="url(#id_0)"
          d="M464.0 325.0L458.0 325.0L458.0 315.0C458.0 313.89542 458.89542 313.0 460.0 313.0L462.0 313.0C463.10458 313.0 464.0 313.89542 464.0 315.0Z"
          fill-rule="nonzero"/>
    <path fill="#a9d8d8" clip-path="url(#id_0)"
          d="M464.0 325.0L458.0 325.0L458.0 315.0C458.0 313.89542 458.89542 313.0 460.0 313.0L462.0 313.0C463.10458 313.0 464.0 313.89542 464.0 315.0Z"
          fill-rule="nonzero"/>
    <path fill="#ffffff"
          d="M27.970663 246.58438L19.376913 246.58438L19.376913 244.85L23.189413 244.85L19.376913 241.33438L19.376913 239.00626L22.720663 242.24063L27.970663 238.83438L27.970663 241.06876L23.939413 243.44376L25.376913 244.85L27.970663 244.85L27.970663 246.58438ZM20.908163 238.61563L19.376913 238.61563L19.376913 236.95938L20.908163 236.95938L20.908163 238.61563ZM27.970663 238.61563L21.751913 238.61563L21.751913 236.95938L27.970663 236.95938L27.970663 238.61563ZM27.970663 235.61563L19.376913 235.61563L19.376913 233.95938L27.970663 233.95938L27.970663 235.61563ZM24.767538 232.99063Q23.955038 232.99063 23.189413 232.58438Q22.408163 232.17813 22.017538 231.44376Q21.611288 230.70938 21.611288 229.7875Q21.611288 228.38126 22.533163 227.475Q23.439413 226.56876 24.845663 226.56876Q26.251913 226.56876 27.189413 227.49063Q28.111288 228.39688 28.111288 229.77188Q28.111288 230.63126 27.720663 231.4125Q27.330038 232.17813 26.595663 232.58438Q25.845663 232.99063 24.767538 232.99063ZM24.861288 231.30313Q25.783163 231.30313 26.283163 230.86563Q26.767538 230.42813 26.767538 229.7875Q26.767538 229.13126 26.283163 228.70938Q25.783163 228.27188 24.845663 228.27188Q23.939413 228.27188 23.455038 228.70938Q22.955038 229.13126 22.955038 229.7875Q22.955038 230.42813 23.455038 230.86563Q23.939413 231.30313 24.861288 231.30313ZM21.751913 222.75626L23.064413 222.75626L23.064413 223.88126L25.564413 223.88126Q26.330038 223.88126 26.455038 223.85Q26.580038 223.81876 26.673788 223.70938Q26.751913 223.58438 26.751913 223.42813Q26.751913 223.19376 26.580038 222.77188L27.861288 222.63126Q28.111288 223.19376 28.111288 223.92813Q28.111288 224.36563 27.970663 224.725Q27.814413 225.08438 27.580038 225.25626Q27.330038 225.4125 26.939413 225.49063Q26.642538 225.5375 25.767538 225.5375L23.064413 225.5375L23.064413 226.2875L21.751913 226.2875L21.751913 225.5375L20.517538 225.5375L19.548788 223.88126L21.751913 223.88126L21.751913 222.75626ZM24.767538 221.99063Q23.955038 221.99063 23.189413 221.58438Q22.408163 221.17813 22.017538 220.44376Q21.611288 219.70938 21.611288 218.7875Q21.611288 217.38126 22.533163 216.475Q23.439413 215.56876 24.845663 215.56876Q26.251913 215.56876 27.189413 216.49063Q28.111288 217.39688 28.111288 218.77188Q28.111288 219.63126 27.720663 220.4125Q27.330038 221.17813 26.595663 221.58438Q25.845663 221.99063 24.767538 221.99063ZM24.861288 220.30313Q25.783163 220.30313 26.283163 219.86563Q26.767538 219.42813 26.767538 218.7875Q26.767538 218.13126 26.283163 217.70938Q25.783163 217.27188 24.845663 217.27188Q23.939413 217.27188 23.455038 217.70938Q22.955038 218.13126 22.955038 218.7875Q22.955038 219.42813 23.455038 219.86563Q23.939413 220.30313 24.861288 220.30313ZM27.970663 208.95938L27.970663 210.6L24.798788 210.6Q23.783163 210.6 23.486288 210.70938Q23.189413 210.80313 23.033163 211.05313Q22.861288 211.2875 22.861288 211.61563Q22.861288 212.05313 23.095663 212.39688Q23.330038 212.725 23.720663 212.85Q24.111288 212.975 25.158163 212.975L27.970663 212.975L27.970663 214.63126L21.751913 214.63126L21.751913 213.1L22.658163 213.1Q21.611288 212.2875 21.611288 211.0375Q21.611288 210.50626 21.814413 210.05313Q22.001913 209.6 22.314413 209.36563Q22.611288 209.13126 23.001913 209.05313Q23.376913 208.95938 24.095663 208.95938L27.970663 208.95938ZM27.970663 201.95938L27.970663 203.6L24.798788 203.6Q23.783163 203.6 23.486288 203.70938Q23.189413 203.80313 23.033163 204.05313Q22.861288 204.2875 22.861288 204.61563Q22.861288 205.05313 23.095663 205.39688Q23.330038 205.725 23.720663 205.85Q24.111288 205.975 25.158163 205.975L27.970663 205.975L27.970663 207.63126L21.751913 207.63126L21.751913 206.1L22.658163 206.1Q21.611288 205.2875 21.611288 204.0375Q21.611288 203.50626 21.814413 203.05313Q22.001913 202.6 22.314413 202.36563Q22.611288 202.13126 23.001913 202.05313Q23.376913 201.95938 24.095663 201.95938L27.970663 201.95938ZM25.986288 197.00626L26.267538 195.36563Q27.173788 195.67813 27.642538 196.36563Q28.111288 197.05313 28.111288 198.06876Q28.111288 199.69376 27.048788 200.475Q26.205038 201.1 24.908163 201.1Q23.361288 201.1 22.486288 200.2875Q21.611288 199.475 21.611288 198.24063Q21.611288 196.85 22.533163 196.05313Q23.439413 195.24063 25.330038 195.2875L25.330038 199.4125Q26.064413 199.38126 26.470663 199.00626Q26.876913 198.63126 26.876913 198.05313Q26.876913 197.67813 26.673788 197.4125Q26.455038 197.14688 25.986288 197.00626ZM24.330038 196.9125Q23.611288 196.92813 23.236288 197.2875Q22.861288 197.63126 22.861288 198.14688Q22.861288 198.67813 23.251913 199.0375Q23.658163 199.38126 24.330038 199.38126L24.330038 196.9125ZM27.970663 187.95938L27.970663 189.6L24.798788 189.6Q23.783163 189.6 23.486288 189.70938Q23.189413 189.80313 23.033163 190.05313Q22.861288 190.2875 22.861288 190.61563Q22.861288 191.05313 23.095663 191.39688Q23.330038 191.725 23.720663 191.85Q24.111288 191.975 25.158163 191.975L27.970663 191.975L27.970663 193.63126L21.751913 193.63126L21.751913 192.1L22.658163 192.1Q21.611288 191.2875 21.611288 190.0375Q21.611288 189.50626 21.814413 189.05313Q22.001913 188.6 22.314413 188.36563Q22.611288 188.13126 23.001913 188.05313Q23.376913 187.95938 24.095663 187.95938L27.970663 187.95938ZM24.814413 178.1L25.345663 176.42813Q26.751913 176.80313 27.439413 177.70938Q28.111288 178.61563 28.111288 179.99063Q28.111288 181.70938 26.955038 182.81876Q25.783163 183.9125 23.751913 183.9125Q21.611288 183.9125 20.423788 182.80313Q19.236288 181.69376 19.236288 179.88126Q19.236288 178.30313 20.158163 177.31876Q20.720663 176.74063 21.751913 176.44376L22.158163 178.1625Q21.486288 178.31876 21.111288 178.80313Q20.720663 179.2875 20.720663 179.975Q20.720663 180.92813 21.408163 181.52188Q22.080038 182.11563 23.626913 182.11563Q25.251913 182.11563 25.939413 181.5375Q26.626913 180.94376 26.626913 180.00626Q26.626913 179.31876 26.189413 178.81876Q25.751913 178.31876 24.814413 178.1ZM23.720663 175.95938Q22.408163 175.95938 21.517538 175.55313Q20.861288 175.27188 20.345663 174.77188Q19.830038 174.25626 19.580038 173.64688Q19.236288 172.85 19.236288 171.80313Q19.236288 169.89688 20.423788 168.75626Q21.595663 167.61563 23.689413 167.61563Q25.767538 167.61563 26.939413 168.75626Q28.111288 169.88126 28.111288 171.77188Q28.111288 173.69376 26.955038 174.83438Q25.783163 175.95938 23.720663 175.95938ZM23.673788 174.1625Q25.126913 174.1625 25.876913 173.49063Q26.626913 172.81876 26.626913 171.7875Q26.626913 170.74063 25.892538 170.08438Q25.142538 169.4125 23.642538 169.4125Q22.173788 169.4125 21.455038 170.06876Q20.720663 170.70938 20.720663 171.7875Q20.720663 172.85 21.455038 173.50626Q22.189413 174.1625 23.673788 174.1625ZM26.439413 161.39688L27.970663 161.39688L27.970663 167.17813Q27.095663 167.08438 26.330038 166.61563Q25.548788 166.14688 24.267538 164.75626Q23.236288 163.64688 22.861288 163.39688Q22.345663 163.05313 21.845663 163.05313Q21.298788 163.05313 21.001913 163.35Q20.705038 163.64688 20.705038 164.1625Q20.705038 164.67813 21.017538 164.99063Q21.330038 165.2875 22.048788 165.33438L21.892538 166.975Q20.533163 166.83438 19.939413 166.06876Q19.345663 165.2875 19.345663 164.13126Q19.345663 162.85 20.033163 162.13126Q20.720663 161.39688 21.736288 161.39688Q22.314413 161.39688 22.845663 161.61563Q23.361288 161.81876 23.939413 162.27188Q24.314413 162.56876 25.033163 163.35Q25.751913 164.13126 25.986288 164.33438Q26.220663 164.5375 26.439413 164.67813L26.439413 161.39688Z"
          fill-rule="nonzero"/>
    <path fill="#ffffff"
          d="M76.796875 319.875Q78.046875 319.875 78.75 320.76562Q79.578125 321.8125 79.578125 324.26562Q79.578125 326.70312 78.734375 327.76562Q78.046875 328.64062 76.796875 328.64062Q75.546875 328.64062 74.765625 327.6875Q74.0 326.71875 74.0 324.25Q74.0 321.8125 74.84375 320.75Q75.546875 319.875 76.796875 319.875ZM76.796875 321.23438Q76.5 321.23438 76.265625 321.4375Q76.03125 321.625 75.890625 322.10938Q75.734375 322.75 75.734375 324.26562Q75.734375 325.78125 75.875 326.34375Q76.03125 326.90625 76.265625 327.09375Q76.5 327.28125 76.796875 327.28125Q77.09375 327.28125 77.328125 327.09375Q77.5625 326.90625 77.6875 326.40625Q77.859375 325.78125 77.859375 324.26562Q77.859375 322.75 77.703125 322.1875Q77.5625 321.625 77.328125 321.4375Q77.09375 321.23438 76.796875 321.23438Z"
          fill-rule="nonzero"/>
    <path fill="#ffffff"
          d="M55.578125 259.71875L55.578125 261.25L49.796875 261.25Q49.890625 260.375 50.359375 259.60938Q50.828125 258.82812 52.21875 257.54688Q53.328125 256.51562 53.578125 256.14062Q53.921875 255.625 53.921875 255.125Q53.921875 254.57812 53.625 254.28125Q53.328125 253.98438 52.8125 253.98438Q52.296875 253.98438 51.984375 254.29688Q51.6875 254.60938 51.640625 255.32812L50.0 255.17188Q50.140625 253.8125 50.90625 253.21875Q51.6875 252.625 52.84375 252.625Q54.125 252.625 54.84375 253.3125Q55.578125 254.0 55.578125 255.01562Q55.578125 255.59375 55.359375 256.125Q55.15625 256.64062 54.703125 257.21875Q54.40625 257.59375 53.625 258.3125Q52.84375 259.03125 52.640625 259.26562Q52.4375 259.5 52.296875 259.71875L55.578125 259.71875ZM57.359375 261.25L57.359375 259.60938L59.015625 259.60938L59.015625 261.25L57.359375 261.25ZM60.03125 259.04688L61.671875 258.875Q61.75 259.42188 62.09375 259.75Q62.4375 260.07812 62.890625 260.07812Q63.40625 260.07812 63.765625 259.65625Q64.125 259.23438 64.125 258.39062Q64.125 257.60938 63.765625 257.21875Q63.40625 256.8125 62.84375 256.8125Q62.125 256.8125 61.5625 257.4375L60.234375 257.25L61.078125 252.78125L65.4375 252.78125L65.4375 254.3125L62.328125 254.3125L62.0625 255.78125Q62.625 255.5 63.1875 255.5Q64.28125 255.5 65.046875 256.29688Q65.8125 257.09375 65.8125 258.35938Q65.8125 259.42188 65.203125 260.26562Q64.359375 261.39062 62.875 261.39062Q61.6875 261.39062 60.9375 260.76562Q60.1875 260.125 60.03125 259.04688ZM69.796875 252.625Q71.046875 252.625 71.75 253.51562Q72.578125 254.5625 72.578125 257.01562Q72.578125 259.45312 71.734375 260.51562Q71.046875 261.39062 69.796875 261.39062Q68.546875 261.39062 67.765625 260.4375Q67.0 259.46875 67.0 257.0Q67.0 254.5625 67.84375 253.5Q68.546875 252.625 69.796875 252.625ZM69.796875 253.98438Q69.5 253.98438 69.265625 254.1875Q69.03125 254.375 68.890625 254.85938Q68.734375 255.5 68.734375 257.01562Q68.734375 258.53125 68.875 259.09375Q69.03125 259.65625 69.265625 259.84375Q69.5 260.03125 69.796875 260.03125Q70.09375 260.03125 70.328125 259.84375Q70.5625 259.65625 70.6875 259.15625Q70.859375 258.53125 70.859375 257.01562Q70.859375 255.5 70.703125 254.9375Q70.5625 254.375 70.328125 254.1875Q70.09375 253.98438 69.796875 253.98438ZM76.796875 252.625Q78.046875 252.625 78.75 253.51562Q79.578125 254.5625 79.578125 257.01562Q79.578125 259.45312 78.734375 260.51562Q78.046875 261.39062 76.796875 261.39062Q75.546875 261.39062 74.765625 260.4375Q74.0 259.46875 74.0 257.0Q74.0 254.5625 74.84375 253.5Q75.546875 252.625 76.796875 252.625ZM76.796875 253.98438Q76.5 253.98438 76.265625 254.1875Q76.03125 254.375 75.890625 254.85938Q75.734375 255.5 75.734375 257.01562Q75.734375 258.53125 75.875 259.09375Q76.03125 259.65625 76.265625 259.84375Q76.5 260.03125 76.796875 260.03125Q77.09375 260.03125 77.328125 259.84375Q77.5625 259.65625 77.6875 259.15625Q77.859375 258.53125 77.859375 257.01562Q77.859375 255.5 77.703125 254.9375Q77.5625 254.375 77.328125 254.1875Q77.09375 253.98438 76.796875 253.98438Z"
          fill-rule="nonzero"/>
    <path fill="#ffffff"
          d="M50.03125 191.79688L51.671875 191.625Q51.75 192.17188 52.09375 192.5Q52.4375 192.82812 52.890625 192.82812Q53.40625 192.82812 53.765625 192.40625Q54.125 191.98438 54.125 191.14062Q54.125 190.35938 53.765625 189.96875Q53.40625 189.5625 52.84375 189.5625Q52.125 189.5625 51.5625 190.1875L50.234375 190.0L51.078125 185.53125L55.4375 185.53125L55.4375 187.0625L52.328125 187.0625L52.0625 188.53125Q52.625 188.25 53.1875 188.25Q54.28125 188.25 55.046875 189.04688Q55.8125 189.84375 55.8125 191.10938Q55.8125 192.17188 55.203125 193.01562Q54.359375 194.14062 52.875 194.14062Q51.6875 194.14062 50.9375 193.51562Q50.1875 192.875 50.03125 191.79688ZM57.359375 194.0L57.359375 192.35938L59.015625 192.35938L59.015625 194.0L57.359375 194.0ZM62.796875 185.375Q64.046875 185.375 64.75 186.26562Q65.578125 187.3125 65.578125 189.76562Q65.578125 192.20312 64.734375 193.26562Q64.046875 194.14062 62.796875 194.14062Q61.546875 194.14062 60.765625 193.1875Q60.0 192.21875 60.0 189.75Q60.0 187.3125 60.84375 186.25Q61.546875 185.375 62.796875 185.375ZM62.796875 186.73438Q62.5 186.73438 62.265625 186.9375Q62.03125 187.125 61.890625 187.60938Q61.734375 188.25 61.734375 189.76562Q61.734375 191.28125 61.875 191.84375Q62.03125 192.40625 62.265625 192.59375Q62.5 192.78125 62.796875 192.78125Q63.09375 192.78125 63.328125 192.59375Q63.5625 192.40625 63.6875 191.90625Q63.859375 191.28125 63.859375 189.76562Q63.859375 188.25 63.703125 187.6875Q63.5625 187.125 63.328125 186.9375Q63.09375 186.73438 62.796875 186.73438ZM69.796875 185.375Q71.046875 185.375 71.75 186.26562Q72.578125 187.3125 72.578125 189.76562Q72.578125 192.20312 71.734375 193.26562Q71.046875 194.14062 69.796875 194.14062Q68.546875 194.14062 67.765625 193.1875Q67.0 192.21875 67.0 189.75Q67.0 187.3125 67.84375 186.25Q68.546875 185.375 69.796875 185.375ZM69.796875 186.73438Q69.5 186.73438 69.265625 186.9375Q69.03125 187.125 68.890625 187.60938Q68.734375 188.25 68.734375 189.76562Q68.734375 191.28125 68.875 191.84375Q69.03125 192.40625 69.265625 192.59375Q69.5 192.78125 69.796875 192.78125Q70.09375 192.78125 70.328125 192.59375Q70.5625 192.40625 70.6875 191.90625Q70.859375 191.28125 70.859375 189.76562Q70.859375 188.25 70.703125 187.6875Q70.5625 187.125 70.328125 186.9375Q70.09375 186.73438 69.796875 186.73438ZM76.796875 185.375Q78.046875 185.375 78.75 186.26562Q79.578125 187.3125 79.578125 189.76562Q79.578125 192.20312 78.734375 193.26562Q78.046875 194.14062 76.796875 194.14062Q75.546875 194.14062 74.765625 193.1875Q74.0 192.21875 74.0 189.75Q74.0 187.3125 74.84375 186.25Q75.546875 185.375 76.796875 185.375ZM76.796875 186.73438Q76.5 186.73438 76.265625 186.9375Q76.03125 187.125 75.890625 187.60938Q75.734375 188.25 75.734375 189.76562Q75.734375 191.28125 75.875 191.84375Q76.03125 192.40625 76.265625 192.59375Q76.5 192.78125 76.796875 192.78125Q77.09375 192.78125 77.328125 192.59375Q77.5625 192.40625 77.6875 191.90625Q77.859375 191.28125 77.859375 189.76562Q77.859375 188.25 77.703125 187.6875Q77.5625 187.125 77.328125 186.9375Q77.09375 186.73438 76.796875 186.73438Z"
          fill-rule="nonzero"/>
    <path fill="#ffffff"
          d="M50.015625 119.8125L50.015625 118.28125L55.640625 118.28125L55.640625 119.46875Q54.9375 120.15625 54.21875 121.4375Q53.5 122.71875 53.125 124.171875Q52.75 125.609375 52.75 126.75L51.171875 126.75Q51.203125 124.96875 51.890625 123.125Q52.59375 121.265625 53.75 119.8125L50.015625 119.8125ZM57.359375 126.75L57.359375 125.109375L59.015625 125.109375L59.015625 126.75L57.359375 126.75ZM60.03125 124.546875L61.671875 124.375Q61.75 124.921875 62.09375 125.25Q62.4375 125.578125 62.890625 125.578125Q63.40625 125.578125 63.765625 125.15625Q64.125 124.734375 64.125 123.890625Q64.125 123.109375 63.765625 122.71875Q63.40625 122.3125 62.84375 122.3125Q62.125 122.3125 61.5625 122.9375L60.234375 122.75L61.078125 118.28125L65.4375 118.28125L65.4375 119.8125L62.328125 119.8125L62.0625 121.28125Q62.625 121.0 63.1875 121.0Q64.28125 121.0 65.046875 121.796875Q65.8125 122.59375 65.8125 123.859375Q65.8125 124.921875 65.203125 125.765625Q64.359375 126.890625 62.875 126.890625Q61.6875 126.890625 60.9375 126.265625Q60.1875 125.625 60.03125 124.546875ZM69.796875 118.125Q71.046875 118.125 71.75 119.015625Q72.578125 120.0625 72.578125 122.515625Q72.578125 124.953125 71.734375 126.015625Q71.046875 126.890625 69.796875 126.890625Q68.546875 126.890625 67.765625 125.9375Q67.0 124.96875 67.0 122.5Q67.0 120.0625 67.84375 119.0Q68.546875 118.125 69.796875 118.125ZM69.796875 119.484375Q69.5 119.484375 69.265625 119.6875Q69.03125 119.875 68.890625 120.359375Q68.734375 121.0 68.734375 122.515625Q68.734375 124.03125 68.875 124.59375Q69.03125 125.15625 69.265625 125.34375Q69.5 125.53125 69.796875 125.53125Q70.09375 125.53125 70.328125 125.34375Q70.5625 125.15625 70.6875 124.65625Q70.859375 124.03125 70.859375 122.515625Q70.859375 121.0 70.703125 120.4375Q70.5625 119.875 70.328125 119.6875Q70.09375 119.484375 69.796875 119.484375ZM76.796875 118.125Q78.046875 118.125 78.75 119.015625Q79.578125 120.0625 79.578125 122.515625Q79.578125 124.953125 78.734375 126.015625Q78.046875 126.890625 76.796875 126.890625Q75.546875 126.890625 74.765625 125.9375Q74.0 124.96875 74.0 122.5Q74.0 120.0625 74.84375 119.0Q75.546875 118.125 76.796875 118.125ZM76.796875 119.484375Q76.5 119.484375 76.265625 119.6875Q76.03125 119.875 75.890625 120.359375Q75.734375 121.0 75.734375 122.515625Q75.734375 124.03125 75.875 124.59375Q76.03125 125.15625 76.265625 125.34375Q76.5 125.53125 76.796875 125.53125Q77.09375 125.53125 77.328125 125.34375Q77.5625 125.15625 77.6875 124.65625Q77.859375 124.03125 77.859375 122.515625Q77.859375 121.0 77.703125 120.4375Q77.5625 119.875 77.328125 119.6875Q77.09375 119.484375 76.796875 119.484375Z"
          fill-rule="nonzero"/>
    <path fill="#ffffff"
          d="M47.21875 59.5L45.578125 59.5L45.578125 53.296875Q44.671875 54.140625 43.453125 54.546875L43.453125 53.046875Q44.09375 52.84375 44.84375 52.25Q45.609375 51.65625 45.890625 50.875L47.21875 50.875L47.21875 59.5ZM52.796875 50.875Q54.046875 50.875 54.75 51.765625Q55.578125 52.8125 55.578125 55.265625Q55.578125 57.703125 54.734375 58.765625Q54.046875 59.640625 52.796875 59.640625Q51.546875 59.640625 50.765625 58.6875Q50.0 57.71875 50.0 55.25Q50.0 52.8125 50.84375 51.75Q51.546875 50.875 52.796875 50.875ZM52.796875 52.234375Q52.5 52.234375 52.265625 52.4375Q52.03125 52.625 51.890625 53.109375Q51.734375 53.75 51.734375 55.265625Q51.734375 56.78125 51.875 57.34375Q52.03125 57.90625 52.265625 58.09375Q52.5 58.28125 52.796875 58.28125Q53.09375 58.28125 53.328125 58.09375Q53.5625 57.90625 53.6875 57.40625Q53.859375 56.78125 53.859375 55.265625Q53.859375 53.75 53.703125 53.1875Q53.5625 52.625 53.328125 52.4375Q53.09375 52.234375 52.796875 52.234375ZM57.359375 59.5L57.359375 57.859375L59.015625 57.859375L59.015625 59.5L57.359375 59.5ZM62.796875 50.875Q64.046875 50.875 64.75 51.765625Q65.578125 52.8125 65.578125 55.265625Q65.578125 57.703125 64.734375 58.765625Q64.046875 59.640625 62.796875 59.640625Q61.546875 59.640625 60.765625 58.6875Q60.0 57.71875 60.0 55.25Q60.0 52.8125 60.84375 51.75Q61.546875 50.875 62.796875 50.875ZM62.796875 52.234375Q62.5 52.234375 62.265625 52.4375Q62.03125 52.625 61.890625 53.109375Q61.734375 53.75 61.734375 55.265625Q61.734375 56.78125 61.875 57.34375Q62.03125 57.90625 62.265625 58.09375Q62.5 58.28125 62.796875 58.28125Q63.09375 58.28125 63.328125 58.09375Q63.5625 57.90625 63.6875 57.40625Q63.859375 56.78125 63.859375 55.265625Q63.859375 53.75 63.703125 53.1875Q63.5625 52.625 63.328125 52.4375Q63.09375 52.234375 62.796875 52.234375ZM69.796875 50.875Q71.046875 50.875 71.75 51.765625Q72.578125 52.8125 72.578125 55.265625Q72.578125 57.703125 71.734375 58.765625Q71.046875 59.640625 69.796875 59.640625Q68.546875 59.640625 67.765625 58.6875Q67.0 57.71875 67.0 55.25Q67.0 52.8125 67.84375 51.75Q68.546875 50.875 69.796875 50.875ZM69.796875 52.234375Q69.5 52.234375 69.265625 52.4375Q69.03125 52.625 68.890625 53.109375Q68.734375 53.75 68.734375 55.265625Q68.734375 56.78125 68.875 57.34375Q69.03125 57.90625 69.265625 58.09375Q69.5 58.28125 69.796875 58.28125Q70.09375 58.28125 70.328125 58.09375Q70.5625 57.90625 70.6875 57.40625Q70.859375 56.78125 70.859375 55.265625Q70.859375 53.75 70.703125 53.1875Q70.5625 52.625 70.328125 52.4375Q70.09375 52.234375 69.796875 52.234375ZM76.796875 50.875Q78.046875 50.875 78.75 51.765625Q79.578125 52.8125 79.578125 55.265625Q79.578125 57.703125 78.734375 58.765625Q78.046875 59.640625 76.796875 59.640625Q75.546875 59.640625 74.765625 58.6875Q74.0 57.71875 74.0 55.25Q74.0 52.8125 74.84375 51.75Q75.546875 50.875 76.796875 50.875ZM76.796875 52.234375Q76.5 52.234375 76.265625 52.4375Q76.03125 52.625 75.890625 53.109375Q75.734375 53.75 75.734375 55.265625Q75.734375 56.78125 75.875 57.34375Q76.03125 57.90625 76.265625 58.09375Q76.5 58.28125 76.796875 58.28125Q77.09375 58.28125 77.328125 58.09375Q77.5625 57.90625 77.6875 57.40625Q77.859375 56.78125 77.859375 55.265625Q77.859375 53.75 77.703125 53.1875Q77.5625 52.625 77.328125 52.4375Q77.09375 52.234375 76.796875 52.234375Z"
          fill-rule="nonzero"/>
    <path fill="#ffffff"
          d="M94.54417 339.96875L94.54417 341.5L88.76292 341.5Q88.85667 340.625 89.32542 339.85938Q89.79417 339.07812 91.18479 337.79688Q92.29417 336.76562 92.54417 336.39062Q92.88792 335.875 92.88792 335.375Q92.88792 334.82812 92.59104 334.53125Q92.29417 334.23438 91.77854 334.23438Q91.26292 334.23438 90.95042 334.54688Q90.65354 334.85938 90.60667 335.57812L88.96604 335.42188Q89.10667 334.0625 89.87229 333.46875Q90.65354 332.875 91.80979 332.875Q93.09104 332.875 93.80979 333.5625Q94.54417 334.25 94.54417 335.26562Q94.54417 335.84375 94.32542 336.375Q94.12229 336.89062 93.66917 337.46875Q93.37229 337.84375 92.59104 338.5625Q91.80979 339.28125 91.60667 339.51562Q91.40354 339.75 91.26292 339.96875L94.54417 339.96875ZM98.76292 332.875Q100.01292 332.875 100.71604 333.76562Q101.54417 334.8125 101.54417 337.26562Q101.54417 339.70312 100.70042 340.76562Q100.01292 341.64062 98.76292 341.64062Q97.51292 341.64062 96.73167 340.6875Q95.96604 339.71875 95.96604 337.25Q95.96604 334.8125 96.80979 333.75Q97.51292 332.875 98.76292 332.875ZM98.76292 334.23438Q98.46604 334.23438 98.23167 334.4375Q97.99729 334.625 97.85667 335.10938Q97.70042 335.75 97.70042 337.26562Q97.70042 338.78125 97.84104 339.34375Q97.99729 339.90625 98.23167 340.09375Q98.46604 340.28125 98.76292 340.28125Q99.05979 340.28125 99.29417 340.09375Q99.52854 339.90625 99.65354 339.40625Q99.82542 338.78125 99.82542 337.26562Q99.82542 335.75 99.66917 335.1875Q99.52854 334.625 99.29417 334.4375Q99.05979 334.23438 98.76292 334.23438ZM108.54417 339.96875L108.54417 341.5L102.76292 341.5Q102.85667 340.625 103.32542 339.85938Q103.79417 339.07812 105.18479 337.79688Q106.29417 336.76562 106.54417 336.39062Q106.88792 335.875 106.88792 335.375Q106.88792 334.82812 106.59104 334.53125Q106.29417 334.23438 105.77854 334.23438Q105.26292 334.23438 104.95042 334.54688Q104.65354 334.85938 104.60667 335.57812L102.96604 335.42188Q103.10667 334.0625 103.87229 333.46875Q104.65354 332.875 105.80979 332.875Q107.09104 332.875 107.80979 333.5625Q108.54417 334.25 108.54417 335.26562Q108.54417 335.84375 108.32542 336.375Q108.12229 336.89062 107.66917 337.46875Q107.37229 337.84375 106.59104 338.5625Q105.80979 339.28125 105.60667 339.51562Q105.40354 339.75 105.26292 339.96875L108.54417 339.96875ZM109.99729 339.29688L111.63792 339.125Q111.71604 339.67188 112.05979 340.0Q112.40354 340.32812 112.85667 340.32812Q113.37229 340.32812 113.73167 339.90625Q114.09104 339.48438 114.09104 338.64062Q114.09104 337.85938 113.73167 337.46875Q113.37229 337.0625 112.80979 337.0625Q112.09104 337.0625 111.52854 337.6875L110.20042 337.5L111.04417 333.03125L115.40354 333.03125L115.40354 334.5625L112.29417 334.5625L112.02854 336.03125Q112.59104 335.75 113.15354 335.75Q114.24729 335.75 115.01292 336.54688Q115.77854 337.34375 115.77854 338.60938Q115.77854 339.67188 115.16917 340.51562Q114.32542 341.64062 112.84104 341.64062Q111.65354 341.64062 110.90354 341.01562Q110.15354 340.375 109.99729 339.29688Z"
          fill-rule="nonzero"/>
    <path fill="#ffffff"
          d="M212.81114 339.96875L212.81114 341.5L207.02989 341.5Q207.12364 340.625 207.59239 339.85938Q208.06114 339.07812 209.45177 337.79688Q210.56114 336.76562 210.81114 336.39062Q211.15489 335.875 211.15489 335.375Q211.15489 334.82812 210.85802 334.53125Q210.56114 334.23438 210.04552 334.23438Q209.52989 334.23438 209.21739 334.54688Q208.92052 334.85938 208.87364 335.57812L207.23302 335.42188Q207.37364 334.0625 208.13927 333.46875Q208.92052 332.875 210.07677 332.875Q211.35802 332.875 212.07677 333.5625Q212.81114 334.25 212.81114 335.26562Q212.81114 335.84375 212.59239 336.375Q212.38927 336.89062 211.93614 337.46875Q211.63927 337.84375 210.85802 338.5625Q210.07677 339.28125 209.87364 339.51562Q209.67052 339.75 209.52989 339.96875L212.81114 339.96875ZM217.02989 332.875Q218.27989 332.875 218.98302 333.76562Q219.81114 334.8125 219.81114 337.26562Q219.81114 339.70312 218.96739 340.76562Q218.27989 341.64062 217.02989 341.64062Q215.77989 341.64062 214.99864 340.6875Q214.23302 339.71875 214.23302 337.25Q214.23302 334.8125 215.07677 333.75Q215.77989 332.875 217.02989 332.875ZM217.02989 334.23438Q216.73302 334.23438 216.49864 334.4375Q216.26427 334.625 216.12364 335.10938Q215.96739 335.75 215.96739 337.26562Q215.96739 338.78125 216.10802 339.34375Q216.26427 339.90625 216.49864 340.09375Q216.73302 340.28125 217.02989 340.28125Q217.32677 340.28125 217.56114 340.09375Q217.79552 339.90625 217.92052 339.40625Q218.09239 338.78125 218.09239 337.26562Q218.09239 335.75 217.93614 335.1875Q217.79552 334.625 217.56114 334.4375Q217.32677 334.23438 217.02989 334.23438ZM221.18614 339.21875L222.77989 339.03125Q222.85802 339.64062 223.18614 339.96875Q223.52989 340.28125 223.99864 340.28125Q224.51427 340.28125 224.85802 339.89062Q225.20177 339.5 225.20177 338.84375Q225.20177 338.23438 224.85802 337.875Q224.52989 337.5 224.06114 337.5Q223.73302 337.5 223.29552 337.625L223.48302 336.28125Q224.15489 336.29688 224.49864 336.0Q224.85802 335.6875 224.85802 335.17188Q224.85802 334.75 224.59239 334.5Q224.34239 334.23438 223.90489 334.23438Q223.48302 334.23438 223.18614 334.53125Q222.88927 334.8125 222.82677 335.375L221.31114 335.125Q221.46739 334.34375 221.77989 333.875Q222.10802 333.40625 222.67052 333.14062Q223.24864 332.875 223.95177 332.875Q225.17052 332.875 225.90489 333.64062Q226.49864 334.28125 226.49864 335.07812Q226.49864 336.20312 225.26427 336.875Q226.01427 337.04688 226.45177 337.59375Q226.88927 338.14062 226.88927 338.92188Q226.88927 340.04688 226.06114 340.84375Q225.23302 341.64062 224.01427 341.64062Q222.84239 341.64062 222.07677 340.96875Q221.31114 340.29688 221.18614 339.21875ZM231.02989 332.875Q232.27989 332.875 232.98302 333.76562Q233.81114 334.8125 233.81114 337.26562Q233.81114 339.70312 232.96739 340.76562Q232.27989 341.64062 231.02989 341.64062Q229.77989 341.64062 228.99864 340.6875Q228.23302 339.71875 228.23302 337.25Q228.23302 334.8125 229.07677 333.75Q229.77989 332.875 231.02989 332.875ZM231.02989 334.23438Q230.73302 334.23438 230.49864 334.4375Q230.26427 334.625 230.12364 335.10938Q229.96739 335.75 229.96739 337.26562Q229.96739 338.78125 230.10802 339.34375Q230.26427 339.90625 230.49864 340.09375Q230.73302 340.28125 231.02989 340.28125Q231.32677 340.28125 231.56114 340.09375Q231.79552 339.90625 231.92052 339.40625Q232.09239 338.78125 232.09239 337.26562Q232.09239 335.75 231.93614 335.1875Q231.79552 334.625 231.56114 334.4375Q231.32677 334.23438 231.02989 334.23438Z"
          fill-rule="nonzero"/>
    <path fill="#ffffff"
          d="M331.07812 339.96875L331.07812 341.5L325.29688 341.5Q325.39062 340.625 325.85938 339.85938Q326.32812 339.07812 327.71875 337.79688Q328.82812 336.76562 329.07812 336.39062Q329.42188 335.875 329.42188 335.375Q329.42188 334.82812 329.125 334.53125Q328.82812 334.23438 328.3125 334.23438Q327.79688 334.23438 327.48438 334.54688Q327.1875 334.85938 327.14062 335.57812L325.5 335.42188Q325.64062 334.0625 326.40625 333.46875Q327.1875 332.875 328.34375 332.875Q329.625 332.875 330.34375 333.5625Q331.07812 334.25 331.07812 335.26562Q331.07812 335.84375 330.85938 336.375Q330.65625 336.89062 330.20312 337.46875Q329.90625 337.84375 329.125 338.5625Q328.34375 339.28125 328.14062 339.51562Q327.9375 339.75 327.79688 339.96875L331.07812 339.96875ZM335.29688 332.875Q336.54688 332.875 337.25 333.76562Q338.07812 334.8125 338.07812 337.26562Q338.07812 339.70312 337.23438 340.76562Q336.54688 341.64062 335.29688 341.64062Q334.04688 341.64062 333.26562 340.6875Q332.5 339.71875 332.5 337.25Q332.5 334.8125 333.34375 333.75Q334.04688 332.875 335.29688 332.875ZM335.29688 334.23438Q335.0 334.23438 334.76562 334.4375Q334.53125 334.625 334.39062 335.10938Q334.23438 335.75 334.23438 337.26562Q334.23438 338.78125 334.375 339.34375Q334.53125 339.90625 334.76562 340.09375Q335.0 340.28125 335.29688 340.28125Q335.59375 340.28125 335.82812 340.09375Q336.0625 339.90625 336.1875 339.40625Q336.35938 338.78125 336.35938 337.26562Q336.35938 335.75 336.20312 335.1875Q336.0625 334.625 335.82812 334.4375Q335.59375 334.23438 335.29688 334.23438ZM339.45312 339.21875L341.04688 339.03125Q341.125 339.64062 341.45312 339.96875Q341.79688 340.28125 342.26562 340.28125Q342.78125 340.28125 343.125 339.89062Q343.46875 339.5 343.46875 338.84375Q343.46875 338.23438 343.125 337.875Q342.79688 337.5 342.32812 337.5Q342.0 337.5 341.5625 337.625L341.75 336.28125Q342.42188 336.29688 342.76562 336.0Q343.125 335.6875 343.125 335.17188Q343.125 334.75 342.85938 334.5Q342.60938 334.23438 342.17188 334.23438Q341.75 334.23438 341.45312 334.53125Q341.15625 334.8125 341.09375 335.375L339.57812 335.125Q339.73438 334.34375 340.04688 333.875Q340.375 333.40625 340.9375 333.14062Q341.51562 332.875 342.21875 332.875Q343.4375 332.875 344.17188 333.64062Q344.76562 334.28125 344.76562 335.07812Q344.76562 336.20312 343.53125 336.875Q344.28125 337.04688 344.71875 337.59375Q345.15625 338.14062 345.15625 338.92188Q345.15625 340.04688 344.32812 340.84375Q343.5 341.64062 342.28125 341.64062Q341.10938 341.64062 340.34375 340.96875Q339.57812 340.29688 339.45312 339.21875ZM346.53125 339.29688L348.17188 339.125Q348.25 339.67188 348.59375 340.0Q348.9375 340.32812 349.39062 340.32812Q349.90625 340.32812 350.26562 339.90625Q350.625 339.48438 350.625 338.64062Q350.625 337.85938 350.26562 337.46875Q349.90625 337.0625 349.34375 337.0625Q348.625 337.0625 348.0625 337.6875L346.73438 337.5L347.57812 333.03125L351.9375 333.03125L351.9375 334.5625L348.82812 334.5625L348.5625 336.03125Q349.125 335.75 349.6875 335.75Q350.78125 335.75 351.54688 336.54688Q352.3125 337.34375 352.3125 338.60938Q352.3125 339.67188 351.70312 340.51562Q350.85938 341.64062 349.375 341.64062Q348.1875 341.64062 347.4375 341.01562Q346.6875 340.375 346.53125 339.29688Z"
          fill-rule="nonzero"/>
    <path fill="#ffffff"
          d="M449.3451 339.96875L449.3451 341.5L443.56384 341.5Q443.6576 340.625 444.12634 339.85938Q444.5951 339.07812 445.98572 337.79688Q447.0951 336.76562 447.3451 336.39062Q447.68884 335.875 447.68884 335.375Q447.68884 334.82812 447.39197 334.53125Q447.0951 334.23438 446.57947 334.23438Q446.06384 334.23438 445.75134 334.54688Q445.45447 334.85938 445.4076 335.57812L443.76697 335.42188Q443.9076 334.0625 444.67322 333.46875Q445.45447 332.875 446.61072 332.875Q447.89197 332.875 448.61072 333.5625Q449.3451 334.25 449.3451 335.26562Q449.3451 335.84375 449.12634 336.375Q448.92322 336.89062 448.4701 337.46875Q448.17322 337.84375 447.39197 338.5625Q446.61072 339.28125 446.4076 339.51562Q446.20447 339.75 446.06384 339.96875L449.3451 339.96875ZM453.56384 332.875Q454.81384 332.875 455.51697 333.76562Q456.3451 334.8125 456.3451 337.26562Q456.3451 339.70312 455.50134 340.76562Q454.81384 341.64062 453.56384 341.64062Q452.31384 341.64062 451.5326 340.6875Q450.76697 339.71875 450.76697 337.25Q450.76697 334.8125 451.61072 333.75Q452.31384 332.875 453.56384 332.875ZM453.56384 334.23438Q453.26697 334.23438 453.0326 334.4375Q452.79822 334.625 452.6576 335.10938Q452.50134 335.75 452.50134 337.26562Q452.50134 338.78125 452.64197 339.34375Q452.79822 339.90625 453.0326 340.09375Q453.26697 340.28125 453.56384 340.28125Q453.86072 340.28125 454.0951 340.09375Q454.32947 339.90625 454.45447 339.40625Q454.62634 338.78125 454.62634 337.26562Q454.62634 335.75 454.4701 335.1875Q454.32947 334.625 454.0951 334.4375Q453.86072 334.23438 453.56384 334.23438ZM461.00134 341.5L461.00134 339.76562L457.48572 339.76562L457.48572 338.32812L461.2201 332.875L462.5951 332.875L462.5951 338.32812L463.67322 338.32812L463.67322 339.76562L462.5951 339.76562L462.5951 341.5L461.00134 341.5ZM461.00134 338.32812L461.00134 335.39062L459.0326 338.32812L461.00134 338.32812ZM467.56384 332.875Q468.81384 332.875 469.51697 333.76562Q470.3451 334.8125 470.3451 337.26562Q470.3451 339.70312 469.50134 340.76562Q468.81384 341.64062 467.56384 341.64062Q466.31384 341.64062 465.5326 340.6875Q464.76697 339.71875 464.76697 337.25Q464.76697 334.8125 465.61072 333.75Q466.31384 332.875 467.56384 332.875ZM467.56384 334.23438Q467.26697 334.23438 467.0326 334.4375Q466.79822 334.625 466.6576 335.10938Q466.50134 335.75 466.50134 337.26562Q466.50134 338.78125 466.64197 339.34375Q466.79822 339.90625 467.0326 340.09375Q467.26697 340.28125 467.56384 340.28125Q467.86072 340.28125 468.0951 340.09375Q468.32947 339.90625 468.45447 339.40625Q468.62634 338.78125 468.62634 337.26562Q468.62634 335.75 468.4701 335.1875Q468.32947 334.625 468.0951 334.4375Q467.86072 334.23438 467.56384 334.23438Z"
          fill-rule="nonzero"/>
    <path fill="#ffffff"
          d="M567.61206 339.96875L567.61206 341.5L561.8308 341.5Q561.92456 340.625 562.3933 339.85938Q562.86206 339.07812 564.2527 337.79688Q565.36206 336.76562 565.61206 336.39062Q565.9558 335.875 565.9558 335.375Q565.9558 334.82812 565.65894 334.53125Q565.36206 334.23438 564.84644 334.23438Q564.3308 334.23438 564.0183 334.54688Q563.72144 334.85938 563.67456 335.57812L562.03394 335.42188Q562.17456 334.0625 562.9402 333.46875Q563.72144 332.875 564.8777 332.875Q566.15894 332.875 566.8777 333.5625Q567.61206 334.25 567.61206 335.26562Q567.61206 335.84375 567.3933 336.375Q567.1902 336.89062 566.73706 337.46875Q566.4402 337.84375 565.65894 338.5625Q564.8777 339.28125 564.67456 339.51562Q564.47144 339.75 564.3308 339.96875L567.61206 339.96875ZM571.8308 332.875Q573.0808 332.875 573.78394 333.76562Q574.61206 334.8125 574.61206 337.26562Q574.61206 339.70312 573.7683 340.76562Q573.0808 341.64062 571.8308 341.64062Q570.5808 341.64062 569.79956 340.6875Q569.03394 339.71875 569.03394 337.25Q569.03394 334.8125 569.8777 333.75Q570.5808 332.875 571.8308 332.875ZM571.8308 334.23438Q571.53394 334.23438 571.29956 334.4375Q571.0652 334.625 570.92456 335.10938Q570.7683 335.75 570.7683 337.26562Q570.7683 338.78125 570.90894 339.34375Q571.0652 339.90625 571.29956 340.09375Q571.53394 340.28125 571.8308 340.28125Q572.1277 340.28125 572.36206 340.09375Q572.59644 339.90625 572.72144 339.40625Q572.8933 338.78125 572.8933 337.26562Q572.8933 335.75 572.73706 335.1875Q572.59644 334.625 572.36206 334.4375Q572.1277 334.23438 571.8308 334.23438ZM579.2683 341.5L579.2683 339.76562L575.7527 339.76562L575.7527 338.32812L579.48706 332.875L580.86206 332.875L580.86206 338.32812L581.9402 338.32812L581.9402 339.76562L580.86206 339.76562L580.86206 341.5L579.2683 341.5ZM579.2683 338.32812L579.2683 335.39062L577.29956 338.32812L579.2683 338.32812ZM583.0652 339.29688L584.7058 339.125Q584.78394 339.67188 585.1277 340.0Q585.47144 340.32812 585.92456 340.32812Q586.4402 340.32812 586.79956 339.90625Q587.15894 339.48438 587.15894 338.64062Q587.15894 337.85938 586.79956 337.46875Q586.4402 337.0625 585.8777 337.0625Q585.15894 337.0625 584.59644 337.6875L583.2683 337.5L584.11206 333.03125L588.47144 333.03125L588.47144 334.5625L585.36206 334.5625L585.09644 336.03125Q585.65894 335.75 586.22144 335.75Q587.3152 335.75 588.0808 336.54688Q588.84644 337.34375 588.84644 338.60938Q588.84644 339.67188 588.23706 340.51562Q587.3933 341.64062 585.90894 341.64062Q584.72144 341.64062 583.97144 341.01562Q583.22144 340.375 583.0652 339.29688Z"
          fill-rule="nonzero"/>
</svg>