<svg version="1.1" viewBox="0.0 0.0 607.0 341.0" fill="none" stroke="none" stroke-linecap="square" stroke-miterlimit="10" width="607" height="341" xmlns:xlink="http://www.w3.org/1999/xlink" xmlns="http://www.w3.org/2000/svg"><path fill="#ffffff" fill-opacity="0.0" d="M0 0L607.0 0L607.0 341.0L0 341.0L0 0Z" fill-rule="nonzero"/><path stroke="#333333" stroke-width="1.0" stroke-linecap="butt" d="M86.5 294.5L590.5 294.5" fill-rule="nonzero"/><path stroke="#f5cde2" stroke-width="1.0" stroke-linecap="butt" d="M86.5 226.5L590.5 226.5" fill-rule="nonzero"/><path stroke="#f5cde2" stroke-width="1.0" stroke-linecap="butt" d="M86.5 159.5L590.5 159.5" fill-rule="nonzero"/><path stroke="#f5cde2" stroke-width="1.0" stroke-linecap="butt" d="M86.5 92.5L590.5 92.5" fill-rule="nonzero"/><path stroke="#f5cde2" stroke-width="1.0" stroke-linecap="butt" d="M86.5 25.5L590.5 25.5" fill-rule="nonzero"/><clipPath id="id_0"><path d="M86.5 25.402779L590.77545 25.402779L590.77545 294.06946L86.5 294.06946L86.5 25.402779Z" clip-rule="nonzero"/></clipPath><path stroke="#000000" stroke-width="2.0" stroke-linecap="butt" stroke-opacity="0.0" clip-path="url(#id_0)" d="M134.0 294.0L119.0 294.0L119.0 38.0C119.0 36.89543 119.89543 36.0 121.0 36.0L132.0 36.0C133.10457 36.0 134.0 36.89543 134.0 38.0Z" fill-rule="nonzero"/><path fill="#a9d8d8" clip-path="url(#id_0)" d="M134.0 294.0L119.0 294.0L119.0 38.0C119.0 36.89543 119.89543 36.0 121.0 36.0L132.0 36.0C133.10457 36.0 134.0 36.89543 134.0 38.0Z" fill-rule="nonzero"/><path stroke="#000000" stroke-width="2.0" stroke-linecap="butt" stroke-opacity="0.0" clip-path="url(#id_0)" d="M158.0 294.0L143.0 294.0L143.0 61.0C143.0 59.89543 143.89543 59.0 145.0 59.0L156.0 59.0C157.10457 59.0 158.0 59.89543 158.0 61.0Z" fill-rule="nonzero"/><path fill="#a9d8d8" clip-path="url(#id_0)" d="M158.0 294.0L143.0 294.0L143.0 61.0C143.0 59.89543 143.89543 59.0 145.0 59.0L156.0 59.0C157.10457 59.0 158.0 59.89543 158.0 61.0Z" fill-rule="nonzero"/><path stroke="#000000" stroke-width="2.0" stroke-linecap="butt" stroke-opacity="0.0" clip-path="url(#id_0)" d="M181.0 294.0L166.0 294.0L166.0 84.0C166.0 82.89543 166.89543 82.0 168.0 82.0L179.0 82.0C180.10457 82.0 181.0 82.89543 181.0 84.0Z" fill-rule="nonzero"/><path fill="#a9d8d8" clip-path="url(#id_0)" d="M181.0 294.0L166.0 294.0L166.0 84.0C166.0 82.89543 166.89543 82.0 168.0 82.0L179.0 82.0C180.10457 82.0 181.0 82.89543 181.0 84.0Z" fill-rule="nonzero"/><path stroke="#000000" stroke-width="2.0" stroke-linecap="butt" stroke-opacity="0.0" clip-path="url(#id_0)" d="M205.0 294.0L190.0 294.0L190.0 108.0C190.0 106.89543 190.89543 106.0 192.0 106.0L203.0 106.0C204.10457 106.0 205.0 106.89543 205.0 108.0Z" fill-rule="nonzero"/><path fill="#a9d8d8" clip-path="url(#id_0)" d="M205.0 294.0L190.0 294.0L190.0 108.0C190.0 106.89543 190.89543 106.0 192.0 106.0L203.0 106.0C204.10457 106.0 205.0 106.89543 205.0 108.0Z" fill-rule="nonzero"/><path stroke="#000000" stroke-width="2.0" stroke-linecap="butt" stroke-opacity="0.0" clip-path="url(#id_0)" d="M229.0 294.0L214.0 294.0L214.0 131.0C214.0 129.89543 214.89543 129.0 216.0 129.0L227.0 129.0C228.10457 129.0 229.0 129.89543 229.0 131.0Z" fill-rule="nonzero"/><path fill="#a9d8d8" clip-path="url(#id_0)" d="M229.0 294.0L214.0 294.0L214.0 131.0C214.0 129.89543 214.89543 129.0 216.0 129.0L227.0 129.0C228.10457 129.0 229.0 129.89543 229.0 131.0Z" fill-rule="nonzero"/><path stroke="#000000" stroke-width="2.0" stroke-linecap="butt" stroke-opacity="0.0" clip-path="url(#id_0)" d="M252.0 294.0L237.0 294.0L237.0 150.0C237.0 148.89543 237.89543 148.0 239.0 148.0L250.0 148.0C251.10457 148.0 252.0 148.89543 252.0 150.0Z" fill-rule="nonzero"/><path fill="#a9d8d8" clip-path="url(#id_0)" d="M252.0 294.0L237.0 294.0L237.0 150.0C237.0 148.89543 237.89543 148.0 239.0 148.0L250.0 148.0C251.10457 148.0 252.0 148.89543 252.0 150.0Z" fill-rule="nonzero"/><path stroke="#000000" stroke-width="2.0" stroke-linecap="butt" stroke-opacity="0.0" clip-path="url(#id_0)" d="M276.0 294.0L261.0 294.0L261.0 169.0C261.0 167.89543 261.89542 167.0 263.0 167.0L274.0 167.0C275.10458 167.0 276.0 167.89543 276.0 169.0Z" fill-rule="nonzero"/><path fill="#a9d8d8" clip-path="url(#id_0)" d="M276.0 294.0L261.0 294.0L261.0 169.0C261.0 167.89543 261.89542 167.0 263.0 167.0L274.0 167.0C275.10458 167.0 276.0 167.89543 276.0 169.0Z" fill-rule="nonzero"/><path stroke="#000000" stroke-width="2.0" stroke-linecap="butt" stroke-opacity="0.0" clip-path="url(#id_0)" d="M299.0 294.0L284.0 294.0L284.0 188.0C284.0 186.89543 284.89542 186.0 286.0 186.0L297.0 186.0C298.10458 186.0 299.0 186.89543 299.0 188.0Z" fill-rule="nonzero"/><path fill="#a9d8d8" clip-path="url(#id_0)" d="M299.0 294.0L284.0 294.0L284.0 188.0C284.0 186.89543 284.89542 186.0 286.0 186.0L297.0 186.0C298.10458 186.0 299.0 186.89543 299.0 188.0Z" fill-rule="nonzero"/><path stroke="#000000" stroke-width="2.0" stroke-linecap="butt" stroke-opacity="0.0" clip-path="url(#id_0)" d="M323.0 294.0L308.0 294.0L308.0 207.0C308.0 205.89543 308.89542 205.0 310.0 205.0L321.0 205.0C322.10458 205.0 323.0 205.89543 323.0 207.0Z" fill-rule="nonzero"/><path fill="#a9d8d8" clip-path="url(#id_0)" d="M323.0 294.0L308.0 294.0L308.0 207.0C308.0 205.89543 308.89542 205.0 310.0 205.0L321.0 205.0C322.10458 205.0 323.0 205.89543 323.0 207.0Z" fill-rule="nonzero"/><path stroke="#000000" stroke-width="2.0" stroke-linecap="butt" stroke-opacity="0.0" clip-path="url(#id_0)" d="M347.0 294.0L332.0 294.0L332.0 226.0C332.0 224.89543 332.89542 224.0 334.0 224.0L345.0 224.0C346.10458 224.0 347.0 224.89543 347.0 226.0Z" fill-rule="nonzero"/><path fill="#a9d8d8" clip-path="url(#id_0)" d="M347.0 294.0L332.0 294.0L332.0 226.0C332.0 224.89543 332.89542 224.0 334.0 224.0L345.0 224.0C346.10458 224.0 347.0 224.89543 347.0 226.0Z" fill-rule="nonzero"/><path stroke="#000000" stroke-width="2.0" stroke-linecap="butt" stroke-opacity="0.0" clip-path="url(#id_0)" d="M370.0 294.0L355.0 294.0L355.0 238.0C355.0 236.89543 355.89542 236.0 357.0 236.0L368.0 236.0C369.10458 236.0 370.0 236.89543 370.0 238.0Z" fill-rule="nonzero"/><path fill="#a9d8d8" clip-path="url(#id_0)" d="M370.0 294.0L355.0 294.0L355.0 238.0C355.0 236.89543 355.89542 236.0 357.0 236.0L368.0 236.0C369.10458 236.0 370.0 236.89543 370.0 238.0Z" fill-rule="nonzero"/><path stroke="#000000" stroke-width="2.0" stroke-linecap="butt" stroke-opacity="0.0" clip-path="url(#id_0)" d="M394.0 294.0L379.0 294.0L379.0 249.0C379.0 247.89543 379.89542 247.0 381.0 247.0L392.0 247.0C393.10458 247.0 394.0 247.89543 394.0 249.0Z" fill-rule="nonzero"/><path fill="#a9d8d8" clip-path="url(#id_0)" d="M394.0 294.0L379.0 294.0L379.0 249.0C379.0 247.89543 379.89542 247.0 381.0 247.0L392.0 247.0C393.10458 247.0 394.0 247.89543 394.0 249.0Z" fill-rule="nonzero"/><path stroke="#000000" stroke-width="2.0" stroke-linecap="butt" stroke-opacity="0.0" clip-path="url(#id_0)" d="M417.0 294.0L402.0 294.0L402.0 261.0C402.0 259.89542 402.89542 259.0 404.0 259.0L415.0 259.0C416.10458 259.0 417.0 259.89542 417.0 261.0Z" fill-rule="nonzero"/><path fill="#a9d8d8" clip-path="url(#id_0)" d="M417.0 294.0L402.0 294.0L402.0 261.0C402.0 259.89542 402.89542 259.0 404.0 259.0L415.0 259.0C416.10458 259.0 417.0 259.89542 417.0 261.0Z" fill-rule="nonzero"/><path stroke="#000000" stroke-width="2.0" stroke-linecap="butt" stroke-opacity="0.0" clip-path="url(#id_0)" d="M441.0 294.0L426.0 294.0L426.0 273.0C426.0 271.89542 426.89542 271.0 428.0 271.0L439.0 271.0C440.10458 271.0 441.0 271.89542 441.0 273.0Z" fill-rule="nonzero"/><path fill="#a9d8d8" clip-path="url(#id_0)" d="M441.0 294.0L426.0 294.0L426.0 273.0C426.0 271.89542 426.89542 271.0 428.0 271.0L439.0 271.0C440.10458 271.0 441.0 271.89542 441.0 273.0Z" fill-rule="nonzero"/><path stroke="#000000" stroke-width="2.0" stroke-linecap="butt" stroke-opacity="0.0" clip-path="url(#id_0)" d="M465.0 294.0L450.0 294.0L450.0 285.0C450.0 283.89542 450.89542 283.0 452.0 283.0L463.0 283.0C464.10458 283.0 465.0 283.89542 465.0 285.0Z" fill-rule="nonzero"/><path fill="#a9d8d8" clip-path="url(#id_0)" d="M465.0 294.0L450.0 294.0L450.0 285.0C450.0 283.89542 450.89542 283.0 452.0 283.0L463.0 283.0C464.10458 283.0 465.0 283.89542 465.0 285.0Z" fill-rule="nonzero"/><path fill="#235753" d="M26.849825 217.28577L18.256075 217.28577L18.256075 215.55139L22.068575 215.55139L18.256075 212.03577L18.256075 209.70764L21.599825 212.94202L26.849825 209.53577L26.849825 211.77014L22.818575 214.14514L24.256075 215.55139L26.849825 215.55139L26.849825 217.28577ZM19.787325 209.31702L18.256075 209.31702L18.256075 207.66077L19.787325 207.66077L19.787325 209.31702ZM26.849825 209.31702L20.631075 209.31702L20.631075 207.66077L26.849825 207.66077L26.849825 209.31702ZM26.849825 206.31702L18.256075 206.31702L18.256075 204.66077L26.849825 204.66077L26.849825 206.31702ZM23.6467 203.69202Q22.8342 203.69202 22.068575 203.28577Q21.287325 202.87952 20.8967 202.14514Q20.49045 201.41077 20.49045 200.48889Q20.49045 199.08264 21.412325 198.17639Q22.318575 197.27014 23.724825 197.27014Q25.131075 197.27014 26.068575 198.19202Q26.99045 199.09827 26.99045 200.47327Q26.99045 201.33264 26.599825 202.11389Q26.2092 202.87952 25.474825 203.28577Q24.724825 203.69202 23.6467 203.69202ZM23.74045 202.00452Q24.662325 202.00452 25.162325 201.56702Q25.6467 201.12952 25.6467 200.48889Q25.6467 199.83264 25.162325 199.41077Q24.662325 198.97327 23.724825 198.97327Q22.818575 198.97327 22.3342 199.41077Q21.8342 199.83264 21.8342 200.48889Q21.8342 201.12952 22.3342 201.56702Q22.818575 202.00452 23.74045 202.00452ZM20.631075 193.45764L21.943575 193.45764L21.943575 194.58264L24.443575 194.58264Q25.2092 194.58264 25.3342 194.55139Q25.4592 194.52014 25.55295 194.41077Q25.631075 194.28577 25.631075 194.12952Q25.631075 193.89514 25.4592 193.47327L26.74045 193.33264Q26.99045 193.89514 26.99045 194.62952Q26.99045 195.06702 26.849825 195.42639Q26.693575 195.78577 26.4592 195.95764Q26.2092 196.11389 25.818575 196.19202Q25.5217 196.23889 24.6467 196.23889L21.943575 196.23889L21.943575 196.98889L20.631075 196.98889L20.631075 196.23889L19.3967 196.23889L18.42795 194.58264L20.631075 194.58264L20.631075 193.45764ZM23.6467 192.69202Q22.8342 192.69202 22.068575 192.28577Q21.287325 191.87952 20.8967 191.14514Q20.49045 190.41077 20.49045 189.48889Q20.49045 188.08264 21.412325 187.17639Q22.318575 186.27014 23.724825 186.27014Q25.131075 186.27014 26.068575 187.19202Q26.99045 188.09827 26.99045 189.47327Q26.99045 190.33264 26.599825 191.11389Q26.2092 191.87952 25.474825 192.28577Q24.724825 192.69202 23.6467 192.69202ZM23.74045 191.00452Q24.662325 191.00452 25.162325 190.56702Q25.6467 190.12952 25.6467 189.48889Q25.6467 188.83264 25.162325 188.41077Q24.662325 187.97327 23.724825 187.97327Q22.818575 187.97327 22.3342 188.41077Q21.8342 188.83264 21.8342 189.48889Q21.8342 190.12952 22.3342 190.56702Q22.818575 191.00452 23.74045 191.00452ZM26.849825 179.66077L26.849825 181.30139L23.67795 181.30139Q22.662325 181.30139 22.36545 181.41077Q22.068575 181.50452 21.912325 181.75452Q21.74045 181.98889 21.74045 182.31702Q21.74045 182.75452 21.974825 183.09827Q22.2092 183.42639 22.599825 183.55139Q22.99045 183.67639 24.037325 183.67639L26.849825 183.67639L26.849825 185.33264L20.631075 185.33264L20.631075 183.80139L21.537325 183.80139Q20.49045 182.98889 20.49045 181.73889Q20.49045 181.20764 20.693575 180.75452Q20.881075 180.30139 21.193575 180.06702Q21.49045 179.83264 21.881075 179.75452Q22.256075 179.66077 22.974825 179.66077L26.849825 179.66077ZM26.849825 172.66077L26.849825 174.30139L23.67795 174.30139Q22.662325 174.30139 22.36545 174.41077Q22.068575 174.50452 21.912325 174.75452Q21.74045 174.98889 21.74045 175.31702Q21.74045 175.75452 21.974825 176.09827Q22.2092 176.42639 22.599825 176.55139Q22.99045 176.67639 24.037325 176.67639L26.849825 176.67639L26.849825 178.33264L20.631075 178.33264L20.631075 176.80139L21.537325 176.80139Q20.49045 175.98889 20.49045 174.73889Q20.49045 174.20764 20.693575 173.75452Q20.881075 173.30139 21.193575 173.06702Q21.49045 172.83264 21.881075 172.75452Q22.256075 172.66077 22.974825 172.66077L26.849825 172.66077ZM24.86545 167.70764L25.1467 166.06702Q26.05295 166.37952 26.5217 167.06702Q26.99045 167.75452 26.99045 168.77014Q26.99045 170.39514 25.92795 171.17639Q25.0842 171.80139 23.787325 171.80139Q22.24045 171.80139 21.36545 170.98889Q20.49045 170.17639 20.49045 168.94202Q20.49045 167.55139 21.412325 166.75452Q22.318575 165.94202 24.2092 165.98889L24.2092 170.11389Q24.943575 170.08264 25.349825 169.70764Q25.756075 169.33264 25.756075 168.75452Q25.756075 168.37952 25.55295 168.11389Q25.3342 167.84827 24.86545 167.70764ZM23.2092 167.61389Q22.49045 167.62952 22.11545 167.98889Q21.74045 168.33264 21.74045 168.84827Q21.74045 169.37952 22.131075 169.73889Q22.537325 170.08264 23.2092 170.08264L23.2092 167.61389ZM26.849825 158.66077L26.849825 160.30139L23.67795 160.30139Q22.662325 160.30139 22.36545 160.41077Q22.068575 160.50452 21.912325 160.75452Q21.74045 160.98889 21.74045 161.31702Q21.74045 161.75452 21.974825 162.09827Q22.2092 162.42639 22.599825 162.55139Q22.99045 162.67639 24.037325 162.67639L26.849825 162.67639L26.849825 164.33264L20.631075 164.33264L20.631075 162.80139L21.537325 162.80139Q20.49045 161.98889 20.49045 160.73889Q20.49045 160.20764 20.693575 159.75452Q20.881075 159.30139 21.193575 159.06702Q21.49045 158.83264 21.881075 158.75452Q22.256075 158.66077 22.974825 158.66077L26.849825 158.66077ZM23.693575 148.80139L24.224825 147.12952Q25.631075 147.50452 26.318575 148.41077Q26.99045 149.31702 26.99045 150.69202Q26.99045 152.41077 25.8342 153.52014Q24.662325 154.61389 22.631075 154.61389Q20.49045 154.61389 19.30295 153.50452Q18.11545 152.39514 18.11545 150.58264Q18.11545 149.00452 19.037325 148.02014Q19.599825 147.44202 20.631075 147.14514L21.037325 148.86389Q20.36545 149.02014 19.99045 149.50452Q19.599825 149.98889 19.599825 150.67639Q19.599825 151.62952 20.287325 152.22327Q20.9592 152.81702 22.506075 152.81702Q24.131075 152.81702 24.818575 152.23889Q25.506075 151.64514 25.506075 150.70764Q25.506075 150.02014 25.068575 149.52014Q24.631075 149.02014 23.693575 148.80139ZM22.599825 146.66077Q21.287325 146.66077 20.3967 146.25452Q19.74045 145.97327 19.224825 145.47327Q18.7092 144.95764 18.4592 144.34827Q18.11545 143.55139 18.11545 142.50452Q18.11545 140.59827 19.30295 139.45764Q20.474825 138.31702 22.568575 138.31702Q24.6467 138.31702 25.818575 139.45764Q26.99045 140.58264 26.99045 142.47327Q26.99045 144.39514 25.8342 145.53577Q24.662325 146.66077 22.599825 146.66077ZM22.55295 144.86389Q24.006075 144.86389 24.756075 144.19202Q25.506075 143.52014 25.506075 142.48889Q25.506075 141.44202 24.7717 140.78577Q24.0217 140.11389 22.5217 140.11389Q21.05295 140.11389 20.3342 140.77014Q19.599825 141.41077 19.599825 142.48889Q19.599825 143.55139 20.3342 144.20764Q21.068575 144.86389 22.55295 144.86389ZM25.318575 132.09827L26.849825 132.09827L26.849825 137.87952Q25.974825 137.78577 25.2092 137.31702Q24.42795 136.84827 23.1467 135.45764Q22.11545 134.34827 21.74045 134.09827Q21.224825 133.75452 20.724825 133.75452Q20.17795 133.75452 19.881075 134.05139Q19.5842 134.34827 19.5842 134.86389Q19.5842 135.37952 19.8967 135.69202Q20.2092 135.98889 20.92795 136.03577L20.7717 137.67639Q19.412325 137.53577 18.818575 136.77014Q18.224825 135.98889 18.224825 134.83264Q18.224825 133.55139 18.912325 132.83264Q19.599825 132.09827 20.61545 132.09827Q21.193575 132.09827 21.724825 132.31702Q22.24045 132.52014 22.818575 132.97327Q23.193575 133.27014 23.912325 134.05139Q24.631075 134.83264 24.86545 135.03577Q25.099825 135.23889 25.318575 135.37952L25.318575 132.09827Z" fill-rule="nonzero"/><path fill="#235753" d="M76.796875 289.44446Q78.046875 289.44446 78.75 290.33508Q79.578125 291.38196 79.578125 293.83508Q79.578125 296.27258 78.734375 297.33508Q78.046875 298.21008 76.796875 298.21008Q75.546875 298.21008 74.765625 297.25696Q74.0 296.2882 74.0 293.81946Q74.0 291.38196 74.84375 290.31946Q75.546875 289.44446 76.796875 289.44446ZM76.796875 290.80383Q76.5 290.80383 76.265625 291.00696Q76.03125 291.19446 75.890625 291.67883Q75.734375 292.31946 75.734375 293.83508Q75.734375 295.3507 75.875 295.9132Q76.03125 296.4757 76.265625 296.6632Q76.5 296.8507 76.796875 296.8507Q77.09375 296.8507 77.328125 296.6632Q77.5625 296.4757 77.6875 295.9757Q77.859375 295.3507 77.859375 293.83508Q77.859375 292.31946 77.703125 291.75696Q77.5625 291.19446 77.328125 291.00696Q77.09375 290.80383 76.796875 290.80383Z" fill-rule="nonzero"/><path fill="#235753" d="M55.578125 229.37152L55.578125 230.90277L49.796875 230.90277Q49.890625 230.02777 50.359375 229.26215Q50.828125 228.4809 52.21875 227.19965Q53.328125 226.1684 53.578125 225.7934Q53.921875 225.27777 53.921875 224.77777Q53.921875 224.2309 53.625 223.93402Q53.328125 223.63715 52.8125 223.63715Q52.296875 223.63715 51.984375 223.94965Q51.6875 224.26215 51.640625 224.9809L50.0 224.82465Q50.140625 223.46527 50.90625 222.87152Q51.6875 222.27777 52.84375 222.27777Q54.125 222.27777 54.84375 222.96527Q55.578125 223.65277 55.578125 224.6684Q55.578125 225.24652 55.359375 225.77777Q55.15625 226.2934 54.703125 226.87152Q54.40625 227.24652 53.625 227.96527Q52.84375 228.68402 52.640625 228.9184Q52.4375 229.15277 52.296875 229.37152L55.578125 229.37152ZM57.359375 230.90277L57.359375 229.26215L59.015625 229.26215L59.015625 230.90277L57.359375 230.90277ZM60.03125 228.69965L61.671875 228.52777Q61.75 229.07465 62.09375 229.40277Q62.4375 229.7309 62.890625 229.7309Q63.40625 229.7309 63.765625 229.30902Q64.125 228.88715 64.125 228.0434Q64.125 227.26215 63.765625 226.87152Q63.40625 226.46527 62.84375 226.46527Q62.125 226.46527 61.5625 227.09027L60.234375 226.90277L61.078125 222.43402L65.4375 222.43402L65.4375 223.96527L62.328125 223.96527L62.0625 225.43402Q62.625 225.15277 63.1875 225.15277Q64.28125 225.15277 65.046875 225.94965Q65.8125 226.74652 65.8125 228.01215Q65.8125 229.07465 65.203125 229.9184Q64.359375 231.0434 62.875 231.0434Q61.6875 231.0434 60.9375 230.4184Q60.1875 229.77777 60.03125 228.69965ZM69.796875 222.27777Q71.046875 222.27777 71.75 223.1684Q72.578125 224.21527 72.578125 226.6684Q72.578125 229.1059 71.734375 230.1684Q71.046875 231.0434 69.796875 231.0434Q68.546875 231.0434 67.765625 230.09027Q67.0 229.12152 67.0 226.65277Q67.0 224.21527 67.84375 223.15277Q68.546875 222.27777 69.796875 222.27777ZM69.796875 223.63715Q69.5 223.63715 69.265625 223.84027Q69.03125 224.02777 68.890625 224.51215Q68.734375 225.15277 68.734375 226.6684Q68.734375 228.18402 68.875 228.74652Q69.03125 229.30902 69.265625 229.49652Q69.5 229.68402 69.796875 229.68402Q70.09375 229.68402 70.328125 229.49652Q70.5625 229.30902 70.6875 228.80902Q70.859375 228.18402 70.859375 226.6684Q70.859375 225.15277 70.703125 224.59027Q70.5625 224.02777 70.328125 223.84027Q70.09375 223.63715 69.796875 223.63715ZM76.796875 222.27777Q78.046875 222.27777 78.75 223.1684Q79.578125 224.21527 79.578125 226.6684Q79.578125 229.1059 78.734375 230.1684Q78.046875 231.0434 76.796875 231.0434Q75.546875 231.0434 74.765625 230.09027Q74.0 229.12152 74.0 226.65277Q74.0 224.21527 74.84375 223.15277Q75.546875 222.27777 76.796875 222.27777ZM76.796875 223.63715Q76.5 223.63715 76.265625 223.84027Q76.03125 224.02777 75.890625 224.51215Q75.734375 225.15277 75.734375 226.6684Q75.734375 228.18402 75.875 228.74652Q76.03125 229.30902 76.265625 229.49652Q76.5 229.68402 76.796875 229.68402Q77.09375 229.68402 77.328125 229.49652Q77.5625 229.30902 77.6875 228.80902Q77.859375 228.18402 77.859375 226.6684Q77.859375 225.15277 77.703125 224.59027Q77.5625 224.02777 77.328125 223.84027Q77.09375 223.63715 76.796875 223.63715Z" fill-rule="nonzero"/><path fill="#235753" d="M50.03125 161.53299L51.671875 161.36111Q51.75 161.90799 52.09375 162.23611Q52.4375 162.56424 52.890625 162.56424Q53.40625 162.56424 53.765625 162.14236Q54.125 161.72049 54.125 160.87674Q54.125 160.09549 53.765625 159.70486Q53.40625 159.29861 52.84375 159.29861Q52.125 159.29861 51.5625 159.92361L50.234375 159.73611L51.078125 155.26736L55.4375 155.26736L55.4375 156.79861L52.328125 156.79861L52.0625 158.26736Q52.625 157.98611 53.1875 157.98611Q54.28125 157.98611 55.046875 158.78299Q55.8125 159.57986 55.8125 160.84549Q55.8125 161.90799 55.203125 162.75174Q54.359375 163.87674 52.875 163.87674Q51.6875 163.87674 50.9375 163.25174Q50.1875 162.61111 50.03125 161.53299ZM57.359375 163.73611L57.359375 162.09549L59.015625 162.09549L59.015625 163.73611L57.359375 163.73611ZM62.796875 155.11111Q64.046875 155.11111 64.75 156.00174Q65.578125 157.04861 65.578125 159.50174Q65.578125 161.93924 64.734375 163.00174Q64.046875 163.87674 62.796875 163.87674Q61.546875 163.87674 60.765625 162.92361Q60.0 161.95486 60.0 159.48611Q60.0 157.04861 60.84375 155.98611Q61.546875 155.11111 62.796875 155.11111ZM62.796875 156.47049Q62.5 156.47049 62.265625 156.67361Q62.03125 156.86111 61.890625 157.34549Q61.734375 157.98611 61.734375 159.50174Q61.734375 161.01736 61.875 161.57986Q62.03125 162.14236 62.265625 162.32986Q62.5 162.51736 62.796875 162.51736Q63.09375 162.51736 63.328125 162.32986Q63.5625 162.14236 63.6875 161.64236Q63.859375 161.01736 63.859375 159.50174Q63.859375 157.98611 63.703125 157.42361Q63.5625 156.86111 63.328125 156.67361Q63.09375 156.47049 62.796875 156.47049ZM69.796875 155.11111Q71.046875 155.11111 71.75 156.00174Q72.578125 157.04861 72.578125 159.50174Q72.578125 161.93924 71.734375 163.00174Q71.046875 163.87674 69.796875 163.87674Q68.546875 163.87674 67.765625 162.92361Q67.0 161.95486 67.0 159.48611Q67.0 157.04861 67.84375 155.98611Q68.546875 155.11111 69.796875 155.11111ZM69.796875 156.47049Q69.5 156.47049 69.265625 156.67361Q69.03125 156.86111 68.890625 157.34549Q68.734375 157.98611 68.734375 159.50174Q68.734375 161.01736 68.875 161.57986Q69.03125 162.14236 69.265625 162.32986Q69.5 162.51736 69.796875 162.51736Q70.09375 162.51736 70.328125 162.32986Q70.5625 162.14236 70.6875 161.64236Q70.859375 161.01736 70.859375 159.50174Q70.859375 157.98611 70.703125 157.42361Q70.5625 156.86111 70.328125 156.67361Q70.09375 156.47049 69.796875 156.47049ZM76.796875 155.11111Q78.046875 155.11111 78.75 156.00174Q79.578125 157.04861 79.578125 159.50174Q79.578125 161.93924 78.734375 163.00174Q78.046875 163.87674 76.796875 163.87674Q75.546875 163.87674 74.765625 162.92361Q74.0 161.95486 74.0 159.48611Q74.0 157.04861 74.84375 155.98611Q75.546875 155.11111 76.796875 155.11111ZM76.796875 156.47049Q76.5 156.47049 76.265625 156.67361Q76.03125 156.86111 75.890625 157.34549Q75.734375 157.98611 75.734375 159.50174Q75.734375 161.01736 75.875 161.57986Q76.03125 162.14236 76.265625 162.32986Q76.5 162.51736 76.796875 162.51736Q77.09375 162.51736 77.328125 162.32986Q77.5625 162.14236 77.6875 161.64236Q77.859375 161.01736 77.859375 159.50174Q77.859375 157.98611 77.703125 157.42361Q77.5625 156.86111 77.328125 156.67361Q77.09375 156.47049 76.796875 156.47049Z" fill-rule="nonzero"/><path fill="#235753" d="M50.015625 89.63194L50.015625 88.10069L55.640625 88.10069L55.640625 89.28819Q54.9375 89.97569 54.21875 91.25694Q53.5 92.53819 53.125 93.99132Q52.75 95.42882 52.75 96.56944L51.171875 96.56944Q51.203125 94.78819 51.890625 92.94444Q52.59375 91.08507 53.75 89.63194L50.015625 89.63194ZM57.359375 96.56944L57.359375 94.92882L59.015625 94.92882L59.015625 96.56944L57.359375 96.56944ZM60.03125 94.36632L61.671875 94.19444Q61.75 94.74132 62.09375 95.06944Q62.4375 95.39757 62.890625 95.39757Q63.40625 95.39757 63.765625 94.97569Q64.125 94.55382 64.125 93.71007Q64.125 92.92882 63.765625 92.53819Q63.40625 92.13194 62.84375 92.13194Q62.125 92.13194 61.5625 92.75694L60.234375 92.56944L61.078125 88.10069L65.4375 88.10069L65.4375 89.63194L62.328125 89.63194L62.0625 91.10069Q62.625 90.81944 63.1875 90.81944Q64.28125 90.81944 65.046875 91.61632Q65.8125 92.41319 65.8125 93.67882Q65.8125 94.74132 65.203125 95.58507Q64.359375 96.71007 62.875 96.71007Q61.6875 96.71007 60.9375 96.08507Q60.1875 95.44444 60.03125 94.36632ZM69.796875 87.94444Q71.046875 87.94444 71.75 88.83507Q72.578125 89.88194 72.578125 92.33507Q72.578125 94.77257 71.734375 95.83507Q71.046875 96.71007 69.796875 96.71007Q68.546875 96.71007 67.765625 95.75694Q67.0 94.78819 67.0 92.31944Q67.0 89.88194 67.84375 88.81944Q68.546875 87.94444 69.796875 87.94444ZM69.796875 89.30382Q69.5 89.30382 69.265625 89.50694Q69.03125 89.69444 68.890625 90.17882Q68.734375 90.81944 68.734375 92.33507Q68.734375 93.85069 68.875 94.41319Q69.03125 94.97569 69.265625 95.16319Q69.5 95.35069 69.796875 95.35069Q70.09375 95.35069 70.328125 95.16319Q70.5625 94.97569 70.6875 94.47569Q70.859375 93.85069 70.859375 92.33507Q70.859375 90.81944 70.703125 90.25694Q70.5625 89.69444 70.328125 89.50694Q70.09375 89.30382 69.796875 89.30382ZM76.796875 87.94444Q78.046875 87.94444 78.75 88.83507Q79.578125 89.88194 79.578125 92.33507Q79.578125 94.77257 78.734375 95.83507Q78.046875 96.71007 76.796875 96.71007Q75.546875 96.71007 74.765625 95.75694Q74.0 94.78819 74.0 92.31944Q74.0 89.88194 74.84375 88.81944Q75.546875 87.94444 76.796875 87.94444ZM76.796875 89.30382Q76.5 89.30382 76.265625 89.50694Q76.03125 89.69444 75.890625 90.17882Q75.734375 90.81944 75.734375 92.33507Q75.734375 93.85069 75.875 94.41319Q76.03125 94.97569 76.265625 95.16319Q76.5 95.35069 76.796875 95.35069Q77.09375 95.35069 77.328125 95.16319Q77.5625 94.97569 77.6875 94.47569Q77.859375 93.85069 77.859375 92.33507Q77.859375 90.81944 77.703125 90.25694Q77.5625 89.69444 77.328125 89.50694Q77.09375 89.30382 76.796875 89.30382Z" fill-rule="nonzero"/><path fill="#235753" d="M47.21875 29.402779L45.578125 29.402779L45.578125 23.199654Q44.671875 24.043404 43.453125 24.449654L43.453125 22.949654Q44.09375 22.746529 44.84375 22.152779Q45.609375 21.559029 45.890625 20.777779L47.21875 20.777779L47.21875 29.402779ZM52.796875 20.777779Q54.046875 20.777779 54.75 21.668404Q55.578125 22.715279 55.578125 25.168404Q55.578125 27.605904 54.734375 28.668404Q54.046875 29.543404 52.796875 29.543404Q51.546875 29.543404 50.765625 28.590279Q50.0 27.621529 50.0 25.152779Q50.0 22.715279 50.84375 21.652779Q51.546875 20.777779 52.796875 20.777779ZM52.796875 22.137154Q52.5 22.137154 52.265625 22.340279Q52.03125 22.527779 51.890625 23.012154Q51.734375 23.652779 51.734375 25.168404Q51.734375 26.684029 51.875 27.246529Q52.03125 27.809029 52.265625 27.996529Q52.5 28.184029 52.796875 28.184029Q53.09375 28.184029 53.328125 27.996529Q53.5625 27.809029 53.6875 27.309029Q53.859375 26.684029 53.859375 25.168404Q53.859375 23.652779 53.703125 23.090279Q53.5625 22.527779 53.328125 22.340279Q53.09375 22.137154 52.796875 22.137154ZM57.359375 29.402779L57.359375 27.762154L59.015625 27.762154L59.015625 29.402779L57.359375 29.402779ZM62.796875 20.777779Q64.046875 20.777779 64.75 21.668404Q65.578125 22.715279 65.578125 25.168404Q65.578125 27.605904 64.734375 28.668404Q64.046875 29.543404 62.796875 29.543404Q61.546875 29.543404 60.765625 28.590279Q60.0 27.621529 60.0 25.152779Q60.0 22.715279 60.84375 21.652779Q61.546875 20.777779 62.796875 20.777779ZM62.796875 22.137154Q62.5 22.137154 62.265625 22.340279Q62.03125 22.527779 61.890625 23.012154Q61.734375 23.652779 61.734375 25.168404Q61.734375 26.684029 61.875 27.246529Q62.03125 27.809029 62.265625 27.996529Q62.5 28.184029 62.796875 28.184029Q63.09375 28.184029 63.328125 27.996529Q63.5625 27.809029 63.6875 27.309029Q63.859375 26.684029 63.859375 25.168404Q63.859375 23.652779 63.703125 23.090279Q63.5625 22.527779 63.328125 22.340279Q63.09375 22.137154 62.796875 22.137154ZM69.796875 20.777779Q71.046875 20.777779 71.75 21.668404Q72.578125 22.715279 72.578125 25.168404Q72.578125 27.605904 71.734375 28.668404Q71.046875 29.543404 69.796875 29.543404Q68.546875 29.543404 67.765625 28.590279Q67.0 27.621529 67.0 25.152779Q67.0 22.715279 67.84375 21.652779Q68.546875 20.777779 69.796875 20.777779ZM69.796875 22.137154Q69.5 22.137154 69.265625 22.340279Q69.03125 22.527779 68.890625 23.012154Q68.734375 23.652779 68.734375 25.168404Q68.734375 26.684029 68.875 27.246529Q69.03125 27.809029 69.265625 27.996529Q69.5 28.184029 69.796875 28.184029Q70.09375 28.184029 70.328125 27.996529Q70.5625 27.809029 70.6875 27.309029Q70.859375 26.684029 70.859375 25.168404Q70.859375 23.652779 70.703125 23.090279Q70.5625 22.527779 70.328125 22.340279Q70.09375 22.137154 69.796875 22.137154ZM76.796875 20.777779Q78.046875 20.777779 78.75 21.668404Q79.578125 22.715279 79.578125 25.168404Q79.578125 27.605904 78.734375 28.668404Q78.046875 29.543404 76.796875 29.543404Q75.546875 29.543404 74.765625 28.590279Q74.0 27.621529 74.0 25.152779Q74.0 22.715279 74.84375 21.652779Q75.546875 20.777779 76.796875 20.777779ZM76.796875 22.137154Q76.5 22.137154 76.265625 22.340279Q76.03125 22.527779 75.890625 23.012154Q75.734375 23.652779 75.734375 25.168404Q75.734375 26.684029 75.875 27.246529Q76.03125 27.809029 76.265625 27.996529Q76.5 28.184029 76.796875 28.184029Q77.09375 28.184029 77.328125 27.996529Q77.5625 27.809029 77.6875 27.309029Q77.859375 26.684029 77.859375 25.168404Q77.859375 23.652779 77.703125 23.090279Q77.5625 22.527779 77.328125 22.340279Q77.09375 22.137154 76.796875 22.137154Z" fill-rule="nonzero"/><path fill="#235753" d="M94.521255 309.5382L94.521255 311.06946L88.740005 311.06946Q88.833755 310.19446 89.302505 309.42883Q89.771255 308.64758 91.16188 307.36633Q92.271255 306.33508 92.521255 305.96008Q92.865005 305.44446 92.865005 304.94446Q92.865005 304.39758 92.56813 304.1007Q92.271255 303.80383 91.75563 303.80383Q91.240005 303.80383 90.927505 304.11633Q90.63063 304.42883 90.583755 305.14758L88.94313 304.99133Q89.083755 303.63196 89.84938 303.0382Q90.63063 302.44446 91.78688 302.44446Q93.06813 302.44446 93.78688 303.13196Q94.521255 303.81946 94.521255 304.83508Q94.521255 305.4132 94.302505 305.94446Q94.09938 306.46008 93.646255 307.0382Q93.34938 307.4132 92.56813 308.13196Q91.78688 308.8507 91.583755 309.08508Q91.38063 309.31946 91.240005 309.5382L94.521255 309.5382ZM98.740005 302.44446Q99.990005 302.44446 100.69313 303.33508Q101.521255 304.38196 101.521255 306.83508Q101.521255 309.27258 100.677505 310.33508Q99.990005 311.21008 98.740005 311.21008Q97.490005 311.21008 96.708755 310.25696Q95.94313 309.2882 95.94313 306.81946Q95.94313 304.38196 96.78688 303.31946Q97.490005 302.44446 98.740005 302.44446ZM98.740005 303.80383Q98.44313 303.80383 98.208755 304.00696Q97.97438 304.19446 97.833755 304.67883Q97.677505 305.31946 97.677505 306.83508Q97.677505 308.3507 97.81813 308.9132Q97.97438 309.4757 98.208755 309.6632Q98.44313 309.8507 98.740005 309.8507Q99.03688 309.8507 99.271255 309.6632Q99.50563 309.4757 99.63063 308.9757Q99.802505 308.3507 99.802505 306.83508Q99.802505 305.31946 99.646255 304.75696Q99.50563 304.19446 99.271255 304.00696Q99.03688 303.80383 98.740005 303.80383ZM108.521255 309.5382L108.521255 311.06946L102.740005 311.06946Q102.833755 310.19446 103.302505 309.42883Q103.771255 308.64758 105.16188 307.36633Q106.271255 306.33508 106.521255 305.96008Q106.865005 305.44446 106.865005 304.94446Q106.865005 304.39758 106.56813 304.1007Q106.271255 303.80383 105.75563 303.80383Q105.240005 303.80383 104.927505 304.11633Q104.63063 304.42883 104.583755 305.14758L102.94313 304.99133Q103.083755 303.63196 103.84938 303.0382Q104.63063 302.44446 105.78688 302.44446Q107.06813 302.44446 107.78688 303.13196Q108.521255 303.81946 108.521255 304.83508Q108.521255 305.4132 108.302505 305.94446Q108.09938 306.46008 107.646255 307.0382Q107.34938 307.4132 106.56813 308.13196Q105.78688 308.8507 105.583755 309.08508Q105.38063 309.31946 105.240005 309.5382L108.521255 309.5382ZM109.97438 308.86633L111.615005 308.69446Q111.69313 309.24133 112.03688 309.56946Q112.38063 309.89758 112.833755 309.89758Q113.34938 309.89758 113.708755 309.4757Q114.06813 309.05383 114.06813 308.21008Q114.06813 307.42883 113.708755 307.0382Q113.34938 306.63196 112.78688 306.63196Q112.06813 306.63196 111.50563 307.25696L110.177505 307.06946L111.021255 302.6007L115.38063 302.6007L115.38063 304.13196L112.271255 304.13196L112.00563 305.6007Q112.56813 305.31946 113.13063 305.31946Q114.22438 305.31946 114.990005 306.11633Q115.75563 306.9132 115.75563 308.17883Q115.75563 309.24133 115.146255 310.08508Q114.302505 311.21008 112.81813 311.21008Q111.63063 311.21008 110.88063 310.58508Q110.13063 309.94446 109.97438 308.86633Z" fill-rule="nonzero"/><path fill="#235753" d="M212.61855 309.5382L212.61855 311.06946L206.8373 311.06946Q206.93105 310.19446 207.3998 309.42883Q207.86855 308.64758 209.25917 307.36633Q210.36855 306.33508 210.61855 305.96008Q210.9623 305.44446 210.9623 304.94446Q210.9623 304.39758 210.66542 304.1007Q210.36855 303.80383 209.85292 303.80383Q209.3373 303.80383 209.0248 304.11633Q208.72792 304.42883 208.68105 305.14758L207.04042 304.99133Q207.18105 303.63196 207.94667 303.0382Q208.72792 302.44446 209.88417 302.44446Q211.16542 302.44446 211.88417 303.13196Q212.61855 303.81946 212.61855 304.83508Q212.61855 305.4132 212.3998 305.94446Q212.19667 306.46008 211.74355 307.0382Q211.44667 307.4132 210.66542 308.13196Q209.88417 308.8507 209.68105 309.08508Q209.47792 309.31946 209.3373 309.5382L212.61855 309.5382ZM216.8373 302.44446Q218.0873 302.44446 218.79042 303.33508Q219.61855 304.38196 219.61855 306.83508Q219.61855 309.27258 218.7748 310.33508Q218.0873 311.21008 216.8373 311.21008Q215.5873 311.21008 214.80605 310.25696Q214.04042 309.2882 214.04042 306.81946Q214.04042 304.38196 214.88417 303.31946Q215.5873 302.44446 216.8373 302.44446ZM216.8373 303.80383Q216.54042 303.80383 216.30605 304.00696Q216.07167 304.19446 215.93105 304.67883Q215.7748 305.31946 215.7748 306.83508Q215.7748 308.3507 215.91542 308.9132Q216.07167 309.4757 216.30605 309.6632Q216.54042 309.8507 216.8373 309.8507Q217.13417 309.8507 217.36855 309.6632Q217.60292 309.4757 217.72792 308.9757Q217.8998 308.3507 217.8998 306.83508Q217.8998 305.31946 217.74355 304.75696Q217.60292 304.19446 217.36855 304.00696Q217.13417 303.80383 216.8373 303.80383ZM220.99355 308.7882L222.5873 308.6007Q222.66542 309.21008 222.99355 309.5382Q223.3373 309.8507 223.80605 309.8507Q224.32167 309.8507 224.66542 309.46008Q225.00917 309.06946 225.00917 308.4132Q225.00917 307.80383 224.66542 307.44446Q224.3373 307.06946 223.86855 307.06946Q223.54042 307.06946 223.10292 307.19446L223.29042 305.8507Q223.9623 305.86633 224.30605 305.56946Q224.66542 305.25696 224.66542 304.74133Q224.66542 304.31946 224.3998 304.06946Q224.1498 303.80383 223.7123 303.80383Q223.29042 303.80383 222.99355 304.1007Q222.69667 304.38196 222.63417 304.94446L221.11855 304.69446Q221.2748 303.9132 221.5873 303.44446Q221.91542 302.9757 222.47792 302.71008Q223.05605 302.44446 223.75917 302.44446Q224.97792 302.44446 225.7123 303.21008Q226.30605 303.8507 226.30605 304.64758Q226.30605 305.77258 225.07167 306.44446Q225.82167 306.61633 226.25917 307.1632Q226.69667 307.71008 226.69667 308.49133Q226.69667 309.61633 225.86855 310.4132Q225.04042 311.21008 223.82167 311.21008Q222.6498 311.21008 221.88417 310.5382Q221.11855 309.86633 220.99355 308.7882ZM230.8373 302.44446Q232.0873 302.44446 232.79042 303.33508Q233.61855 304.38196 233.61855 306.83508Q233.61855 309.27258 232.7748 310.33508Q232.0873 311.21008 230.8373 311.21008Q229.5873 311.21008 228.80605 310.25696Q228.04042 309.2882 228.04042 306.81946Q228.04042 304.38196 228.88417 303.31946Q229.5873 302.44446 230.8373 302.44446ZM230.8373 303.80383Q230.54042 303.80383 230.30605 304.00696Q230.07167 304.19446 229.93105 304.67883Q229.7748 305.31946 229.7748 306.83508Q229.7748 308.3507 229.91542 308.9132Q230.07167 309.4757 230.30605 309.6632Q230.54042 309.8507 230.8373 309.8507Q231.13417 309.8507 231.36855 309.6632Q231.60292 309.4757 231.72792 308.9757Q231.8998 308.3507 231.8998 306.83508Q231.8998 305.31946 231.74355 304.75696Q231.60292 304.19446 231.36855 304.00696Q231.13417 303.80383 230.8373 303.80383Z" fill-rule="nonzero"/><path fill="#235753" d="M330.71585 309.5382L330.71585 311.06946L324.9346 311.06946Q325.02835 310.19446 325.4971 309.42883Q325.96585 308.64758 327.35648 307.36633Q328.46585 306.33508 328.71585 305.96008Q329.0596 305.44446 329.0596 304.94446Q329.0596 304.39758 328.76273 304.1007Q328.46585 303.80383 327.95023 303.80383Q327.4346 303.80383 327.1221 304.11633Q326.82523 304.42883 326.77835 305.14758L325.13773 304.99133Q325.27835 303.63196 326.04398 303.0382Q326.82523 302.44446 327.98148 302.44446Q329.26273 302.44446 329.98148 303.13196Q330.71585 303.81946 330.71585 304.83508Q330.71585 305.4132 330.4971 305.94446Q330.29398 306.46008 329.84085 307.0382Q329.54398 307.4132 328.76273 308.13196Q327.98148 308.8507 327.77835 309.08508Q327.57523 309.31946 327.4346 309.5382L330.71585 309.5382ZM334.9346 302.44446Q336.1846 302.44446 336.88773 303.33508Q337.71585 304.38196 337.71585 306.83508Q337.71585 309.27258 336.8721 310.33508Q336.1846 311.21008 334.9346 311.21008Q333.6846 311.21008 332.90335 310.25696Q332.13773 309.2882 332.13773 306.81946Q332.13773 304.38196 332.98148 303.31946Q333.6846 302.44446 334.9346 302.44446ZM334.9346 303.80383Q334.63773 303.80383 334.40335 304.00696Q334.16898 304.19446 334.02835 304.67883Q333.8721 305.31946 333.8721 306.83508Q333.8721 308.3507 334.01273 308.9132Q334.16898 309.4757 334.40335 309.6632Q334.63773 309.8507 334.9346 309.8507Q335.23148 309.8507 335.46585 309.6632Q335.70023 309.4757 335.82523 308.9757Q335.9971 308.3507 335.9971 306.83508Q335.9971 305.31946 335.84085 304.75696Q335.70023 304.19446 335.46585 304.00696Q335.23148 303.80383 334.9346 303.80383ZM339.09085 308.7882L340.6846 308.6007Q340.76273 309.21008 341.09085 309.5382Q341.4346 309.8507 341.90335 309.8507Q342.41898 309.8507 342.76273 309.46008Q343.10648 309.06946 343.10648 308.4132Q343.10648 307.80383 342.76273 307.44446Q342.4346 307.06946 341.96585 307.06946Q341.63773 307.06946 341.20023 307.19446L341.38773 305.8507Q342.0596 305.86633 342.40335 305.56946Q342.76273 305.25696 342.76273 304.74133Q342.76273 304.31946 342.4971 304.06946Q342.2471 303.80383 341.8096 303.80383Q341.38773 303.80383 341.09085 304.1007Q340.79398 304.38196 340.73148 304.94446L339.21585 304.69446Q339.3721 303.9132 339.6846 303.44446Q340.01273 302.9757 340.57523 302.71008Q341.15335 302.44446 341.85648 302.44446Q343.07523 302.44446 343.8096 303.21008Q344.40335 303.8507 344.40335 304.64758Q344.40335 305.77258 343.16898 306.44446Q343.91898 306.61633 344.35648 307.1632Q344.79398 307.71008 344.79398 308.49133Q344.79398 309.61633 343.96585 310.4132Q343.13773 311.21008 341.91898 311.21008Q340.7471 311.21008 339.98148 310.5382Q339.21585 309.86633 339.09085 308.7882ZM346.16898 308.86633L347.8096 308.69446Q347.88773 309.24133 348.23148 309.56946Q348.57523 309.89758 349.02835 309.89758Q349.54398 309.89758 349.90335 309.4757Q350.26273 309.05383 350.26273 308.21008Q350.26273 307.42883 349.90335 307.0382Q349.54398 306.63196 348.98148 306.63196Q348.26273 306.63196 347.70023 307.25696L346.3721 307.06946L347.21585 302.6007L351.57523 302.6007L351.57523 304.13196L348.46585 304.13196L348.20023 305.6007Q348.76273 305.31946 349.32523 305.31946Q350.41898 305.31946 351.1846 306.11633Q351.95023 306.9132 351.95023 308.17883Q351.95023 309.24133 351.34085 310.08508Q350.4971 311.21008 349.01273 311.21008Q347.82523 311.21008 347.07523 310.58508Q346.32523 309.94446 346.16898 308.86633Z" fill-rule="nonzero"/><path fill="#235753" d="M448.81314 309.5382L448.81314 311.06946L443.0319 311.06946Q443.12564 310.19446 443.5944 309.42883Q444.06314 308.64758 445.45377 307.36633Q446.56314 306.33508 446.81314 305.96008Q447.1569 305.44446 447.1569 304.94446Q447.1569 304.39758 446.86002 304.1007Q446.56314 303.80383 446.04752 303.80383Q445.5319 303.80383 445.2194 304.11633Q444.92252 304.42883 444.87564 305.14758L443.23502 304.99133Q443.37564 303.63196 444.14127 303.0382Q444.92252 302.44446 446.07877 302.44446Q447.36002 302.44446 448.07877 303.13196Q448.81314 303.81946 448.81314 304.83508Q448.81314 305.4132 448.5944 305.94446Q448.39127 306.46008 447.93814 307.0382Q447.64127 307.4132 446.86002 308.13196Q446.07877 308.8507 445.87564 309.08508Q445.67252 309.31946 445.5319 309.5382L448.81314 309.5382ZM453.0319 302.44446Q454.2819 302.44446 454.98502 303.33508Q455.81314 304.38196 455.81314 306.83508Q455.81314 309.27258 454.9694 310.33508Q454.2819 311.21008 453.0319 311.21008Q451.7819 311.21008 451.00064 310.25696Q450.23502 309.2882 450.23502 306.81946Q450.23502 304.38196 451.07877 303.31946Q451.7819 302.44446 453.0319 302.44446ZM453.0319 303.80383Q452.73502 303.80383 452.50064 304.00696Q452.26627 304.19446 452.12564 304.67883Q451.9694 305.31946 451.9694 306.83508Q451.9694 308.3507 452.11002 308.9132Q452.26627 309.4757 452.50064 309.6632Q452.73502 309.8507 453.0319 309.8507Q453.32877 309.8507 453.56314 309.6632Q453.79752 309.4757 453.92252 308.9757Q454.0944 308.3507 454.0944 306.83508Q454.0944 305.31946 453.93814 304.75696Q453.79752 304.19446 453.56314 304.00696Q453.32877 303.80383 453.0319 303.80383ZM460.4694 311.06946L460.4694 309.33508L456.95377 309.33508L456.95377 307.89758L460.68814 302.44446L462.06314 302.44446L462.06314 307.89758L463.14127 307.89758L463.14127 309.33508L462.06314 309.33508L462.06314 311.06946L460.4694 311.06946ZM460.4694 307.89758L460.4694 304.96008L458.50064 307.89758L460.4694 307.89758ZM467.0319 302.44446Q468.2819 302.44446 468.98502 303.33508Q469.81314 304.38196 469.81314 306.83508Q469.81314 309.27258 468.9694 310.33508Q468.2819 311.21008 467.0319 311.21008Q465.7819 311.21008 465.00064 310.25696Q464.23502 309.2882 464.23502 306.81946Q464.23502 304.38196 465.07877 303.31946Q465.7819 302.44446 467.0319 302.44446ZM467.0319 303.80383Q466.73502 303.80383 466.50064 304.00696Q466.26627 304.19446 466.12564 304.67883Q465.9694 305.31946 465.9694 306.83508Q465.9694 308.3507 466.11002 308.9132Q466.26627 309.4757 466.50064 309.6632Q466.73502 309.8507 467.0319 309.8507Q467.32877 309.8507 467.56314 309.6632Q467.79752 309.4757 467.92252 308.9757Q468.0944 308.3507 468.0944 306.83508Q468.0944 305.31946 467.93814 304.75696Q467.79752 304.19446 467.56314 304.00696Q467.32877 303.80383 467.0319 303.80383Z" fill-rule="nonzero"/><path fill="#235753" d="M566.9104 309.5382L566.9104 311.06946L561.12915 311.06946Q561.2229 310.19446 561.69165 309.42883Q562.1604 308.64758 563.551 307.36633Q564.6604 306.33508 564.9104 305.96008Q565.25415 305.44446 565.25415 304.94446Q565.25415 304.39758 564.9573 304.1007Q564.6604 303.80383 564.1448 303.80383Q563.62915 303.80383 563.31665 304.11633Q563.0198 304.42883 562.9729 305.14758L561.3323 304.99133Q561.4729 303.63196 562.2385 303.0382Q563.0198 302.44446 564.176 302.44446Q565.4573 302.44446 566.176 303.13196Q566.9104 303.81946 566.9104 304.83508Q566.9104 305.4132 566.69165 305.94446Q566.4885 306.46008 566.0354 307.0382Q565.7385 307.4132 564.9573 308.13196Q564.176 308.8507 563.9729 309.08508Q563.7698 309.31946 563.62915 309.5382L566.9104 309.5382ZM571.12915 302.44446Q572.37915 302.44446 573.0823 303.33508Q573.9104 304.38196 573.9104 306.83508Q573.9104 309.27258 573.06665 310.33508Q572.37915 311.21008 571.12915 311.21008Q569.87915 311.21008 569.0979 310.25696Q568.3323 309.2882 568.3323 306.81946Q568.3323 304.38196 569.176 303.31946Q569.87915 302.44446 571.12915 302.44446ZM571.12915 303.80383Q570.8323 303.80383 570.5979 304.00696Q570.3635 304.19446 570.2229 304.67883Q570.06665 305.31946 570.06665 306.83508Q570.06665 308.3507 570.2073 308.9132Q570.3635 309.4757 570.5979 309.6632Q570.8323 309.8507 571.12915 309.8507Q571.426 309.8507 571.6604 309.6632Q571.8948 309.4757 572.0198 308.9757Q572.19165 308.3507 572.19165 306.83508Q572.19165 305.31946 572.0354 304.75696Q571.8948 304.19446 571.6604 304.00696Q571.426 303.80383 571.12915 303.80383ZM578.56665 311.06946L578.56665 309.33508L575.051 309.33508L575.051 307.89758L578.7854 302.44446L580.1604 302.44446L580.1604 307.89758L581.2385 307.89758L581.2385 309.33508L580.1604 309.33508L580.1604 311.06946L578.56665 311.06946ZM578.56665 307.89758L578.56665 304.96008L576.5979 307.89758L578.56665 307.89758ZM582.3635 308.86633L584.00415 308.69446Q584.0823 309.24133 584.426 309.56946Q584.7698 309.89758 585.2229 309.89758Q585.7385 309.89758 586.0979 309.4757Q586.4573 309.05383 586.4573 308.21008Q586.4573 307.42883 586.0979 307.0382Q585.7385 306.63196 585.176 306.63196Q584.4573 306.63196 583.8948 307.25696L582.56665 307.06946L583.4104 302.6007L587.7698 302.6007L587.7698 304.13196L584.6604 304.13196L584.3948 305.6007Q584.9573 305.31946 585.5198 305.31946Q586.6135 305.31946 587.37915 306.11633Q588.1448 306.9132 588.1448 308.17883Q588.1448 309.24133 587.5354 310.08508Q586.69165 311.21008 585.2073 311.21008Q584.0198 311.21008 583.2698 310.58508Q582.5198 309.94446 582.3635 308.86633Z" fill-rule="nonzero"/></svg>