<svg width="120" height="120" viewBox="0 0 120 120" fill="none" xmlns="http://www.w3.org/2000/svg"><symbol id="10" viewBox="0 0 120 120">
<path d="M105.553 119.728H105.451L104.944 119.794C89.661 122.076 83.0002 105.066 75.2176 85.1676C64.1142 56.7257 50.2157 88.0669 36.3685 88.3315C21.361 88.6181 7.424 78.3217 1.7505 55.072C-1.49334 41.8432 -0.31376 24.293 6.00082 14.5478C31.2143 -24.3229 49.658 26.0458 55.8315 34.6556C67.2811 50.6624 75.3266 27.038 87.8147 27.2805C94.7832 27.4128 103.611 33.2114 108.502 43.2984C112.631 51.842 115.445 57.343 117.92 67.893C122.542 87.3834 119.9 117.137 105.553 119.728Z"/>
</symbol>
<use href="#10" fill="white"/>
</svg>