<svg width="120" height="120" viewBox="0 0 120 120" fill="none" xmlns="http://www.w3.org/2000/svg"><symbol id="101" viewBox="0 0 120 120">
<path d="M0.193351 59.5919C-0.444206 69.984 0.348404 81.1371 4.79408 89.5554C9.23975 97.9737 18.2172 102.468 24.7134 97.1414C36.3273 87.6292 31.8472 57.7132 44.2193 50.2937C48.372 60.876 44.8223 73.7175 42.3583 85.2511C39.8942 96.7847 39.5495 111.933 47.0796 117.973C53.6275 123.229 62.3811 117.569 66.6544 108.96C70.9278 100.352 72.1167 89.6029 74.0466 79.52C75.9765 69.437 79.216 58.8547 85.9534 53.8846C90.7781 63.3968 88.2796 76.381 86.9183 87.8907C85.5571 99.4005 86.9184 114.263 94.9482 118.021C99.5317 120.161 104.753 117.45 108.199 112.741C111.45 107.771 113.811 101.817 115.092 95.3578C120.27 73.8655 121.373 50.9011 118.297 28.6534C117.194 20.7583 115.436 12.6967 111.404 6.79908C107.372 0.901507 100.738 -2.09485 95.5857 1.66248C90.4336 5.4198 88.6932 13.5527 85.9879 20.3778C83.2826 27.2028 77.5445 33.6949 72.4958 30.2467C68.1018 27.2504 67.5504 19.1888 66.4648 12.6015C62.3465 -12.0827 54.1445 11.1271 48.0791 14.9796C40.3594 19.9497 36.0171 11.7217 29.5382 7.70275C9.84282 -4.59179 1.50293 37.5949 0.193351 59.5919Z"/>
</symbol>
<use href="#101" fill="white"/>
</svg>