<svg width="120" height="120" viewBox="0 0 120 120" fill="none" xmlns="http://www.w3.org/2000/svg"><symbol id="11" viewBox="0 0 120 120">
<path d="M115.372 108.265C120.791 106.039 121.025 105.462 118.265 100.714C108.229 85.2822 95.5327 70.0978 83.5893 55.9687C76.1455 46.9669 68.1665 38.2948 60.6893 28.9963C57.4943 24.99 54.2157 20.1594 50.5189 15.8068C46.6214 10.6959 41.5697 4.26609 36.8191 0.968732C31.0146 -3.18594 23.0189 7.10182 18.6698 11.4543C11.8357 18.1668 6.50246 26.2144 3.01282 35.0799C-0.0650424 43.4882 -0.48321 55.8038 0.420076 64.3604C1.97574 79.1985 6.19104 93.3112 17.5323 103.615C54.015 136.82 111.574 109.485 115.372 108.265Z"/>
</symbol>
<use href="#11" fill="white"/>
</svg>