<svg width="120" height="120" viewBox="0 0 120 120" fill="none" xmlns="http://www.w3.org/2000/svg"><symbol id="13" viewBox="0 0 120 120">
<path d="M0 58.1591C2.24007 31.9979 36.7122 4.06239 63.6068 0C80.2967 5.14226 58.6283 14.8998 51.9634 18.2423C36.0202 28.5268 5.66884 47.3602 18.1966 67.9678C30.2128 82.109 41.4823 108.463 65.3211 96.3789C74.8206 91.4167 87.8737 88.7941 95.2853 81.852C92.6719 53.0296 89.7547 27.1769 55.656 54.9965C40.9711 63.1341 38.0667 78.6252 59.5132 76.5297C61.8086 75.527 66.5654 73.7272 65.5284 70.6162C64.9742 68.1727 64.6274 65.6924 64.4913 63.1984C64.754 57.0663 74.8068 56.7706 75.7194 62.9028C81.5685 76.3241 68.5565 88.1642 54.0376 85.9402C27.9035 85.2974 28.0697 54.0452 46.0732 42.9379C90.0034 7.41774 117.202 34.9031 119.677 80.8492C124.088 104.208 82.1357 114.132 63.5791 119.416C50.9822 121.576 40.7498 117.681 32.8128 108.772C21.0594 93.435 1.05089 77.5583 0 58.1591Z"/>
</symbol>
<use href="#13" fill="white"/>
</svg>