<svg width="120" height="120" viewBox="0 0 120 120" fill="none" xmlns="http://www.w3.org/2000/svg"><symbol id="14" viewBox="0 0 120 120">
<path d="M67.1127 120C56.5924 119.848 46.3524 117.723 36.4984 112.245C28.1009 107.588 20.7811 99.5905 15.3807 89.1723C13.8097 86.2044 11.874 83.6329 10.4082 80.5735C5.36032 70.1421 2.03454 58.1688 0.687524 45.5784C-0.0552915 39.7355 -0.197168 33.7655 0.266643 27.8624C1.08021 19.5177 3.2613 12.1385 7.85517 6.62959C10.9077 3.02193 14.6402 0.832687 18.5649 0.348116C26.904 -0.922398 34.8504 1.3645 42.5513 5.90786C44.48 7.03607 46.4858 7.94075 48.3724 9.16045C53.0013 12.2097 57.7145 12.0775 62.4697 10.1769C65.6117 8.91651 68.6906 7.30035 71.8397 6.05017C79.0987 3.16356 86.1192 4.64758 92.9995 8.65224C107.279 16.9462 114.945 33.0461 118.578 53.9536C120.16 62.5342 120.426 71.513 119.356 80.2584C117.442 94.915 111.508 104.652 102.026 110.304C95.2668 114.261 88.1708 116.883 80.9292 118.099C76.3353 118.862 71.7206 119.36 67.1127 120Z"/>
</symbol>
<use href="#14" fill="white"/>
</svg>