<svg width="120" height="120" viewBox="0 0 120 120" fill="none" xmlns="http://www.w3.org/2000/svg"><symbol id="15" viewBox="0 0 120 120">
<path d="M32.1278 20.3251C31.877 28.1943 31.4253 36.0635 31.4086 43.9246C31.2847 51.9024 32.7911 59.8247 35.8398 67.231C37.9466 72.2032 41.1401 76.3534 46.2065 78.6889C52.577 81.6348 58.8557 80.8373 64.8751 77.4927C69.9483 74.6584 74.2713 70.7098 77.4993 65.9615C80.8434 61.0789 83.8695 56.0009 87.1969 51.102C88.9385 48.4835 90.8957 46.0069 93.0491 43.6967C95.3148 41.3205 97.9148 41.0927 100.749 42.7446C106.27 46.0158 111.467 49.7779 116.274 53.9828C119.694 56.9286 120.622 60.5662 119.618 64.8466C116.157 79.641 108.8 92.165 96.9035 102.077C89.3792 108.359 81.253 113.917 71.8226 116.969C55.4865 122.267 39.794 120.956 25.7821 110.361C18.9768 105.226 14.0779 98.4555 10.1486 91.0827C4.78603 80.8606 1.49597 69.729 0.458677 58.2958C-0.78701 46.2601 0.634227 34.4523 3.15904 22.6932C3.99507 18.6244 4.41341 14.5555 5.16584 10.4866C5.57543 8.27767 6.15375 6.10155 6.89628 3.97644C7.85772 1.17706 9.82229 -0.0924288 12.8571 0.005224C18.3665 0.257214 23.6757 2.09214 28.1147 5.27846C29.462 6.31192 30.4348 7.73762 30.8905 9.34733C32.0273 12.8945 32.4474 16.6224 32.1278 20.3251Z"/>
</symbol>
<use href="#15" fill="white"/>
</svg>