<svg width="120" height="120" viewBox="0 0 120 120" fill="none" xmlns="http://www.w3.org/2000/svg"><symbol id="16" viewBox="0 0 120 120">
<path d="M59.2585 98.3459C55.7635 94.0861 52.5189 89.1009 49.5823 83.4785C47.3991 79.2351 44.9511 75.5356 42.2949 72.4656C33.7317 62.865 24.7164 54.863 15.3707 48.5677C12.353 46.7097 9.38878 44.5408 6.4907 42.0702C4.77279 40.5569 3.22825 38.3945 1.94763 35.7102C-1.12374 29.1575 -0.49809 20.8704 3.36956 16.066C4.83267 14.3204 6.39233 12.8981 8.01927 11.826C17.2618 5.21829 27.0376 2.8368 36.7849 0.937077C41.7617 -0.0265499 46.7384 0.634212 51.7152 0.152399C60.4028 -0.526744 69.0981 1.06613 77.5659 4.88794C86.6591 8.76998 95.5888 13.3679 103.687 22.7839C107.192 26.9137 110.583 30.9471 112.808 37.8302C113.163 38.7694 113.573 39.6242 114.031 40.3769C116.433 44.7451 118.144 50.3453 118.965 56.5246C121.283 74.1452 119.676 90.4993 114.451 105.559C113.955 106.918 113.403 108.198 112.801 109.386C110.803 113.825 108.099 116.851 105.116 117.99C102.343 118.995 99.4991 119.367 96.6908 120C83.4387 119.382 70.5137 111.905 59.2585 98.3459ZM30.2938 32.6541C32.5479 35.6657 34.9015 38.388 37.3395 40.8036C40.7592 43.8735 44.3354 46.3101 47.8689 48.9394C53.6917 53.2482 58.967 59.4567 64.086 66.2434C67.3493 70.566 70.5984 74.9298 73.9257 79.0597C80.3884 87.0715 87.6118 90.5406 95.1623 91.5317C96.9662 91.6948 98.7714 91.2666 100.502 90.2652C106.68 86.9063 108.841 73.856 104.767 64.1096C103.414 61.1008 101.843 58.4859 100.103 56.3456C91.8364 45.411 82.349 38.4243 72.4185 35.958C62.5361 33.4939 52.675 30.6305 42.7783 28.3729C38.868 27.4781 34.8795 27.7258 30.9337 27.5607C30.0167 27.7214 29.1083 28.0299 28.2178 28.483C28.8359 30.0044 29.5314 31.4018 30.2938 32.6541Z"/>
</symbol>
<use href="#16" fill="white"/>
</svg>