<svg width="120" height="120" viewBox="0 0 120 120" fill="none" xmlns="http://www.w3.org/2000/svg"><symbol id="17" viewBox="0 0 120 120">
<path d="M22.1726 41.7831C23.3857 40.9296 23.5976 38.0307 24.008 35.7685C26.0779 24.3761 29.0677 18.3209 33.5683 19.391C35.4443 19.8381 37.3609 18.7679 39.2549 18.3074C43.6878 17.2372 45.3744 20.7186 46.565 33.6011C46.804 36.1884 46.9257 38.8706 47.1602 41.458C47.3586 43.6389 47.3496 46.5378 48.2786 47.1474C49.2076 47.757 49.5954 45.1561 50.0013 43.2054C51.1873 37.4889 52.4319 31.8672 53.5097 25.9746C55.2324 16.4922 57.7938 11.6561 61.3925 11.6832C65.4286 11.6832 69.4646 11.5207 73.5007 11.751C78.574 12.049 79.9765 15.9774 80.8333 30.9731C81.0137 34.0752 80.6484 38.559 81.9382 39.7782C83.3542 41.1328 84.193 37.1638 84.8468 34.2378C86.6236 26.4893 88.3102 18.5241 89.9337 10.4776C91.5571 2.4311 93.9923 -0.969019 97.0453 0.236601C102.497 2.40401 107.981 2.81038 113.465 3.56898C118.718 4.30048 121.185 12.9566 119.449 27.4917C116.811 49.6128 114.037 71.761 108.491 89.4525C102.628 108.214 95.7826 107.889 90.4523 87.6644C88.9821 82.0697 87.9945 82.2459 86.4342 86.3775C84.1569 92.3243 81.8886 98.3524 79.2189 102.741C73.167 112.657 68.229 110.463 64.0982 94.0176C62.0328 85.7814 60.9415 87.2444 58.8626 93.4757C55.7284 102.958 52.7521 113.253 48.3056 117.791C42.2944 123.928 36.1613 117.087 33.7622 99.6393C32.4409 89.9943 31.2549 91.1187 28.9821 96.0766C26.7092 101.035 24.238 106.114 21.4601 109.244C10.4206 121.666 0.179317 100.615 0.00344281 65.3536C-0.064201 52.3627 0.878305 39.9408 1.65395 27.424C2.24471 17.9416 4.30558 13.0649 7.66072 13.4849C10.2357 13.81 12.8197 13.4849 15.3947 13.7423C20.9144 14.2299 22.4161 19.391 21.8253 35.6466C21.7532 37.5973 21.4826 39.5615 22.1726 41.7831Z"/>
</symbol>
<use href="#17" fill="white"/>
</svg>