<svg width="120" height="120" viewBox="0 0 120 120" fill="none" xmlns="http://www.w3.org/2000/svg"><symbol id="19" viewBox="0 0 120 120">
<path fill-rule="evenodd" clip-rule="evenodd" d="M67.1486 0.00382952C74.9665 -0.24507 78.5507 11.7066 85.3746 16.0961C92.8662 20.915 103.244 19.3147 108.824 26.8114C114.763 34.7898 114.333 46.2748 115.577 56.6743C117.276 70.8662 123.427 86.1664 117.43 98.7262C111.375 111.406 97.9319 120.814 85.365 119.944C72.7132 119.068 65.7326 102.952 55.4527 94.4342C49.054 89.1326 43.0439 84.1295 36.3501 79.3328C26.1222 72.0035 11.5924 70.9288 5.74862 58.8168C-0.305343 46.269 -3.51944 25.7893 6.1082 16.652C17.5061 5.83463 35.1759 21.1596 49.5606 17.2363C57.2126 15.1493 59.2869 0.254126 67.1486 0.00382952Z"/>
</symbol>
<use href="#19" fill="white"/>
</svg>