<svg width="120" height="120" viewBox="0 0 120 120" fill="none" xmlns="http://www.w3.org/2000/svg"><symbol id="23" viewBox="0 0 120 120">
<path fill-rule="evenodd" clip-rule="evenodd" d="M100.997 51.1593C99.8376 65.0057 116.244 76.704 112.047 89.684C108.038 102.082 93.3187 102.33 82.9226 107.054C71.7651 112.124 59.7373 125.051 49.2598 118.215C38.3556 111.101 45.315 88.468 37.2015 77.2248C27.5384 63.8344 2.5309 67.7456 0.233544 50.278C-1.90979 33.9816 18.2611 26.6757 29.2376 16.6729C37.0591 9.54507 44.9509 2.14875 54.7056 0.637522C63.5006 -0.725038 70.8994 7.92785 79.7345 8.84971C93.087 10.2429 112.039 -6.39201 118.94 7.33979C126.122 21.6306 102.385 34.5724 100.997 51.1593Z"/>
</symbol>
<use href="#23" fill="white"/>
</svg>