<svg width="120" height="120" viewBox="0 0 120 120" fill="none" xmlns="http://www.w3.org/2000/svg"><symbol id="24" viewBox="0 0 120 120">
<path d="M28.3178 49.0101C27.9944 48.6931 27.5756 48.419 27.085 48.2031C23.4166 46.226 19.7978 44.2114 16.0399 42.3095C12.6496 40.5644 9.44176 38.6836 6.43619 36.6787C5.5536 36.1141 4.74566 35.5052 4.02037 34.858C3.28963 34.2379 2.79037 33.5222 2.55973 32.764C2.32909 32.0058 2.37298 31.2246 2.68816 30.4785C2.98371 29.7095 3.45594 28.9719 4.08994 28.2887C5.08411 27.2627 5.94904 26.1866 6.8935 25.1605C8.36939 23.5848 10.1164 22.1161 12.1029 20.781C13.0753 20.2154 14.2475 19.8037 15.5229 19.5798C15.7465 19.5399 15.9806 19.5287 16.2112 19.5469C16.4417 19.5652 16.6641 19.6125 16.865 19.6861C17.4584 19.8755 17.9936 20.1297 18.4457 20.4369C20.1855 21.4692 21.647 22.6517 23.2177 23.7778C24.7885 24.904 26.2002 25.9989 27.771 27.0813C30.6541 29.0833 33.736 30.954 36.5296 33.0312C36.5716 33.0635 36.622 33.091 36.6788 33.1125C36.8596 33.1451 37.0474 33.1599 37.2355 33.1563C37.2852 33.1563 37.3647 33.0124 37.3449 32.9373C37.3168 32.7739 37.2635 32.6125 37.1858 32.4555C36.291 30.3596 35.108 28.3263 34.0044 26.2742C31.645 21.8488 29.2689 17.4297 26.8763 13.0168C26.266 11.8724 25.8397 10.6923 25.6037 9.49438C25.4597 8.6618 25.6797 7.82027 26.24 7.06061C26.7781 6.06059 27.9113 5.23076 29.4015 4.74568C29.5876 4.70156 29.7569 4.63339 29.8986 4.5455C31.3003 3.4256 33.3583 2.92508 35.2671 2.28067C36.0823 2.01164 36.9174 1.7739 37.7326 1.50488C39.6648 0.868152 41.7348 0.412839 43.8766 0.153459C45.9596 -0.117259 48.1202 -0.028608 50.1298 0.409995C52.8953 1.03535 55.236 2.23894 56.761 3.81973C58.4437 5.41297 59.781 7.14045 60.7376 8.95634C61.364 10.2076 61.871 11.4589 62.3184 12.7102C63.1037 14.9 63.6307 17.121 64.0979 19.3483C64.6447 21.9385 64.9131 24.5474 65.7383 27.1125C66.295 27.1125 66.4143 26.8373 66.5634 26.6246C67.5576 25.1793 68.6512 23.7466 69.5459 22.2825C70.7588 20.3493 71.8822 18.3973 73.0057 16.4453C73.4016 15.7436 73.9575 15.0818 74.656 14.4808C74.9602 14.2129 75.3516 13.989 75.8042 13.824C76.2568 13.6589 76.7601 13.5564 77.2806 13.5235C78.2701 13.4328 79.2801 13.5039 80.2134 13.73C82.1837 14.2192 84.0914 14.8027 85.9199 15.4755C87.0135 15.8697 88.0872 16.2826 89.1509 16.7268C90.8791 17.3305 92.2205 18.2932 92.9458 19.4503C93.6711 20.6075 93.7354 21.8872 93.1276 23.0709C92.8492 23.6965 92.6305 24.3659 92.3124 24.9978C91.4883 26.5756 90.4644 28.1092 89.2504 29.5839C87.7989 31.4045 86.2181 33.1938 84.6871 34.9894C84.4846 35.153 84.3666 35.3517 84.3491 35.5587C84.9996 35.4943 85.6322 35.3722 86.2281 35.1959L95.7025 31.5734C95.8029 31.5178 95.9129 31.4695 96.0306 31.4295C97.2568 31.1178 98.3847 30.6707 99.3611 30.1094C99.664 29.9615 99.9987 29.8415 100.355 29.7528C101.041 29.5343 101.823 29.4637 102.579 29.5519C103.335 29.64 104.024 29.882 104.541 30.2407C105.303 30.7521 105.971 31.3168 106.529 31.9238C108.486 34.1922 110.181 36.5465 111.599 38.9685C112.693 40.8955 111.788 42.5598 110.108 44.1489C108.786 45.4002 106.847 46.3261 105.485 47.5586C104.024 48.0029 103.248 48.9664 101.817 49.4356C101.042 49.7538 100.299 50.1006 99.5897 50.4742C98.958 50.7668 98.2935 51.0303 97.6014 51.2625C97.0991 51.3706 96.6801 51.5941 96.4282 51.8881C96.2195 52.1572 95.6329 52.3011 95.2253 52.5138C95.1885 52.5447 95.1639 52.5807 95.1536 52.6187C95.1432 52.6568 95.1473 52.6959 95.1656 52.7327C95.1943 52.7679 95.2367 52.7978 95.2889 52.8197C95.3411 52.8416 95.4014 52.8547 95.4639 52.8578C96.5096 52.7805 97.5393 52.6337 98.5359 52.4199C101.518 51.8819 104.501 51.3501 107.483 50.7933C108.9 50.5728 110.366 50.5072 111.818 50.5993C112.282 50.6093 112.735 50.6911 113.137 50.8373C113.54 50.9834 113.879 51.1896 114.124 51.4376C114.98 52.2322 115.672 53.0921 116.182 53.9966C117.203 55.9298 117.977 57.911 118.499 59.9214C118.966 61.5606 119.304 63.2061 119.602 64.8578C119.64 65.0218 119.714 65.1819 119.821 65.3333C120.06 65.7691 120.06 66.2425 119.821 66.6783C119.341 67.8974 118.365 69.0166 116.988 69.9255C115.251 71.0806 113.238 72.058 111.023 72.8222C105.744 74.6569 100.238 76.2199 94.5592 77.4958C88.3556 78.9222 82.0824 80.2611 75.849 81.6376C75.5309 81.7001 75.2127 81.7502 74.9045 81.8315C74.7897 81.8484 74.6822 81.8808 74.5895 81.9266C74.4968 81.9725 74.4212 82.0306 74.3681 82.0969C74.315 82.1631 74.2857 82.2359 74.2822 82.31C74.2787 82.3842 74.3011 82.4579 74.3478 82.526C74.6759 83.2893 75.0437 84.0463 75.3917 84.8034C77.0221 88.3654 78.6492 91.9252 80.273 95.4831C81.4263 97.9857 82.5596 100.532 83.7327 103.047C85.8006 107.477 87.8983 111.906 89.9761 116.336C90.0755 116.536 90.1451 116.743 90.2346 116.962C90.6124 117.756 90.8808 118.532 89.32 118.976C88.6141 119.94 87.2819 120.04 85.8205 119.99C84.8959 119.99 83.9614 119.99 83.0368 119.99C82.2358 119.997 81.4483 119.859 80.7692 119.591C80.0902 119.324 79.5484 118.939 79.2093 118.482C78.7789 117.968 78.4004 117.437 78.0759 116.893C76.8365 114.478 75.6236 112.056 74.4373 109.629C73.5525 107.796 72.7174 105.956 71.8922 104.117C70.56 101.151 69.3968 98.1608 68.3132 95.164C67.1798 92.0441 66.0432 88.9159 64.9032 85.7793C64.7441 85.3351 64.6944 84.8721 64.5055 84.4342C64.3166 83.9962 64.0681 83.9024 63.3423 84.0276C61.4335 84.3529 59.5247 84.7095 57.6159 85.0411C54.0608 85.6902 50.4493 86.2104 46.7994 86.5989C43.4093 86.9368 40.039 87.3434 36.5893 87.5061C34.601 87.6 32.6126 87.7376 30.6839 87.8565C28.3044 87.966 25.9154 87.966 23.5359 87.8565C21.8749 87.8745 20.2283 87.6608 18.7142 87.2309C16.8493 86.611 15.0731 85.8909 13.4053 85.0786C12.2411 84.4523 11.3455 83.652 10.8006 82.7512C9.38745 80.6379 8.40858 78.4198 7.88767 76.1506C7.50988 74.5928 7.16192 73.0224 6.8239 71.4645C6.63501 70.6262 7.10228 69.8128 7.14204 68.962C7.1604 68.8383 7.24858 68.7229 7.39058 68.6366C8.58359 68.011 9.71693 67.2665 11.4269 67.1789C11.6257 67.1789 11.8246 67.1789 12.0234 67.1789C15.0059 67.1288 17.9884 66.9098 20.9013 66.6909C21.3613 66.669 21.8232 66.669 22.2832 66.6909C24.6096 66.7597 26.8962 66.4218 29.2424 66.3843C30.2281 66.3182 31.2049 66.2074 32.1653 66.0527C30.8728 65.9276 30.0079 65.8212 29.133 65.7587C27.2938 65.6335 25.4347 65.571 23.6154 65.3958C21.7961 65.2206 19.6387 65.1205 17.7001 64.9891C15.8808 64.8703 14.0614 64.6638 12.2024 64.645C9.68733 64.5949 7.19519 64.3276 4.79582 63.8505C1.81332 63.2937 0.153051 61.6982 0.00392543 59.6837C-0.0280518 58.6325 0.13543 57.5827 0.491058 56.5554C1.22867 54.1867 2.16112 51.8436 3.28467 49.5357C3.4835 49.0978 3.82153 48.6848 4.07007 48.2531C4.58271 47.444 5.5099 46.7659 6.70461 46.3261C7.48254 45.9774 8.38692 45.7569 9.33514 45.6848C10.2834 45.6126 11.2452 45.6912 12.1328 45.9132C16.0398 46.6953 19.9767 47.4147 23.8142 48.3344C24.5002 48.4971 25.1862 48.6535 25.8026 48.8537C26.5073 49.0897 27.3024 49.198 28.0991 49.1665C28.1886 49.2666 28.2681 49.3668 28.467 49.2291L28.3178 49.0101Z"/>
</symbol>
<use href="#24" fill="white"/>
</svg>