<svg width="120" height="120" viewBox="0 0 120 120" fill="none" xmlns="http://www.w3.org/2000/svg"><symbol id="27" viewBox="0 0 120 120">
<path d="M116.741 74.2831C111.581 63.715 104.403 63.9349 98.417 66.4118C103.921 44.3949 101.957 3.69135 89.5018 0.168651C80.3184 -2.44585 75.7268 25.9559 72.9803 42.4961C74.7076 25.9834 67.9383 14.0393 61.9734 14.975C55.8046 15.8557 51.8779 29.6162 51.6097 44.8629C45.9774 26.8366 39.6584 12.9661 30.3999 26.1487C25.2503 33.4693 24.1132 46.4865 24.832 59.559C10.0699 43.239 -3.06158 76.5121 0.628948 90.6029C3.71869 101.997 13.3851 118.289 32.2669 119.5C39.3046 119.968 47.4473 120.133 54.4206 119.885C60.5787 119.528 66.5221 120.188 72.6587 119.885C84.3525 119.61 96.4216 120.986 107.847 112.813C114.724 107.721 125.442 92.7222 116.741 74.2831Z"/>
</symbol>
<use href="#27" fill="white"/>
</svg>