<svg width="120" height="120" viewBox="0 0 120 120" fill="none" xmlns="http://www.w3.org/2000/svg"><symbol id="29" viewBox="0 0 120 120">
<path d="M99.6765 3.89295C85.0246 -3.47227 70.6809 0.252527 57.4555 9.71207C42.9862 20.0852 29.3046 34.2394 16.935 48.0141C6.66504 59.5117 -0.101547 69.7584 0.00115297 87.3702C0.206552 122.51 37.4865 125.054 56.7484 114.596C72.1077 106.163 84.6594 90.336 97.0176 76.8143C107.288 65.5697 118.402 54.817 119.966 36.924C120.011 36.4901 120.011 36.0507 119.966 35.6168C119.978 35.4766 119.978 35.3354 119.966 35.1952C119.646 19.6073 110.859 9.50121 99.6765 3.89295ZM65.0894 79.0914C57.2957 87.5248 49.1139 95.9583 39.7226 101.581C32.5222 105.98 25.1053 110.155 22.2639 98.5867C16.6953 75.9148 35.7518 59.4555 47.916 47.1567C55.4701 39.5103 63.4235 32.4684 71.4112 25.5389C75.9546 21.4578 80.8919 18.0868 86.1091 15.503C95.7971 10.8365 98.1017 20.4788 98.4668 29.2356C96.3444 51.2469 77.5392 65.5416 65.0554 79.0914H65.0894Z"/>
</symbol>
<use href="#29" fill="white"/>
</svg>