<svg width="120" height="120" viewBox="0 0 120 120" fill="none" xmlns="http://www.w3.org/2000/svg"><symbol id="30" viewBox="0 0 120 120">
<path d="M51.9708 96.5556C50.9257 90.3031 40.6389 97.8062 35.9046 95.168C25.0258 89.068 21.2483 84.981 20.4047 69.1516C19.5611 53.3222 17.823 63.0516 8.56843 54.4507C4.1489 50.3638 -0.333029 43.2268 0.0195268 36.1509C1.11497 13.1846 24.4462 9.70771 38.0196 15.8839L38.2464 15.9906C47.2114 3.89743 57.1333 -1.76034 70.6437 0.481388C77.5563 1.62513 83.8772 7.14562 88.2715 13.2913C91.8199 18.2596 93.7926 24.5954 93.8367 31.1643C93.9375 42.3272 90.5759 39.8261 98.2062 42.7998C113.064 48.61 122.016 64.8054 119.611 83.09C118.453 91.8892 114.02 101.39 107.8 106.468C106.319 107.839 104.617 108.818 102.804 109.343C100.991 109.869 99.1073 109.928 97.2741 109.518C91.1548 108.374 92.0359 111.943 87.5786 115.71C74.66 126.72 55.0808 115.176 51.9708 96.5556Z"/>
</symbol>
<use href="#30" fill="white"/>
</svg>