<svg width="120" height="120" viewBox="0 0 120 120" fill="none" xmlns="http://www.w3.org/2000/svg"><symbol id="31" viewBox="0 0 120 120">
<path d="M119.996 50.5728C120.095 59.8336 118.293 69.032 114.681 77.713C110.867 86.847 104.345 94.8827 95.8112 100.96C85.6578 108.233 74.0401 113.704 61.5845 117.077C54.6821 119.018 47.4863 119.998 40.25 119.985C34.8719 120.076 29.4944 119.763 24.1752 119.048C19.1395 118.308 14.236 116.977 9.59111 115.089C6.7214 114.013 4.19413 112.32 2.23442 110.16C1.09605 108.943 0.357192 107.469 0.100698 105.9C-0.155795 104.33 0.0800492 102.729 0.781407 101.272C1.29535 100.11 1.96138 99.0074 2.76696 97.9863C4.03552 96.3504 5.48353 94.8315 7.08919 93.4519C8.92836 91.8091 10.8781 90.2812 12.8276 88.7369C19.3567 83.5782 26.1247 78.666 32.9112 73.7702C38.4618 69.7509 43.7665 65.4677 48.8019 60.9392C55.0241 55.3531 60.3302 49.0091 64.5633 42.0954C67.9106 36.6411 70.8532 31.006 73.6487 25.3217C75.8154 20.8347 78.2347 16.4481 80.8958 12.1786C82.5901 9.51002 84.5803 7.00014 86.8363 4.68697C88.4397 2.95696 90.4571 1.57032 92.74 0.629102C95.37 -0.405914 96.7678 -0.225221 98.7173 1.63124C101.462 4.21856 103.953 7.01059 106.166 9.97701C106.398 10.2404 106.584 10.5341 106.717 10.8478C107.548 12.8637 108.648 14.7832 109.991 16.565C114.796 24.7189 117.947 33.5682 119.298 42.7033C119.776 45.8248 119.867 48.897 119.996 50.5728Z"/>
</symbol>
<use href="#31" fill="white"/>
</svg>