<svg width="120" height="120" viewBox="0 0 120 120" fill="none" xmlns="http://www.w3.org/2000/svg"><symbol id="32" viewBox="0 0 120 120">
<path d="M11.8351 113.548C3.49845 108.819 5.29674 98.6648 4.35434 88.6782C3.11714 75.8709 2.12149 63.068 1.36757 50.2694C1.16459 46.8845 -2.11189 -0.193192 2.26665 0.000596609L34.8733 1.46048C36.3177 1.45744 37.7131 1.92648 38.7953 2.77889C39.8775 3.6313 40.5717 4.80781 40.7456 6.0855L42.485 35.9418C42.6494 37.1976 43.3187 38.358 44.3688 39.2082C45.4189 40.0585 46.7788 40.5412 48.1973 40.567C55.9298 41.0666 63.6624 41.3465 71.3949 41.4068C72.8317 41.3535 74.2424 41.7627 75.3685 42.5598C76.4946 43.3568 77.2608 44.4884 77.5277 45.7476C78.8229 55.0753 79.8334 64.4158 80.5583 73.7694C80.7204 74.9781 81.3557 76.097 82.353 76.929C83.3503 77.7609 84.6452 78.2525 86.0094 78.317L109.686 80.6166C110.982 80.6921 112.216 81.1452 113.195 81.9062C114.175 82.6671 114.847 83.6938 115.108 84.8283L119.951 114.814C120.429 117.759 117.37 120.24 113.586 119.981C91.9973 118.547 29.7554 116.545 22.9121 116.196C19.0258 116.176 15.2107 115.264 11.8351 113.548Z"/>
</symbol>
<use href="#32" fill="white"/>
</svg>