<svg width="120" height="120" viewBox="0 0 120 120" fill="none" xmlns="http://www.w3.org/2000/svg"><symbol id="33" viewBox="0 0 120 120">
<path d="M1.41444 45.29C-0.105437 54.0083 -0.40356 63.0279 0.535198 71.8915C2.16806 90.3911 8.11336 110.067 20.6599 118.15C23.2278 119.811 26.3539 120.875 28.8521 119.027C30.3382 117.707 31.5256 115.867 32.2852 113.707C36.7501 102.712 38.2296 89.9869 36.4721 77.6971C39.1898 83.5186 42.7634 88.5408 46.9761 92.4589C51.1888 96.3771 55.9528 99.1095 60.9789 100.49C67.3848 102.189 74.935 101.106 79.1218 94.4234C84.8159 85.3882 81.7176 71.7608 78.3542 60.8216C83.6854 69.2593 90.2448 78.4439 98.4928 77.9212C104.466 77.5665 109.56 72.0221 113.44 65.9365C116.348 61.7285 118.455 56.6439 119.58 51.1143C120.976 42.7139 118.743 33.8281 115.059 26.8464C107.536 12.3976 94.5293 4.4452 81.4943 1.88772C53.4845 -3.6379 10.0812 0.767663 1.41444 45.29Z"/>
</symbol>
<use href="#33" fill="white"/>
</svg>