<svg width="120" height="120" viewBox="0 0 120 120" fill="none" xmlns="http://www.w3.org/2000/svg"><symbol id="34" viewBox="0 0 120 120">
<path d="M48.7973 29.5C49.1143 22.1654 48.6807 23.6073 50.5903 16.6358C53.1134 7.888 59.8326 -10.4242 63.9454 7.76489C65.8956 16.4344 67.1848 20.5621 67 29.5C76.5465 18.2444 87.7878 16.2708 100.933 13.6154C102.098 13.3804 103.466 13.2686 104.27 14.3089C108.512 19.7791 89.3433 37.2523 86.2102 39.8252C97.4951 40.1496 109.214 41.7269 118.817 48.9086C119.372 49.3336 119.982 49.8817 120 50.676C119.973 51.0033 119.889 51.3199 119.753 51.6052C119.618 51.8905 119.434 52.138 119.215 52.3315C115.518 56.4705 110.286 57.9248 105.268 58.4618C100.249 58.9987 99.8799 60.1576 95 61.5C101.754 64.5476 103.1 67.8772 108.17 74.078C110.656 77.1207 112.994 80.8905 112.92 85.1638C109.298 87.2668 105.018 85.8908 101.174 84.4925L81.3857 79.5C83.6038 85.2498 83.4467 88.005 84.3155 94.3142C85.1843 100.623 84.5281 107.413 81.3857 112.492C81.0029 113.245 80.4193 113.817 79.7313 114.114C78.2988 114.573 77.051 112.917 76.2285 111.429C71.6045 103.106 67.2661 97.1893 63.9454 88C61.8844 96.524 60.1653 102.178 57.1708 110.266C55.498 114.741 52.8639 119.685 48.7973 119.976C47.8802 120.09 46.9601 119.796 46.2094 119.148C45.1003 118.029 44.86 116.206 44.7121 114.517C44.34 110.266 41 95.5 41 86.8976L21.1535 97.2004C19.1201 98.8112 17.0036 100.467 14.6099 100.948C12.2161 101.429 9.42495 100.377 8.30663 97.7597C6.75392 94.1017 9.08299 89.8172 11.486 86.8976C19.3605 77.3108 23.2493 71.6112 33 65C26.2254 63.4003 23.2192 61.9407 16.5 60.039C10.8529 58.4505 7.27149 55.3632 2.78896 50.911C0.607772 48.752 -1.15751 44.5011 0.940495 42.2191C1.42737 41.7269 1.98508 41.3477 2.58563 41.1005C14.6099 37.5 24.9955 36.1061 35 39.8252C29.3141 31.6611 29.6332 29.9726 25.0445 20.8531C23.843 18.4704 22.6507 15.931 22.5491 13.1456C22.4643 12.0398 22.6749 10.9301 23.1498 9.97978C23.5534 9.36523 24.0605 8.86187 24.6374 8.5031C25.2143 8.14433 25.8477 7.93841 26.4955 7.89912C31.1629 7.27268 35.3682 11.255 38.5106 15.5618C42.5919 21.1825 45.2336 22.538 47.5 29.5"/>
</symbol>
<use href="#34" fill="white"/>
</svg>