<svg width="120" height="120" viewBox="0 0 120 120" fill="none" xmlns="http://www.w3.org/2000/svg"><symbol id="37" viewBox="0 0 120 120">
<path fill-rule="evenodd" clip-rule="evenodd" d="M61.3132 119.125C70.6167 121.574 80.1357 118.495 89.0319 114.669C100.531 109.722 117.598 107.138 119.777 93.9765C122.052 80.2347 106.365 71.2125 97.9851 60.5854C92.9454 54.1942 85.106 51.4906 80.7772 44.5179C72.3438 30.9338 75.1872 8.06629 61.3132 1.51575C48.6593 -4.45879 34.7224 8.54851 23.7349 17.5855C12.9478 26.4577 -0.34471 37.2983 0.00682796 51.9391C0.365835 66.8909 16.1178 74.9505 25.3793 86.0689C30.4848 92.1981 36.1215 96.9257 41.9327 102.271C48.4052 108.226 53.0535 116.951 61.3132 119.125Z"/>
</symbol>
<use href="#37" fill="white"/>
</svg>