<svg xmlns="http://www.w3.org/2000/svg" width="364" height="349" viewBox="0 0 364 349" fill="none">
    <path fill-rule="evenodd" clip-rule="evenodd" d="M14.5882 119.602C22.2704 84.8855 22.675 43.8041 53.3061 22.7187C83.5708 1.88548 127.424 18.5329 165.786 15.5226C204.212 12.5073 241.856 -8.93462 278.006 5.08631C315.58 19.66 340.86 54.2313 355.319 89.0351C369.147 122.32 361.33 157.306 355.58 191.816C349.568 227.897 346.684 265.803 321.276 293.341C293.772 323.149 254.878 349.013 211.312 348.173C168.816 347.352 138.538 311.054 102.535 289.119C69.1689 268.792 25.7304 257.673 8.61509 224.683C-8.54951 191.598 6.83418 154.644 14.5882 119.602Z" fill="#C8FF00"/>
</svg>