<svg width="120" height="120" viewBox="0 0 120 120" fill="none" xmlns="http://www.w3.org/2000/svg"><symbol id="38" viewBox="0 0 120 120">
<path fill-rule="evenodd" clip-rule="evenodd" d="M62.8556 0.459274C74.9871 0.569457 88.7288 -2.19954 97.9324 6.5346C107.026 15.1643 104.569 30.9793 108.286 43.5719C112.009 56.1853 121.827 67.2353 119.702 80.2931C117.494 93.8658 107.741 104.748 97.1455 112.035C87.0124 119.003 74.7816 118.867 62.8556 119.387C50.3868 119.931 37.5297 121.648 26.5415 115.113C14.6473 108.04 3.26426 96.8853 0.465203 82.2835C-2.2651 68.0405 7.71096 55.3677 12.4876 41.7991C16.9143 29.2246 17.5553 13.9388 27.3574 5.89361C37.1878 -2.17473 50.6106 0.348059 62.8556 0.459274Z"/>
</symbol>
<use href="#38" fill="white"/>
</svg>