<svg width="120" height="120" viewBox="0 0 120 120" fill="none" xmlns="http://www.w3.org/2000/svg"><symbol id="39" viewBox="0 0 120 120">
<path fill-rule="evenodd" clip-rule="evenodd" d="M57.6299 0.26595C67.1582 -0.950976 78.0468 2.01742 84.7454 8.98512C91.6179 16.1337 86.89 29.6108 93.2039 37.2694C99.7374 45.1943 118.131 41.4369 119.883 51.6061C121.69 62.094 101.971 65.3203 99.8341 75.7445C97.6294 86.4991 112.42 96.8275 108.512 107.074C105.079 116.077 92.529 118.041 83.1187 119.579C74.5132 120.985 65.7132 118.691 57.6299 115.387C50.8662 112.624 47.6482 103.246 40.437 102.138C28.8868 100.362 16.3773 113.358 6.2348 107.488C-2.12777 102.649 0.142436 88.8812 0.707008 79.1458C1.21179 70.4415 8.26936 63.479 9.28906 54.821C10.4632 44.8521 1.7987 33.6723 7.0646 25.1654C12.1224 16.9946 25.0553 19.7322 33.6203 15.5147C42.2241 11.278 48.1377 1.47827 57.6299 0.26595Z"/>
</symbol>
<use href="#39" fill="white"/>
</svg>