<svg width="120" height="120" viewBox="0 0 120 120" fill="none" xmlns="http://www.w3.org/2000/svg"><symbol id="42" viewBox="0 0 120 120">
<path d="M119.257 25.0019C119.134 24.3158 118.999 23.6296 118.852 22.9435C114.227 2.30796 100.928 -0.225103 92.9041 9.96074C84.8804 20.1466 79.163 37.3781 69.3727 23.8674C65.5572 18.5897 62.3924 11.0163 58.5155 6.00251C49.9275 -5.05414 41.6459 0.724679 33.7081 10.7522C27.9419 18.0881 21.9546 17.9036 15.6976 14.6315C11.2809 12.3357 3.04897 0.19716 1.83438 16.6106C0.830547 30.1402 0.224119 43.7923 0.0186483 57.4859C-0.386215 83.8741 5.83408 93.2682 15.4772 103.243C22.3967 110.394 29.7329 111.793 36.861 105.249C41.9033 100.631 46.9947 94.6932 52.4052 95.3265C61.4716 96.2501 67.3243 114.933 75.9491 119.076C81.2982 121.715 86.5856 118.126 91.7874 115.514C97.4678 112.664 102.584 114.669 108.092 113.244C118.214 110.605 114.877 85.0614 116.313 67.8035C117.392 54.108 121.711 38.9349 119.257 25.0019Z"/>
</symbol>
<use href="#42" fill="white"/>
</svg>