<svg width="120" height="120" viewBox="0 0 120 120" fill="none" xmlns="http://www.w3.org/2000/svg"><symbol id="44" viewBox="0 0 120 120">
<path d="M119.364 57.925C118.671 50.2623 116.857 42.8889 114.04 36.2762C110.986 28.9734 108.543 20.6747 104.634 14.6274C100.908 8.85441 96.489 1.79683 90.7982 0.295846C85.647 -0.714431 79.9664 1.0465 74.9984 2.80727C62.9348 6.58859 56.0124 18.1633 51.2175 33.5051C48.7335 41.2987 45.0076 49.3809 38.085 48.3418C31.875 47.3459 22.0611 42.8719 15.8002 48.0243C-17.0413 75.0997 9.32559 112.971 23.1809 118.744C34.4811 123.478 45.0075 113.967 53.5284 104.658C57.8474 99.7075 63.0899 96.6483 68.6154 95.8537C76.0674 95.1032 78.5515 100.385 82.9901 107.674C84.8415 110.763 87.1157 113.288 89.6748 115.097C92.234 116.905 95.0251 117.959 97.8797 118.195C100.734 118.431 103.593 117.844 106.283 116.47C108.973 115.096 111.439 112.963 113.531 110.2C118.499 103.402 118.672 93.5877 119.568 84.5385C120.206 75.6847 120.137 66.7572 119.364 57.925Z"/>
</symbol>
<use href="#44" fill="white"/>
</svg>