<svg width="120" height="120" viewBox="0 0 120 120" fill="none" xmlns="http://www.w3.org/2000/svg"><symbol id="46" viewBox="0 0 120 120">
<path d="M20.1505 69.1942C26.2745 71.169 34.1654 73.1439 38.7527 77.0935C48.8217 85.9605 49.2573 99.8829 56.2528 110.053C57.996 112.7 59.5328 115.701 61.5053 118.15C64.3494 121.744 66.3214 119.473 68.9361 116.649C73.317 111.752 74.6243 105.728 75.817 99.7052C77.0097 93.682 77.996 88.0142 79.3034 82.3662C80.8401 75.9677 86.2999 73.8942 92.8826 71.8206C98.5479 69.8458 104.235 68.2463 109.924 66.548C112.332 65.7975 118.686 65.4222 119.787 63.1709C121.094 60.3271 116.048 59.0238 113.869 58.0759C107.539 55.6271 100.52 54.5014 94.3957 52.1514C87.4001 49.3274 84.7857 45.5751 82.148 39.7296C77.125 28.0584 77.5609 15.6169 72.5378 4.18267C71.2075 1.55615 69.4642 -1.26774 66.6201 0.608353C63.776 2.48444 61.8035 8.32975 59.7392 10.7785C54.2804 17.9472 52.743 26.7946 48.8209 34.694C46.8484 38.4659 45.0823 44.8643 41.3666 47.5106C37.2152 50.5321 29.1191 51.0849 24.0961 51.8354C15.9996 53.1585 0.885122 52.1118 0.0364782 58.2536C-0.812165 64.3953 13.3614 67.1206 20.1505 69.1942Z"/>
</symbol>
<use href="#46" fill="white"/>
</svg>