<svg width="120" height="120" viewBox="0 0 120 120" fill="none" xmlns="http://www.w3.org/2000/svg"><symbol id="48" viewBox="0 0 120 120">
<path d="M72.8736 0.201785C46.0326 3.2945 11.2751 19.4909 2.50953 51.9805C0.387356 59.847 -0.0739862 68.1445 0.0090556 76.4312C0.129005 87.5521 1.43922 99.3518 7.39054 107.983C12.9267 115.958 21.9044 120.085 30.6884 119.999C39.4723 119.912 47.998 115.936 55.1949 110.063C65.8058 101.442 73.7317 88.7698 84.5086 80.3753C95.1103 72.0993 108.701 67.5949 115.483 54.9762C132.737 22.9283 96.6604 -2.53532 72.8736 0.201785ZM77.1456 61.625C69.8748 64.3729 61.0816 61.0755 54.8535 66.2372C49.6496 70.5476 47.6473 79.8149 41.4746 81.6684C36.5567 83.1339 31.5188 78.5864 29.6273 73.0476C27.0438 65.5043 28.9722 56.6035 33.1335 50.1055C37.2948 43.6076 43.3938 39.1571 49.6588 35.6333C60.8048 29.3617 80.2458 15.9348 87.166 37.142C90.2478 46.6572 85.376 58.5431 77.1456 61.6574V61.625Z"/>
</symbol>
<use href="#48" fill="white"/>
</svg>