<svg width="120" height="120" viewBox="0 0 120 120" fill="none" xmlns="http://www.w3.org/2000/svg"><symbol id="52" viewBox="0 0 120 120">
<path d="M7.70148 68.1393C8.75611 82.0231 14.5651 95.028 24.0469 104.733C36.1117 116.971 53.4834 122.786 70.2002 121.218C86.917 119.65 102.714 111.198 114.575 98.742C118.749 94.4056 122.688 88.5126 121.252 82.518C119.347 74.6831 109.518 72.2696 102.17 74.5485C94.8216 76.8273 88.5722 82.1263 81.2116 84.3378C89.6583 77.0662 96.456 66.5724 96.3579 55.083C96.2598 43.5935 87.2099 31.9972 76.3181 32.5987C68.4944 33.0473 61.9938 39.1908 57.3896 45.8817C52.7855 52.5725 49.2847 60.1812 43.6791 65.9684C47.9484 56.4508 52.1472 46.5029 52.2339 35.9785C52.3206 25.4542 47.1869 14.1777 37.7929 10.6121C35.6311 9.60656 33.1795 9.54099 30.9713 10.4296C28.9369 11.4362 27.5965 13.5223 26.4383 15.5627C16.6627 32.2248 6.41802 47.5438 7.70148 68.1393Z"/>
</symbol>
<use href="#52" fill="white"/>
</svg>