<svg width="120" height="120" viewBox="0 0 120 120" fill="none" xmlns="http://www.w3.org/2000/svg"><symbol id="55" viewBox="0 0 120 120">
<path fill-rule="evenodd" clip-rule="evenodd" d="M73.1739 22.8752C87.7057 17.2004 99.5171 -5.56495 113.472 1.26644C127.089 7.9324 115.076 29.3044 115.711 43.699C116.056 51.5067 118.157 59.1035 116.363 66.7346C114.786 73.4451 109.518 78.4876 106.105 84.5679C102.532 90.933 100.806 98.0136 95.763 103.433C89.3752 110.297 82.8477 120.779 73.1739 119.954C63.1755 119.102 62.5113 102.292 52.8375 99.7732C37.7628 95.8483 19.4182 111.358 6.8068 102.675C-3.68122 95.4532 -0.167152 77.9924 4.85475 66.7346C9.60935 56.0761 23.8328 52.865 32.6326 44.7801C38.692 39.2131 41.1448 30.6116 48.4945 26.6404C55.8417 22.6706 65.3462 25.9319 73.1739 22.8752Z"/>
</symbol>
<use href="#55" fill="white"/>
</svg>