<svg width="120" height="120" viewBox="0 0 120 120" fill="none" xmlns="http://www.w3.org/2000/svg"><symbol id="59" viewBox="0 0 120 120">
<path fill-rule="evenodd" clip-rule="evenodd" d="M63.8375 119.973C47.3801 120.696 36.7581 106.638 25.1684 97.5086C15.4861 89.8817 6.37468 81.8705 2.42322 71.5957C-1.46179 61.4937 -0.32032 50.8951 3.33704 40.7416C7.12991 30.212 10.4599 16.7978 23.5713 12.8852C37.0322 8.86826 49.5959 24.4243 63.8375 22.6875C83.17 20.3298 98.6537 -7.20239 114.441 1.80331C130.258 10.8265 107.632 30.7435 104.353 45.7995C102.902 52.4611 101.278 58.6203 100.598 65.3563C99.6036 75.2012 105.348 85.4975 99.4612 94.2438C91.7536 105.696 80.4114 119.245 63.8375 119.973Z"/>
</symbol>
<use href="#59" fill="white"/>
</svg>