<svg width="120" height="120" viewBox="0 0 120 120" fill="none" xmlns="http://www.w3.org/2000/svg"><symbol id="60" viewBox="0 0 120 120">
<path d="M3.43723 5.52849C1.67677 9.38265 0.712962 13.4914 0.592893 17.6544C0.369185 21.57 0.257472 25.5285 0.137628 29.4225C-0.168815 37.6201 0.0365864 45.8267 0.75284 54.0037C1.38101 61.7006 3.00586 69.3059 5.59457 76.6666C7.97867 83.0858 11.3189 89.1871 15.5253 94.8054C19.7165 100.351 24.9598 105.197 31.0172 109.122C37.8004 113.56 45.8459 116.359 54.0352 117.883C58.8314 118.755 63.6816 119.367 68.56 119.716C73.4529 120.156 78.3868 120.084 83.2611 119.501C93.0324 118.184 102.22 114.025 108.548 107.139C117.952 96.9028 120.748 82.9658 119.837 70.0453C119.403 63.1659 117.997 56.3638 115.651 49.8019C113.224 43.2548 109.899 37.0031 105.752 31.1906C101.904 25.7031 97.2643 20.6945 91.9537 16.2944C85.4262 10.9043 78.1396 6.35881 69.6387 3.88924C64.6779 2.48685 59.4514 1.99983 54.2747 2.4576C49.7207 2.8513 44.8953 4.6051 41.7793 7.69028C39.9106 9.562 38.7867 11.9357 38.5835 14.4404C38.216 18.4347 38.2957 22.5077 38.2238 26.5163C38.1599 30.6776 38.1385 34.8365 38.1599 38.993C38.2078 46.9458 38.2239 54.963 38.839 62.9014C39.3264 69.172 40.397 75.7861 44.983 80.7969C51.7821 88.27 64.0621 87.955 72.9944 84.0681C77.7122 82.0247 81.6327 78.7542 84.2438 74.6838C86.5688 70.9901 86.9841 66.8097 86.4807 62.6866C85.9272 59.0194 84.4074 55.5229 82.0467 52.4862C81.048 51.119 78.1395 50.6179 76.5656 50.5392C73.9512 50.447 71.3553 50.965 69.0317 52.0424C67.1621 52.9658 65.0368 54.1898 64.1739 56.0653L63.6465 57.5972C63.5769 58.1012 63.6278 58.6127 63.7959 59.0977C63.964 59.5828 64.2455 60.0303 64.6214 60.4104C64.917 60.8112 65.1965 61.2264 65.4601 61.6416L64.6612 60.3245C66.1907 62.7735 67.1425 65.4779 67.4575 68.27L67.314 66.7668C67.5212 68.8544 67.2823 70.9582 66.6106 72.9658L67.1302 71.4339C66.7122 72.6098 66.1179 73.7295 65.3642 74.7625L66.483 73.2736C65.854 74.0972 65.1281 74.858 64.3179 75.5428L65.9634 74.1755C65.2211 74.7897 64.419 75.3431 63.5665 75.829L65.6599 74.6623C64.9478 75.0445 64.2056 75.3794 63.439 75.6644L65.9076 74.7696C65.2283 75.0059 64.5317 75.1997 63.8224 75.3495L66.4268 74.834C65.719 74.97 65.0005 75.0562 64.2777 75.0918L66.7385 74.9916C66.0207 75.0202 65.3015 74.9914 64.5894 74.9057L66.8025 75.1991C65.9138 75.0753 65.043 74.864 64.2059 74.5692L66.0676 75.2278C65.01 74.8306 64.0139 74.3133 63.1035 73.6888L64.5016 74.6838C63.0635 73.6226 61.8578 72.3313 60.9461 70.8756L61.7451 72.1855C59.4521 68.5277 58.5972 64.3116 58.1818 60.1527L58.3335 61.6487C57.7103 55.2063 57.7184 48.6637 57.6145 42.1927C57.5027 35.1204 57.5265 28.0505 57.6863 20.983C57.7289 19.0217 57.7823 17.0603 57.8463 15.099C57.7788 13.4346 57.9533 11.7695 58.3655 10.1455L57.8463 11.6774C58.0011 11.2722 58.2045 10.8834 58.4533 10.5177L57.327 11.9995C57.4976 11.792 57.6817 11.5935 57.8782 11.4053L56.2402 12.7654C56.4565 12.5893 56.6863 12.4267 56.9275 12.2787L54.8342 13.4455C55.0921 13.3118 55.3589 13.1922 55.6331 13.0876L53.1645 13.9824C53.5364 13.8549 53.918 13.752 54.3067 13.6745L51.7101 14.1899C52.3064 14.091 52.91 14.0312 53.516 14.0109L51.0551 14.104C52.7062 14.0645 54.3577 14.1507 55.9924 14.3617L53.7793 14.0753C56.1817 14.4195 58.536 14.9931 60.8022 15.7861L58.9409 15.1348C63.5197 16.8339 67.7988 19.1197 71.6443 21.9208L70.2461 20.9186C78.498 26.868 85.4002 34.1796 90.5793 42.4576L89.7803 41.1477C95.7743 50.6954 99.4372 61.2747 100.526 72.1855L100.383 70.6824C101.11 78.4705 100.614 86.4304 98.0578 93.9608L98.5771 92.4289C97.3536 96.0706 95.5448 99.5333 93.2079 102.708L94.3264 101.226C93.0015 102.983 91.4578 104.6 89.7246 106.044L91.3705 104.684C90.1693 105.664 88.8724 106.545 87.4954 107.318L89.5888 106.151C88.4151 106.796 87.1861 107.356 85.9135 107.826L88.3822 106.931C87.0842 107.392 85.7487 107.763 84.3874 108.041L86.9922 107.526C85.0053 107.918 82.9845 108.157 80.952 108.241L83.4207 108.148C78.2081 108.253 72.996 107.929 67.8492 107.182L70.0623 107.475C64.8747 106.831 59.7833 105.672 54.8822 104.018L56.7438 104.669C52.1441 103.022 47.8376 100.782 43.9605 98.0194L45.3587 99.0144C39.1579 94.4629 33.9814 88.8949 30.1063 82.6079L30.9053 83.925C24.2819 73.338 21.174 61.4769 19.9676 49.4583L20.1194 50.9615C18.9928 39.401 19.4163 27.7403 19.9836 16.1584C20.0414 13.0129 20.5406 9.88651 21.4695 6.85274L20.9503 8.3846C21.2042 7.67752 21.4975 6.98227 21.8292 6.30154C22.2309 5.61553 22.4016 4.83983 22.3208 4.06854C22.2399 3.29725 21.9112 2.56358 21.374 1.95656C20.1516 0.65377 17.6987 0.0453448 15.901 0.00955385C13.2836 -0.0783811 10.6854 0.44193 8.35892 1.51992C6.4654 2.45049 4.36408 3.66737 3.5012 5.53566L3.43723 5.52849Z"/>
</symbol>
<use href="#60" fill="white"/>
</svg>