<svg width="120" height="120" viewBox="0 0 120 120" fill="none" xmlns="http://www.w3.org/2000/svg"><symbol id="63" viewBox="0 0 120 120">
<path d="M86.8133 1.38504C70.917 2.88871 54.8452 4.22769 39.1948 6.2582C26.8992 7.86066 9.4399 11.6144 8.3333 20.9328C7.77122 25.6304 12.2149 30.1085 18.1167 33.0061C24.0186 35.9037 31.2554 37.561 38.3517 39.1525L76.6079 47.7356L40.7231 49.9965C31.2029 50.5892 21.4017 51.2477 13.1285 54.2661C4.85539 57.2844 -1.32819 63.354 1.00796 69.1492C3.78324 76.0091 16.3423 79.192 27.461 80.5969C42.0399 82.4512 56.9553 83.0567 71.7956 82.3969C56.4086 84.8189 41.1503 87.5299 26.021 90.53C14.9199 92.7251 2.1502 96.2923 0.218049 103.459C-1.22228 108.827 4.66221 114.15 12.2854 116.762C19.9087 119.374 28.9365 119.835 37.6312 119.934C54.722 120.143 121.451 120.746 119.976 105.413C116.849 73.298 116.463 40.9196 114.83 8.72774C114.408 0.210569 108.383 -0.799129 96.3514 0.430154C93.1897 0.77406 90.0102 1.09235 86.8133 1.38504Z"/>
</symbol>
<use href="#63" fill="white"/>
</svg>