<svg width="120" height="120" viewBox="0 0 120 120" fill="none" xmlns="http://www.w3.org/2000/svg"><symbol id="64" viewBox="0 0 120 120">
<path d="M53.9399 44.1763C55.6872 41.6714 57.3571 39.1403 59.1972 36.6528C64.934 28.9118 71.1659 21.3013 80.3819 14.6475C83.7675 12.1369 87.7834 9.916 92.3039 8.0546C100.793 4.68857 110.86 6.21944 116.102 11.2728C119.246 14.499 120.536 18.1936 119.797 21.8492C118.73 30.373 114.261 38.4533 109.066 46.3943C94.5644 68.7387 75.1799 89.9821 51.3577 109.636C47.9249 112.454 43.8893 115.046 40.008 117.681C38.1087 118.962 35.396 119.777 32.4464 119.951C29.6321 120.16 27.4982 119.716 26.2611 118.333C24.2819 116.115 21.9156 113.915 20.8022 111.549C17.0447 103.512 13.3646 95.4495 10.4266 87.3084C7.4886 79.1673 5.04577 70.861 3.03557 62.5808C0.113048 50.604 -1.15511 38.5576 1.30352 26.4939C2.66427 19.8314 5.18466 13.3081 10.8751 7.35884C12.6154 5.51445 14.8066 3.81632 17.385 2.31411C22.1631 -0.390886 28.2093 -0.677928 34.1626 1.20948C38.1765 2.58158 41.486 4.51812 43.7651 6.82829C48.9193 11.7158 51.9105 17.2283 52.4865 22.9017C53.2596 29.4598 53.229 36.0613 53.5382 42.6368C53.5382 43.15 53.5382 43.6545 53.5382 44.1676L53.9399 44.1763Z"/>
</symbol>
<use href="#64" fill="white"/>
</svg>