<svg width="120" height="120" viewBox="0 0 120 120" fill="none" xmlns="http://www.w3.org/2000/svg"><symbol id="65" viewBox="0 0 120 120">
<path d="M111.109 80.9881C104.258 86.4198 93.1665 88.5582 84.6078 88.5582C85.4617 88.5582 72.2644 87.174 64.2975 102.677C60.8721 109.359 53.7884 115.812 46.4038 118.294C26.3751 124.977 14.1967 111.125 17.4572 92.3767C19.0583 83.1933 17.6415 75.9095 9.57759 70.4205C3.90086 66.5161 -0.038531 61.8289 0.0002843 54.6597C0.0002843 44.3212 14.8372 17.6109 28.9175 24.1692C37.0007 27.9208 43.3182 29.2478 47.8887 20.0261C52.0128 11.6637 53.7788 4.89547 63.0556 0.723792C68.1113 -1.53865 81.9292 1.77384 84.8016 6.90014C89.2556 14.833 91.8855 20.723 91.7496 30.0019C91.6429 36.4455 89.4208 43.7961 96.3978 47.6623C102.686 51.1657 114.418 51.2803 118.299 58.1631C122.86 66.1628 117.494 75.919 111.109 80.9881Z"/>
</symbol>
<use href="#65" fill="white"/>
</svg>