<svg width="120" height="120" viewBox="0 0 120 120" fill="none" xmlns="http://www.w3.org/2000/svg"><symbol id="66" viewBox="0 0 120 120">
<path d="M23.7025 12.4976C16.0517 18.1424 9.86203 25.8158 5.72291 34.7875C1.58379 43.7593 -0.366872 53.7302 0.0568427 63.7504C0.145654 74.5296 3.04563 85.0617 8.42208 94.1307C13.7985 103.2 21.4319 110.436 30.4412 115.004C38.0127 118.047 46.012 119.651 54.0869 119.744C64.6325 120.66 75.2367 119.109 85.181 115.196C92.2692 111.655 98.6404 106.627 103.927 100.403C109.213 94.1795 113.309 86.8826 115.98 78.9341C118.481 72.4745 119.844 65.5645 119.999 58.561C120.236 2.95133 63.841 -14.5384 23.7025 12.4976Z"/>
</symbol>
<use href="#66" fill="white"/>
</svg>