<svg width="120" height="120" viewBox="0 0 120 120" fill="none" xmlns="http://www.w3.org/2000/svg"><symbol id="69" viewBox="0 0 120 120">
<path d="M8.91326 114.554C7.95884 111.493 8.28311 108.415 8.56784 105.332C8.90617 101.542 9.84224 97.7838 10.4283 94.0103C10.7814 91.7745 10.8723 89.5144 10.9024 87.2687C10.9363 85.5917 10.711 83.8481 10.5116 82.1607C10.2773 79.6764 9.65396 77.2142 8.6514 74.8127C8.13769 73.65 8.00513 72.4161 7.58984 71.2353C6.87402 69.1469 6.05791 67.0685 5.27938 64.9863L5.20529 64.6672C4.43476 62.2327 3.72692 59.7921 2.85607 57.3675C1.97888 55.1808 1.34223 52.9561 0.951021 50.7102C0.573415 47.8688 0.145642 45.0322 0.246447 42.1518C0.294867 39.953 0.521518 37.7573 0.925388 35.5741C1.78956 30.3541 4.2942 25.3067 8.28293 20.7469C9.92477 18.963 11.7987 17.2745 13.8838 15.7C15.1979 14.6749 16.8254 13.8949 18.1182 12.8886C18.5977 12.5232 19.4953 12.577 19.8551 12.2485C21.1863 11.0208 23.538 10.7635 25.1344 9.79415C25.3017 9.66972 25.5224 9.58089 25.7679 9.53914C26.9851 9.31865 28.1389 8.97017 29.184 8.50733C33.7804 7.10415 38.7458 6.28724 43.8127 6.10066C46.8191 5.93066 49.8456 5.98851 52.8317 6.27305C56.2379 6.69519 59.5626 7.36032 62.746 8.25659C67.9411 9.6337 72.5537 11.8043 76.1962 14.5858C79.2809 16.8617 81.8661 19.406 83.8779 22.1458C85.5446 24.4481 86.9542 26.8261 88.0955 29.261C88.5826 30.3092 88.9732 31.3836 89.3695 32.4826C90.4903 35.3104 91.3699 38.1766 92.0044 41.0679C92.4356 42.925 92.8669 44.7821 93.3714 46.6235C93.9622 48.6155 94.6659 50.5962 95.52 52.5622C96.0079 53.6689 96.4224 54.7911 96.8997 55.9072C98.3146 59.1349 100.089 62.2909 102.209 65.3499C104.824 69.1736 107.791 72.891 111.092 76.4816C113.317 78.8813 115.615 81.2654 117.884 83.6356C121.257 87.1343 123.945 90.8949 125.884 94.8295C126.11 95.3625 126.288 95.9039 126.414 96.4508C126.585 97.157 126.837 97.8538 127.168 98.5354C127.449 99.0594 127.606 99.6082 127.635 100.163C128.069 102.943 128.084 105.745 127.679 108.527C127.367 109.889 127.026 111.236 126.541 112.573C125.508 115.42 123.999 118.184 122.041 120.816C120.131 123.378 117.909 125.836 115.398 128.167C112.94 130.473 110.065 132.578 106.835 134.435C105.232 135.43 103.554 136.324 101.941 137.278C100.168 138.363 98.3068 139.384 96.3664 140.339C93.8789 141.571 91.1725 142.603 88.3059 143.411C85.4191 144.182 82.3351 144.545 79.3795 145.129C77.0578 145.626 74.6539 145.88 72.3245 146.345C68.8525 147.066 65.1899 147.314 61.5647 147.072C57.7853 146.859 54.0509 146.387 50.4238 145.662C47.6332 145.033 44.9152 144.275 42.2906 143.393C38.4847 142.196 34.8533 140.776 31.4412 139.151C27.7762 137.373 24.5245 135.258 21.787 132.873C20.1626 131.402 18.4185 129.967 17.0172 128.407C14.3411 125.605 12.1618 122.614 10.5216 119.491C9.82906 117.869 9.29194 116.22 8.91326 114.554Z"/>
</symbol>
<use href="#69" fill="white"/>
</svg>