<svg width="120" height="120" viewBox="0 0 120 120" fill="none" xmlns="http://www.w3.org/2000/svg"><symbol id="7" viewBox="0 0 120 120">
<path d="M23.0151 112.657C42.3312 122.509 79.7503 122.091 100.704 113.533C124.053 103.994 125.357 87.8316 109.225 76.3987C100.679 70.5108 88.7927 65.6587 74.6864 62.3003C59.5247 58.6287 39.7841 55.7672 22.7423 58.6678C8.00513 61.2027 -3.42692 67.9187 1.78872 74.9353C6.45853 81.2593 21.7416 85.2967 36.3575 86.2375C66.3777 88.1452 96.7013 80.1356 109.407 68.4806C122.749 56.1983 113.834 42.0869 90.7578 33.2019C79.739 28.8675 66.0511 25.9956 51.3373 24.931C36.6911 23.9641 20.3771 24.8526 8.88449 29.2951C-3.91201 34.2864 -1.97131 42.1 8.88449 47.3134C19.7403 52.5268 36.4182 54.552 51.9438 54.1731C67.6187 53.7988 82.464 51.0176 93.7902 46.3334C105.1 41.4102 111.609 34.8092 111.984 27.8839C112.611 20.9747 107.015 14.2286 96.3676 9.05555C85.7118 4.09778 71.2848 0.950085 55.7039 0.183598C48.2597 -0.195031 40.7177 0.0130624 33.4464 0.797711C24.9255 1.69928 28.534 7.3308 37.0853 6.46843C60.313 3.99892 87.1493 9.52593 95.3063 19.417C99.621 24.4166 99.4616 29.9291 94.8594 34.8808C90.2571 39.8325 81.5415 43.8686 70.4107 46.2027C59.6506 48.3494 47.4899 48.8115 36.024 47.5093C26.0173 46.3595 12.4929 42.7271 13.3723 37.5398C14.191 32.9275 26.6844 30.7977 35.8724 30.3926C47.7434 29.9874 59.6126 31.1838 69.8346 33.816C89.9693 38.8072 104.646 48.5938 101.826 58.8377C99.0665 68.8203 79.7807 77.4701 57.5232 79.9266C52.0189 80.5982 46.2565 80.7835 40.5818 80.4714C34.9071 80.1593 29.4375 79.3562 24.5011 78.1103C15.4041 75.6408 10.2186 70.9501 17.8905 66.9649C27.2604 62.0912 43.2107 62.9013 55.522 64.8351C67.8125 66.772 78.9038 69.9015 87.9378 73.9814C104.98 81.7166 112.197 93.3717 100.856 103.276C98.4884 105.495 95.1265 107.49 90.9632 109.147C86.8 110.804 81.9177 112.091 76.5968 112.932C66.3034 114.49 55.0271 114.327 44.9996 112.474C40.1545 111.518 35.8734 110.102 32.476 108.332C31.1839 107.787 29.4478 107.482 27.6395 107.482C25.8313 107.482 24.095 107.787 22.8028 108.332C21.561 108.892 20.868 109.636 20.868 110.41C20.868 111.184 21.561 111.928 22.8028 112.487L23.0151 112.657Z"/>
</symbol>
<use href="#7" fill="white"/>
</svg>