<svg width="120" height="120" viewBox="0 0 120 120" fill="none" xmlns="http://www.w3.org/2000/svg"><symbol id="70" viewBox="0 0 120 120">
<path d="M6.18623 64.9837C11.5357 59.4318 18.1182 58.9817 18.1182 51.6493C18.1182 44.3169 5.8581 45.3073 4.53564 35.6441C3.21318 25.9809 8.8411 18.6384 16.4676 20.299C24.0942 21.9595 32.6753 20.9692 36.3543 13.9669C40.0333 6.96464 46.9738 -1.70825 57.5833 0.292405C68.1928 2.29306 67.8746 14.6372 73.9997 13.9669C80.1248 13.2967 92.3849 5.29409 100.011 11.9663C107.638 18.6385 94.3438 35.6441 98.5001 41.6461C102.656 47.648 121.549 56.3109 119.898 69.6552C118.248 82.9996 106.634 92.6628 93.0511 92.9929C79.4686 93.323 75.6105 99.665 68.7496 108.998C61.8888 118.331 45.6016 122.312 36.3543 118.651C27.107 114.99 29.394 99.9752 20.793 95.3037C12.192 90.6321 1.14497 89.6718 0.150635 80.2988C-0.843698 70.9257 3.30267 67.9846 6.18623 64.9837Z"/>
</symbol>
<use href="#70" fill="white"/>
</svg>