<svg width="120" height="120" viewBox="0 0 120 120" fill="none" xmlns="http://www.w3.org/2000/svg"><symbol id="72" viewBox="0 0 120 120">
<path fill-rule="evenodd" clip-rule="evenodd" d="M65.5322 0.20772C78.5091 -2.02979 85.0288 14.3789 94.7089 22.0351C102.452 28.1596 112.371 32.5092 116.719 40.6931C121.057 48.8564 120.448 58.1479 118.576 66.9585C116.754 75.5397 111.038 82.6488 106.176 90.3336C99.8497 100.333 98.1499 114.549 85.7534 118.841C73.5284 123.073 60.4422 114.67 48.2391 110.393C37.2592 106.544 22.7474 104.515 18.2772 95.187C13.6291 85.4886 29.58 75.3979 26.5992 65.2397C23.0152 53.0256 -4.86499 47.0851 0.742443 35.4303C6.22517 24.0346 30.8802 37.5788 43.1052 30.9328C55.315 24.295 51.3161 2.6589 65.5322 0.20772Z"/>
</symbol>
<use href="#72" fill="white"/>
</svg>