<svg width="120" height="120" viewBox="0 0 120 120" fill="none" xmlns="http://www.w3.org/2000/svg"><symbol id="74" viewBox="0 0 120 120">
<path fill-rule="evenodd" clip-rule="evenodd" d="M59.8207 0.0593619C68.0465 -0.566195 75.8768 3.8592 82.9728 8.29612C89.7674 12.5446 94.3087 19.4518 100.028 25.2C106.549 31.7529 116.637 35.6351 119.232 44.736C121.805 53.7591 117.421 63.5633 113.357 71.9529C109.685 79.5345 102.196 83.8388 97.0959 90.4355C92.0583 96.951 90.4682 106.863 83.3868 110.716C76.3154 114.563 67.6738 109.375 59.8207 110.716C50.2373 112.351 41.5517 122.461 32.2752 119.44C23.3877 116.546 19.3849 105.263 15.5726 96.3062C12.169 88.3098 14.0422 79.044 11.5247 70.69C8.73748 61.441 -0.156736 54.3422 0.00210044 44.6378C0.160541 34.9576 5.26513 25.2236 12.3691 19.1011C19.3735 13.0644 29.769 15.0911 38.221 11.6994C45.8731 8.62869 51.6556 0.6803 59.8207 0.0593619Z"/>
</symbol>
<use href="#74" fill="white"/>
</svg>