<svg width="120" height="120" viewBox="0 0 120 120" fill="none" xmlns="http://www.w3.org/2000/svg"><symbol id="75" viewBox="0 0 120 120">
<path fill-rule="evenodd" clip-rule="evenodd" d="M64.6973 0.335425C79.8529 -1.87455 94.6713 7.21946 105.276 16.3474C114.835 24.5761 122.073 36.3269 119.462 47.4753C117.026 57.8731 95.389 59.1273 92.8234 69.5042C89.6086 82.5072 111.549 95.055 104.723 107.089C98.5924 117.897 78.8211 122.005 64.6973 119.09C50.7562 116.213 48.1442 100.631 37.0734 93.1277C27.1705 86.4158 10.4976 87.2834 4.22257 78.1011C-2.28959 68.5718 -0.660859 56.0537 4.97505 46.1577C10.3118 36.787 24.2076 33.8969 33.4255 26.8244C44.6448 18.2163 49.5531 2.54372 64.6973 0.335425Z"/>
</symbol>
<use href="#75" fill="white"/>
</svg>