<svg width="120" height="120" viewBox="0 0 120 120" fill="none" xmlns="http://www.w3.org/2000/svg"><symbol id="77" viewBox="0 0 120 120">
<path d="M48.5285 15.3384C40.5147 9.27426 32.5973 1.85738 23.9515 0.255832C15.3056 -1.34571 5.38703 4.54736 1.77069 18.6347C0.634388 23.3887 0.0378646 28.4926 0.0151822 33.655C-0.169468 45.8978 1.33258 58.036 4.39137 69.0193C7.45015 80.0026 11.9736 89.5003 17.5702 96.6907C26.8568 108.399 38.373 112.862 49.6257 116.08C60.1588 119.097 70.92 121.242 81.5496 119.19C92.1792 117.138 102.774 110.638 110.77 98.0745C116.036 89.818 120.162 78.2806 119.995 65.857C119.812 60.2042 118.813 54.7294 117.093 49.9568C115.373 45.1842 112.99 41.2737 110.173 38.5997C105.784 34.6036 100.333 36.4228 95.5497 35.7853C79.3511 33.5619 63.4672 26.6548 48.5285 15.3384Z"/>
</symbol>
<use href="#77" fill="white"/>
</svg>