<svg width="120" height="120" viewBox="0 0 120 120" fill="none" xmlns="http://www.w3.org/2000/svg"><symbol id="8" viewBox="0 0 120 120">
<path d="M43.646 119.846C42.229 119.846 40.8216 119.9 39.4046 119.846C35.4252 119.693 31.4945 118.965 27.7503 117.688C25.4102 116.851 23.2896 115.549 21.5328 113.871C19.8844 112.339 18.7759 110.463 17.3396 108.795C17.0215 108.423 16.7805 107.979 16.4334 107.634C15.3408 106.429 14.6324 104.958 14.3899 103.391C13.9341 101.386 13.66 99.348 13.5705 97.2991C13.4097 95.7384 13.1163 94.1922 12.6933 92.6754C12.0281 89.2939 11.2377 85.9396 10.4955 82.5761C9.7532 79.2127 8.82781 75.6407 7.75781 72.2229C6.10944 66.9556 4.80809 61.6067 3.5935 56.2397C2.88017 53.0576 2.29216 49.8936 1.66559 46.639C1.31856 44.7351 1.05832 42.8222 0.817327 40.9093C0.143669 36.1017 -0.11425 31.2507 0.0461427 26.4039C0.120957 22.0518 0.974756 17.7426 2.57171 13.6573C3.51265 11.3444 4.73539 9.1418 6.21547 7.09361C7.00803 6.00392 7.91205 4.98967 8.91457 4.06553C10.2726 2.74012 11.9088 1.69468 13.7192 0.995501C15.5296 0.296322 17.4748 -0.0413106 19.4314 0.00403048C21.6341 0.0944034 23.7385 0.88733 25.3983 2.25235C27.3187 3.76672 28.8314 5.6865 29.8132 7.85511C32.0003 12.6858 33.5416 17.7531 34.4016 22.9408C35.1407 26.9781 35.8604 31.0184 36.5609 35.0618C36.8115 36.4852 36.9561 37.9266 37.1104 39.3681C37.5249 43.3934 37.8237 47.4276 38.3539 51.4347C38.7687 54.7943 39.4127 58.1253 40.2818 61.4072C40.7687 63.2265 41.5663 64.9595 42.6435 66.5385C43.044 67.0881 43.5062 67.5958 44.0219 68.0526C44.1119 68.1403 44.2197 68.2101 44.3389 68.2578C44.4582 68.3054 44.5864 68.33 44.716 68.33C44.8456 68.33 44.9738 68.3054 45.0931 68.2578C45.2123 68.2101 45.3201 68.1403 45.41 68.0526C46.0831 67.408 46.6486 66.6713 47.0873 65.8677C48.3501 63.3655 49.5454 60.8361 50.895 58.3702C52.0903 56.1762 53.4495 54.0639 54.7508 51.9153C55.1653 51.2263 55.5991 50.5645 56.0232 49.8936C57.7184 47.3301 59.724 44.9601 61.9998 42.8312C63.579 41.3303 65.3539 40.0236 67.2823 38.9421C68.2276 38.3117 69.3234 37.91 70.473 37.7725C70.6635 37.7631 70.8488 37.7102 71.0128 37.6184C72.4105 36.8024 73.8468 37.0473 75.2928 37.4552C76.7887 37.8477 78.0998 38.7038 79.0136 39.8848C80.1611 41.4278 80.8651 43.2235 81.0572 45.0977C81.4038 47.5529 81.4038 50.0404 81.0572 52.4955C80.6744 55.0689 79.9724 57.5914 78.9654 60.0112C77.6002 63.4111 76.0428 66.74 74.2999 69.9836C72.5058 73.2031 70.9501 76.5351 69.644 79.9561C69.1409 81.1981 68.8544 82.5083 68.7957 83.8362C68.7842 84.197 68.8068 84.5581 68.8632 84.9151C68.888 85.1288 68.9927 85.3272 69.1587 85.475C69.3246 85.6228 69.5411 85.7103 69.7693 85.722C70.4076 85.7812 71.0518 85.6973 71.649 85.4772C72.6594 85.1134 73.6283 84.6548 74.5409 84.1082C76.0929 83.2016 77.6737 82.2951 79.2064 81.2797C79.9583 80.8082 80.6042 80.219 81.3465 79.7385C83.843 78.149 86.4851 76.7716 89.2413 75.6226C92.4513 74.2536 95.5745 72.7125 98.7362 71.2438C100.247 70.573 101.81 70.0122 103.411 69.5665C106.064 68.7507 108.948 68.9227 111.47 70.047C112.981 70.542 114.399 71.2579 115.673 72.1684C117.601 73.8003 119.404 75.4956 119.866 78.0612C120.027 78.8904 120.043 79.7385 119.914 80.5725C119.344 84.3047 117.575 87.784 114.844 90.545C109.307 96.2729 102.831 101.13 95.6612 104.933C92.3066 106.746 88.9135 108.504 85.4529 110.018C81.2326 111.935 76.9081 113.642 72.4973 115.132C68.1851 116.507 63.7836 117.621 59.32 118.468C56.2353 119.048 53.1314 119.501 49.9985 119.792C47.8971 119.982 45.7667 119.937 43.646 120V119.846Z"/>
</symbol>
<use href="#8" fill="white"/>
</svg>