<svg width="120" height="120" viewBox="0 0 120 120" fill="none" xmlns="http://www.w3.org/2000/svg"><symbol id="81" viewBox="0 0 120 120">
<path d="M97.7541 69.072C96.2141 68.35 94.674 67.6924 93.134 67.0864C94.674 66.7125 96.2141 66.3129 97.7541 65.7971C121.855 54.0772 92.2094 29.7995 70.9879 28.5231C74.222 26.1507 75.6084 22.2699 73.7604 15.862C71.8046 -6.70106 43.9916 -1.89195 29.7464 9.94397C5.98388 26.2151 23.9716 33.2806 44.2691 32.7262C30.9941 37.1357 19.6287 45.3357 14.5929 56.8493C10.6504 65.4619 16.0552 69.2138 23.9247 70.7997C22.2769 71.4443 20.6446 72.089 19.043 72.8239C-1.76273 81.4752 -9.35492 105.624 16.0863 113.785C28.9326 117.691 42.462 119.791 56.1268 120C77.3176 118.414 103.606 116.132 117.204 100.854C126.137 87.2642 112.045 74.5645 97.7541 69.072Z"/>
</symbol>
<use href="#81" fill="white"/>
</svg>