<svg width="120" height="120" viewBox="0 0 120 120" fill="none" xmlns="http://www.w3.org/2000/svg"><symbol id="83" viewBox="0 0 120 120">
<path d="M5.93991 31.2764C7.77904 22.3239 10.1277 13.4188 13.9551 7.15916C17.7825 0.899546 23.4117 -2.14758 28.0344 1.70267C29.7762 3.36814 31.32 5.69462 32.5703 8.53853C33.8206 11.3824 34.751 14.6834 35.3039 18.2375C36.3776 25.3509 36.9337 32.7104 36.9567 40.1107L37.8514 74.5031C38.0005 80.0305 38.7709 87.0224 41.5793 88.0853C42.577 88.2581 43.5765 87.7948 44.4203 86.7683C45.264 85.7418 45.904 84.2106 46.2393 82.4162C46.8611 78.7919 47.0272 74.9409 46.724 71.1725C46.3139 61.2752 45.7547 51.2835 46.6494 41.528C47.5441 31.7724 50.1413 22.0405 54.6397 17.0564C61.611 9.3087 71.0925 15.5919 76.2247 27.4498C81.3569 39.3076 83.0469 55.181 83.8795 70.4639C83.944 73.8718 84.34 77.2275 85.0476 80.3612C85.4091 81.9257 86.0021 83.2567 86.7545 84.1919C87.5068 85.1272 88.386 85.6264 89.285 85.6288C91.7703 85.2508 93.2243 79.9596 93.6841 75.259C94.3924 68.1727 94.0072 60.732 94.7155 53.622C95.4238 46.512 97.673 39.095 101.389 37.4651C102.77 37.0237 104.186 37.204 105.524 37.9916C106.862 38.7793 108.085 40.1523 109.093 42.0004C111.094 45.717 112.772 50.0145 114.064 54.7322C116.37 61.4571 118.169 68.7644 119.407 76.4401C120.451 84.2115 120.227 92.9749 117.841 99.5888C114.561 108.73 108.223 111.541 102.47 113.289C72.8649 122.237 42.7024 122.237 13.0976 113.289C3.98894 110.549 0.0124266 109.84 0 91.1088C0.00513627 70.636 2.01957 50.3448 5.93991 31.2764Z"/>
</symbol>
<use href="#83" fill="white"/>
</svg>