<svg width="120" height="120" viewBox="0 0 120 120" fill="none" xmlns="http://www.w3.org/2000/svg"><symbol id="84" viewBox="0 0 120 120">
<path fill-rule="evenodd" clip-rule="evenodd" d="M59.5682 0.210652C72.3119 -1.3893 84.1482 6.41049 94.5667 13.9214C105.019 21.4567 115.139 30.494 118.737 42.8667C122.282 55.0569 117.642 67.6115 113.689 79.6758C109.747 91.7094 106.247 104.794 96.0082 112.245C85.7661 119.699 72.0346 121.31 59.5682 119.062C48.2953 117.03 41.2155 106.805 31.5694 100.627C21.0479 93.8892 3.99027 93.2778 0.550504 81.2668C-2.9122 69.1757 10.8698 59.3396 16.5285 48.1073C21.0784 39.0759 23.6617 29.4968 30.4209 21.9748C38.7287 12.7295 47.2353 1.75902 59.5682 0.210652Z"/>
</symbol>
<use href="#84" fill="white"/>
</svg>