<svg width="120" height="120" viewBox="0 0 120 120" fill="none" xmlns="http://www.w3.org/2000/svg"><symbol id="87" viewBox="0 0 120 120">
<path fill-rule="evenodd" clip-rule="evenodd" d="M72.164 28.8515C84.6723 18.725 95.4499 -4.48108 109.773 0.760642C122.202 5.30914 119.169 30.2731 119.933 46.3328C120.504 58.3452 117.359 69.7304 113.578 80.8104C110.563 89.6459 105.73 96.8517 100.345 103.735C95.2448 110.255 90.3047 118 83.1204 119.745C76.0991 121.451 69.9232 114.09 62.8392 112.846C54.0199 111.298 45.0051 115.52 36.6788 111.593C24.5167 105.856 10.3713 100.022 4.75814 85.4501C-0.988273 70.532 -3.23406 45.9902 7.94862 37.0076C21.9779 25.7384 40.1447 45.7843 56.7674 43.673C63.3614 42.8355 66.6117 33.3465 72.164 28.8515Z"/>
</symbol>
<use href="#87" fill="white"/>
</svg>