<svg width="120" height="120" viewBox="0 0 120 120" fill="none" xmlns="http://www.w3.org/2000/svg"><symbol id="9" viewBox="0 0 120 120">
<path d="M0.152343 61.0838C-0.329122 49.5681 9.19514 39.4301 16.9511 37.3448C23.9236 35.483 29.9682 37.6427 35.1592 42.707C36.2621 43.8271 37.4317 44.8704 38.6608 45.8304C43.3354 49.3354 45.7646 47.9762 47.7124 41.9949C48.9598 38.1594 47.8699 34.445 46.837 30.8748C44.7842 23.7717 44.8279 16.7338 47.7124 10.0822C50.0146 4.81311 53.8401 0.968321 59.7227 0.12582C66.7696 -0.888905 74.136 4.35696 75.3353 11.4275C75.8343 14.3739 74.6044 17.0457 74.1798 19.8432C73.7771 22.4917 73.3044 25.1262 73.5802 27.8353C73.8734 30.8189 75.4798 31.843 78.0534 30.6281C80.2186 29.5149 82.1738 27.9893 83.8222 26.127C90.9173 18.5538 99.2248 17.8882 107.926 21.7935C114.264 24.6421 115.214 31.8895 110.469 36.7677C108.158 39.1416 105.151 40.1609 102.42 41.7202C101.011 42.5255 99.5268 43.1865 98.1524 44.0476C94.1431 46.5844 93.6179 50.8109 96.6817 54.7208C100.004 58.9566 104.731 60.3903 109.349 62.0287C113.966 63.6672 117.853 66.055 119.416 71.3614C121.267 77.608 118.54 82.3977 113.756 85.0835C107.379 88.6629 100.442 88.6071 93.5216 87.6948C90.5078 87.2152 87.4571 87.0499 84.4131 87.2013C80.8547 87.476 79.2439 90.562 77.8214 93.5923C75.935 97.6093 75.1953 102.11 73.3482 106.123C71.0415 111.103 68.8137 116.158 63.4431 118.509C56.1424 121.702 45.2131 120.157 41.6109 110.047C40.1008 105.802 40.5035 101.389 41.5452 97.0414C42.832 91.6512 45.0205 86.559 46.1673 81.099C47.0427 76.9331 45.5676 73.6515 42.1974 72.5251C41.4256 72.318 40.6186 72.3085 39.8426 72.4971C34.6428 73.335 29.8806 75.8299 24.7377 76.9005C20.3608 77.8314 15.9838 78.2085 11.5587 77.2682C4.39361 75.7601 -0.985666 69.6857 0.152343 61.0838ZM78.6399 58.8542C79.3534 53.1569 75.0464 49.5448 71.9301 48.9211C65.4522 47.6178 59.6746 50.9878 57.1009 57.4392C54.768 63.2855 57.4992 68.6105 61.8806 70.6167C69.8948 74.2334 79.2396 65.7013 78.6399 58.8402V58.8542Z"/>
</symbol>
<use href="#9" fill="white"/>
</svg>