<svg width="120" height="120" viewBox="0 0 120 120" fill="none" xmlns="http://www.w3.org/2000/svg"><symbol id="91" viewBox="0 0 120 120">
<path d="M29.1959 57.3598C29.5367 56.6667 29.7106 55.8933 29.7016 55.11C29.6927 54.3267 29.5013 53.5581 29.1447 52.8741C28.3783 51.0655 27.4826 49.3231 26.4654 47.6624C24.9116 45.1902 23.1978 42.8686 21.5353 40.4374C19.4226 37.3463 18.0185 33.7663 17.4364 29.9867C16.7789 25.8139 17.6632 21.5308 19.9022 18.0439C22.1411 14.557 25.559 12.14 29.4325 11.3042C34.548 10.1948 39.0242 11.6056 42.5859 15.5776C44.2591 17.4053 45.6782 19.4811 46.7999 21.7412C48.6415 25.5558 50.1058 29.5826 51.7428 33.5136C52.427 35.1436 52.7851 36.9926 54.6395 38.3691C54.9144 36.8145 55.183 35.4996 55.3685 34.1711C55.8672 30.651 56.1038 27.0624 56.8584 23.6108C59.3011 12.4274 65.4142 4.55854 75.8436 1.23021C83.5617 -1.23522 90.8898 -0.0915524 97.2779 5.53784C102.573 10.2153 104.312 17.1254 101.652 23.9053C100.636 26.422 99.3179 28.7863 97.7319 30.9386C93.4923 36.8488 88.1402 41.4783 82.3851 45.5874C80.2622 47.1009 78.2479 48.7924 76.2528 50.484C75.1057 51.4795 74.2235 52.781 73.695 54.2575C74.9312 54.0387 76.1546 53.7437 77.3591 53.374C80.3431 52.2326 83.3081 51.0319 86.2538 49.7718C91.4397 47.5666 96.6768 45.5737 102.24 44.8272C107.4 44.1424 112.1 45.245 116.097 48.9774C119.614 52.2578 120.886 57.2434 119.371 61.5853C118.389 64.2359 116.529 66.4059 114.146 67.6804C110.928 69.5069 107.467 70.7912 103.883 71.4881C97.2587 72.9194 90.5317 73.296 83.7983 73.4673C80.7801 73.5426 77.7555 73.5221 74.7437 73.6248C73.5821 73.6401 72.4275 73.8197 71.3099 74.159C69.513 74.7548 69.1102 76.4121 70.485 77.7681C71.4725 78.6889 72.602 79.4188 73.8229 79.9253C75.6837 80.7335 77.6596 81.1923 79.5332 81.9799C82.5081 83.1473 85.4181 84.4964 88.2489 86.0204C93.7161 89.1707 97.6168 93.8276 99.177 100.443C100.782 107.237 98.2434 113.811 92.5332 117.208C87.4176 120.262 81.9695 120.735 76.3615 118.996C69.5386 116.879 63.9562 112.702 59.3458 106.997C57.3188 104.491 55.5091 101.785 53.4118 99.3474C51.3144 96.9094 49.0699 94.6426 46.7679 92.4442C45.8539 91.6796 44.8214 91.0932 43.7177 90.7116C42.8926 90.3441 41.9905 90.2201 41.1055 90.3526C40.2204 90.4851 39.3847 90.8692 38.6853 91.4649C35.6259 93.8801 32.9635 96.8241 30.8073 100.176C28.5223 103.724 26.199 107.244 23.8373 110.736C22.5088 112.792 20.7391 114.476 18.677 115.647C14.4566 117.927 10.6902 115.879 9.86536 110.887C9.49906 108.915 9.75786 106.869 10.6007 105.073C11.8796 102.422 13.2544 99.8405 14.7188 97.3066C15.9337 95.1973 17.3853 93.2455 18.6258 91.143C18.9915 90.4369 19.183 89.6426 19.1821 88.8351C19.2036 87.378 18.9419 85.9321 18.4135 84.5892C17.885 83.2463 17.1016 82.0359 16.1128 81.0348C13.4527 78.1379 10.6839 75.3574 8.03654 72.4537C6.06186 70.3578 4.1941 68.1494 2.44137 65.8382C0.788107 63.6024 -0.0747347 60.8132 0.00508005 57.9625C0.145759 51.5387 5.34447 46.9228 11.189 48.3336C13.191 48.9346 15.1123 49.8093 16.9057 50.936C19.7129 52.518 22.3858 54.3602 25.2185 55.9353C26.5061 56.5248 27.8362 57.0012 29.1959 57.3598Z"/>
</symbol>
<use href="#91" fill="white"/>
</svg>