<svg width="120" height="120" viewBox="0 0 120 120" fill="none" xmlns="http://www.w3.org/2000/svg"><symbol id="92" viewBox="0 0 120 120">
<path d="M49.9293 137.996C41.7995 141.832 32.5523 141.705 23.2098 140.428C22.8045 140.397 22.4076 140.291 22.0377 140.114C20.6694 139.371 18.4659 138.839 18.1565 137.736C17.5415 135.541 20.1091 135.489 21.3755 134.723C28.7202 130.303 33.1868 123.847 33.6156 114.984C34.0177 106.532 33.8959 98.041 33.7534 89.5644C33.6658 84.3814 34.2307 83.957 39.0144 85.4373C42.4818 86.5458 46.0582 87.2365 49.6746 87.4957C54.0536 87.7608 57.2492 85.1321 58.6848 80.9423C59.8277 77.6249 60.4816 74.144 60.6241 70.6198C60.8091 65.2617 60.2974 59.8818 60.151 54.5065C60.0124 52.1067 60.0515 49.6993 60.2679 47.3059C60.7019 43.7968 62.7393 42.744 65.7211 44.2186C72.3608 47.5055 79.0853 45.9872 83.0618 39.573C85.292 36.0263 86.8617 32.0686 87.6877 27.9092C88.8236 21.7018 89.0693 15.2968 89.4399 8.95922C89.5914 6.3319 89.3864 3.4623 91.9626 2.32283C94.7367 1.08956 97.0294 3.26258 98.5097 5.33619C100.368 7.92983 101.838 10.8054 102.869 13.8636C105.391 21.509 106.703 29.5357 106.754 37.6254C107.172 73.0076 94.4298 102.394 69.8744 126.296C64.3508 131.665 57.8355 135.349 49.9293 137.996Z"/>
</symbol>
<use href="#92" fill="white"/>
</svg>