<svg width="120" height="120" viewBox="0 0 120 120" fill="none" xmlns="http://www.w3.org/2000/svg"><symbol id="93" viewBox="0 0 120 120">
<path d="M0.133098 53.9841C-0.0608058 45.3342 -0.0180764 36.6972 0.261277 28.0733C0.335223 25.7768 0.443674 23.3829 1.28173 21.3653C2.9332 17.3886 6.80306 16.13 10.2391 15.9354C14.4984 15.6889 19.0634 16.5841 22.2677 20.3144C28.4743 27.4895 27.8186 42.7284 35.3612 47.1658C40.6311 50.2668 47.1926 45.1741 49.0807 37.9861C50.604 32.1085 49.6328 25.66 50.2293 19.484C50.8258 13.308 54.2175 6.50916 58.9106 7.1579C62.3615 7.63148 64.7721 11.991 65.6299 16.383C66.4877 20.775 66.2116 25.4135 66.7046 29.9028C67.6511 38.4921 72.3639 47.1073 78.9353 47.8404C83.727 48.3789 88.3659 44.5254 91.0527 39.2771C93.7394 34.0288 94.7549 27.5997 95.1148 21.281C95.3564 17.0382 95.3416 12.6981 96.3669 8.66295C97.3923 4.62778 99.7488 0.878112 102.938 0.125573C106.453 -0.672379 109.84 2.44807 111.984 6.21077C115.583 12.5684 116.702 20.7036 117.688 28.521C119.059 39.4133 120.365 50.4225 119.907 61.4446C119.448 72.4667 117.082 83.651 111.807 92.2403C106.961 100.122 100.03 105.293 92.9703 109.354C76.9289 118.579 58.812 122.978 41.7501 117.788C24.6882 112.598 9.0116 96.8333 3.40646 75.0097C1.33596 66.9394 0.660588 58.3825 0 49.9099"/>
</symbol>
<use href="#93" fill="white"/>
</svg>