<svg width="120" height="120" viewBox="0 0 120 120" fill="none" xmlns="http://www.w3.org/2000/svg"><symbol id="95" viewBox="0 0 120 120">
<path d="M118.64 49.8554C115.751 36.6433 107.858 30.7967 101.531 35.5255C98.3731 37.9674 95.6076 42.3797 93.5735 48.2219C93.3252 48.8917 92.9908 49.3817 92.6139 49.628C92.237 49.8742 91.8351 49.8652 91.4605 49.6023C91.0859 49.3393 90.7561 48.8346 90.514 48.1538C90.2719 47.473 90.1289 46.6478 90.1034 45.7858C90.0745 39.2669 89.5225 32.8103 88.4727 26.7127C87.3724 20.7203 85.6725 15.3484 83.499 10.995C81.3254 6.64168 78.734 3.41839 75.9164 1.56388C73.0849 -0.192692 70.1059 -0.473925 67.2162 0.742516C64.3265 1.95896 61.6058 4.63946 59.2704 8.5711C53.563 18.4014 51.2213 33.9779 50.0212 50.1277C49.9329 51.0251 49.7162 51.837 49.4027 52.4443C49.0893 53.0516 48.6955 53.4225 48.2792 53.5026C47.8628 53.5827 47.4457 53.3677 47.089 52.8894C46.7323 52.411 46.4546 51.6943 46.2967 50.8442L44.8421 41.7591C43.1201 31.0547 40.9741 19.2755 36.2777 14.5324C29.9637 8.14126 22.28 18.9746 19.6643 33.1612C17.5575 44.625 17.8184 57.2066 18.562 69.5876C18.6017 70.3614 18.5449 71.1444 18.3978 71.8529C18.2507 72.5614 18.0187 73.1688 17.7267 73.6102C17.4347 74.0516 17.0935 74.3104 16.7398 74.3591C16.386 74.4078 16.0329 74.2445 15.7181 73.8866C13.109 70.7627 10.389 68.4413 7.28416 68.8138C6.11517 68.9231 4.9722 69.6067 3.93934 70.8145C2.90648 72.0222 2.01002 73.7232 1.31587 75.7925C-2.92391 88.9473 4.05542 104.28 8.49089 111.875C13.3829 120.301 18.5881 119.986 24.6151 120C43.7332 120 62.8579 119.269 81.963 117.922C86.4246 117.621 90.9188 118.18 95.3803 118.209C98.4395 118.209 101.499 118.209 104.558 117.98C108.093 117.722 110.637 115.572 112.535 112.09C116.051 105.627 117.375 94.6219 118.764 82.6278C119.997 71.7228 120.832 59.872 118.64 49.8554ZM79.6148 95.8542C73.0203 99.4224 66.1584 99.666 59.3943 99.8953C52.9368 100.11 46.4532 100.325 40.0675 98.2903C38.0519 97.6455 35.5537 95.5246 35.5994 91.0537C35.6476 89.4373 35.9576 87.9122 36.4734 86.7547C37.8236 83.4159 39.9109 82.0689 41.9069 81.2521C47.3794 79.0597 52.9955 79.8192 58.5529 79.4752C62.798 79.2433 67.0316 78.4008 71.2266 76.9532C73.6661 76.1077 76.51 74.0012 79.0017 74.9613C81.0759 75.7638 83.4371 79.7045 84.1351 84.2328C85.1526 90.9535 82.1848 94.4786 79.6148 95.8542Z"/>
</symbol>
<use href="#95" fill="white"/>
</svg>