<svg width="120" height="120" viewBox="0 0 120 120" fill="none" xmlns="http://www.w3.org/2000/svg"><symbol id="96" viewBox="0 0 120 120">
<path d="M65.2585 59.5639C57.6401 52.2945 53.3166 41.4785 47.2791 32.4152C41.2415 23.3519 31.6315 15.5399 22.0758 18.5007C13.773 21.113 8.59574 31.6404 8.68182 41.677C8.7679 51.7136 13.0865 61.0985 18.5113 68.8551C28.5163 83.275 42.2523 93.5335 57.668 98.0988C73.0837 102.664 89.3519 101.291 104.043 94.185C109.499 91.5369 114.95 87.8379 117.849 81.8388C120.748 75.8398 120.107 67.0318 115.069 63.42C107.427 57.7238 99.3305 65.2363 91.8713 66.9536C87.2409 68.0324 82.4651 67.9305 77.8716 66.655C73.2781 65.3795 68.9754 62.9605 65.2585 59.5639Z"/>
</symbol>
<use href="#96" fill="white"/>
</svg>