<svg width="120" height="120" viewBox="0 0 120 120" fill="none" xmlns="http://www.w3.org/2000/svg"><symbol id="98" viewBox="0 0 120 120">
<path d="M43.6661 12.3556C44.4845 7.65765 45.8667 2.17358 50.195 0.432907C54.5234 -1.30777 59.9246 2.45434 61.5796 7.18973C63.2345 11.9251 62.4343 17.1471 61.7978 22.1633C61.1613 27.1794 60.7612 32.5325 63.1254 36.9309C66.9082 43.9685 76.0559 45.6718 83.8214 44.7733C91.587 43.8749 99.3343 41.2358 107.027 42.6396C114.72 44.0434 122.14 51.9045 119.43 59.4849C116.902 66.5412 107.991 68.0947 100.68 68.1695C93.3692 68.2444 84.658 68.731 80.9116 75.1884C78.1473 79.9238 79.4022 86.0629 81.6027 91.0978C83.8032 96.1326 86.8767 100.905 87.7132 106.371C88.5498 111.836 86.1856 118.425 80.9662 119.753C74.9647 121.307 69.6907 115.243 67.3265 109.347C64.9622 103.451 63.4892 96.6193 58.4334 92.932C52.1773 88.3838 43.3751 91.0603 36.8645 95.1781C30.3538 99.2958 24.5342 105.098 17.0778 106.951C9.62142 108.804 -0.108208 104.256 0.000909711 96.376C0.110027 89.3945 7.27542 85.1458 13.6406 82.5441C20.0058 79.9425 27.3348 76.5734 28.5533 69.7043C29.8627 62.3486 23.2612 56.303 17.4597 51.8109C11.6583 47.3188 5.29311 40.7679 7.27542 33.5619C9.38502 25.9441 20.0058 24.2034 26.5347 28.5458C31.1358 31.6341 33.9365 36.7251 36.628 41.423C42.3931 35.5646 42.2476 20.6285 43.6661 12.3556Z"/>
</symbol>
<use href="#98" fill="white"/>
</svg>