<svg width="120" height="120" viewBox="0 0 120 120" fill="none" xmlns="http://www.w3.org/2000/svg"><symbol id="99" viewBox="0 0 120 120">
<path d="M0.174733 81.3723C-0.371945 76.4821 0.370553 71.5206 2.31216 67.0907C4.25376 62.6609 7.31081 58.9535 11.1118 56.419C18.2578 51.8245 27.7544 51.5506 33.2893 44.7432C38.2555 38.6524 38.2555 29.5689 38.8431 21.3916C39.4307 13.2143 41.8001 3.77255 48.6998 0.82199C55.5994 -2.12857 63.3711 3.41427 69.3419 8.72528L108.086 43.2679C115.1 49.5905 122.89 59.1588 118.928 68.1369C115.801 75.2393 107.385 76.5671 101.414 80.7822C91.6521 87.8003 88.9036 102.553 80.4117 111.384C72.2231 119.814 59.6938 121.584 48.7567 118.739C33.858 114.903 2.61994 100.804 0.174733 81.3723Z"/>
</symbol>
<use href="#99" fill="white"/>
</svg>