<svg xmlns="http://www.w3.org/2000/svg" style="display:none">
<symbol id="blob0" viewBox="0 0 120 120">
<path fill-rule="evenodd" clip-rule="evenodd" d="M53.781 0.961441C70.2802 -2.77194 87.7273 4.7669 100.097 16.6644C112.883 28.9629 119.36 46.5295 119.925 64.5823C120.511 83.2764 117.916 104.846 103.199 115.709C89.2442 126.009 70.8771 114.697 53.781 113.405C38.946 112.284 22.1635 119.025 11.0923 108.748C-0.210333 98.2554 -1.4957 80.0458 1.1881 64.5823C3.48454 51.3507 15.6436 44.0795 24.089 33.8632C33.8883 22.0092 39.0526 4.29412 53.781 0.961441Z"/>
</symbol>
<symbol id="blob1" viewBox="0 0 120 120">
<path fill-rule="evenodd" clip-rule="evenodd" d="M66.6693 0.34902C81.3098 1.47854 95.3207 6.96068 105.46 17.8935C115.374 28.5821 120.296 43.0601 119.986 57.8364C119.683 72.2895 113.114 85.2551 103.821 96.0908C93.7712 107.807 81.8501 120.12 66.6693 119.999C51.5489 119.879 41.2808 105.972 30.0882 95.5036C17.9729 84.1719 1.90189 74.5992 0.20853 57.8364C-1.58011 40.1303 8.35701 22.8733 21.5945 11.4232C33.8898 0.787929 50.6563 -0.886396 66.6693 0.34902Z"/>
</symbol>
<symbol id="blob10" viewBox="0 0 120 120">
<path d="M105.553 119.728H105.451L104.944 119.794C89.661 122.076 83.0002 105.066 75.2176 85.1676C64.1142 56.7257 50.2157 88.0669 36.3685 88.3315C21.361 88.6181 7.424 78.3217 1.7505 55.072C-1.49334 41.8432 -0.31376 24.293 6.00082 14.5478C31.2143 -24.3229 49.658 26.0458 55.8315 34.6556C67.2811 50.6624 75.3266 27.038 87.8147 27.2805C94.7832 27.4128 103.611 33.2114 108.502 43.2984C112.631 51.842 115.445 57.343 117.92 67.893C122.542 87.3834 119.9 117.137 105.553 119.728Z"/>
</symbol>
<symbol id="blob100" viewBox="0 0 120 120">
<path d="M106.819 40.1102C101.473 33.4648 95.5767 30.9016 89.7623 28.37L32.0988 3.43366C25.4404 0.553968 18.5006 -2.29409 12.0297 2.8324C5.55883 7.95889 -0.325914 23.5915 0.0140417 41.7874C0.271939 55.6163 4.01146 67.5781 8.48949 74.3185C12.9675 81.0589 18.1372 83.4955 23.1896 85.8372L86.7379 115.362C94.6389 119.033 111.191 126.913 117.346 106.786C124.801 82.3563 115.024 50.2999 106.819 40.1102Z"/>
</symbol>
<symbol id="blob101" viewBox="0 0 120 120">
<path d="M0.193351 59.5919C-0.444206 69.984 0.348404 81.1371 4.79408 89.5554C9.23975 97.9737 18.2172 102.468 24.7134 97.1414C36.3273 87.6292 31.8472 57.7132 44.2193 50.2937C48.372 60.876 44.8223 73.7175 42.3583 85.2511C39.8942 96.7847 39.5495 111.933 47.0796 117.973C53.6275 123.229 62.3811 117.569 66.6544 108.96C70.9278 100.352 72.1167 89.6029 74.0466 79.52C75.9765 69.437 79.216 58.8547 85.9534 53.8846C90.7781 63.3968 88.2796 76.381 86.9183 87.8907C85.5571 99.4005 86.9184 114.263 94.9482 118.021C99.5317 120.161 104.753 117.45 108.199 112.741C111.45 107.771 113.811 101.817 115.092 95.3578C120.27 73.8655 121.373 50.9011 118.297 28.6534C117.194 20.7583 115.436 12.6967 111.404 6.79908C107.372 0.901507 100.738 -2.09485 95.5857 1.66248C90.4336 5.4198 88.6932 13.5527 85.9879 20.3778C83.2826 27.2028 77.5445 33.6949 72.4958 30.2467C68.1018 27.2504 67.5504 19.1888 66.4648 12.6015C62.3465 -12.0827 54.1445 11.1271 48.0791 14.9796C40.3594 19.9497 36.0171 11.7217 29.5382 7.70275C9.84282 -4.59179 1.50293 37.5949 0.193351 59.5919Z"/>
</symbol>
<symbol id="blob11" viewBox="0 0 120 120">
<path d="M115.372 108.265C120.791 106.039 121.025 105.462 118.265 100.714C108.229 85.2822 95.5327 70.0978 83.5893 55.9687C76.1455 46.9669 68.1665 38.2948 60.6893 28.9963C57.4943 24.99 54.2157 20.1594 50.5189 15.8068C46.6214 10.6959 41.5697 4.26609 36.8191 0.968732C31.0146 -3.18594 23.0189 7.10182 18.6698 11.4543C11.8357 18.1668 6.50246 26.2144 3.01282 35.0799C-0.0650424 43.4882 -0.48321 55.8038 0.420076 64.3604C1.97574 79.1985 6.19104 93.3112 17.5323 103.615C54.015 136.82 111.574 109.485 115.372 108.265Z"/>
</symbol>
<symbol id="blob12" viewBox="0 0 120 120">
<path d="M101.504 103.179C104.551 107.603 119.533 115.648 116.116 119.757C109.467 121.883 98.8958 109.424 93.3744 106.81C42.0992 122.198 -23.7881 28.8188 8.59974 6.81905C42.7888 -15.557 73.6448 23.0926 92.7678 37.3319C116.419 55.9243 135.643 84.6471 101.504 103.179Z"/>
</symbol>
<symbol id="blob13" viewBox="0 0 120 120">
<path d="M0 58.1591C2.24007 31.9979 36.7122 4.06239 63.6068 0C80.2967 5.14226 58.6283 14.8998 51.9634 18.2423C36.0202 28.5268 5.66884 47.3602 18.1966 67.9678C30.2128 82.109 41.4823 108.463 65.3211 96.3789C74.8206 91.4167 87.8737 88.7941 95.2853 81.852C92.6719 53.0296 89.7547 27.1769 55.656 54.9965C40.9711 63.1341 38.0667 78.6252 59.5132 76.5297C61.8086 75.527 66.5654 73.7272 65.5284 70.6162C64.9742 68.1727 64.6274 65.6924 64.4913 63.1984C64.754 57.0663 74.8068 56.7706 75.7194 62.9028C81.5685 76.3241 68.5565 88.1642 54.0376 85.9402C27.9035 85.2974 28.0697 54.0452 46.0732 42.9379C90.0034 7.41774 117.202 34.9031 119.677 80.8492C124.088 104.208 82.1357 114.132 63.5791 119.416C50.9822 121.576 40.7498 117.681 32.8128 108.772C21.0594 93.435 1.05089 77.5583 0 58.1591Z"/>
</symbol>
<symbol id="blob14" viewBox="0 0 120 120">
<path d="M67.1127 120C56.5924 119.848 46.3524 117.723 36.4984 112.245C28.1009 107.588 20.7811 99.5905 15.3807 89.1723C13.8097 86.2044 11.874 83.6329 10.4082 80.5735C5.36032 70.1421 2.03454 58.1688 0.687524 45.5784C-0.0552915 39.7355 -0.197168 33.7655 0.266643 27.8624C1.08021 19.5177 3.2613 12.1385 7.85517 6.62959C10.9077 3.02193 14.6402 0.832687 18.5649 0.348116C26.904 -0.922398 34.8504 1.3645 42.5513 5.90786C44.48 7.03607 46.4858 7.94075 48.3724 9.16045C53.0013 12.2097 57.7145 12.0775 62.4697 10.1769C65.6117 8.91651 68.6906 7.30035 71.8397 6.05017C79.0987 3.16356 86.1192 4.64758 92.9995 8.65224C107.279 16.9462 114.945 33.0461 118.578 53.9536C120.16 62.5342 120.426 71.513 119.356 80.2584C117.442 94.915 111.508 104.652 102.026 110.304C95.2668 114.261 88.1708 116.883 80.9292 118.099C76.3353 118.862 71.7206 119.36 67.1127 120Z"/>
</symbol>
<symbol id="blob15" viewBox="0 0 120 120">
<path d="M32.1278 20.3251C31.877 28.1943 31.4253 36.0635 31.4086 43.9246C31.2847 51.9024 32.7911 59.8247 35.8398 67.231C37.9466 72.2032 41.1401 76.3534 46.2065 78.6889C52.577 81.6348 58.8557 80.8373 64.8751 77.4927C69.9483 74.6584 74.2713 70.7098 77.4993 65.9615C80.8434 61.0789 83.8695 56.0009 87.1969 51.102C88.9385 48.4835 90.8957 46.0069 93.0491 43.6967C95.3148 41.3205 97.9148 41.0927 100.749 42.7446C106.27 46.0158 111.467 49.7779 116.274 53.9828C119.694 56.9286 120.622 60.5662 119.618 64.8466C116.157 79.641 108.8 92.165 96.9035 102.077C89.3792 108.359 81.253 113.917 71.8226 116.969C55.4865 122.267 39.794 120.956 25.7821 110.361C18.9768 105.226 14.0779 98.4555 10.1486 91.0827C4.78603 80.8606 1.49597 69.729 0.458677 58.2958C-0.78701 46.2601 0.634227 34.4523 3.15904 22.6932C3.99507 18.6244 4.41341 14.5555 5.16584 10.4866C5.57543 8.27767 6.15375 6.10155 6.89628 3.97644C7.85772 1.17706 9.82229 -0.0924288 12.8571 0.005224C18.3665 0.257214 23.6757 2.09214 28.1147 5.27846C29.462 6.31192 30.4348 7.73762 30.8905 9.34733C32.0273 12.8945 32.4474 16.6224 32.1278 20.3251Z"/>
</symbol>
<symbol id="blob16" viewBox="0 0 120 120">
<path d="M59.2585 98.3459C55.7635 94.0861 52.5189 89.1009 49.5823 83.4785C47.3991 79.2351 44.9511 75.5356 42.2949 72.4656C33.7317 62.865 24.7164 54.863 15.3707 48.5677C12.353 46.7097 9.38878 44.5408 6.4907 42.0702C4.77279 40.5569 3.22825 38.3945 1.94763 35.7102C-1.12374 29.1575 -0.49809 20.8704 3.36956 16.066C4.83267 14.3204 6.39233 12.8981 8.01927 11.826C17.2618 5.21829 27.0376 2.8368 36.7849 0.937077C41.7617 -0.0265499 46.7384 0.634212 51.7152 0.152399C60.4028 -0.526744 69.0981 1.06613 77.5659 4.88794C86.6591 8.76998 95.5888 13.3679 103.687 22.7839C107.192 26.9137 110.583 30.9471 112.808 37.8302C113.163 38.7694 113.573 39.6242 114.031 40.3769C116.433 44.7451 118.144 50.3453 118.965 56.5246C121.283 74.1452 119.676 90.4993 114.451 105.559C113.955 106.918 113.403 108.198 112.801 109.386C110.803 113.825 108.099 116.851 105.116 117.99C102.343 118.995 99.4991 119.367 96.6908 120C83.4387 119.382 70.5137 111.905 59.2585 98.3459ZM30.2938 32.6541C32.5479 35.6657 34.9015 38.388 37.3395 40.8036C40.7592 43.8735 44.3354 46.3101 47.8689 48.9394C53.6917 53.2482 58.967 59.4567 64.086 66.2434C67.3493 70.566 70.5984 74.9298 73.9257 79.0597C80.3884 87.0715 87.6118 90.5406 95.1623 91.5317C96.9662 91.6948 98.7714 91.2666 100.502 90.2652C106.68 86.9063 108.841 73.856 104.767 64.1096C103.414 61.1008 101.843 58.4859 100.103 56.3456C91.8364 45.411 82.349 38.4243 72.4185 35.958C62.5361 33.4939 52.675 30.6305 42.7783 28.3729C38.868 27.4781 34.8795 27.7258 30.9337 27.5607C30.0167 27.7214 29.1083 28.0299 28.2178 28.483C28.8359 30.0044 29.5314 31.4018 30.2938 32.6541Z"/>
</symbol>
<symbol id="blob17" viewBox="0 0 120 120">
<path d="M22.1726 41.7831C23.3857 40.9296 23.5976 38.0307 24.008 35.7685C26.0779 24.3761 29.0677 18.3209 33.5683 19.391C35.4443 19.8381 37.3609 18.7679 39.2549 18.3074C43.6878 17.2372 45.3744 20.7186 46.565 33.6011C46.804 36.1884 46.9257 38.8706 47.1602 41.458C47.3586 43.6389 47.3496 46.5378 48.2786 47.1474C49.2076 47.757 49.5954 45.1561 50.0013 43.2054C51.1873 37.4889 52.4319 31.8672 53.5097 25.9746C55.2324 16.4922 57.7938 11.6561 61.3925 11.6832C65.4286 11.6832 69.4646 11.5207 73.5007 11.751C78.574 12.049 79.9765 15.9774 80.8333 30.9731C81.0137 34.0752 80.6484 38.559 81.9382 39.7782C83.3542 41.1328 84.193 37.1638 84.8468 34.2378C86.6236 26.4893 88.3102 18.5241 89.9337 10.4776C91.5571 2.4311 93.9923 -0.969019 97.0453 0.236601C102.497 2.40401 107.981 2.81038 113.465 3.56898C118.718 4.30048 121.185 12.9566 119.449 27.4917C116.811 49.6128 114.037 71.761 108.491 89.4525C102.628 108.214 95.7826 107.889 90.4523 87.6644C88.9821 82.0697 87.9945 82.2459 86.4342 86.3775C84.1569 92.3243 81.8886 98.3524 79.2189 102.741C73.167 112.657 68.229 110.463 64.0982 94.0176C62.0328 85.7814 60.9415 87.2444 58.8626 93.4757C55.7284 102.958 52.7521 113.253 48.3056 117.791C42.2944 123.928 36.1613 117.087 33.7622 99.6393C32.4409 89.9943 31.2549 91.1187 28.9821 96.0766C26.7092 101.035 24.238 106.114 21.4601 109.244C10.4206 121.666 0.179317 100.615 0.00344281 65.3536C-0.064201 52.3627 0.878305 39.9408 1.65395 27.424C2.24471 17.9416 4.30558 13.0649 7.66072 13.4849C10.2357 13.81 12.8197 13.4849 15.3947 13.7423C20.9144 14.2299 22.4161 19.391 21.8253 35.6466C21.7532 37.5973 21.4826 39.5615 22.1726 41.7831Z"/>
</symbol>
<symbol id="blob18" viewBox="0 0 120 120">
<path fill-rule="evenodd" clip-rule="evenodd" d="M60.0135 0.21371C81.1921 -1.89299 100.617 11.9234 112.649 26.3288C122.983 38.7023 120.107 54.504 117.77 69.365C115.821 81.7569 111.079 93.4589 100.654 102.593C89.8111 112.093 75.8889 120.566 60.0135 119.97C44.57 119.391 33.6986 108.755 22.9409 99.6767C12.4345 90.8105 0.844382 81.6929 0.046181 69.365C-0.783333 56.5535 9.72055 46.1303 18.7963 35.6646C30.7865 21.8381 39.4353 2.26069 60.0135 0.21371Z"/>
</symbol>
<symbol id="blob19" viewBox="0 0 120 120">
<path fill-rule="evenodd" clip-rule="evenodd" d="M67.1486 0.00382952C74.9665 -0.24507 78.5507 11.7066 85.3746 16.0961C92.8662 20.915 103.244 19.3147 108.824 26.8114C114.763 34.7898 114.333 46.2748 115.577 56.6743C117.276 70.8662 123.427 86.1664 117.43 98.7262C111.375 111.406 97.9319 120.814 85.365 119.944C72.7132 119.068 65.7326 102.952 55.4527 94.4342C49.054 89.1326 43.0439 84.1295 36.3501 79.3328C26.1222 72.0035 11.5924 70.9288 5.74862 58.8168C-0.305343 46.269 -3.51944 25.7893 6.1082 16.652C17.5061 5.83463 35.1759 21.1596 49.5606 17.2363C57.2126 15.1493 59.2869 0.254126 67.1486 0.00382952Z"/>
</symbol>
<symbol id="blob2" viewBox="0 0 120 120">
<path fill-rule="evenodd" clip-rule="evenodd" d="M120.919 69.2649C118.044 84.6859 96.7965 85.2771 84.8219 94.9238C73.1978 104.288 67.6079 122.579 52.9425 124.027C36.8601 125.615 21.2483 115.409 11.3698 102.177C1.63862 89.1424 -0.875865 71.8811 1.90624 55.6652C4.51234 40.4752 13.7575 27.8007 25.7114 18.5846C37.2038 9.72439 51.3211 4.12196 65.4385 6.68367C78.8643 9.11988 87.4386 21.0628 96.6542 31.4577C106.928 43.0468 123.798 53.8242 120.919 69.2649Z"/>
</symbol>
<symbol id="blob20" viewBox="0 0 120 120">
<path fill-rule="evenodd" clip-rule="evenodd" d="M62.59 0.000220474C83.7552 0.0950858 84.1951 30.3084 95.5478 46.8673C104.229 59.53 122.508 68.5388 119.712 83.3169C116.852 98.4291 98.4001 104.805 83.3688 111.228C68.795 117.456 53.3812 123.018 38.221 118.139C20.7792 112.526 2.2724 101.445 0.13679 84.4449C-1.89789 68.2484 19.2837 60.0188 29.2301 46.57C41.1888 30.4003 41.4413 -0.0945712 62.59 0.000220474Z"/>
</symbol>
<symbol id="blob21" viewBox="0 0 120 120">
<path fill-rule="evenodd" clip-rule="evenodd" d="M119.753 54.4923C117.141 40.2484 104.692 33.2761 95.4721 23.4709C87.1421 14.6125 80.5311 -0.621895 69.3414 0.882575C58.2384 2.3754 57.9087 22.493 48.6281 29.7692C34.1937 41.0861 9.01857 34.285 2.63922 53.1785C-3.74991 72.101 9.39789 93.7226 22.5211 107.089C34.8445 119.641 52.0274 120.899 68.3622 120.121C83.6674 119.392 99.7038 116.126 110.044 102.921C120.002 90.2048 122.844 71.3457 119.753 54.4923Z"/>
</symbol>
<symbol id="blob22" viewBox="0 0 120 120">
<path fill-rule="evenodd" clip-rule="evenodd" d="M53.5536 0.493409C76.7762 4.63079 69.7341 31.5239 83.6221 45.6872C93.0182 55.2695 115.98 56.053 119.327 67.5704C122.924 79.95 111.478 91.85 99.7506 101.192C87.3838 111.043 71.8748 119.455 53.5536 119.964C34.6641 120.488 14.0936 115.346 3.69192 103.859C-5.82671 93.3465 6.06029 80.1599 6.11238 67.5704C6.16414 55.0598 -3.87599 42.6235 3.9913 31.5C14.3563 16.845 31.5555 -3.42583 53.5536 0.493409Z"/>
</symbol>
<symbol id="blob23" viewBox="0 0 120 120">
<path fill-rule="evenodd" clip-rule="evenodd" d="M100.997 51.1593C99.8376 65.0057 116.244 76.704 112.047 89.684C108.038 102.082 93.3187 102.33 82.9226 107.054C71.7651 112.124 59.7373 125.051 49.2598 118.215C38.3556 111.101 45.315 88.468 37.2015 77.2248C27.5384 63.8344 2.5309 67.7456 0.233544 50.278C-1.90979 33.9816 18.2611 26.6757 29.2376 16.6729C37.0591 9.54507 44.9509 2.14875 54.7056 0.637522C63.5006 -0.725038 70.8994 7.92785 79.7345 8.84971C93.087 10.2429 112.039 -6.39201 118.94 7.33979C126.122 21.6306 102.385 34.5724 100.997 51.1593Z"/>
</symbol>
<symbol id="blob24" viewBox="0 0 120 120">
<path d="M28.3178 49.0101C27.9944 48.6931 27.5756 48.419 27.085 48.2031C23.4166 46.226 19.7978 44.2114 16.0399 42.3095C12.6496 40.5644 9.44176 38.6836 6.43619 36.6787C5.5536 36.1141 4.74566 35.5052 4.02037 34.858C3.28963 34.2379 2.79037 33.5222 2.55973 32.764C2.32909 32.0058 2.37298 31.2246 2.68816 30.4785C2.98371 29.7095 3.45594 28.9719 4.08994 28.2887C5.08411 27.2627 5.94904 26.1866 6.8935 25.1605C8.36939 23.5848 10.1164 22.1161 12.1029 20.781C13.0753 20.2154 14.2475 19.8037 15.5229 19.5798C15.7465 19.5399 15.9806 19.5287 16.2112 19.5469C16.4417 19.5652 16.6641 19.6125 16.865 19.6861C17.4584 19.8755 17.9936 20.1297 18.4457 20.4369C20.1855 21.4692 21.647 22.6517 23.2177 23.7778C24.7885 24.904 26.2002 25.9989 27.771 27.0813C30.6541 29.0833 33.736 30.954 36.5296 33.0312C36.5716 33.0635 36.622 33.091 36.6788 33.1125C36.8596 33.1451 37.0474 33.1599 37.2355 33.1563C37.2852 33.1563 37.3647 33.0124 37.3449 32.9373C37.3168 32.7739 37.2635 32.6125 37.1858 32.4555C36.291 30.3596 35.108 28.3263 34.0044 26.2742C31.645 21.8488 29.2689 17.4297 26.8763 13.0168C26.266 11.8724 25.8397 10.6923 25.6037 9.49438C25.4597 8.6618 25.6797 7.82027 26.24 7.06061C26.7781 6.06059 27.9113 5.23076 29.4015 4.74568C29.5876 4.70156 29.7569 4.63339 29.8986 4.5455C31.3003 3.4256 33.3583 2.92508 35.2671 2.28067C36.0823 2.01164 36.9174 1.7739 37.7326 1.50488C39.6648 0.868152 41.7348 0.412839 43.8766 0.153459C45.9596 -0.117259 48.1202 -0.028608 50.1298 0.409995C52.8953 1.03535 55.236 2.23894 56.761 3.81973C58.4437 5.41297 59.781 7.14045 60.7376 8.95634C61.364 10.2076 61.871 11.4589 62.3184 12.7102C63.1037 14.9 63.6307 17.121 64.0979 19.3483C64.6447 21.9385 64.9131 24.5474 65.7383 27.1125C66.295 27.1125 66.4143 26.8373 66.5634 26.6246C67.5576 25.1793 68.6512 23.7466 69.5459 22.2825C70.7588 20.3493 71.8822 18.3973 73.0057 16.4453C73.4016 15.7436 73.9575 15.0818 74.656 14.4808C74.9602 14.2129 75.3516 13.989 75.8042 13.824C76.2568 13.6589 76.7601 13.5564 77.2806 13.5235C78.2701 13.4328 79.2801 13.5039 80.2134 13.73C82.1837 14.2192 84.0914 14.8027 85.9199 15.4755C87.0135 15.8697 88.0872 16.2826 89.1509 16.7268C90.8791 17.3305 92.2205 18.2932 92.9458 19.4503C93.6711 20.6075 93.7354 21.8872 93.1276 23.0709C92.8492 23.6965 92.6305 24.3659 92.3124 24.9978C91.4883 26.5756 90.4644 28.1092 89.2504 29.5839C87.7989 31.4045 86.2181 33.1938 84.6871 34.9894C84.4846 35.153 84.3666 35.3517 84.3491 35.5587C84.9996 35.4943 85.6322 35.3722 86.2281 35.1959L95.7025 31.5734C95.8029 31.5178 95.9129 31.4695 96.0306 31.4295C97.2568 31.1178 98.3847 30.6707 99.3611 30.1094C99.664 29.9615 99.9987 29.8415 100.355 29.7528C101.041 29.5343 101.823 29.4637 102.579 29.5519C103.335 29.64 104.024 29.882 104.541 30.2407C105.303 30.7521 105.971 31.3168 106.529 31.9238C108.486 34.1922 110.181 36.5465 111.599 38.9685C112.693 40.8955 111.788 42.5598 110.108 44.1489C108.786 45.4002 106.847 46.3261 105.485 47.5586C104.024 48.0029 103.248 48.9664 101.817 49.4356C101.042 49.7538 100.299 50.1006 99.5897 50.4742C98.958 50.7668 98.2935 51.0303 97.6014 51.2625C97.0991 51.3706 96.6801 51.5941 96.4282 51.8881C96.2195 52.1572 95.6329 52.3011 95.2253 52.5138C95.1885 52.5447 95.1639 52.5807 95.1536 52.6187C95.1432 52.6568 95.1473 52.6959 95.1656 52.7327C95.1943 52.7679 95.2367 52.7978 95.2889 52.8197C95.3411 52.8416 95.4014 52.8547 95.4639 52.8578C96.5096 52.7805 97.5393 52.6337 98.5359 52.4199C101.518 51.8819 104.501 51.3501 107.483 50.7933C108.9 50.5728 110.366 50.5072 111.818 50.5993C112.282 50.6093 112.735 50.6911 113.137 50.8373C113.54 50.9834 113.879 51.1896 114.124 51.4376C114.98 52.2322 115.672 53.0921 116.182 53.9966C117.203 55.9298 117.977 57.911 118.499 59.9214C118.966 61.5606 119.304 63.2061 119.602 64.8578C119.64 65.0218 119.714 65.1819 119.821 65.3333C120.06 65.7691 120.06 66.2425 119.821 66.6783C119.341 67.8974 118.365 69.0166 116.988 69.9255C115.251 71.0806 113.238 72.058 111.023 72.8222C105.744 74.6569 100.238 76.2199 94.5592 77.4958C88.3556 78.9222 82.0824 80.2611 75.849 81.6376C75.5309 81.7001 75.2127 81.7502 74.9045 81.8315C74.7897 81.8484 74.6822 81.8808 74.5895 81.9266C74.4968 81.9725 74.4212 82.0306 74.3681 82.0969C74.315 82.1631 74.2857 82.2359 74.2822 82.31C74.2787 82.3842 74.3011 82.4579 74.3478 82.526C74.6759 83.2893 75.0437 84.0463 75.3917 84.8034C77.0221 88.3654 78.6492 91.9252 80.273 95.4831C81.4263 97.9857 82.5596 100.532 83.7327 103.047C85.8006 107.477 87.8983 111.906 89.9761 116.336C90.0755 116.536 90.1451 116.743 90.2346 116.962C90.6124 117.756 90.8808 118.532 89.32 118.976C88.6141 119.94 87.2819 120.04 85.8205 119.99C84.8959 119.99 83.9614 119.99 83.0368 119.99C82.2358 119.997 81.4483 119.859 80.7692 119.591C80.0902 119.324 79.5484 118.939 79.2093 118.482C78.7789 117.968 78.4004 117.437 78.0759 116.893C76.8365 114.478 75.6236 112.056 74.4373 109.629C73.5525 107.796 72.7174 105.956 71.8922 104.117C70.56 101.151 69.3968 98.1608 68.3132 95.164C67.1798 92.0441 66.0432 88.9159 64.9032 85.7793C64.7441 85.3351 64.6944 84.8721 64.5055 84.4342C64.3166 83.9962 64.0681 83.9024 63.3423 84.0276C61.4335 84.3529 59.5247 84.7095 57.6159 85.0411C54.0608 85.6902 50.4493 86.2104 46.7994 86.5989C43.4093 86.9368 40.039 87.3434 36.5893 87.5061C34.601 87.6 32.6126 87.7376 30.6839 87.8565C28.3044 87.966 25.9154 87.966 23.5359 87.8565C21.8749 87.8745 20.2283 87.6608 18.7142 87.2309C16.8493 86.611 15.0731 85.8909 13.4053 85.0786C12.2411 84.4523 11.3455 83.652 10.8006 82.7512C9.38745 80.6379 8.40858 78.4198 7.88767 76.1506C7.50988 74.5928 7.16192 73.0224 6.8239 71.4645C6.63501 70.6262 7.10228 69.8128 7.14204 68.962C7.1604 68.8383 7.24858 68.7229 7.39058 68.6366C8.58359 68.011 9.71693 67.2665 11.4269 67.1789C11.6257 67.1789 11.8246 67.1789 12.0234 67.1789C15.0059 67.1288 17.9884 66.9098 20.9013 66.6909C21.3613 66.669 21.8232 66.669 22.2832 66.6909C24.6096 66.7597 26.8962 66.4218 29.2424 66.3843C30.2281 66.3182 31.2049 66.2074 32.1653 66.0527C30.8728 65.9276 30.0079 65.8212 29.133 65.7587C27.2938 65.6335 25.4347 65.571 23.6154 65.3958C21.7961 65.2206 19.6387 65.1205 17.7001 64.9891C15.8808 64.8703 14.0614 64.6638 12.2024 64.645C9.68733 64.5949 7.19519 64.3276 4.79582 63.8505C1.81332 63.2937 0.153051 61.6982 0.00392543 59.6837C-0.0280518 58.6325 0.13543 57.5827 0.491058 56.5554C1.22867 54.1867 2.16112 51.8436 3.28467 49.5357C3.4835 49.0978 3.82153 48.6848 4.07007 48.2531C4.58271 47.444 5.5099 46.7659 6.70461 46.3261C7.48254 45.9774 8.38692 45.7569 9.33514 45.6848C10.2834 45.6126 11.2452 45.6912 12.1328 45.9132C16.0398 46.6953 19.9767 47.4147 23.8142 48.3344C24.5002 48.4971 25.1862 48.6535 25.8026 48.8537C26.5073 49.0897 27.3024 49.198 28.0991 49.1665C28.1886 49.2666 28.2681 49.3668 28.467 49.2291L28.3178 49.0101Z"/>
</symbol>
<symbol id="blob25" viewBox="0 0 120 120">
<path d="M21.553 126.55C21.553 126.55 6.11787 109.641 5.13636 86.5208C4.15485 63.4 6.66512 41.1295 20.9513 44.44C35.2374 47.7506 31.9919 92.9481 31.9919 92.9481C31.9919 92.9481 45.1123 61.3296 67.6803 46.5264C90.2482 31.7232 109.932 36.4684 105.522 54.5695C101.113 72.6707 61.1763 107.965 61.1763 107.965C61.1763 107.965 100.47 94.6426 107.023 110.78C113.575 126.918 82.1201 138.241 63.9832 137.12C45.8464 135.999 33.2483 135.405 21.553 126.55Z"/>
</symbol>
<symbol id="blob26" viewBox="0 0 120 120">
<path d="M63.4322 57.8891C67.2589 52.3881 68.8678 43.5459 63.4322 32.5868C57.9966 21.6277 46.0383 2.99193 71.5856 0.281551C97.1329 -2.42882 119.419 14.678 119.962 40.873C120.506 67.0679 115.614 103.955 74.847 115.448C34.08 126.942 -6.687 114.914 0.922836 98.8761C8.53267 82.8384 49.2996 78.1875 63.4322 57.8891Z"/>
</symbol>
<symbol id="blob27" viewBox="0 0 120 120">
<path d="M116.741 74.2831C111.581 63.715 104.403 63.9349 98.417 66.4118C103.921 44.3949 101.957 3.69135 89.5018 0.168651C80.3184 -2.44585 75.7268 25.9559 72.9803 42.4961C74.7076 25.9834 67.9383 14.0393 61.9734 14.975C55.8046 15.8557 51.8779 29.6162 51.6097 44.8629C45.9774 26.8366 39.6584 12.9661 30.3999 26.1487C25.2503 33.4693 24.1132 46.4865 24.832 59.559C10.0699 43.239 -3.06158 76.5121 0.628948 90.6029C3.71869 101.997 13.3851 118.289 32.2669 119.5C39.3046 119.968 47.4473 120.133 54.4206 119.885C60.5787 119.528 66.5221 120.188 72.6587 119.885C84.3525 119.61 96.4216 120.986 107.847 112.813C114.724 107.721 125.442 92.7222 116.741 74.2831Z"/>
</symbol>
<symbol id="blob28" viewBox="0 0 120 120">
<path d="M109.704 22.5409C97.8033 2.32581 67.1959 -9.37215 34.753 9.60312C13.1549 23.0799 0 50.8286 0 72.5532C0 103.55 29.3689 119.129 61.6742 119.991C118.468 120.84 132.235 59.6155 109.704 22.5409Z"/>
</symbol>
<symbol id="blob29" viewBox="0 0 120 120">
<path d="M99.6765 3.89295C85.0246 -3.47227 70.6809 0.252527 57.4555 9.71207C42.9862 20.0852 29.3046 34.2394 16.935 48.0141C6.66504 59.5117 -0.101547 69.7584 0.00115297 87.3702C0.206552 122.51 37.4865 125.054 56.7484 114.596C72.1077 106.163 84.6594 90.336 97.0176 76.8143C107.288 65.5697 118.402 54.817 119.966 36.924C120.011 36.4901 120.011 36.0507 119.966 35.6168C119.978 35.4766 119.978 35.3354 119.966 35.1952C119.646 19.6073 110.859 9.50121 99.6765 3.89295ZM65.0894 79.0914C57.2957 87.5248 49.1139 95.9583 39.7226 101.581C32.5222 105.98 25.1053 110.155 22.2639 98.5867C16.6953 75.9148 35.7518 59.4555 47.916 47.1567C55.4701 39.5103 63.4235 32.4684 71.4112 25.5389C75.9546 21.4578 80.8919 18.0868 86.1091 15.503C95.7971 10.8365 98.1017 20.4788 98.4668 29.2356C96.3444 51.2469 77.5392 65.5416 65.0554 79.0914H65.0894Z"/>
</symbol>
<symbol id="blob3" viewBox="0 0 120 120">
<path fill-rule="evenodd" clip-rule="evenodd" d="M68.0197 0.05769C92.0682 0.962681 112.051 18.3077 118.585 41.5831C124.41 62.3371 111.434 81.4913 94.6476 94.9239C74.3 111.206 48.8918 128.932 26.9317 114.924C1.88067 98.9451 -5.75598 65.3414 4.28102 37.2817C13.4711 11.5897 40.8709 -0.963971 68.0197 0.05769Z"/>
</symbol>
<symbol id="blob30" viewBox="0 0 120 120">
<path d="M51.9708 96.5556C50.9257 90.3031 40.6389 97.8062 35.9046 95.168C25.0258 89.068 21.2483 84.981 20.4047 69.1516C19.5611 53.3222 17.823 63.0516 8.56843 54.4507C4.1489 50.3638 -0.333029 43.2268 0.0195268 36.1509C1.11497 13.1846 24.4462 9.70771 38.0196 15.8839L38.2464 15.9906C47.2114 3.89743 57.1333 -1.76034 70.6437 0.481388C77.5563 1.62513 83.8772 7.14562 88.2715 13.2913C91.8199 18.2596 93.7926 24.5954 93.8367 31.1643C93.9375 42.3272 90.5759 39.8261 98.2062 42.7998C113.064 48.61 122.016 64.8054 119.611 83.09C118.453 91.8892 114.02 101.39 107.8 106.468C106.319 107.839 104.617 108.818 102.804 109.343C100.991 109.869 99.1073 109.928 97.2741 109.518C91.1548 108.374 92.0359 111.943 87.5786 115.71C74.66 126.72 55.0808 115.176 51.9708 96.5556Z"/>
</symbol>
<symbol id="blob31" viewBox="0 0 120 120">
<path d="M119.996 50.5728C120.095 59.8336 118.293 69.032 114.681 77.713C110.867 86.847 104.345 94.8827 95.8112 100.96C85.6578 108.233 74.0401 113.704 61.5845 117.077C54.6821 119.018 47.4863 119.998 40.25 119.985C34.8719 120.076 29.4944 119.763 24.1752 119.048C19.1395 118.308 14.236 116.977 9.59111 115.089C6.7214 114.013 4.19413 112.32 2.23442 110.16C1.09605 108.943 0.357192 107.469 0.100698 105.9C-0.155795 104.33 0.0800492 102.729 0.781407 101.272C1.29535 100.11 1.96138 99.0074 2.76696 97.9863C4.03552 96.3504 5.48353 94.8315 7.08919 93.4519C8.92836 91.8091 10.8781 90.2812 12.8276 88.7369C19.3567 83.5782 26.1247 78.666 32.9112 73.7702C38.4618 69.7509 43.7665 65.4677 48.8019 60.9392C55.0241 55.3531 60.3302 49.0091 64.5633 42.0954C67.9106 36.6411 70.8532 31.006 73.6487 25.3217C75.8154 20.8347 78.2347 16.4481 80.8958 12.1786C82.5901 9.51002 84.5803 7.00014 86.8363 4.68697C88.4397 2.95696 90.4571 1.57032 92.74 0.629102C95.37 -0.405914 96.7678 -0.225221 98.7173 1.63124C101.462 4.21856 103.953 7.01059 106.166 9.97701C106.398 10.2404 106.584 10.5341 106.717 10.8478C107.548 12.8637 108.648 14.7832 109.991 16.565C114.796 24.7189 117.947 33.5682 119.298 42.7033C119.776 45.8248 119.867 48.897 119.996 50.5728Z"/>
</symbol>
<symbol id="blob32" viewBox="0 0 120 120">
<path d="M11.8351 113.548C3.49845 108.819 5.29674 98.6648 4.35434 88.6782C3.11714 75.8709 2.12149 63.068 1.36757 50.2694C1.16459 46.8845 -2.11189 -0.193192 2.26665 0.000596609L34.8733 1.46048C36.3177 1.45744 37.7131 1.92648 38.7953 2.77889C39.8775 3.6313 40.5717 4.80781 40.7456 6.0855L42.485 35.9418C42.6494 37.1976 43.3187 38.358 44.3688 39.2082C45.4189 40.0585 46.7788 40.5412 48.1973 40.567C55.9298 41.0666 63.6624 41.3465 71.3949 41.4068C72.8317 41.3535 74.2424 41.7627 75.3685 42.5598C76.4946 43.3568 77.2608 44.4884 77.5277 45.7476C78.8229 55.0753 79.8334 64.4158 80.5583 73.7694C80.7204 74.9781 81.3557 76.097 82.353 76.929C83.3503 77.7609 84.6452 78.2525 86.0094 78.317L109.686 80.6166C110.982 80.6921 112.216 81.1452 113.195 81.9062C114.175 82.6671 114.847 83.6938 115.108 84.8283L119.951 114.814C120.429 117.759 117.37 120.24 113.586 119.981C91.9973 118.547 29.7554 116.545 22.9121 116.196C19.0258 116.176 15.2107 115.264 11.8351 113.548Z"/>
</symbol>
<symbol id="blob33" viewBox="0 0 120 120">
<path d="M1.41444 45.29C-0.105437 54.0083 -0.40356 63.0279 0.535198 71.8915C2.16806 90.3911 8.11336 110.067 20.6599 118.15C23.2278 119.811 26.3539 120.875 28.8521 119.027C30.3382 117.707 31.5256 115.867 32.2852 113.707C36.7501 102.712 38.2296 89.9869 36.4721 77.6971C39.1898 83.5186 42.7634 88.5408 46.9761 92.4589C51.1888 96.3771 55.9528 99.1095 60.9789 100.49C67.3848 102.189 74.935 101.106 79.1218 94.4234C84.8159 85.3882 81.7176 71.7608 78.3542 60.8216C83.6854 69.2593 90.2448 78.4439 98.4928 77.9212C104.466 77.5665 109.56 72.0221 113.44 65.9365C116.348 61.7285 118.455 56.6439 119.58 51.1143C120.976 42.7139 118.743 33.8281 115.059 26.8464C107.536 12.3976 94.5293 4.4452 81.4943 1.88772C53.4845 -3.6379 10.0812 0.767663 1.41444 45.29Z"/>
</symbol>
<symbol id="blob34" viewBox="0 0 120 120">
<path d="M48.7973 29.5C49.1143 22.1654 48.6807 23.6073 50.5903 16.6358C53.1134 7.888 59.8326 -10.4242 63.9454 7.76489C65.8956 16.4344 67.1848 20.5621 67 29.5C76.5465 18.2444 87.7878 16.2708 100.933 13.6154C102.098 13.3804 103.466 13.2686 104.27 14.3089C108.512 19.7791 89.3433 37.2523 86.2102 39.8252C97.4951 40.1496 109.214 41.7269 118.817 48.9086C119.372 49.3336 119.982 49.8817 120 50.676C119.973 51.0033 119.889 51.3199 119.753 51.6052C119.618 51.8905 119.434 52.138 119.215 52.3315C115.518 56.4705 110.286 57.9248 105.268 58.4618C100.249 58.9987 99.8799 60.1576 95 61.5C101.754 64.5476 103.1 67.8772 108.17 74.078C110.656 77.1207 112.994 80.8905 112.92 85.1638C109.298 87.2668 105.018 85.8908 101.174 84.4925L81.3857 79.5C83.6038 85.2498 83.4467 88.005 84.3155 94.3142C85.1843 100.623 84.5281 107.413 81.3857 112.492C81.0029 113.245 80.4193 113.817 79.7313 114.114C78.2988 114.573 77.051 112.917 76.2285 111.429C71.6045 103.106 67.2661 97.1893 63.9454 88C61.8844 96.524 60.1653 102.178 57.1708 110.266C55.498 114.741 52.8639 119.685 48.7973 119.976C47.8802 120.09 46.9601 119.796 46.2094 119.148C45.1003 118.029 44.86 116.206 44.7121 114.517C44.34 110.266 41 95.5 41 86.8976L21.1535 97.2004C19.1201 98.8112 17.0036 100.467 14.6099 100.948C12.2161 101.429 9.42495 100.377 8.30663 97.7597C6.75392 94.1017 9.08299 89.8172 11.486 86.8976C19.3605 77.3108 23.2493 71.6112 33 65C26.2254 63.4003 23.2192 61.9407 16.5 60.039C10.8529 58.4505 7.27149 55.3632 2.78896 50.911C0.607772 48.752 -1.15751 44.5011 0.940495 42.2191C1.42737 41.7269 1.98508 41.3477 2.58563 41.1005C14.6099 37.5 24.9955 36.1061 35 39.8252C29.3141 31.6611 29.6332 29.9726 25.0445 20.8531C23.843 18.4704 22.6507 15.931 22.5491 13.1456C22.4643 12.0398 22.6749 10.9301 23.1498 9.97978C23.5534 9.36523 24.0605 8.86187 24.6374 8.5031C25.2143 8.14433 25.8477 7.93841 26.4955 7.89912C31.1629 7.27268 35.3682 11.255 38.5106 15.5618C42.5919 21.1825 45.2336 22.538 47.5 29.5"/>
</symbol>
<symbol id="blob35" viewBox="0 0 120 120">
<path fill-rule="evenodd" clip-rule="evenodd" d="M55.2649 2.29157C68.3798 5.68715 74.0096 21.4313 84.2622 31.1794C96.351 42.6732 117.322 46.0468 119.724 63.5779C122.173 81.4572 107.898 97.1451 94.7419 107.685C83.4639 116.721 69.108 114.123 55.2649 115.221C39.5334 116.468 21.8091 125.789 9.75789 114.423C-2.538 102.825 0.683972 81.5557 0.512074 63.5779C0.337281 45.2975 -2.78428 24.5737 8.77507 11.635C20.3387 -1.30851 39.3192 -1.83696 55.2649 2.29157Z"/>
</symbol>
<symbol id="blob36" viewBox="0 0 120 120">
<path fill-rule="evenodd" clip-rule="evenodd" d="M63.0788 7.82775C77.1777 5.6486 92.0318 -5.52164 103.952 3.41901C116.696 12.9785 119.488 32.9796 119.952 50.4866C120.432 68.6235 117.4 87.3865 106.523 100.515C95.4346 113.899 78.8027 122.913 63.0788 119.133C48.7656 115.691 45.2684 94.7996 34.6428 83.2326C23.3604 70.9507 0.737974 68.3461 0.0193652 50.4866C-0.695848 32.7115 18.5562 23.5717 31.8796 14.5586C41.3635 8.14286 52.1773 9.51272 63.0788 7.82775Z"/>
</symbol>
<symbol id="blob37" viewBox="0 0 120 120">
<path fill-rule="evenodd" clip-rule="evenodd" d="M61.3132 119.125C70.6167 121.574 80.1357 118.495 89.0319 114.669C100.531 109.722 117.598 107.138 119.777 93.9765C122.052 80.2347 106.365 71.2125 97.9851 60.5854C92.9454 54.1942 85.106 51.4906 80.7772 44.5179C72.3438 30.9338 75.1872 8.06629 61.3132 1.51575C48.6593 -4.45879 34.7224 8.54851 23.7349 17.5855C12.9478 26.4577 -0.34471 37.2983 0.00682796 51.9391C0.365835 66.8909 16.1178 74.9505 25.3793 86.0689C30.4848 92.1981 36.1215 96.9257 41.9327 102.271C48.4052 108.226 53.0535 116.951 61.3132 119.125Z"/>
</symbol>
<symbol id="blob38" viewBox="0 0 120 120">
<path fill-rule="evenodd" clip-rule="evenodd" d="M62.8556 0.459274C74.9871 0.569457 88.7288 -2.19954 97.9324 6.5346C107.026 15.1643 104.569 30.9793 108.286 43.5719C112.009 56.1853 121.827 67.2353 119.702 80.2931C117.494 93.8658 107.741 104.748 97.1455 112.035C87.0124 119.003 74.7816 118.867 62.8556 119.387C50.3868 119.931 37.5297 121.648 26.5415 115.113C14.6473 108.04 3.26426 96.8853 0.465203 82.2835C-2.2651 68.0405 7.71096 55.3677 12.4876 41.7991C16.9143 29.2246 17.5553 13.9388 27.3574 5.89361C37.1878 -2.17473 50.6106 0.348059 62.8556 0.459274Z"/>
</symbol>
<symbol id="blob39" viewBox="0 0 120 120">
<path fill-rule="evenodd" clip-rule="evenodd" d="M57.6299 0.26595C67.1582 -0.950976 78.0468 2.01742 84.7454 8.98512C91.6179 16.1337 86.89 29.6108 93.2039 37.2694C99.7374 45.1943 118.131 41.4369 119.883 51.6061C121.69 62.094 101.971 65.3203 99.8341 75.7445C97.6294 86.4991 112.42 96.8275 108.512 107.074C105.079 116.077 92.529 118.041 83.1187 119.579C74.5132 120.985 65.7132 118.691 57.6299 115.387C50.8662 112.624 47.6482 103.246 40.437 102.138C28.8868 100.362 16.3773 113.358 6.2348 107.488C-2.12777 102.649 0.142436 88.8812 0.707008 79.1458C1.21179 70.4415 8.26936 63.479 9.28906 54.821C10.4632 44.8521 1.7987 33.6723 7.0646 25.1654C12.1224 16.9946 25.0553 19.7322 33.6203 15.5147C42.2241 11.278 48.1377 1.47827 57.6299 0.26595Z"/>
</symbol>
<symbol id="blob4" viewBox="0 0 120 120">
<path fill-rule="evenodd" clip-rule="evenodd" d="M75.8298 0.348631C99.8732 2.49225 110.903 27.403 117.376 50.375C122.791 69.5927 120.4 90.4202 104.77 103.053C85.7923 118.392 59.9222 126.436 39.0993 113.644C13.1162 97.6825 -7.01059 68.9007 2.32104 40.1172C11.7407 11.0622 45.0678 -2.39399 75.8298 0.348631Z"/>
</symbol>
<symbol id="blob40" viewBox="0 0 120 120">
<path fill-rule="evenodd" clip-rule="evenodd" d="M62.5853 0.0828887C78.076 -1.15459 89.9047 11.7103 100.441 22.2148C110.412 32.1544 122.128 43.6654 119.669 56.9915C117.328 69.6815 98.4545 71.8128 89.4683 81.6877C78.4972 93.7438 79.4164 116.918 62.5853 119.721C45.9705 122.487 35.1959 104.069 23.798 92.6237C13.1678 81.9496 -1.43747 71.3883 0.114082 56.9915C1.62243 42.9956 19.9153 37.6823 30.7863 27.7792C41.5683 17.9572 47.458 1.29134 62.5853 0.0828887Z"/>
</symbol>
<symbol id="blob41" viewBox="0 0 120 120">
<path fill-rule="evenodd" clip-rule="evenodd" d="M63.3053 113.411C44.1678 115.672 21.4747 125.949 7.52908 115.146C-6.40614 104.351 2.2934 85.1898 7.51039 70.1897C11.2288 59.4984 24.4639 54.2387 31.9535 44.9198C43.8446 30.1244 42.1419 5.21574 63.3053 0.767296C84.3146 -3.64875 106.271 11.7754 116.778 27.0901C125.798 40.2379 113.26 55.2835 110.931 70.1897C109.115 81.8172 114.472 94.8863 104.817 103.649C94.8664 112.679 78.1313 111.659 63.3053 113.411Z"/>
</symbol>
<symbol id="blob42" viewBox="0 0 120 120">
<path d="M119.257 25.0019C119.134 24.3158 118.999 23.6296 118.852 22.9435C114.227 2.30796 100.928 -0.225103 92.9041 9.96074C84.8804 20.1466 79.163 37.3781 69.3727 23.8674C65.5572 18.5897 62.3924 11.0163 58.5155 6.00251C49.9275 -5.05414 41.6459 0.724679 33.7081 10.7522C27.9419 18.0881 21.9546 17.9036 15.6976 14.6315C11.2809 12.3357 3.04897 0.19716 1.83438 16.6106C0.830547 30.1402 0.224119 43.7923 0.0186483 57.4859C-0.386215 83.8741 5.83408 93.2682 15.4772 103.243C22.3967 110.394 29.7329 111.793 36.861 105.249C41.9033 100.631 46.9947 94.6932 52.4052 95.3265C61.4716 96.2501 67.3243 114.933 75.9491 119.076C81.2982 121.715 86.5856 118.126 91.7874 115.514C97.4678 112.664 102.584 114.669 108.092 113.244C118.214 110.605 114.877 85.0614 116.313 67.8035C117.392 54.108 121.711 38.9349 119.257 25.0019Z"/>
</symbol>
<symbol id="blob43" viewBox="0 0 120 120">
<path d="M111.404 39.5449C101.822 31.2549 86.5534 35.5025 75.5032 38.2816C65.3808 40.8397 58.9195 45.3401 52.0869 50.0457C55.1405 28.5705 52.0868 -5.4741 23.238 0.747384C-10.6382 8.09 0.530439 52.8563 7.48113 74.0315C12.3061 87.8798 14.2289 102.044 24.6887 113.271C37.4766 128.272 52.5759 114.566 66.511 107.097C85.7435 97.4962 141.13 64.9519 111.404 39.5449Z"/>
</symbol>
<symbol id="blob44" viewBox="0 0 120 120">
<path d="M119.364 57.925C118.671 50.2623 116.857 42.8889 114.04 36.2762C110.986 28.9734 108.543 20.6747 104.634 14.6274C100.908 8.85441 96.489 1.79683 90.7982 0.295846C85.647 -0.714431 79.9664 1.0465 74.9984 2.80727C62.9348 6.58859 56.0124 18.1633 51.2175 33.5051C48.7335 41.2987 45.0076 49.3809 38.085 48.3418C31.875 47.3459 22.0611 42.8719 15.8002 48.0243C-17.0413 75.0997 9.32559 112.971 23.1809 118.744C34.4811 123.478 45.0075 113.967 53.5284 104.658C57.8474 99.7075 63.0899 96.6483 68.6154 95.8537C76.0674 95.1032 78.5515 100.385 82.9901 107.674C84.8415 110.763 87.1157 113.288 89.6748 115.097C92.234 116.905 95.0251 117.959 97.8797 118.195C100.734 118.431 103.593 117.844 106.283 116.47C108.973 115.096 111.439 112.963 113.531 110.2C118.499 103.402 118.672 93.5877 119.568 84.5385C120.206 75.6847 120.137 66.7572 119.364 57.925Z"/>
</symbol>
<symbol id="blob45" viewBox="0 0 120 120">
<path d="M95.3422 3.35233C55.4387 -14.1206 63.9847 41.6834 50.4532 56.3293C39.7602 68.2076 21.2277 69.3004 8.40211 77.7102C-3.7026 85.6092 -2.29133 104.211 9.8284 112.098L9.46835 110.91C13.8086 116.517 22.9847 119.534 31.2147 119.937C66.1322 121.125 92.4888 105.291 108.889 82.1764C124.523 60.8431 126.7 16.8817 95.3422 3.35233Z"/>
</symbol>
<symbol id="blob46" viewBox="0 0 120 120">
<path d="M20.1505 69.1942C26.2745 71.169 34.1654 73.1439 38.7527 77.0935C48.8217 85.9605 49.2573 99.8829 56.2528 110.053C57.996 112.7 59.5328 115.701 61.5053 118.15C64.3494 121.744 66.3214 119.473 68.9361 116.649C73.317 111.752 74.6243 105.728 75.817 99.7052C77.0097 93.682 77.996 88.0142 79.3034 82.3662C80.8401 75.9677 86.2999 73.8942 92.8826 71.8206C98.5479 69.8458 104.235 68.2463 109.924 66.548C112.332 65.7975 118.686 65.4222 119.787 63.1709C121.094 60.3271 116.048 59.0238 113.869 58.0759C107.539 55.6271 100.52 54.5014 94.3957 52.1514C87.4001 49.3274 84.7857 45.5751 82.148 39.7296C77.125 28.0584 77.5609 15.6169 72.5378 4.18267C71.2075 1.55615 69.4642 -1.26774 66.6201 0.608353C63.776 2.48444 61.8035 8.32975 59.7392 10.7785C54.2804 17.9472 52.743 26.7946 48.8209 34.694C46.8484 38.4659 45.0823 44.8643 41.3666 47.5106C37.2152 50.5321 29.1191 51.0849 24.0961 51.8354C15.9996 53.1585 0.885122 52.1118 0.0364782 58.2536C-0.812165 64.3953 13.3614 67.1206 20.1505 69.1942Z"/>
</symbol>
<symbol id="blob47" viewBox="0 0 120 120">
<path d="M101.289 118.188C134.829 98.612 119.477 79.964 85.2205 62.9833C70.428 55.6424 53.0197 48.947 41.6217 40.4902C28.8846 31.0789 36.731 21.7886 51.1498 13.6949C62.5789 7.28172 30.5035 -4.4826 19.3235 1.78266C-14.9328 20.9818 0.295883 39.5088 34.303 56.3551C49.1889 63.7228 66.5967 70.4586 78.1193 78.9422C91.0121 88.4208 83.8501 97.9398 69.5248 106.276C58.376 112.783 90.5137 124.507 101.351 118.188H101.289Z"/>
</symbol>
<symbol id="blob48" viewBox="0 0 120 120">
<path d="M72.8736 0.201785C46.0326 3.2945 11.2751 19.4909 2.50953 51.9805C0.387356 59.847 -0.0739862 68.1445 0.0090556 76.4312C0.129005 87.5521 1.43922 99.3518 7.39054 107.983C12.9267 115.958 21.9044 120.085 30.6884 119.999C39.4723 119.912 47.998 115.936 55.1949 110.063C65.8058 101.442 73.7317 88.7698 84.5086 80.3753C95.1103 72.0993 108.701 67.5949 115.483 54.9762C132.737 22.9283 96.6604 -2.53532 72.8736 0.201785ZM77.1456 61.625C69.8748 64.3729 61.0816 61.0755 54.8535 66.2372C49.6496 70.5476 47.6473 79.8149 41.4746 81.6684C36.5567 83.1339 31.5188 78.5864 29.6273 73.0476C27.0438 65.5043 28.9722 56.6035 33.1335 50.1055C37.2948 43.6076 43.3938 39.1571 49.6588 35.6333C60.8048 29.3617 80.2458 15.9348 87.166 37.142C90.2478 46.6572 85.376 58.5431 77.1456 61.6574V61.625Z"/>
</symbol>
<symbol id="blob5" viewBox="0 0 120 120">
<path fill-rule="evenodd" clip-rule="evenodd" d="M59.8919 1.76804C76.9526 0.889621 96.3123 -4.03986 108.836 7.74981C121.534 19.7047 120.802 39.933 119.002 57.4154C117.411 72.8677 110.228 86.5254 99.5756 97.6845C88.7126 109.064 75.4198 117.685 59.8919 119.335C42.5122 121.182 23.1194 119.806 10.9244 107.105C-1.18564 94.493 -0.446395 75.0016 0.437158 57.4154C1.26233 40.9913 3.76239 23.6964 15.6752 12.5464C27.2583 1.70505 44.1542 2.57834 59.8919 1.76804Z"/>
</symbol>
<symbol id="blob50" viewBox="0 0 120 120">
<path fill-rule="evenodd" clip-rule="evenodd" d="M59.5815 0.0978928C75.622 -0.82767 91.7368 4.81651 103.2 16.7562C114.757 28.7947 120.039 45.847 120 63.0302C119.961 80.1693 115.097 97.7337 102.989 109.081C91.4232 119.921 74.983 120.706 59.5815 119.656C45.3738 118.687 32.0189 113.599 21.4149 103.521C10.12 92.7855 0.189367 79.117 0.00266857 63.0302C-0.185665 46.8024 9.6229 32.9809 20.4634 21.5303C31.2746 10.1105 44.3477 0.976904 59.5815 0.0978928Z"/>
</symbol>
<symbol id="blob51" viewBox="0 0 120 120">
<path fill-rule="evenodd" clip-rule="evenodd" d="M59.3223 0.000152732C87.4602 -0.0669259 110.731 21.9695 118.309 49.8119C125.026 74.4886 110.934 98.9488 90.0827 113.005C72.1813 125.072 49.8349 120.335 32.2018 107.858C12.7113 94.066 -4.74794 73.6336 1.17176 50.0911C8.16687 22.2717 31.3576 0.0668184 59.3223 0.000152732Z"/>
</symbol>
<symbol id="blob52" viewBox="0 0 120 120">
<path d="M7.70148 68.1393C8.75611 82.0231 14.5651 95.028 24.0469 104.733C36.1117 116.971 53.4834 122.786 70.2002 121.218C86.917 119.65 102.714 111.198 114.575 98.742C118.749 94.4056 122.688 88.5126 121.252 82.518C119.347 74.6831 109.518 72.2696 102.17 74.5485C94.8216 76.8273 88.5722 82.1263 81.2116 84.3378C89.6583 77.0662 96.456 66.5724 96.3579 55.083C96.2598 43.5935 87.2099 31.9972 76.3181 32.5987C68.4944 33.0473 61.9938 39.1908 57.3896 45.8817C52.7855 52.5725 49.2847 60.1812 43.6791 65.9684C47.9484 56.4508 52.1472 46.5029 52.2339 35.9785C52.3206 25.4542 47.1869 14.1777 37.7929 10.6121C35.6311 9.60656 33.1795 9.54099 30.9713 10.4296C28.9369 11.4362 27.5965 13.5223 26.4383 15.5627C16.6627 32.2248 6.41802 47.5438 7.70148 68.1393Z"/>
</symbol>
<symbol id="blob54" viewBox="0 0 120 120">
<path fill-rule="evenodd" clip-rule="evenodd" d="M104.816 64.693C110.087 74.8585 118.233 83.6484 117.791 95.0722C117.33 107.028 109.972 116.698 102.447 126.02C92.0945 138.843 83.5451 156.264 67.0868 157.878C49.2951 159.622 31.7225 148.503 21.3902 133.967C11.65 120.264 15.2817 102.624 15.8983 85.8628C16.5718 67.5525 12.2342 46.9065 25.0751 33.7919C38.5662 20.0133 61.3535 14.0304 79.3885 21.0193C95.7642 27.3653 96.7556 49.1508 104.816 64.693Z"/>
</symbol>
<symbol id="blob55" viewBox="0 0 120 120">
<path fill-rule="evenodd" clip-rule="evenodd" d="M73.1739 22.8752C87.7057 17.2004 99.5171 -5.56495 113.472 1.26644C127.089 7.9324 115.076 29.3044 115.711 43.699C116.056 51.5067 118.157 59.1035 116.363 66.7346C114.786 73.4451 109.518 78.4876 106.105 84.5679C102.532 90.933 100.806 98.0136 95.763 103.433C89.3752 110.297 82.8477 120.779 73.1739 119.954C63.1755 119.102 62.5113 102.292 52.8375 99.7732C37.7628 95.8483 19.4182 111.358 6.8068 102.675C-3.68122 95.4532 -0.167152 77.9924 4.85475 66.7346C9.60935 56.0761 23.8328 52.865 32.6326 44.7801C38.692 39.2131 41.1448 30.6116 48.4945 26.6404C55.8417 22.6706 65.3462 25.9319 73.1739 22.8752Z"/>
</symbol>
<symbol id="blob56" viewBox="0 0 120 120">
<path fill-rule="evenodd" clip-rule="evenodd" d="M53.5536 0.493409C76.7762 4.63079 69.7341 31.5239 83.6221 45.6872C93.0182 55.2695 115.98 56.053 119.327 67.5704C122.924 79.95 111.478 91.85 99.7506 101.192C87.3838 111.043 71.8748 119.455 53.5536 119.964C34.6641 120.488 14.0936 115.346 3.69192 103.859C-5.82671 93.3465 6.06029 80.1599 6.11238 67.5704C6.16414 55.0598 -3.87599 42.6235 3.9913 31.5C14.3563 16.845 31.5555 -3.42583 53.5536 0.493409Z"/>
</symbol>
<symbol id="blob57" viewBox="0 0 120 120">
<path fill-rule="evenodd" clip-rule="evenodd" d="M55.4413 16.9171C74.9083 15.3716 94.0158 -8.25228 110.148 3.05195C125.898 14.0878 118.727 39.9049 115.896 59.2787C113.575 75.1676 108.172 90.9193 95.8623 100.823C84.673 109.824 69.5223 105.955 55.4413 107.914C37.1102 110.463 12.685 129.606 2.36989 113.824C-8.67908 96.92 22.4237 79.6039 23.6526 59.2787C24.7105 41.7806 -1.83807 24.9977 8.57954 11.1152C18.5685 -2.19601 39.1338 18.2117 55.4413 16.9171Z"/>
</symbol>
<symbol id="blob58" viewBox="0 0 120 120">
<path fill-rule="evenodd" clip-rule="evenodd" d="M69.1775 1.19718C86.0531 4.74349 93.5676 20.8743 102.103 34.0104C107.837 42.8349 106.959 52.6543 109.088 62.6176C112.163 77.0063 125.878 91.7705 117.118 104.27C107.914 117.403 86.7419 121.443 69.1775 119.565C53.0775 117.843 43.4284 104.918 31.7468 95.139C19.6826 85.0399 4.12749 76.9412 1.14959 62.6176C-2.28415 46.1016 1.84879 27.8507 15.2431 15.7573C28.8135 3.50504 50.1552 -2.80025 69.1775 1.19718Z"/>
</symbol>
<symbol id="blob59" viewBox="0 0 120 120">
<path fill-rule="evenodd" clip-rule="evenodd" d="M63.8375 119.973C47.3801 120.696 36.7581 106.638 25.1684 97.5086C15.4861 89.8817 6.37468 81.8705 2.42322 71.5957C-1.46179 61.4937 -0.32032 50.8951 3.33704 40.7416C7.12991 30.212 10.4599 16.7978 23.5713 12.8852C37.0322 8.86826 49.5959 24.4243 63.8375 22.6875C83.17 20.3298 98.6537 -7.20239 114.441 1.80331C130.258 10.8265 107.632 30.7435 104.353 45.7995C102.902 52.4611 101.278 58.6203 100.598 65.3563C99.6036 75.2012 105.348 85.4975 99.4612 94.2438C91.7536 105.696 80.4114 119.245 63.8375 119.973Z"/>
</symbol>
<symbol id="blob60" viewBox="0 0 120 120">
<path d="M3.43723 5.52849C1.67677 9.38265 0.712962 13.4914 0.592893 17.6544C0.369185 21.57 0.257472 25.5285 0.137628 29.4225C-0.168815 37.6201 0.0365864 45.8267 0.75284 54.0037C1.38101 61.7006 3.00586 69.3059 5.59457 76.6666C7.97867 83.0858 11.3189 89.1871 15.5253 94.8054C19.7165 100.351 24.9598 105.197 31.0172 109.122C37.8004 113.56 45.8459 116.359 54.0352 117.883C58.8314 118.755 63.6816 119.367 68.56 119.716C73.4529 120.156 78.3868 120.084 83.2611 119.501C93.0324 118.184 102.22 114.025 108.548 107.139C117.952 96.9028 120.748 82.9658 119.837 70.0453C119.403 63.1659 117.997 56.3638 115.651 49.8019C113.224 43.2548 109.899 37.0031 105.752 31.1906C101.904 25.7031 97.2643 20.6945 91.9537 16.2944C85.4262 10.9043 78.1396 6.35881 69.6387 3.88924C64.6779 2.48685 59.4514 1.99983 54.2747 2.4576C49.7207 2.8513 44.8953 4.6051 41.7793 7.69028C39.9106 9.562 38.7867 11.9357 38.5835 14.4404C38.216 18.4347 38.2957 22.5077 38.2238 26.5163C38.1599 30.6776 38.1385 34.8365 38.1599 38.993C38.2078 46.9458 38.2239 54.963 38.839 62.9014C39.3264 69.172 40.397 75.7861 44.983 80.7969C51.7821 88.27 64.0621 87.955 72.9944 84.0681C77.7122 82.0247 81.6327 78.7542 84.2438 74.6838C86.5688 70.9901 86.9841 66.8097 86.4807 62.6866C85.9272 59.0194 84.4074 55.5229 82.0467 52.4862C81.048 51.119 78.1395 50.6179 76.5656 50.5392C73.9512 50.447 71.3553 50.965 69.0317 52.0424C67.1621 52.9658 65.0368 54.1898 64.1739 56.0653L63.6465 57.5972C63.5769 58.1012 63.6278 58.6127 63.7959 59.0977C63.964 59.5828 64.2455 60.0303 64.6214 60.4104C64.917 60.8112 65.1965 61.2264 65.4601 61.6416L64.6612 60.3245C66.1907 62.7735 67.1425 65.4779 67.4575 68.27L67.314 66.7668C67.5212 68.8544 67.2823 70.9582 66.6106 72.9658L67.1302 71.4339C66.7122 72.6098 66.1179 73.7295 65.3642 74.7625L66.483 73.2736C65.854 74.0972 65.1281 74.858 64.3179 75.5428L65.9634 74.1755C65.2211 74.7897 64.419 75.3431 63.5665 75.829L65.6599 74.6623C64.9478 75.0445 64.2056 75.3794 63.439 75.6644L65.9076 74.7696C65.2283 75.0059 64.5317 75.1997 63.8224 75.3495L66.4268 74.834C65.719 74.97 65.0005 75.0562 64.2777 75.0918L66.7385 74.9916C66.0207 75.0202 65.3015 74.9914 64.5894 74.9057L66.8025 75.1991C65.9138 75.0753 65.043 74.864 64.2059 74.5692L66.0676 75.2278C65.01 74.8306 64.0139 74.3133 63.1035 73.6888L64.5016 74.6838C63.0635 73.6226 61.8578 72.3313 60.9461 70.8756L61.7451 72.1855C59.4521 68.5277 58.5972 64.3116 58.1818 60.1527L58.3335 61.6487C57.7103 55.2063 57.7184 48.6637 57.6145 42.1927C57.5027 35.1204 57.5265 28.0505 57.6863 20.983C57.7289 19.0217 57.7823 17.0603 57.8463 15.099C57.7788 13.4346 57.9533 11.7695 58.3655 10.1455L57.8463 11.6774C58.0011 11.2722 58.2045 10.8834 58.4533 10.5177L57.327 11.9995C57.4976 11.792 57.6817 11.5935 57.8782 11.4053L56.2402 12.7654C56.4565 12.5893 56.6863 12.4267 56.9275 12.2787L54.8342 13.4455C55.0921 13.3118 55.3589 13.1922 55.6331 13.0876L53.1645 13.9824C53.5364 13.8549 53.918 13.752 54.3067 13.6745L51.7101 14.1899C52.3064 14.091 52.91 14.0312 53.516 14.0109L51.0551 14.104C52.7062 14.0645 54.3577 14.1507 55.9924 14.3617L53.7793 14.0753C56.1817 14.4195 58.536 14.9931 60.8022 15.7861L58.9409 15.1348C63.5197 16.8339 67.7988 19.1197 71.6443 21.9208L70.2461 20.9186C78.498 26.868 85.4002 34.1796 90.5793 42.4576L89.7803 41.1477C95.7743 50.6954 99.4372 61.2747 100.526 72.1855L100.383 70.6824C101.11 78.4705 100.614 86.4304 98.0578 93.9608L98.5771 92.4289C97.3536 96.0706 95.5448 99.5333 93.2079 102.708L94.3264 101.226C93.0015 102.983 91.4578 104.6 89.7246 106.044L91.3705 104.684C90.1693 105.664 88.8724 106.545 87.4954 107.318L89.5888 106.151C88.4151 106.796 87.1861 107.356 85.9135 107.826L88.3822 106.931C87.0842 107.392 85.7487 107.763 84.3874 108.041L86.9922 107.526C85.0053 107.918 82.9845 108.157 80.952 108.241L83.4207 108.148C78.2081 108.253 72.996 107.929 67.8492 107.182L70.0623 107.475C64.8747 106.831 59.7833 105.672 54.8822 104.018L56.7438 104.669C52.1441 103.022 47.8376 100.782 43.9605 98.0194L45.3587 99.0144C39.1579 94.4629 33.9814 88.8949 30.1063 82.6079L30.9053 83.925C24.2819 73.338 21.174 61.4769 19.9676 49.4583L20.1194 50.9615C18.9928 39.401 19.4163 27.7403 19.9836 16.1584C20.0414 13.0129 20.5406 9.88651 21.4695 6.85274L20.9503 8.3846C21.2042 7.67752 21.4975 6.98227 21.8292 6.30154C22.2309 5.61553 22.4016 4.83983 22.3208 4.06854C22.2399 3.29725 21.9112 2.56358 21.374 1.95656C20.1516 0.65377 17.6987 0.0453448 15.901 0.00955385C13.2836 -0.0783811 10.6854 0.44193 8.35892 1.51992C6.4654 2.45049 4.36408 3.66737 3.5012 5.53566L3.43723 5.52849Z"/>
</symbol>
<symbol id="blob61" viewBox="0 0 120 120">
<path d="M0 1.86266C0 0.649663 2.65377 -0.284307 5.10698 0.0795909C38.4999 4.93157 71.6373 12.0155 93.7528 24.3395C118.889 38.4102 127.109 58.9947 113.433 77.4201C96.9566 99.5937 53.5128 111.784 8.12844 119.875C5.76677 120.299 3.34949 119.596 3.31288 118.48L0 1.86266Z"/>
</symbol>
<symbol id="blob63" viewBox="0 0 120 120">
<path d="M86.8133 1.38504C70.917 2.88871 54.8452 4.22769 39.1948 6.2582C26.8992 7.86066 9.4399 11.6144 8.3333 20.9328C7.77122 25.6304 12.2149 30.1085 18.1167 33.0061C24.0186 35.9037 31.2554 37.561 38.3517 39.1525L76.6079 47.7356L40.7231 49.9965C31.2029 50.5892 21.4017 51.2477 13.1285 54.2661C4.85539 57.2844 -1.32819 63.354 1.00796 69.1492C3.78324 76.0091 16.3423 79.192 27.461 80.5969C42.0399 82.4512 56.9553 83.0567 71.7956 82.3969C56.4086 84.8189 41.1503 87.5299 26.021 90.53C14.9199 92.7251 2.1502 96.2923 0.218049 103.459C-1.22228 108.827 4.66221 114.15 12.2854 116.762C19.9087 119.374 28.9365 119.835 37.6312 119.934C54.722 120.143 121.451 120.746 119.976 105.413C116.849 73.298 116.463 40.9196 114.83 8.72774C114.408 0.210569 108.383 -0.799129 96.3514 0.430154C93.1897 0.77406 90.0102 1.09235 86.8133 1.38504Z"/>
</symbol>
<symbol id="blob64" viewBox="0 0 120 120">
<path d="M53.9399 44.1763C55.6872 41.6714 57.3571 39.1403 59.1972 36.6528C64.934 28.9118 71.1659 21.3013 80.3819 14.6475C83.7675 12.1369 87.7834 9.916 92.3039 8.0546C100.793 4.68857 110.86 6.21944 116.102 11.2728C119.246 14.499 120.536 18.1936 119.797 21.8492C118.73 30.373 114.261 38.4533 109.066 46.3943C94.5644 68.7387 75.1799 89.9821 51.3577 109.636C47.9249 112.454 43.8893 115.046 40.008 117.681C38.1087 118.962 35.396 119.777 32.4464 119.951C29.6321 120.16 27.4982 119.716 26.2611 118.333C24.2819 116.115 21.9156 113.915 20.8022 111.549C17.0447 103.512 13.3646 95.4495 10.4266 87.3084C7.4886 79.1673 5.04577 70.861 3.03557 62.5808C0.113048 50.604 -1.15511 38.5576 1.30352 26.4939C2.66427 19.8314 5.18466 13.3081 10.8751 7.35884C12.6154 5.51445 14.8066 3.81632 17.385 2.31411C22.1631 -0.390886 28.2093 -0.677928 34.1626 1.20948C38.1765 2.58158 41.486 4.51812 43.7651 6.82829C48.9193 11.7158 51.9105 17.2283 52.4865 22.9017C53.2596 29.4598 53.229 36.0613 53.5382 42.6368C53.5382 43.15 53.5382 43.6545 53.5382 44.1676L53.9399 44.1763Z"/>
</symbol>
<symbol id="blob65" viewBox="0 0 120 120">
<path d="M111.109 80.9881C104.258 86.4198 93.1665 88.5582 84.6078 88.5582C85.4617 88.5582 72.2644 87.174 64.2975 102.677C60.8721 109.359 53.7884 115.812 46.4038 118.294C26.3751 124.977 14.1967 111.125 17.4572 92.3767C19.0583 83.1933 17.6415 75.9095 9.57759 70.4205C3.90086 66.5161 -0.038531 61.8289 0.0002843 54.6597C0.0002843 44.3212 14.8372 17.6109 28.9175 24.1692C37.0007 27.9208 43.3182 29.2478 47.8887 20.0261C52.0128 11.6637 53.7788 4.89547 63.0556 0.723792C68.1113 -1.53865 81.9292 1.77384 84.8016 6.90014C89.2556 14.833 91.8855 20.723 91.7496 30.0019C91.6429 36.4455 89.4208 43.7961 96.3978 47.6623C102.686 51.1657 114.418 51.2803 118.299 58.1631C122.86 66.1628 117.494 75.919 111.109 80.9881Z"/>
</symbol>
<symbol id="blob66" viewBox="0 0 120 120">
<path d="M23.7025 12.4976C16.0517 18.1424 9.86203 25.8158 5.72291 34.7875C1.58379 43.7593 -0.366872 53.7302 0.0568427 63.7504C0.145654 74.5296 3.04563 85.0617 8.42208 94.1307C13.7985 103.2 21.4319 110.436 30.4412 115.004C38.0127 118.047 46.012 119.651 54.0869 119.744C64.6325 120.66 75.2367 119.109 85.181 115.196C92.2692 111.655 98.6404 106.627 103.927 100.403C109.213 94.1795 113.309 86.8826 115.98 78.9341C118.481 72.4745 119.844 65.5645 119.999 58.561C120.236 2.95133 63.841 -14.5384 23.7025 12.4976Z"/>
</symbol>
<symbol id="blob67" viewBox="0 0 120 120">
<path fill-rule="evenodd" clip-rule="evenodd" d="M68.1862 4.8756C84.7294 4.80577 105.146 -7.81144 115.868 7.82531C126.637 23.5311 113.235 46.607 110.787 67.0054C108.946 82.3463 112.435 99.9906 103.507 110.843C94.6201 121.646 80.6163 118.211 68.1862 118.79C54.9408 119.407 41.4028 122.877 30.1095 114.264C15.8294 103.374 2.09334 87.686 0.283094 67.0054C-1.64897 44.9331 6.42897 21.4009 20.8277 8.22646C34.0585 -3.87938 51.7489 4.94498 68.1862 4.8756Z"/>
</symbol>
<symbol id="blob68" viewBox="0 0 120 120">
<path d="M16.4202 18.3448C10.5419 24.0379 5.19915 31.2645 2.24086 40.3416C-0.717432 49.4188 -0.959706 60.5053 2.80191 68.9832C6.2575 76.7914 12.4419 81.3211 18.4094 85.2693C37.3491 97.7887 57.0332 108.032 77.2437 115.885C86.9602 119.657 97.8497 122.724 106.776 116.185C115.701 109.645 120.088 94.9457 119.999 81.0567C119.846 56.3809 109.441 15.419 90.9258 6.57094C67.132 -4.74469 37.243 -1.83648 16.4202 18.3448Z"/>
</symbol>
<symbol id="blob69" viewBox="0 0 120 120">
<path d="M8.91326 114.554C7.95884 111.493 8.28311 108.415 8.56784 105.332C8.90617 101.542 9.84224 97.7838 10.4283 94.0103C10.7814 91.7745 10.8723 89.5144 10.9024 87.2687C10.9363 85.5917 10.711 83.8481 10.5116 82.1607C10.2773 79.6764 9.65396 77.2142 8.6514 74.8127C8.13769 73.65 8.00513 72.4161 7.58984 71.2353C6.87402 69.1469 6.05791 67.0685 5.27938 64.9863L5.20529 64.6672C4.43476 62.2327 3.72692 59.7921 2.85607 57.3675C1.97888 55.1808 1.34223 52.9561 0.951021 50.7102C0.573415 47.8688 0.145642 45.0322 0.246447 42.1518C0.294867 39.953 0.521518 37.7573 0.925388 35.5741C1.78956 30.3541 4.2942 25.3067 8.28293 20.7469C9.92477 18.963 11.7987 17.2745 13.8838 15.7C15.1979 14.6749 16.8254 13.8949 18.1182 12.8886C18.5977 12.5232 19.4953 12.577 19.8551 12.2485C21.1863 11.0208 23.538 10.7635 25.1344 9.79415C25.3017 9.66972 25.5224 9.58089 25.7679 9.53914C26.9851 9.31865 28.1389 8.97017 29.184 8.50733C33.7804 7.10415 38.7458 6.28724 43.8127 6.10066C46.8191 5.93066 49.8456 5.98851 52.8317 6.27305C56.2379 6.69519 59.5626 7.36032 62.746 8.25659C67.9411 9.6337 72.5537 11.8043 76.1962 14.5858C79.2809 16.8617 81.8661 19.406 83.8779 22.1458C85.5446 24.4481 86.9542 26.8261 88.0955 29.261C88.5826 30.3092 88.9732 31.3836 89.3695 32.4826C90.4903 35.3104 91.3699 38.1766 92.0044 41.0679C92.4356 42.925 92.8669 44.7821 93.3714 46.6235C93.9622 48.6155 94.6659 50.5962 95.52 52.5622C96.0079 53.6689 96.4224 54.7911 96.8997 55.9072C98.3146 59.1349 100.089 62.2909 102.209 65.3499C104.824 69.1736 107.791 72.891 111.092 76.4816C113.317 78.8813 115.615 81.2654 117.884 83.6356C121.257 87.1343 123.945 90.8949 125.884 94.8295C126.11 95.3625 126.288 95.9039 126.414 96.4508C126.585 97.157 126.837 97.8538 127.168 98.5354C127.449 99.0594 127.606 99.6082 127.635 100.163C128.069 102.943 128.084 105.745 127.679 108.527C127.367 109.889 127.026 111.236 126.541 112.573C125.508 115.42 123.999 118.184 122.041 120.816C120.131 123.378 117.909 125.836 115.398 128.167C112.94 130.473 110.065 132.578 106.835 134.435C105.232 135.43 103.554 136.324 101.941 137.278C100.168 138.363 98.3068 139.384 96.3664 140.339C93.8789 141.571 91.1725 142.603 88.3059 143.411C85.4191 144.182 82.3351 144.545 79.3795 145.129C77.0578 145.626 74.6539 145.88 72.3245 146.345C68.8525 147.066 65.1899 147.314 61.5647 147.072C57.7853 146.859 54.0509 146.387 50.4238 145.662C47.6332 145.033 44.9152 144.275 42.2906 143.393C38.4847 142.196 34.8533 140.776 31.4412 139.151C27.7762 137.373 24.5245 135.258 21.787 132.873C20.1626 131.402 18.4185 129.967 17.0172 128.407C14.3411 125.605 12.1618 122.614 10.5216 119.491C9.82906 117.869 9.29194 116.22 8.91326 114.554Z"/>
</symbol>
<symbol id="blob7" viewBox="0 0 120 120">
<path d="M23.0151 112.657C42.3312 122.509 79.7503 122.091 100.704 113.533C124.053 103.994 125.357 87.8316 109.225 76.3987C100.679 70.5108 88.7927 65.6587 74.6864 62.3003C59.5247 58.6287 39.7841 55.7672 22.7423 58.6678C8.00513 61.2027 -3.42692 67.9187 1.78872 74.9353C6.45853 81.2593 21.7416 85.2967 36.3575 86.2375C66.3777 88.1452 96.7013 80.1356 109.407 68.4806C122.749 56.1983 113.834 42.0869 90.7578 33.2019C79.739 28.8675 66.0511 25.9956 51.3373 24.931C36.6911 23.9641 20.3771 24.8526 8.88449 29.2951C-3.91201 34.2864 -1.97131 42.1 8.88449 47.3134C19.7403 52.5268 36.4182 54.552 51.9438 54.1731C67.6187 53.7988 82.464 51.0176 93.7902 46.3334C105.1 41.4102 111.609 34.8092 111.984 27.8839C112.611 20.9747 107.015 14.2286 96.3676 9.05555C85.7118 4.09778 71.2848 0.950085 55.7039 0.183598C48.2597 -0.195031 40.7177 0.0130624 33.4464 0.797711C24.9255 1.69928 28.534 7.3308 37.0853 6.46843C60.313 3.99892 87.1493 9.52593 95.3063 19.417C99.621 24.4166 99.4616 29.9291 94.8594 34.8808C90.2571 39.8325 81.5415 43.8686 70.4107 46.2027C59.6506 48.3494 47.4899 48.8115 36.024 47.5093C26.0173 46.3595 12.4929 42.7271 13.3723 37.5398C14.191 32.9275 26.6844 30.7977 35.8724 30.3926C47.7434 29.9874 59.6126 31.1838 69.8346 33.816C89.9693 38.8072 104.646 48.5938 101.826 58.8377C99.0665 68.8203 79.7807 77.4701 57.5232 79.9266C52.0189 80.5982 46.2565 80.7835 40.5818 80.4714C34.9071 80.1593 29.4375 79.3562 24.5011 78.1103C15.4041 75.6408 10.2186 70.9501 17.8905 66.9649C27.2604 62.0912 43.2107 62.9013 55.522 64.8351C67.8125 66.772 78.9038 69.9015 87.9378 73.9814C104.98 81.7166 112.197 93.3717 100.856 103.276C98.4884 105.495 95.1265 107.49 90.9632 109.147C86.8 110.804 81.9177 112.091 76.5968 112.932C66.3034 114.49 55.0271 114.327 44.9996 112.474C40.1545 111.518 35.8734 110.102 32.476 108.332C31.1839 107.787 29.4478 107.482 27.6395 107.482C25.8313 107.482 24.095 107.787 22.8028 108.332C21.561 108.892 20.868 109.636 20.868 110.41C20.868 111.184 21.561 111.928 22.8028 112.487L23.0151 112.657Z"/>
</symbol>
<symbol id="blob70" viewBox="0 0 120 120">
<path d="M6.18623 64.9837C11.5357 59.4318 18.1182 58.9817 18.1182 51.6493C18.1182 44.3169 5.8581 45.3073 4.53564 35.6441C3.21318 25.9809 8.8411 18.6384 16.4676 20.299C24.0942 21.9595 32.6753 20.9692 36.3543 13.9669C40.0333 6.96464 46.9738 -1.70825 57.5833 0.292405C68.1928 2.29306 67.8746 14.6372 73.9997 13.9669C80.1248 13.2967 92.3849 5.29409 100.011 11.9663C107.638 18.6385 94.3438 35.6441 98.5001 41.6461C102.656 47.648 121.549 56.3109 119.898 69.6552C118.248 82.9996 106.634 92.6628 93.0511 92.9929C79.4686 93.323 75.6105 99.665 68.7496 108.998C61.8888 118.331 45.6016 122.312 36.3543 118.651C27.107 114.99 29.394 99.9752 20.793 95.3037C12.192 90.6321 1.14497 89.6718 0.150635 80.2988C-0.843698 70.9257 3.30267 67.9846 6.18623 64.9837Z"/>
</symbol>
<symbol id="blob71" viewBox="0 0 120 120">
<path fill-rule="evenodd" clip-rule="evenodd" d="M75.1769 109.807C90.346 106.397 109.819 115.303 119.182 101.379C128.674 87.2631 121.888 66.4046 115.117 50.412C109.275 36.615 98.1072 27.1249 85.4541 21.7208C74.3356 16.972 62.8656 20.6691 51.176 23.1027C36.7662 26.1027 19.9939 24.3705 10.7892 37.2652C0.517093 51.6551 -2.76359 72.8707 3.43489 89.982C9.35471 106.324 25.2582 114.89 40.4266 119.081C52.4445 122.402 63.0419 112.535 75.1769 109.807Z"/>
</symbol>
<symbol id="blob72" viewBox="0 0 120 120">
<path fill-rule="evenodd" clip-rule="evenodd" d="M65.5322 0.20772C78.5091 -2.02979 85.0288 14.3789 94.7089 22.0351C102.452 28.1596 112.371 32.5092 116.719 40.6931C121.057 48.8564 120.448 58.1479 118.576 66.9585C116.754 75.5397 111.038 82.6488 106.176 90.3336C99.8497 100.333 98.1499 114.549 85.7534 118.841C73.5284 123.073 60.4422 114.67 48.2391 110.393C37.2592 106.544 22.7474 104.515 18.2772 95.187C13.6291 85.4886 29.58 75.3979 26.5992 65.2397C23.0152 53.0256 -4.86499 47.0851 0.742443 35.4303C6.22517 24.0346 30.8802 37.5788 43.1052 30.9328C55.315 24.295 51.3161 2.6589 65.5322 0.20772Z"/>
</symbol>
<symbol id="blob73" viewBox="0 0 120 120">
<path fill-rule="evenodd" clip-rule="evenodd" d="M67.0611 7.11189C81.6895 2.02135 102.22 -5.44308 111.995 6.10292C121.985 17.9045 101.384 33.762 102.426 48.8877C103.644 66.5514 126.267 81.6859 118.307 97.6826C109.948 114.479 86.5684 120.614 67.0611 119.952C48.0888 119.308 31.8444 107.928 19.343 94.324C7.73824 81.6958 -4.66482 64.5144 1.75574 48.8877C7.953 33.8045 32.0612 38.0377 46.1805 29.0055C55.1143 23.2906 56.9523 10.6297 67.0611 7.11189Z"/>
</symbol>
<symbol id="blob74" viewBox="0 0 120 120">
<path fill-rule="evenodd" clip-rule="evenodd" d="M59.8207 0.0593619C68.0465 -0.566195 75.8768 3.8592 82.9728 8.29612C89.7674 12.5446 94.3087 19.4518 100.028 25.2C106.549 31.7529 116.637 35.6351 119.232 44.736C121.805 53.7591 117.421 63.5633 113.357 71.9529C109.685 79.5345 102.196 83.8388 97.0959 90.4355C92.0583 96.951 90.4682 106.863 83.3868 110.716C76.3154 114.563 67.6738 109.375 59.8207 110.716C50.2373 112.351 41.5517 122.461 32.2752 119.44C23.3877 116.546 19.3849 105.263 15.5726 96.3062C12.169 88.3098 14.0422 79.044 11.5247 70.69C8.73748 61.441 -0.156736 54.3422 0.00210044 44.6378C0.160541 34.9576 5.26513 25.2236 12.3691 19.1011C19.3735 13.0644 29.769 15.0911 38.221 11.6994C45.8731 8.62869 51.6556 0.6803 59.8207 0.0593619Z"/>
</symbol>
<symbol id="blob75" viewBox="0 0 120 120">
<path fill-rule="evenodd" clip-rule="evenodd" d="M64.6973 0.335425C79.8529 -1.87455 94.6713 7.21946 105.276 16.3474C114.835 24.5761 122.073 36.3269 119.462 47.4753C117.026 57.8731 95.389 59.1273 92.8234 69.5042C89.6086 82.5072 111.549 95.055 104.723 107.089C98.5924 117.897 78.8211 122.005 64.6973 119.09C50.7562 116.213 48.1442 100.631 37.0734 93.1277C27.1705 86.4158 10.4976 87.2834 4.22257 78.1011C-2.28959 68.5718 -0.660859 56.0537 4.97505 46.1577C10.3118 36.787 24.2076 33.8969 33.4255 26.8244C44.6448 18.2163 49.5531 2.54372 64.6973 0.335425Z"/>
</symbol>
<symbol id="blob76" viewBox="0 0 120 120">
<path fill-rule="evenodd" clip-rule="evenodd" d="M60.0135 0.21371C81.1921 -1.89299 100.617 11.9234 112.649 26.3288C122.983 38.7023 120.107 54.504 117.77 69.365C115.821 81.7569 111.079 93.4589 100.654 102.593C89.8111 112.093 75.8889 120.566 60.0135 119.97C44.57 119.391 33.6986 108.755 22.9409 99.6767C12.4345 90.8105 0.844382 81.6929 0.046181 69.365C-0.783333 56.5535 9.72055 46.1303 18.7963 35.6646C30.7865 21.8381 39.4353 2.26069 60.0135 0.21371Z"/>
</symbol>
<symbol id="blob77" viewBox="0 0 120 120">
<path d="M48.5285 15.3384C40.5147 9.27426 32.5973 1.85738 23.9515 0.255832C15.3056 -1.34571 5.38703 4.54736 1.77069 18.6347C0.634388 23.3887 0.0378646 28.4926 0.0151822 33.655C-0.169468 45.8978 1.33258 58.036 4.39137 69.0193C7.45015 80.0026 11.9736 89.5003 17.5702 96.6907C26.8568 108.399 38.373 112.862 49.6257 116.08C60.1588 119.097 70.92 121.242 81.5496 119.19C92.1792 117.138 102.774 110.638 110.77 98.0745C116.036 89.818 120.162 78.2806 119.995 65.857C119.812 60.2042 118.813 54.7294 117.093 49.9568C115.373 45.1842 112.99 41.2737 110.173 38.5997C105.784 34.6036 100.333 36.4228 95.5497 35.7853C79.3511 33.5619 63.4672 26.6548 48.5285 15.3384Z"/>
</symbol>
<symbol id="blob78" viewBox="0 0 120 120">
<path d="M119.959 74.3807C121.091 103.21 98.6545 126.129 62.3605 118.529C15.2708 110.824 -19.8112 101.651 12.56 57.935C23.9508 39.9467 38.6269 23.4981 56.0777 9.16113C68.3565 -4.15276 85.2919 -2.84242 93.9348 12.3585C106.501 31.1368 118.396 53.0732 119.959 74.3807Z"/>
</symbol>
<symbol id="blob79" viewBox="0 0 120 120">
<path d="M57.3929 84.4703C40.0225 76.2452 22.7416 71.1233 9.6747 51.1029C-0.519509 34.4192 -7.66247 1.05183 14.9503 0.000762001C29.6828 -0.182759 43.8564 32.8343 57.2586 43.5952C70.6609 54.3562 85.2031 55.1403 98.9742 63.966C108.364 69.9387 132.061 115.685 112.444 119.673C92.8267 123.66 68.2242 89.9926 57.3929 84.4703Z"/>
</symbol>
<symbol id="blob8" viewBox="0 0 120 120">
<path d="M43.646 119.846C42.229 119.846 40.8216 119.9 39.4046 119.846C35.4252 119.693 31.4945 118.965 27.7503 117.688C25.4102 116.851 23.2896 115.549 21.5328 113.871C19.8844 112.339 18.7759 110.463 17.3396 108.795C17.0215 108.423 16.7805 107.979 16.4334 107.634C15.3408 106.429 14.6324 104.958 14.3899 103.391C13.9341 101.386 13.66 99.348 13.5705 97.2991C13.4097 95.7384 13.1163 94.1922 12.6933 92.6754C12.0281 89.2939 11.2377 85.9396 10.4955 82.5761C9.7532 79.2127 8.82781 75.6407 7.75781 72.2229C6.10944 66.9556 4.80809 61.6067 3.5935 56.2397C2.88017 53.0576 2.29216 49.8936 1.66559 46.639C1.31856 44.7351 1.05832 42.8222 0.817327 40.9093C0.143669 36.1017 -0.11425 31.2507 0.0461427 26.4039C0.120957 22.0518 0.974756 17.7426 2.57171 13.6573C3.51265 11.3444 4.73539 9.1418 6.21547 7.09361C7.00803 6.00392 7.91205 4.98967 8.91457 4.06553C10.2726 2.74012 11.9088 1.69468 13.7192 0.995501C15.5296 0.296322 17.4748 -0.0413106 19.4314 0.00403048C21.6341 0.0944034 23.7385 0.88733 25.3983 2.25235C27.3187 3.76672 28.8314 5.6865 29.8132 7.85511C32.0003 12.6858 33.5416 17.7531 34.4016 22.9408C35.1407 26.9781 35.8604 31.0184 36.5609 35.0618C36.8115 36.4852 36.9561 37.9266 37.1104 39.3681C37.5249 43.3934 37.8237 47.4276 38.3539 51.4347C38.7687 54.7943 39.4127 58.1253 40.2818 61.4072C40.7687 63.2265 41.5663 64.9595 42.6435 66.5385C43.044 67.0881 43.5062 67.5958 44.0219 68.0526C44.1119 68.1403 44.2197 68.2101 44.3389 68.2578C44.4582 68.3054 44.5864 68.33 44.716 68.33C44.8456 68.33 44.9738 68.3054 45.0931 68.2578C45.2123 68.2101 45.3201 68.1403 45.41 68.0526C46.0831 67.408 46.6486 66.6713 47.0873 65.8677C48.3501 63.3655 49.5454 60.8361 50.895 58.3702C52.0903 56.1762 53.4495 54.0639 54.7508 51.9153C55.1653 51.2263 55.5991 50.5645 56.0232 49.8936C57.7184 47.3301 59.724 44.9601 61.9998 42.8312C63.579 41.3303 65.3539 40.0236 67.2823 38.9421C68.2276 38.3117 69.3234 37.91 70.473 37.7725C70.6635 37.7631 70.8488 37.7102 71.0128 37.6184C72.4105 36.8024 73.8468 37.0473 75.2928 37.4552C76.7887 37.8477 78.0998 38.7038 79.0136 39.8848C80.1611 41.4278 80.8651 43.2235 81.0572 45.0977C81.4038 47.5529 81.4038 50.0404 81.0572 52.4955C80.6744 55.0689 79.9724 57.5914 78.9654 60.0112C77.6002 63.4111 76.0428 66.74 74.2999 69.9836C72.5058 73.2031 70.9501 76.5351 69.644 79.9561C69.1409 81.1981 68.8544 82.5083 68.7957 83.8362C68.7842 84.197 68.8068 84.5581 68.8632 84.9151C68.888 85.1288 68.9927 85.3272 69.1587 85.475C69.3246 85.6228 69.5411 85.7103 69.7693 85.722C70.4076 85.7812 71.0518 85.6973 71.649 85.4772C72.6594 85.1134 73.6283 84.6548 74.5409 84.1082C76.0929 83.2016 77.6737 82.2951 79.2064 81.2797C79.9583 80.8082 80.6042 80.219 81.3465 79.7385C83.843 78.149 86.4851 76.7716 89.2413 75.6226C92.4513 74.2536 95.5745 72.7125 98.7362 71.2438C100.247 70.573 101.81 70.0122 103.411 69.5665C106.064 68.7507 108.948 68.9227 111.47 70.047C112.981 70.542 114.399 71.2579 115.673 72.1684C117.601 73.8003 119.404 75.4956 119.866 78.0612C120.027 78.8904 120.043 79.7385 119.914 80.5725C119.344 84.3047 117.575 87.784 114.844 90.545C109.307 96.2729 102.831 101.13 95.6612 104.933C92.3066 106.746 88.9135 108.504 85.4529 110.018C81.2326 111.935 76.9081 113.642 72.4973 115.132C68.1851 116.507 63.7836 117.621 59.32 118.468C56.2353 119.048 53.1314 119.501 49.9985 119.792C47.8971 119.982 45.7667 119.937 43.646 120V119.846Z"/>
</symbol>
<symbol id="blob80" viewBox="0 0 120 120">
<path d="M103.542 70.4109C89.3994 59.5496 102.442 49.7622 105.713 36.7948C109.52 23.3455 106.249 15.0722 94.8425 6.28961C85.0426 -1.47432 72.0002 -2.50676 62.2147 5.7665C53.5295 13.1175 46.8269 21.1705 37.8666 27.255C16.8048 31.963 -7.86141 38.0887 2.40169 63.6794C8.38006 78.161 19.2515 81.7815 33.9296 83.8464C48.6222 86.4343 51.3004 96.7724 59.4935 107.634C73.086 127.291 114.413 123.148 119.306 97.8049C122.563 83.8601 113.863 78.1748 103.542 70.4109Z"/>
</symbol>
<symbol id="blob81" viewBox="0 0 120 120">
<path d="M97.7541 69.072C96.2141 68.35 94.674 67.6924 93.134 67.0864C94.674 66.7125 96.2141 66.3129 97.7541 65.7971C121.855 54.0772 92.2094 29.7995 70.9879 28.5231C74.222 26.1507 75.6084 22.2699 73.7604 15.862C71.8046 -6.70106 43.9916 -1.89195 29.7464 9.94397C5.98388 26.2151 23.9716 33.2806 44.2691 32.7262C30.9941 37.1357 19.6287 45.3357 14.5929 56.8493C10.6504 65.4619 16.0552 69.2138 23.9247 70.7997C22.2769 71.4443 20.6446 72.089 19.043 72.8239C-1.76273 81.4752 -9.35492 105.624 16.0863 113.785C28.9326 117.691 42.462 119.791 56.1268 120C77.3176 118.414 103.606 116.132 117.204 100.854C126.137 87.2642 112.045 74.5645 97.7541 69.072Z"/>
</symbol>
<symbol id="blob82" viewBox="0 0 120 120">
<path d="M2.08775 19.0082C2.08775 12.2068 2.6545 3.92787 7.58528 0.972782C12.5161 -1.98231 17.9947 2.35652 22.2643 6.48426L113.682 94.8086C116.894 97.9044 120.445 101.845 119.954 107.004C119.293 114.04 111.963 115.869 106.314 116.034L54.3427 117.558C42.4975 117.91 21.4708 123.937 10.8914 115.635C-6.6592 101.798 2.33334 40.9603 2.08775 19.0082Z"/>
</symbol>
<symbol id="blob83" viewBox="0 0 120 120">
<path d="M5.93991 31.2764C7.77904 22.3239 10.1277 13.4188 13.9551 7.15916C17.7825 0.899546 23.4117 -2.14758 28.0344 1.70267C29.7762 3.36814 31.32 5.69462 32.5703 8.53853C33.8206 11.3824 34.751 14.6834 35.3039 18.2375C36.3776 25.3509 36.9337 32.7104 36.9567 40.1107L37.8514 74.5031C38.0005 80.0305 38.7709 87.0224 41.5793 88.0853C42.577 88.2581 43.5765 87.7948 44.4203 86.7683C45.264 85.7418 45.904 84.2106 46.2393 82.4162C46.8611 78.7919 47.0272 74.9409 46.724 71.1725C46.3139 61.2752 45.7547 51.2835 46.6494 41.528C47.5441 31.7724 50.1413 22.0405 54.6397 17.0564C61.611 9.3087 71.0925 15.5919 76.2247 27.4498C81.3569 39.3076 83.0469 55.181 83.8795 70.4639C83.944 73.8718 84.34 77.2275 85.0476 80.3612C85.4091 81.9257 86.0021 83.2567 86.7545 84.1919C87.5068 85.1272 88.386 85.6264 89.285 85.6288C91.7703 85.2508 93.2243 79.9596 93.6841 75.259C94.3924 68.1727 94.0072 60.732 94.7155 53.622C95.4238 46.512 97.673 39.095 101.389 37.4651C102.77 37.0237 104.186 37.204 105.524 37.9916C106.862 38.7793 108.085 40.1523 109.093 42.0004C111.094 45.717 112.772 50.0145 114.064 54.7322C116.37 61.4571 118.169 68.7644 119.407 76.4401C120.451 84.2115 120.227 92.9749 117.841 99.5888C114.561 108.73 108.223 111.541 102.47 113.289C72.8649 122.237 42.7024 122.237 13.0976 113.289C3.98894 110.549 0.0124266 109.84 0 91.1088C0.00513627 70.636 2.01957 50.3448 5.93991 31.2764Z"/>
</symbol>
<symbol id="blob84" viewBox="0 0 120 120">
<path fill-rule="evenodd" clip-rule="evenodd" d="M59.5682 0.210652C72.3119 -1.3893 84.1482 6.41049 94.5667 13.9214C105.019 21.4567 115.139 30.494 118.737 42.8667C122.282 55.0569 117.642 67.6115 113.689 79.6758C109.747 91.7094 106.247 104.794 96.0082 112.245C85.7661 119.699 72.0346 121.31 59.5682 119.062C48.2953 117.03 41.2155 106.805 31.5694 100.627C21.0479 93.8892 3.99027 93.2778 0.550504 81.2668C-2.9122 69.1757 10.8698 59.3396 16.5285 48.1073C21.0784 39.0759 23.6617 29.4968 30.4209 21.9748C38.7287 12.7295 47.2353 1.75902 59.5682 0.210652Z"/>
</symbol>
<symbol id="blob85" viewBox="0 0 120 120">
<path fill-rule="evenodd" clip-rule="evenodd" d="M55.1682 2.43279C67.9426 3.80181 79.8915 6.91552 90.2814 14.7763C103.146 24.5091 118.158 34.8774 119.82 51.3469C121.57 68.6857 110.255 84.0657 98.5321 96.5106C86.6726 109.1 72.0926 120.571 55.1682 119.978C38.6081 119.398 25.2515 106.813 14.628 93.5696C5.06137 81.6436 0.58273 66.8797 0.114512 51.3469C-0.372352 35.1955 0.196189 16.8745 12 6.38699C23.4243 -3.76326 40.2306 0.831961 55.1682 2.43279Z"/>
</symbol>
<symbol id="blob86" viewBox="0 0 120 120">
<path fill-rule="evenodd" clip-rule="evenodd" d="M53.781 0.961441C70.2802 -2.77194 87.7273 4.7669 100.097 16.6644C112.883 28.9629 119.36 46.5295 119.925 64.5823C120.511 83.2764 117.916 104.846 103.199 115.709C89.2442 126.009 70.8771 114.697 53.781 113.405C38.946 112.284 22.1635 119.025 11.0923 108.748C-0.210333 98.2554 -1.4957 80.0458 1.1881 64.5823C3.48454 51.3507 15.6436 44.0795 24.089 33.8632C33.8883 22.0092 39.0526 4.29412 53.781 0.961441Z"/>
</symbol>
<symbol id="blob87" viewBox="0 0 120 120">
<path fill-rule="evenodd" clip-rule="evenodd" d="M72.164 28.8515C84.6723 18.725 95.4499 -4.48108 109.773 0.760642C122.202 5.30914 119.169 30.2731 119.933 46.3328C120.504 58.3452 117.359 69.7304 113.578 80.8104C110.563 89.6459 105.73 96.8517 100.345 103.735C95.2448 110.255 90.3047 118 83.1204 119.745C76.0991 121.451 69.9232 114.09 62.8392 112.846C54.0199 111.298 45.0051 115.52 36.6788 111.593C24.5167 105.856 10.3713 100.022 4.75814 85.4501C-0.988273 70.532 -3.23406 45.9902 7.94862 37.0076C21.9779 25.7384 40.1447 45.7843 56.7674 43.673C63.3614 42.8355 66.6117 33.3465 72.164 28.8515Z"/>
</symbol>
<symbol id="blob88" viewBox="0 0 120 120">
<path fill-rule="evenodd" clip-rule="evenodd" d="M57.2507 0.172902C73.8603 1.79116 83.8962 19.0357 95.2459 32.3446C105.939 44.8832 120.571 56.6317 119.983 73.7337C119.402 90.5938 105.382 102.764 92.4999 112.131C82.1628 119.649 69.5808 121.055 57.2507 119.353C46.609 117.883 38.5105 110.508 29.933 103.492C19.0045 94.5515 4.79058 88.1795 1.48486 73.7337C-2.42204 56.6609 1.50617 37.7808 11.7913 24.2137C22.9414 9.5055 39.8094 -1.52639 57.2507 0.172902Z"/>
</symbol>
<symbol id="blob89" viewBox="0 0 120 120">
<path fill-rule="evenodd" clip-rule="evenodd" d="M56.5329 0.00285685C72.9012 0.25396 81.4576 17.8388 92.5645 29.4159C102.938 40.2282 115.349 49.6118 118.029 64.1021C121.223 81.3684 122.117 102.526 108.176 113.817C94.482 124.907 73.7463 118.618 56.5329 113.907C44.262 110.549 37.1486 100.114 27.7523 91.8079C17.5819 82.8172 1.94062 77.2877 0.193053 64.1021C-1.64165 50.259 9.97048 38.9459 19.3342 28.2925C29.9451 16.2202 40.1077 -0.249117 56.5329 0.00285685Z"/>
</symbol>
<symbol id="blob9" viewBox="0 0 120 120">
<path d="M0.152343 61.0838C-0.329122 49.5681 9.19514 39.4301 16.9511 37.3448C23.9236 35.483 29.9682 37.6427 35.1592 42.707C36.2621 43.8271 37.4317 44.8704 38.6608 45.8304C43.3354 49.3354 45.7646 47.9762 47.7124 41.9949C48.9598 38.1594 47.8699 34.445 46.837 30.8748C44.7842 23.7717 44.8279 16.7338 47.7124 10.0822C50.0146 4.81311 53.8401 0.968321 59.7227 0.12582C66.7696 -0.888905 74.136 4.35696 75.3353 11.4275C75.8343 14.3739 74.6044 17.0457 74.1798 19.8432C73.7771 22.4917 73.3044 25.1262 73.5802 27.8353C73.8734 30.8189 75.4798 31.843 78.0534 30.6281C80.2186 29.5149 82.1738 27.9893 83.8222 26.127C90.9173 18.5538 99.2248 17.8882 107.926 21.7935C114.264 24.6421 115.214 31.8895 110.469 36.7677C108.158 39.1416 105.151 40.1609 102.42 41.7202C101.011 42.5255 99.5268 43.1865 98.1524 44.0476C94.1431 46.5844 93.6179 50.8109 96.6817 54.7208C100.004 58.9566 104.731 60.3903 109.349 62.0287C113.966 63.6672 117.853 66.055 119.416 71.3614C121.267 77.608 118.54 82.3977 113.756 85.0835C107.379 88.6629 100.442 88.6071 93.5216 87.6948C90.5078 87.2152 87.4571 87.0499 84.4131 87.2013C80.8547 87.476 79.2439 90.562 77.8214 93.5923C75.935 97.6093 75.1953 102.11 73.3482 106.123C71.0415 111.103 68.8137 116.158 63.4431 118.509C56.1424 121.702 45.2131 120.157 41.6109 110.047C40.1008 105.802 40.5035 101.389 41.5452 97.0414C42.832 91.6512 45.0205 86.559 46.1673 81.099C47.0427 76.9331 45.5676 73.6515 42.1974 72.5251C41.4256 72.318 40.6186 72.3085 39.8426 72.4971C34.6428 73.335 29.8806 75.8299 24.7377 76.9005C20.3608 77.8314 15.9838 78.2085 11.5587 77.2682C4.39361 75.7601 -0.985666 69.6857 0.152343 61.0838ZM78.6399 58.8542C79.3534 53.1569 75.0464 49.5448 71.9301 48.9211C65.4522 47.6178 59.6746 50.9878 57.1009 57.4392C54.768 63.2855 57.4992 68.6105 61.8806 70.6167C69.8948 74.2334 79.2396 65.7013 78.6399 58.8402V58.8542Z"/>
</symbol>
<symbol id="blob91" viewBox="0 0 120 120">
<path d="M29.1959 57.3598C29.5367 56.6667 29.7106 55.8933 29.7016 55.11C29.6927 54.3267 29.5013 53.5581 29.1447 52.8741C28.3783 51.0655 27.4826 49.3231 26.4654 47.6624C24.9116 45.1902 23.1978 42.8686 21.5353 40.4374C19.4226 37.3463 18.0185 33.7663 17.4364 29.9867C16.7789 25.8139 17.6632 21.5308 19.9022 18.0439C22.1411 14.557 25.559 12.14 29.4325 11.3042C34.548 10.1948 39.0242 11.6056 42.5859 15.5776C44.2591 17.4053 45.6782 19.4811 46.7999 21.7412C48.6415 25.5558 50.1058 29.5826 51.7428 33.5136C52.427 35.1436 52.7851 36.9926 54.6395 38.3691C54.9144 36.8145 55.183 35.4996 55.3685 34.1711C55.8672 30.651 56.1038 27.0624 56.8584 23.6108C59.3011 12.4274 65.4142 4.55854 75.8436 1.23021C83.5617 -1.23522 90.8898 -0.0915524 97.2779 5.53784C102.573 10.2153 104.312 17.1254 101.652 23.9053C100.636 26.422 99.3179 28.7863 97.7319 30.9386C93.4923 36.8488 88.1402 41.4783 82.3851 45.5874C80.2622 47.1009 78.2479 48.7924 76.2528 50.484C75.1057 51.4795 74.2235 52.781 73.695 54.2575C74.9312 54.0387 76.1546 53.7437 77.3591 53.374C80.3431 52.2326 83.3081 51.0319 86.2538 49.7718C91.4397 47.5666 96.6768 45.5737 102.24 44.8272C107.4 44.1424 112.1 45.245 116.097 48.9774C119.614 52.2578 120.886 57.2434 119.371 61.5853C118.389 64.2359 116.529 66.4059 114.146 67.6804C110.928 69.5069 107.467 70.7912 103.883 71.4881C97.2587 72.9194 90.5317 73.296 83.7983 73.4673C80.7801 73.5426 77.7555 73.5221 74.7437 73.6248C73.5821 73.6401 72.4275 73.8197 71.3099 74.159C69.513 74.7548 69.1102 76.4121 70.485 77.7681C71.4725 78.6889 72.602 79.4188 73.8229 79.9253C75.6837 80.7335 77.6596 81.1923 79.5332 81.9799C82.5081 83.1473 85.4181 84.4964 88.2489 86.0204C93.7161 89.1707 97.6168 93.8276 99.177 100.443C100.782 107.237 98.2434 113.811 92.5332 117.208C87.4176 120.262 81.9695 120.735 76.3615 118.996C69.5386 116.879 63.9562 112.702 59.3458 106.997C57.3188 104.491 55.5091 101.785 53.4118 99.3474C51.3144 96.9094 49.0699 94.6426 46.7679 92.4442C45.8539 91.6796 44.8214 91.0932 43.7177 90.7116C42.8926 90.3441 41.9905 90.2201 41.1055 90.3526C40.2204 90.4851 39.3847 90.8692 38.6853 91.4649C35.6259 93.8801 32.9635 96.8241 30.8073 100.176C28.5223 103.724 26.199 107.244 23.8373 110.736C22.5088 112.792 20.7391 114.476 18.677 115.647C14.4566 117.927 10.6902 115.879 9.86536 110.887C9.49906 108.915 9.75786 106.869 10.6007 105.073C11.8796 102.422 13.2544 99.8405 14.7188 97.3066C15.9337 95.1973 17.3853 93.2455 18.6258 91.143C18.9915 90.4369 19.183 89.6426 19.1821 88.8351C19.2036 87.378 18.9419 85.9321 18.4135 84.5892C17.885 83.2463 17.1016 82.0359 16.1128 81.0348C13.4527 78.1379 10.6839 75.3574 8.03654 72.4537C6.06186 70.3578 4.1941 68.1494 2.44137 65.8382C0.788107 63.6024 -0.0747347 60.8132 0.00508005 57.9625C0.145759 51.5387 5.34447 46.9228 11.189 48.3336C13.191 48.9346 15.1123 49.8093 16.9057 50.936C19.7129 52.518 22.3858 54.3602 25.2185 55.9353C26.5061 56.5248 27.8362 57.0012 29.1959 57.3598Z"/>
</symbol>
<symbol id="blob92" viewBox="0 0 120 120">
<path d="M49.9293 137.996C41.7995 141.832 32.5523 141.705 23.2098 140.428C22.8045 140.397 22.4076 140.291 22.0377 140.114C20.6694 139.371 18.4659 138.839 18.1565 137.736C17.5415 135.541 20.1091 135.489 21.3755 134.723C28.7202 130.303 33.1868 123.847 33.6156 114.984C34.0177 106.532 33.8959 98.041 33.7534 89.5644C33.6658 84.3814 34.2307 83.957 39.0144 85.4373C42.4818 86.5458 46.0582 87.2365 49.6746 87.4957C54.0536 87.7608 57.2492 85.1321 58.6848 80.9423C59.8277 77.6249 60.4816 74.144 60.6241 70.6198C60.8091 65.2617 60.2974 59.8818 60.151 54.5065C60.0124 52.1067 60.0515 49.6993 60.2679 47.3059C60.7019 43.7968 62.7393 42.744 65.7211 44.2186C72.3608 47.5055 79.0853 45.9872 83.0618 39.573C85.292 36.0263 86.8617 32.0686 87.6877 27.9092C88.8236 21.7018 89.0693 15.2968 89.4399 8.95922C89.5914 6.3319 89.3864 3.4623 91.9626 2.32283C94.7367 1.08956 97.0294 3.26258 98.5097 5.33619C100.368 7.92983 101.838 10.8054 102.869 13.8636C105.391 21.509 106.703 29.5357 106.754 37.6254C107.172 73.0076 94.4298 102.394 69.8744 126.296C64.3508 131.665 57.8355 135.349 49.9293 137.996Z"/>
</symbol>
<symbol id="blob93" viewBox="0 0 120 120">
<path d="M0.133098 53.9841C-0.0608058 45.3342 -0.0180764 36.6972 0.261277 28.0733C0.335223 25.7768 0.443674 23.3829 1.28173 21.3653C2.9332 17.3886 6.80306 16.13 10.2391 15.9354C14.4984 15.6889 19.0634 16.5841 22.2677 20.3144C28.4743 27.4895 27.8186 42.7284 35.3612 47.1658C40.6311 50.2668 47.1926 45.1741 49.0807 37.9861C50.604 32.1085 49.6328 25.66 50.2293 19.484C50.8258 13.308 54.2175 6.50916 58.9106 7.1579C62.3615 7.63148 64.7721 11.991 65.6299 16.383C66.4877 20.775 66.2116 25.4135 66.7046 29.9028C67.6511 38.4921 72.3639 47.1073 78.9353 47.8404C83.727 48.3789 88.3659 44.5254 91.0527 39.2771C93.7394 34.0288 94.7549 27.5997 95.1148 21.281C95.3564 17.0382 95.3416 12.6981 96.3669 8.66295C97.3923 4.62778 99.7488 0.878112 102.938 0.125573C106.453 -0.672379 109.84 2.44807 111.984 6.21077C115.583 12.5684 116.702 20.7036 117.688 28.521C119.059 39.4133 120.365 50.4225 119.907 61.4446C119.448 72.4667 117.082 83.651 111.807 92.2403C106.961 100.122 100.03 105.293 92.9703 109.354C76.9289 118.579 58.812 122.978 41.7501 117.788C24.6882 112.598 9.0116 96.8333 3.40646 75.0097C1.33596 66.9394 0.660588 58.3825 0 49.9099"/>
</symbol>
<symbol id="blob94" viewBox="0 0 120 120">
<path d="M43.646 119.846C42.229 119.846 40.8216 119.9 39.4046 119.846C35.4252 119.693 31.4945 118.965 27.7503 117.688C25.4102 116.851 23.2896 115.549 21.5328 113.871C19.8844 112.339 18.7759 110.463 17.3396 108.795C17.0215 108.423 16.7805 107.979 16.4334 107.634C15.3408 106.429 14.6324 104.958 14.3899 103.391C13.9341 101.386 13.66 99.348 13.5705 97.2991C13.4097 95.7384 13.1163 94.1922 12.6933 92.6754C12.0281 89.2939 11.2377 85.9396 10.4955 82.5761C9.7532 79.2127 8.82781 75.6407 7.75781 72.2229C6.10944 66.9556 4.80809 61.6067 3.5935 56.2397C2.88017 53.0576 2.29216 49.8936 1.66559 46.639C1.31856 44.7351 1.05832 42.8222 0.817327 40.9093C0.143669 36.1017 -0.11425 31.2507 0.0461427 26.4039C0.120957 22.0518 0.974756 17.7426 2.57171 13.6573C3.51265 11.3444 4.73539 9.1418 6.21547 7.09361C7.00803 6.00392 7.91205 4.98967 8.91457 4.06553C10.2726 2.74012 11.9088 1.69468 13.7192 0.995501C15.5296 0.296322 17.4748 -0.0413106 19.4314 0.00403048C21.6341 0.0944034 23.7385 0.88733 25.3983 2.25235C27.3187 3.76672 28.8314 5.6865 29.8132 7.85511C32.0003 12.6858 33.5416 17.7531 34.4016 22.9408C35.1407 26.9781 35.8604 31.0184 36.5609 35.0618C36.8115 36.4852 36.9561 37.9266 37.1104 39.3681C37.5249 43.3934 37.8237 47.4276 38.3539 51.4347C38.7687 54.7943 39.4127 58.1253 40.2818 61.4072C40.7687 63.2265 41.5663 64.9595 42.6435 66.5385C43.044 67.0881 43.5062 67.5958 44.0219 68.0526C44.1119 68.1403 44.2197 68.2101 44.3389 68.2578C44.4582 68.3054 44.5864 68.33 44.716 68.33C44.8456 68.33 44.9738 68.3054 45.0931 68.2578C45.2123 68.2101 45.3201 68.1403 45.41 68.0526C46.0831 67.408 46.6486 66.6713 47.0873 65.8677C48.3501 63.3655 49.5454 60.8361 50.895 58.3702C52.0903 56.1762 53.4495 54.0639 54.7508 51.9153C55.1653 51.2263 55.5991 50.5645 56.0232 49.8936C57.7184 47.3301 59.724 44.9601 61.9998 42.8312C63.579 41.3303 65.3539 40.0236 67.2823 38.9421C68.2276 38.3117 69.3234 37.91 70.473 37.7725C70.6635 37.7631 70.8488 37.7102 71.0128 37.6184C72.4105 36.8024 73.8468 37.0473 75.2928 37.4552C76.7887 37.8477 78.0998 38.7038 79.0136 39.8848C80.1611 41.4278 80.8651 43.2235 81.0572 45.0977C81.4038 47.5529 81.4038 50.0404 81.0572 52.4955C80.6744 55.0689 79.9724 57.5914 78.9654 60.0112C77.6002 63.4111 76.0428 66.74 74.2999 69.9836C72.5058 73.2031 70.9501 76.5351 69.644 79.9561C69.1409 81.1981 68.8544 82.5083 68.7957 83.8362C68.7842 84.197 68.8068 84.5581 68.8632 84.9151C68.888 85.1288 68.9927 85.3272 69.1587 85.475C69.3246 85.6228 69.5411 85.7103 69.7693 85.722C70.4076 85.7812 71.0518 85.6973 71.649 85.4772C72.6594 85.1134 73.6283 84.6548 74.5409 84.1082C76.0929 83.2016 77.6737 82.2951 79.2064 81.2797C79.9583 80.8082 80.6042 80.219 81.3465 79.7385C83.843 78.149 86.4851 76.7716 89.2413 75.6226C92.4513 74.2536 95.5745 72.7125 98.7362 71.2438C100.247 70.573 101.81 70.0122 103.411 69.5665C106.064 68.7507 108.948 68.9227 111.47 70.047C112.981 70.542 114.399 71.2579 115.673 72.1684C117.601 73.8003 119.404 75.4956 119.866 78.0612C120.027 78.8904 120.043 79.7385 119.914 80.5725C119.344 84.3047 117.575 87.784 114.844 90.545C109.307 96.2729 102.831 101.13 95.6612 104.933C92.3066 106.746 88.9135 108.504 85.4529 110.018C81.2326 111.935 76.9081 113.642 72.4973 115.132C68.1851 116.507 63.7836 117.621 59.32 118.468C56.2353 119.048 53.1314 119.501 49.9985 119.792C47.8971 119.982 45.7667 119.937 43.646 120V119.846Z"/>
</symbol>
<symbol id="blob95" viewBox="0 0 120 120">
<path d="M118.64 49.8554C115.751 36.6433 107.858 30.7967 101.531 35.5255C98.3731 37.9674 95.6076 42.3797 93.5735 48.2219C93.3252 48.8917 92.9908 49.3817 92.6139 49.628C92.237 49.8742 91.8351 49.8652 91.4605 49.6023C91.0859 49.3393 90.7561 48.8346 90.514 48.1538C90.2719 47.473 90.1289 46.6478 90.1034 45.7858C90.0745 39.2669 89.5225 32.8103 88.4727 26.7127C87.3724 20.7203 85.6725 15.3484 83.499 10.995C81.3254 6.64168 78.734 3.41839 75.9164 1.56388C73.0849 -0.192692 70.1059 -0.473925 67.2162 0.742516C64.3265 1.95896 61.6058 4.63946 59.2704 8.5711C53.563 18.4014 51.2213 33.9779 50.0212 50.1277C49.9329 51.0251 49.7162 51.837 49.4027 52.4443C49.0893 53.0516 48.6955 53.4225 48.2792 53.5026C47.8628 53.5827 47.4457 53.3677 47.089 52.8894C46.7323 52.411 46.4546 51.6943 46.2967 50.8442L44.8421 41.7591C43.1201 31.0547 40.9741 19.2755 36.2777 14.5324C29.9637 8.14126 22.28 18.9746 19.6643 33.1612C17.5575 44.625 17.8184 57.2066 18.562 69.5876C18.6017 70.3614 18.5449 71.1444 18.3978 71.8529C18.2507 72.5614 18.0187 73.1688 17.7267 73.6102C17.4347 74.0516 17.0935 74.3104 16.7398 74.3591C16.386 74.4078 16.0329 74.2445 15.7181 73.8866C13.109 70.7627 10.389 68.4413 7.28416 68.8138C6.11517 68.9231 4.9722 69.6067 3.93934 70.8145C2.90648 72.0222 2.01002 73.7232 1.31587 75.7925C-2.92391 88.9473 4.05542 104.28 8.49089 111.875C13.3829 120.301 18.5881 119.986 24.6151 120C43.7332 120 62.8579 119.269 81.963 117.922C86.4246 117.621 90.9188 118.18 95.3803 118.209C98.4395 118.209 101.499 118.209 104.558 117.98C108.093 117.722 110.637 115.572 112.535 112.09C116.051 105.627 117.375 94.6219 118.764 82.6278C119.997 71.7228 120.832 59.872 118.64 49.8554ZM79.6148 95.8542C73.0203 99.4224 66.1584 99.666 59.3943 99.8953C52.9368 100.11 46.4532 100.325 40.0675 98.2903C38.0519 97.6455 35.5537 95.5246 35.5994 91.0537C35.6476 89.4373 35.9576 87.9122 36.4734 86.7547C37.8236 83.4159 39.9109 82.0689 41.9069 81.2521C47.3794 79.0597 52.9955 79.8192 58.5529 79.4752C62.798 79.2433 67.0316 78.4008 71.2266 76.9532C73.6661 76.1077 76.51 74.0012 79.0017 74.9613C81.0759 75.7638 83.4371 79.7045 84.1351 84.2328C85.1526 90.9535 82.1848 94.4786 79.6148 95.8542Z"/>
</symbol>
<symbol id="blob96" viewBox="0 0 120 120">
<path d="M65.2585 59.5639C57.6401 52.2945 53.3166 41.4785 47.2791 32.4152C41.2415 23.3519 31.6315 15.5399 22.0758 18.5007C13.773 21.113 8.59574 31.6404 8.68182 41.677C8.7679 51.7136 13.0865 61.0985 18.5113 68.8551C28.5163 83.275 42.2523 93.5335 57.668 98.0988C73.0837 102.664 89.3519 101.291 104.043 94.185C109.499 91.5369 114.95 87.8379 117.849 81.8388C120.748 75.8398 120.107 67.0318 115.069 63.42C107.427 57.7238 99.3305 65.2363 91.8713 66.9536C87.2409 68.0324 82.4651 67.9305 77.8716 66.655C73.2781 65.3795 68.9754 62.9605 65.2585 59.5639Z"/>
</symbol>
<symbol id="blob98" viewBox="0 0 120 120">
<path d="M43.6661 12.3556C44.4845 7.65765 45.8667 2.17358 50.195 0.432907C54.5234 -1.30777 59.9246 2.45434 61.5796 7.18973C63.2345 11.9251 62.4343 17.1471 61.7978 22.1633C61.1613 27.1794 60.7612 32.5325 63.1254 36.9309C66.9082 43.9685 76.0559 45.6718 83.8214 44.7733C91.587 43.8749 99.3343 41.2358 107.027 42.6396C114.72 44.0434 122.14 51.9045 119.43 59.4849C116.902 66.5412 107.991 68.0947 100.68 68.1695C93.3692 68.2444 84.658 68.731 80.9116 75.1884C78.1473 79.9238 79.4022 86.0629 81.6027 91.0978C83.8032 96.1326 86.8767 100.905 87.7132 106.371C88.5498 111.836 86.1856 118.425 80.9662 119.753C74.9647 121.307 69.6907 115.243 67.3265 109.347C64.9622 103.451 63.4892 96.6193 58.4334 92.932C52.1773 88.3838 43.3751 91.0603 36.8645 95.1781C30.3538 99.2958 24.5342 105.098 17.0778 106.951C9.62142 108.804 -0.108208 104.256 0.000909711 96.376C0.110027 89.3945 7.27542 85.1458 13.6406 82.5441C20.0058 79.9425 27.3348 76.5734 28.5533 69.7043C29.8627 62.3486 23.2612 56.303 17.4597 51.8109C11.6583 47.3188 5.29311 40.7679 7.27542 33.5619C9.38502 25.9441 20.0058 24.2034 26.5347 28.5458C31.1358 31.6341 33.9365 36.7251 36.628 41.423C42.3931 35.5646 42.2476 20.6285 43.6661 12.3556Z"/>
</symbol>
<symbol id="blob99" viewBox="0 0 120 120">
<path d="M0.174733 81.3723C-0.371945 76.4821 0.370553 71.5206 2.31216 67.0907C4.25376 62.6609 7.31081 58.9535 11.1118 56.419C18.2578 51.8245 27.7544 51.5506 33.2893 44.7432C38.2555 38.6524 38.2555 29.5689 38.8431 21.3916C39.4307 13.2143 41.8001 3.77255 48.6998 0.82199C55.5994 -2.12857 63.3711 3.41427 69.3419 8.72528L108.086 43.2679C115.1 49.5905 122.89 59.1588 118.928 68.1369C115.801 75.2393 107.385 76.5671 101.414 80.7822C91.6521 87.8003 88.9036 102.553 80.4117 111.384C72.2231 119.814 59.6938 121.584 48.7567 118.739C33.858 114.903 2.61994 100.804 0.174733 81.3723Z"/>
</symbol>
</svg>
