<svg width="80" height="80" viewBox="0 0 80 80" fill="none" xmlns="http://www.w3.org/2000/svg">
<path d="M15.8017 8.33174C10.7012 12.0949 6.57469 17.2105 3.81527 23.1917C1.05586 29.1729 -0.244581 35.8201 0.0378951 42.5003C0.0971024 49.6864 2.03042 56.7078 5.61472 62.7538C9.19902 68.7999 14.2879 73.624 20.2942 76.6691C25.3418 78.6978 30.6747 79.767 36.0579 79.8296C43.0884 80.44 50.1578 79.406 56.7873 76.7973C61.5128 74.4364 65.7603 71.0847 69.2843 66.9355C72.8084 62.7863 75.5393 57.9218 77.3197 52.6227C78.9873 48.3163 79.8962 43.7096 79.9995 39.0407C80.1571 1.96755 42.5607 -9.6923 15.8017 8.33174Z" fill="#A9D8D8"/>
<path d="M29.333 50V30C29.333 29.116 29.6842 28.2681 30.3093 27.643C30.9344 27.0179 31.7823 26.6667 32.6663 26.6667H50.6663V53.3334H32.6663C31.7823 53.3334 30.9344 52.9822 30.3093 52.357C29.6842 51.7319 29.333 50.8841 29.333 50ZM29.333 50C29.333 49.116 29.6842 48.2681 30.3093 47.643C30.9344 47.0179 31.7823 46.6667 32.6663 46.6667H50.6663M45.333 34.9334C45.333 33.3334 43.9997 32 42.3997 32C41.333 32 40.533 32.4 39.9997 33.2C39.4663 32.4 38.6663 32 37.5997 32C35.9997 32 34.6663 33.3334 34.6663 34.9334C34.6663 35.7334 35.0663 36.5334 35.5997 37.0667C37.333 38.8 39.9997 41.3334 39.9997 41.3334C39.9997 41.3334 42.6663 38.8 44.3997 37.2C44.933 36.6667 45.333 35.8667 45.333 34.9334Z" stroke="#202020" stroke-width="1.5" stroke-linecap="round" stroke-linejoin="round"/>
</svg>
