<svg width="32" height="32" viewBox="0 0 32 32" fill="none" xmlns="http://www.w3.org/2000/svg">
<path d="M5.33301 26V6.00001C5.33301 5.11595 5.6842 4.2681 6.30932 3.64298C6.93444 3.01786 7.78229 2.66667 8.66634 2.66667H26.6663V29.3333H8.66634C7.78229 29.3333 6.93444 28.9821 6.30932 28.357C5.6842 27.7319 5.33301 26.8841 5.33301 26ZM5.33301 26C5.33301 25.116 5.6842 24.2681 6.30932 23.643C6.93444 23.0179 7.78229 22.6667 8.66634 22.6667H26.6663M21.333 10.9333C21.333 9.33334 19.9997 8.00001 18.3997 8.00001C17.333 8.00001 16.533 8.40001 15.9997 9.20001C15.4663 8.40001 14.6663 8.00001 13.5997 8.00001C11.9997 8.00001 10.6663 9.33334 10.6663 10.9333C10.6663 11.7333 11.0663 12.5333 11.5997 13.0667C13.333 14.8 15.9997 17.3333 15.9997 17.3333C15.9997 17.3333 18.6663 14.8 20.3997 13.2C20.933 12.6667 21.333 11.8667 21.333 10.9333Z" stroke="#202020" stroke-width="1.5" stroke-linecap="round" stroke-linejoin="round"/>
</svg>
