<svg width="48" height="48" fill="none" xmlns="http://www.w3.org/2000/svg"><path d="M9.481 4.999c-3.06 2.258-5.536 5.327-7.192 8.916A25.168 25.168 0 0 0 .023 25.5c.035 4.312 1.195 8.525 3.346 12.152 2.15 3.628 5.204 6.522 8.808 8.35a26.153 26.153 0 0 0 9.458 1.896c4.218.366 8.46-.254 12.437-1.82 2.836-1.416 5.384-3.427 7.499-5.917a26.097 26.097 0 0 0 4.82-8.587c1.001-2.584 1.547-5.348 1.609-8.15C48.094 1.181 25.536-5.816 9.48 5z" fill="#A9D8D8"/><path d="M13.333 24h21.333m-21.333-8h21.333M13.333 32h21.333" stroke="#235753" stroke-width="2" stroke-linecap="round" stroke-linejoin="round"/></svg>