<svg xmlns="http://www.w3.org/2000/svg" width="32" height="32" viewBox="0 0 32 32" fill="none">
    <path d="M10.6665 8V16M19.9998 8V16M2.6665 16H28.7998M23.9998 24H27.9998C27.9998 24 28.6665 21.7333 29.0665 20.2667C29.1998 19.7333 29.3332 19.2 29.3332 18.6667C29.3332 18.1333 29.1998 17.6 29.0665 17.0667L27.1998 10.4C26.7998 9.06667 25.4665 8 23.9998 8H5.33317C4.62593 8 3.94765 8.28095 3.44755 8.78105C2.94746 9.28115 2.6665 9.95942 2.6665 10.6667V24H6.6665M23.9998 24C23.9998 25.4728 22.8059 26.6667 21.3332 26.6667C19.8604 26.6667 18.6665 25.4728 18.6665 24M23.9998 24C23.9998 22.5272 22.8059 21.3333 21.3332 21.3333C19.8604 21.3333 18.6665 22.5272 18.6665 24M6.6665 24C6.6665 25.4728 7.86041 26.6667 9.33317 26.6667C10.8059 26.6667 11.9998 25.4728 11.9998 24M6.6665 24C6.6665 22.5272 7.86041 21.3333 9.33317 21.3333C10.8059 21.3333 11.9998 22.5272 11.9998 24M11.9998 24H18.6665" stroke="#235753" stroke-width="2" stroke-linecap="round" stroke-linejoin="round"/>
</svg>