<svg fill="none" height="80" width="80" xmlns="http://www.w3.org/2000/svg"><path d="M15.802 8.332c-5.1 3.763-9.227 8.878-11.987 14.86C1.055 29.172-.245 35.82.038 42.5c.06 7.186 1.992 14.208 5.577 20.254 3.584 6.046 8.673 10.87 14.68 13.915a43.59 43.59 0 0 0 15.763 3.16c7.03.611 14.1-.423 20.73-3.032 4.725-2.36 8.972-5.712 12.496-9.861 3.524-4.15 6.255-9.014 8.036-14.313A40.107 40.107 0 0 0 80 39.04C80.156 1.968 42.56-9.692 15.802 8.33z" fill="#fff"/><g stroke="#235753" stroke-width="2"><rect height="3.637" rx="1.819" transform="rotate(45 26.821 36.172)" width="6.894" x="26.821" y="36.172"/><rect height="3.637" rx="1.819" transform="rotate(45 28.153 32.278)" width="10.334" x="28.153" y="32.278"/><rect height="3.637" rx="1.819" transform="rotate(45 30.705 29.633)" width="12.527" x="30.705" y="29.633"/><path d="M33.422 27.847c-1.019-.127-1.505.314-1.505.314l-.046.047a1.863 1.863 0 0 0 0 2.635l5.223 5.223a1.929 1.929 0 1 0 2.728-2.728l-2.896-2.896"/><path d="M53.796 39.956l.562-.563a2.134 2.134 0 0 0-3.018-3.017l-.649.65" stroke-linecap="round"/><path d="M50.668 37.077l.563-.563a2.134 2.134 0 1 0-3.018-3.018l-.65.65m.047-.127l.563-.563a2.134 2.134 0 1 0-3.018-3.017l-.65.65" stroke-linecap="round"/><path d="M44.554 31.09l.562-.564a2.134 2.134 0 0 0-3.018-3.018l-.65.65M25 45l2-2m16.742 11.41l-4.969-4.969M54.868 47l-4-4" stroke-linecap="round"/></g><path d="M32.397 53.703a1 1 0 0 0 1.415 1.414zm5.676-4.262l.707.707.04-.039.034-.043zm2.42-1.083l.077.998.028-.003.028-.003-.132-.992zm7.836-2.866l.63.777.042-.035.038-.039zM33.105 54.41l.707.707 4.968-4.968-.707-.708-.707-.707-4.969 4.969zm4.968-4.969l.78.625c.087-.108.676-.63 1.717-.71l-.076-.998-.077-.996c-1.608.123-2.702.926-3.125 1.455zm2.42-1.083l.133.992c.835-.112 2.261-.36 3.793-.832 1.518-.468 3.218-1.178 4.54-2.25l-.63-.776-.63-.777c-1.035.84-2.457 1.457-3.869 1.892-1.398.43-2.71.66-3.468.76l.132.992zm7.836-2.866l.71.703 6.052-6.115-.71-.703-.712-.704-6.051 6.116.71.703z" fill="#235753"/><path d="M33.826 26.701c-.663 0-.7.51-.637.765.19.785.968 2.433 2.548 2.739 1.974.382 2.293.318 2.739.318s1.019.064 1.847-.892c.453-.522 1.01-1.273 1.434-1.865.317-.443.498-1.065.015-1.316-.936-.486-3.003-.45-3.487-.45-.637 0-1.147.128-1.784.447-.637.318-1.847.254-2.675.254z" stroke="#235753" stroke-width="2"/></svg>