<svg width="32" height="32" viewBox="0 0 32 32" fill="none" xmlns="http://www.w3.org/2000/svg">
<rect x="2.82129" y="12.172" width="6.89373" height="3.63723" rx="1.81862" transform="rotate(45 2.82129 12.172)" stroke="#235753" stroke-width="2"/>
<rect x="4.15332" y="8.27844" width="10.3339" height="3.63723" rx="1.81862" transform="rotate(45 4.15332 8.27844)" stroke="#235753" stroke-width="2"/>
<rect x="6.70508" y="5.63293" width="12.527" height="3.63723" rx="1.81862" transform="rotate(45 6.70508 5.63293)" stroke="#235753" stroke-width="2"/>
<path d="M9.42226 3.8473C8.40302 3.7199 7.9173 4.1611 7.9173 4.1611L7.87081 4.20759C7.1432 4.9352 7.14319 6.1149 7.87081 6.84251L13.0942 12.0659C13.8475 12.8192 15.0688 12.8192 15.8221 12.0659V12.0659C16.5754 11.3126 16.5754 10.0913 15.8221 9.33797L12.9257 6.44158" stroke="#235753" stroke-width="2"/>
<path d="M29.7958 15.9561L30.3584 15.3934C31.1917 14.5602 31.1917 13.2091 30.3584 12.3759V12.3759C29.5251 11.5426 28.1741 11.5426 27.3408 12.3759L26.691 13.0257" stroke="#235753" stroke-width="2" stroke-linecap="round"/>
<path d="M26.6678 13.0768L27.2305 12.5141C28.0637 11.6808 28.0637 10.3298 27.2305 9.49655V9.49655C26.3972 8.66327 25.0462 8.66327 24.2129 9.49655L23.5631 10.1464" stroke="#235753" stroke-width="2" stroke-linecap="round"/>
<path d="M23.6102 10.0192L24.1728 9.45655C25.0061 8.62326 25.0061 7.27224 24.1728 6.43896V6.43896C23.3396 5.60568 21.9885 5.60568 21.1553 6.43896L20.5054 7.08879" stroke="#235753" stroke-width="2" stroke-linecap="round"/>
<path d="M20.5536 7.08903L21.1162 6.5264C21.9495 5.69312 21.9495 4.3421 21.1162 3.50882V3.50882C20.2829 2.67553 18.9319 2.67553 18.0986 3.50882L17.4488 4.15865" stroke="#235753" stroke-width="2" stroke-linecap="round"/>
<path d="M0.999512 21L2.99951 19" stroke="#235753" stroke-width="2" stroke-linecap="round"/>
<path d="M19.742 30.4099L14.7734 25.4414" stroke="#235753" stroke-width="2" stroke-linecap="round"/>
<path d="M30.8682 23L26.8682 19" stroke="#235753" stroke-width="2" stroke-linecap="round"/>
<path d="M8.39739 29.7028C8.00686 30.0934 8.00686 30.7265 8.39739 31.1171C8.78791 31.5076 9.42107 31.5076 9.8116 31.1171L8.39739 29.7028ZM14.073 25.4414L14.7802 26.1485L14.8193 26.1093L14.8539 26.0661L14.073 25.4414ZM16.4936 24.3585L16.5703 25.3556L16.5981 25.3534L16.6258 25.3497L16.4936 24.3585ZM24.3287 21.492L24.9585 22.2688L25.001 22.2343L25.0395 22.1954L24.3287 21.492ZM9.10449 30.41L9.8116 31.1171L14.7802 26.1485L14.073 25.4414L13.3659 24.7343L8.39739 29.7028L9.10449 30.41ZM14.073 25.4414L14.8539 26.0661C14.9402 25.9582 15.5287 25.4357 16.5703 25.3556L16.4936 24.3585L16.4169 23.3615C14.8087 23.4852 13.7155 24.2876 13.2922 24.8167L14.073 25.4414ZM16.4936 24.3585L16.6258 25.3497C17.4606 25.2384 18.887 24.9897 20.4188 24.518C21.9374 24.0503 23.6369 23.3403 24.9585 22.2688L24.3287 21.492L23.6989 20.7153C22.6635 21.5548 21.2417 22.1718 19.8302 22.6066C18.4318 23.0372 17.1191 23.2663 16.3615 23.3673L16.4936 24.3585ZM24.3287 21.492L25.0395 22.1954L31.0909 16.0803L30.3801 15.3769L29.6693 14.6735L23.6179 20.7886L24.3287 21.492Z" fill="#235753"/>
<path d="M9.82581 2.70133C9.16334 2.70133 9.12512 3.21093 9.18882 3.46572C9.3799 4.25135 10.157 5.89904 11.7367 6.2048C13.7114 6.587 14.0299 6.5233 14.4758 6.5233C14.9217 6.5233 15.495 6.587 16.3231 5.6315C16.7759 5.10904 17.3339 4.35842 17.7569 3.76612C18.0737 3.32263 18.2554 2.70125 17.7718 2.44995C16.8363 1.96382 14.769 2.00064 14.2847 2.00064C13.6477 2.00064 13.1381 2.12804 12.5011 2.44653C11.8641 2.76503 10.6539 2.70133 9.82581 2.70133Z" stroke="#235753" stroke-width="2"/>
</svg>
