<svg width="32" height="32" viewBox="0 0 32 32" fill="none" xmlns="http://www.w3.org/2000/svg">
<path d="M16 30C12.2537 30 8.74074 28.5481 6.0963 25.9037C3.45185 23.2593 2 19.7463 2 16C2 12.2537 3.45185 8.74074 6.0963 6.0963C8.74074 3.45185 12.2537 2 16 2C19.7463 2 23.2593 3.45185 25.9037 6.0963C28.5481 8.74074 30 12.2537 30 16C30 19.7463 28.5481 23.2593 25.9037 25.9037C23.2593 28.5481 19.7463 30 16 30Z" stroke="#235753" stroke-width="2" stroke-miterlimit="10"/>
<path d="M16 6.18173V16.048H22.7575" stroke="#235753" stroke-width="2" stroke-linecap="round" stroke-linejoin="round"/>
<path d="M6.14461 16H5.46045" stroke="#235753" stroke-width="2" stroke-miterlimit="10" stroke-linecap="round"/>
<path d="M26.5636 16H25.8794" stroke="#235753" stroke-width="2" stroke-miterlimit="10" stroke-linecap="round"/>
<path d="M16 6.13374V5.44958" stroke="#235753" stroke-width="2" stroke-miterlimit="10" stroke-linecap="round"/>
<path d="M16 26.5504V25.8662" stroke="#235753" stroke-width="2" stroke-miterlimit="10" stroke-linecap="round"/>
<path d="M9.03871 9.0264L8.55859 8.5463" stroke="#235753" stroke-width="2" stroke-miterlimit="10" stroke-linecap="round"/>
<path d="M23.478 23.4537L22.9858 22.9736" stroke="#235753" stroke-width="2" stroke-miterlimit="10" stroke-linecap="round"/>
<path d="M22.9858 9.0264L23.4659 8.5463" stroke="#235753" stroke-width="2" stroke-miterlimit="10" stroke-linecap="round"/>
<path d="M8.55859 23.4537L9.03871 22.9736" stroke="#235753" stroke-width="2" stroke-miterlimit="10" stroke-linecap="round"/>
</svg>
