<svg fill="none" height="80" width="80" xmlns="http://www.w3.org/2000/svg"><path d="M4.124 43.322c3.567-3.7 7.955-4 7.955-8.89 0-4.887-8.174-4.227-9.055-10.67-.882-6.441 2.87-11.336 7.954-10.23 5.085 1.108 10.806.447 13.258-4.22C26.69 4.642 31.316-1.139 38.39.194c7.073 1.334 6.86 9.563 10.944 9.116s12.257-5.782 17.341-1.333c5.085 4.448-3.778 15.785-1.007 19.786 2.77 4.001 15.365 9.777 14.265 18.673S71.09 61.774 62.035 61.994s-11.627 4.448-16.2 10.67c-4.575 6.222-15.433 8.877-21.598 6.436-6.165-2.44-4.64-12.45-10.374-15.565C8.128 60.422.763 59.78.1 53.532c-.662-6.248 2.102-8.209 4.024-10.21z" fill="#fff"/><g stroke="#235753" stroke-width="2"><path d="M40 54c-3.746 0-7.26-1.452-9.904-4.096A13.902 13.902 0 0 1 26 40c0-3.746 1.452-7.26 4.096-9.904A13.902 13.902 0 0 1 40 26c3.746 0 7.26 1.452 9.904 4.096A13.902 13.902 0 0 1 54 40c0 3.746-1.452 7.26-4.096 9.904A13.902 13.902 0 0 1 40 54z" stroke-miterlimit="10"/><path d="M40 30.182v9.866h6.758" stroke-linecap="round" stroke-linejoin="round"/><path d="M30.145 40h-.684m21.102 0h-.684M40 30.134v-.684m0 21.1v-.684m-6.961-16.84l-.48-.48m14.919 14.908l-.493-.48m0-13.948l.48-.48M32.56 47.454l.48-.48" stroke-linecap="round" stroke-miterlimit="10"/></g></svg>