<svg width="46" height="46" viewBox="0 0 46 46" fill="none" xmlns="http://www.w3.org/2000/svg">
<path fill-rule="evenodd" clip-rule="evenodd" d="M22.8345 0.0807499C27.7196 -0.532564 32.2568 2.45735 36.2506 5.33653C40.2573 8.22507 44.1367 11.6894 45.516 16.4322C46.875 21.1051 45.096 25.9177 43.5809 30.5424C42.0696 35.1553 40.728 40.171 36.8032 43.0274C32.877 45.8846 27.6133 46.5021 22.8345 45.6405C18.5132 44.8614 15.7993 40.9418 12.1016 38.5738C8.06837 35.9909 1.5296 35.7565 0.211027 31.1523C-1.11634 26.5173 4.16676 22.7469 6.33592 18.4411C8.08004 14.9791 9.07031 11.3071 11.6614 8.42365C14.846 4.87964 18.1069 0.674293 22.8345 0.0807499Z" fill="white"/>
<path d="M29.1331 12.7778H26.0664C24.7109 12.7778 23.4109 13.3163 22.4523 14.2748C21.4938 15.2334 20.9553 16.5334 20.9553 17.8889V20.9556H17.8887V25.0445H20.9553V33.2223H25.0442V25.0445H28.1109L29.1331 20.9556H25.0442V17.8889C25.0442 17.6178 25.1519 17.3578 25.3436 17.1661C25.5353 16.9744 25.7953 16.8667 26.0664 16.8667H29.1331V12.7778Z" stroke="#235753" stroke-width="2" stroke-linecap="round" stroke-linejoin="round"/>
</svg>
