<svg width="32" height="32" viewBox="0 0 32 32" fill="none" xmlns="http://www.w3.org/2000/svg">
<path d="M21.3332 28V25.3333C21.3332 23.9188 20.7713 22.5623 19.7711 21.5621C18.7709 20.5619 17.4143 20 15.9998 20H7.99984C6.58535 20 5.2288 20.5619 4.2286 21.5621C3.22841 22.5623 2.6665 23.9188 2.6665 25.3333V28M21.3332 14.6667L23.9998 17.3333L29.3332 12M17.3332 9.33333C17.3332 12.2789 14.9454 14.6667 11.9998 14.6667C9.05432 14.6667 6.6665 12.2789 6.6665 9.33333C6.6665 6.38781 9.05432 4 11.9998 4C14.9454 4 17.3332 6.38781 17.3332 9.33333Z" stroke="#235753" stroke-width="2" stroke-linecap="round" stroke-linejoin="round"/>
</svg>
