<svg width="80" height="80" fill="none" xmlns="http://www.w3.org/2000/svg"><path d="M32.531 19.667c.212-4.89-.077-3.929 1.196-8.577 1.682-5.831 6.161-18.04 8.903-5.913 1.3 5.78 2.16 8.531 2.037 14.49 6.364-7.504 13.858-8.82 22.622-10.59.776-.157 1.688-.231 2.224.462 2.828 3.647-9.95 15.296-12.04 17.011 7.524.216 15.337 1.268 21.738 6.056.37.283.777.648.789 1.178-.018.218-.074.43-.165.62a1.5 1.5 0 0 1-.359.484c-2.464 2.759-5.952 3.729-9.297 4.087-3.346.358-3.592 1.13-6.846 2.025 4.503 2.032 5.4 4.252 8.78 8.385 1.658 2.029 3.216 4.542 3.167 7.39-2.415 1.403-5.268.486-7.831-.447L54.257 53c1.479 3.833 1.374 5.67 1.953 9.876.58 4.206.142 8.733-1.953 12.119-.255.502-.644.883-1.103 1.081-.955.306-1.787-.798-2.335-1.79-3.083-5.548-5.975-9.493-8.189-15.62-1.374 5.683-2.52 9.453-4.516 14.845-1.115 2.983-2.871 6.279-5.583 6.473-.611.076-1.224-.12-1.725-.552-.74-.746-.9-1.961-.998-3.087-.248-2.834-2.475-12.678-2.475-18.413L14.103 64.8c-1.356 1.074-2.767 2.178-4.363 2.499-1.596.32-3.457-.38-4.202-2.126-1.035-2.439.517-5.295 2.12-7.241C12.906 51.54 15.498 47.74 22 43.333c-4.517-1.066-6.52-2.04-11-3.307-3.765-1.059-6.152-3.117-9.14-6.085C.404 32.5-.773 29.667.626 28.146a3.333 3.333 0 0 1 1.097-.746c8.016-2.4 14.94-3.33 21.61-.85-3.791-5.443-3.579-6.568-6.638-12.648-.8-1.588-1.596-3.281-1.663-5.138a4.058 4.058 0 0 1 .4-2.11c.27-.41.607-.746.992-.985.384-.24.807-.377 1.239-.403 3.111-.418 5.915 2.237 8.01 5.108 2.72 3.748 4.482 4.651 5.993 9.293" fill="#F5CDE2"/><path d="M45.334 52v-2.667A5.333 5.333 0 0 0 40 44h-8a5.333 5.333 0 0 0-5.333 5.333V52m18.667-13.333L48 41.333 53.334 36m-12-2.667a5.333 5.333 0 1 1-10.667 0 5.333 5.333 0 0 1 10.667 0z" stroke="#235753" stroke-width="2" stroke-linecap="round" stroke-linejoin="round"/></svg>