<svg width="80" height="80" fill="none" xmlns="http://www.w3.org/2000/svg"><path fill-rule="evenodd" clip-rule="evenodd" d="M39.928 1.179c11.374-.586 24.28-3.872 32.629 3.988 8.466 7.97 7.977 21.455 6.777 33.11-1.06 10.301-5.848 19.407-12.95 26.846-7.242 7.586-16.104 13.334-26.456 14.434-11.586 1.231-24.515.314-32.645-8.154C-.79 62.995-.297 50.001.291 38.277c.55-10.95 2.217-22.48 10.16-29.913C18.171 1.137 29.435 1.72 39.927 1.18z" fill="#F5CDE2"/><path d="M52.72 44h-6.053A2.667 2.667 0 0 0 44 46.667v6.053M33.333 28.453v2.214a4 4 0 0 0 4 4A2.667 2.667 0 0 1 40 37.333C40 38.8 41.2 40 42.666 40a2.667 2.667 0 0 0 2.667-2.667c0-1.466 1.2-2.666 2.667-2.666h4.227m-13.56 18.6V48A2.666 2.666 0 0 0 36 45.333a2.667 2.667 0 0 1-2.667-2.666v-1.334a2.667 2.667 0 0 0-2.666-2.666h-3.934M53.333 40c0 7.364-5.97 13.333-13.333 13.333-7.364 0-13.334-5.97-13.334-13.333 0-7.364 5.97-13.333 13.334-13.333S53.333 32.637 53.333 40z" stroke="#235753" stroke-width="2" stroke-linecap="round" stroke-linejoin="round"/></svg>