<svg width="32" height="32" viewBox="0 0 32 32" fill="none" xmlns="http://www.w3.org/2000/svg">
<path d="M28.7198 20.0001H22.6665C21.9593 20.0001 21.281 20.281 20.7809 20.7811C20.2808 21.2812 19.9998 21.9595 19.9998 22.6667V28.7201M9.33317 4.45341V6.66675C9.33317 7.72761 9.7546 8.74503 10.5047 9.49518C11.2549 10.2453 12.2723 10.6667 13.3332 10.6667C14.0404 10.6667 14.7187 10.9477 15.2188 11.4478C15.7189 11.9479 15.9998 12.6262 15.9998 13.3334C15.9998 14.8001 17.1998 16.0001 18.6665 16.0001C19.3737 16.0001 20.052 15.7191 20.5521 15.219C21.0522 14.7189 21.3332 14.0407 21.3332 13.3334C21.3332 11.8667 22.5332 10.6667 23.9998 10.6667H28.2265M14.6665 29.2667V24.0001C14.6665 23.2928 14.3856 22.6146 13.8855 22.1145C13.3854 21.6144 12.7071 21.3334 11.9998 21.3334C11.2926 21.3334 10.6143 21.0525 10.1142 20.5524C9.61412 20.0523 9.33317 19.374 9.33317 18.6667V17.3334C9.33317 16.6262 9.05222 15.9479 8.55212 15.4478C8.05203 14.9477 7.37375 14.6667 6.6665 14.6667H2.73317M29.3332 16.0001C29.3332 23.3639 23.3636 29.3334 15.9998 29.3334C8.63604 29.3334 2.6665 23.3639 2.6665 16.0001C2.6665 8.63628 8.63604 2.66675 15.9998 2.66675C23.3636 2.66675 29.3332 8.63628 29.3332 16.0001Z" stroke="#235753" stroke-width="2" stroke-linecap="round" stroke-linejoin="round"/>
</svg>
