<svg width="80" height="80" fill="none" xmlns="http://www.w3.org/2000/svg"><path d="M15.802 8.332c-5.1 3.763-9.227 8.878-11.987 14.86C1.055 29.172-.245 35.82.038 42.5c.06 7.186 1.992 14.208 5.577 20.254 3.584 6.046 8.673 10.87 14.68 13.915a43.59 43.59 0 0 0 15.763 3.16c7.03.611 14.1-.423 20.73-3.032 4.725-2.36 8.972-5.712 12.496-9.861 3.524-4.15 6.255-9.014 8.036-14.313A40.107 40.107 0 0 0 80 39.04C80.156 1.968 42.56-9.692 15.802 8.33z" fill="#F5CDE2"/><path d="M32 53.333v-24a2.667 2.667 0 0 1 2.667-2.666h10.667A2.667 2.667 0 0 1 48 29.333v24m-16 0h16m-16 0h-2.666a2.667 2.667 0 0 1-2.667-2.666v-8A2.667 2.667 0 0 1 29.334 40H32m16 13.333h2.667a2.667 2.667 0 0 0 2.667-2.666v-12A2.667 2.667 0 0 0 50.667 36H48m-10.666-4h5.333m-5.333 5.333h5.333m-5.333 5.334h5.333M37.334 48h5.333" stroke="#235753" stroke-width="2" stroke-linecap="round" stroke-linejoin="round"/></svg>