<svg width="32" height="32" viewBox="0 0 32 32" fill="none" xmlns="http://www.w3.org/2000/svg">
<path d="M7.99984 29.3334V5.33341C7.99984 4.62617 8.28079 3.94789 8.78089 3.4478C9.28098 2.9477 9.95926 2.66675 10.6665 2.66675H21.3332C22.0404 2.66675 22.7187 2.9477 23.2188 3.4478C23.7189 3.94789 23.9998 4.62617 23.9998 5.33341V29.3334M7.99984 29.3334H23.9998M7.99984 29.3334H5.33317C4.62593 29.3334 3.94765 29.0525 3.44755 28.5524C2.94746 28.0523 2.6665 27.374 2.6665 26.6667V18.6667C2.6665 17.9595 2.94746 17.2812 3.44755 16.7811C3.94765 16.281 4.62593 16.0001 5.33317 16.0001H7.99984M23.9998 29.3334H26.6665C27.3737 29.3334 28.052 29.0525 28.5521 28.5524C29.0522 28.0523 29.3332 27.374 29.3332 26.6667V14.6667C29.3332 13.9595 29.0522 13.2812 28.5521 12.7811C28.052 12.281 27.3737 12.0001 26.6665 12.0001H23.9998M13.3332 8.00008H18.6665M13.3332 13.3334H18.6665M13.3332 18.6667H18.6665M13.3332 24.0001H18.6665" stroke="#235753" stroke-width="2" stroke-linecap="round" stroke-linejoin="round"/>
</svg>
