<svg width="24" height="24" viewBox="0 0 24 24" fill="none" xmlns="http://www.w3.org/2000/svg">
<path d="M11 16.9995L13 18.9995C13.197 19.1965 13.4308 19.3528 13.6882 19.4594C13.9456 19.566 14.2214 19.6208 14.5 19.6208C14.7786 19.6208 15.0544 19.566 15.3118 19.4594C15.5692 19.3528 15.803 19.1965 16 18.9995C16.197 18.8025 16.3532 18.5687 16.4598 18.3113C16.5665 18.054 16.6213 17.7781 16.6213 17.4995C16.6213 17.221 16.5665 16.9451 16.4598 16.6877C16.3532 16.4304 16.197 16.1965 16 15.9995M14 13.9995L16.5 16.4995C16.8978 16.8974 17.4374 17.1208 18 17.1208C18.5626 17.1208 19.1022 16.8974 19.5 16.4995C19.8978 16.1017 20.1213 15.5621 20.1213 14.9995C20.1213 14.4369 19.8978 13.8974 19.5 13.4995L15.62 9.61953C15.0575 9.05773 14.295 8.74217 13.5 8.74217C12.705 8.74217 11.9425 9.05773 11.38 9.61953L10.5 10.4995C10.1022 10.8974 9.56261 11.1208 9 11.1208C8.43739 11.1208 7.89782 10.8974 7.5 10.4995C7.10218 10.1017 6.87868 9.56214 6.87868 8.99953C6.87868 8.43692 7.10218 7.89735 7.5 7.49953L10.31 4.68953C11.2222 3.77967 12.4119 3.20008 13.6906 3.0425C14.9694 2.88492 16.2642 3.15836 17.37 3.81953L17.84 4.09953C18.2658 4.35651 18.772 4.44564 19.26 4.34953L21 3.99953M21 2.99953L22 13.9995H20M3 2.99953L2 13.9995L8.5 20.4995C8.89782 20.8974 9.43739 21.1208 10 21.1208C10.5626 21.1208 11.1022 20.8974 11.5 20.4995C11.8978 20.1017 12.1213 19.5621 12.1213 18.9995C12.1213 18.4369 11.8978 17.8974 11.5 17.4995M3 3.99953H11" stroke="#235753" stroke-width="1.5" stroke-linecap="round" stroke-linejoin="round"/>
</svg>
