<svg width="32" height="32" viewBox="0 0 32 32" fill="none" xmlns="http://www.w3.org/2000/svg">
<path d="M14.6665 18.6667H17.3332C18.0404 18.6667 18.7187 18.3857 19.2188 17.8856C19.7189 17.3855 19.9998 16.7072 19.9998 16C19.9998 15.2928 19.7189 14.6145 19.2188 14.1144C18.7187 13.6143 18.0404 13.3333 17.3332 13.3333H13.3332C12.5332 13.3333 11.8665 13.6 11.4665 14.1333L3.99984 21.3333M9.33317 26.6667L11.4665 24.8C11.8665 24.2667 12.5332 24 13.3332 24H18.6665C20.1332 24 21.4665 23.4667 22.3998 22.4L28.5332 16.5333C29.0477 16.0471 29.348 15.3764 29.368 14.6688C29.388 13.9611 29.1261 13.2745 28.6398 12.76C28.1536 12.2455 27.4829 11.9452 26.7753 11.9252C26.0676 11.9052 25.381 12.1671 24.8665 12.6533L19.2665 17.8533M2.6665 20L10.6665 28M25.9998 11.3333C26.9332 10.4 27.9998 9.2 27.9998 7.73333C28.093 6.91857 27.9084 6.09621 27.4758 5.39952C27.0431 4.70283 26.388 4.17263 25.6164 3.89486C24.8448 3.61708 24.002 3.608 23.2246 3.86909C22.4472 4.13017 21.7807 4.64613 21.3332 5.33333C20.8572 4.69944 20.1906 4.23484 19.4311 4.00771C18.6716 3.78059 17.8594 3.80292 17.1135 4.07142C16.3677 4.33992 15.7276 4.84045 15.2872 5.49953C14.8468 6.15861 14.6292 6.94152 14.6665 7.73333C14.6665 9.33333 15.7332 10.4 16.6665 11.4667L21.3332 16L25.9998 11.3333Z" stroke="#235753" stroke-width="2" stroke-linecap="round" stroke-linejoin="round"/>
</svg>
