<svg width="80" height="80" fill="none" xmlns="http://www.w3.org/2000/svg"><path fill-rule="evenodd" clip-rule="evenodd" d="M45.346.038c16.033.604 29.355 12.167 33.71 27.684 3.884 13.836-4.767 26.605-15.958 35.56-13.565 10.855-30.504 22.673-45.144 13.334-16.7-10.653-21.791-33.055-15.1-51.761C8.981 7.726 27.247-.643 45.346.038z" fill="#F5CDE2"/><path d="M38.667 42.667h2.667a2.667 2.667 0 0 0 0-5.334h-4c-.8 0-1.467.267-1.867.8L28 45.333m5.334 5.334l2.133-1.867c.4-.533 1.067-.8 1.867-.8h5.333c1.467 0 2.8-.533 3.733-1.6l6.134-5.867a2.67 2.67 0 1 0-3.667-3.88l-5.6 5.2M26.667 44l8 8M50 35.333c.934-.933 2-2.133 2-3.6a3.64 3.64 0 0 0-6.666-2.4 3.706 3.706 0 0 0-6.667 2.4c0 1.6 1.067 2.667 2 3.734L45.334 40 50 35.333z" stroke="#235753" stroke-width="2" stroke-linecap="round" stroke-linejoin="round"/></svg>