<svg width="46" height="46" viewBox="0 0 46 46" fill="none" xmlns="http://www.w3.org/2000/svg">
<path d="M9.08595 4.79075C6.15317 6.95457 3.78044 9.89605 2.19378 13.3352C0.607119 16.7744 -0.140634 20.5966 0.0217897 24.4377C0.0558339 28.5697 1.16749 32.607 3.22847 36.0835C5.28944 39.5599 8.21557 42.3338 11.6691 44.0847C14.5715 45.2512 17.6379 45.866 20.7333 45.902C24.7758 46.253 28.8407 45.6585 32.6527 44.1585C35.3699 42.8009 37.8122 40.8737 39.8385 38.4879C41.8648 36.1021 43.4351 33.305 44.4588 30.2581C45.4177 27.7819 45.9403 25.133 45.9997 22.4484C46.0904 1.13134 24.4724 -5.57307 9.08595 4.79075Z" fill="white"/>
<path d="M28.6228 17.3778H28.633M17.8894 12.7778H28.1117C30.9344 12.7778 33.2228 15.0662 33.2228 17.8889V28.1112C33.2228 30.934 30.9344 33.2223 28.1117 33.2223H17.8894C15.0666 33.2223 12.7783 30.934 12.7783 28.1112V17.8889C12.7783 15.0662 15.0666 12.7778 17.8894 12.7778ZM27.0894 22.3561C27.2156 23.2068 27.0703 24.0757 26.6742 24.839C26.2781 25.6024 25.6513 26.2215 24.8831 26.6082C24.1149 26.9948 23.2443 27.1294 22.3952 26.9928C21.546 26.8561 20.7616 26.4552 20.1535 25.8471C19.5453 25.239 19.1444 24.4545 19.0078 23.6054C18.8712 22.7563 19.0058 21.8857 19.3924 21.1175C19.7791 20.3493 20.3982 19.7225 21.1615 19.3264C21.9249 18.9303 22.7938 18.785 23.6445 18.9112C24.5123 19.0398 25.3157 19.4442 25.9361 20.0645C26.5564 20.6849 26.9607 21.4883 27.0894 22.3561Z" stroke="#235753" stroke-width="2" stroke-linecap="round" stroke-linejoin="round"/>
</svg>
