<svg width="46" height="46" viewBox="0 0 46 46" fill="none" xmlns="http://www.w3.org/2000/svg">
<path d="M2.37139 24.9104C4.42204 22.7822 6.94532 22.6096 6.94532 19.7989C6.94532 16.9881 2.24561 17.3678 1.73866 13.6635C1.23172 9.95933 3.38909 7.14471 6.31259 7.78125C9.2361 8.41779 12.5255 8.03818 13.9358 5.35397C15.3461 2.66975 18.0066 -0.654853 22.0736 0.112065C26.1406 0.878983 26.0186 5.61089 28.3666 5.35397C30.7145 5.09705 35.4142 2.02938 38.3377 4.58705C41.2612 7.14472 36.1651 13.6635 37.7584 15.9643C39.3516 18.2651 46.5937 21.5858 45.9609 26.7012C45.3282 31.8165 40.8763 35.5207 35.6696 35.6472C30.4629 35.7738 28.984 38.2049 26.354 41.7826C23.724 45.3603 17.4806 46.8864 13.9358 45.483C10.391 44.0795 11.2677 38.3238 7.97064 36.5331C4.6736 34.7423 0.438904 34.3742 0.0577433 30.7812C-0.323418 27.1882 1.26602 26.0608 2.37139 24.9104Z" fill="white"/>
<path d="M27.0894 18.9112C28.7161 18.9112 30.2761 19.5574 31.4264 20.7076C32.5766 21.8578 33.2228 23.4178 33.2228 25.0445V32.2001H29.1339V25.0445C29.1339 24.5023 28.9185 23.9823 28.5351 23.5989C28.1517 23.2155 27.6317 23.0001 27.0894 23.0001C26.5472 23.0001 26.0272 23.2155 25.6438 23.5989C25.2604 23.9823 25.045 24.5023 25.045 25.0445V32.2001H20.9561V25.0445C20.9561 23.4178 21.6023 21.8578 22.7525 20.7076C23.9027 19.5574 25.4628 18.9112 27.0894 18.9112Z" stroke="#235753" stroke-width="2" stroke-linecap="round" stroke-linejoin="round"/>
<path d="M16.8672 19.9334H12.7783V32.2001H16.8672V19.9334Z" stroke="#235753" stroke-width="2" stroke-linecap="round" stroke-linejoin="round"/>
<path d="M14.8228 16.8667C15.9519 16.8667 16.8672 15.9514 16.8672 14.8223C16.8672 13.6932 15.9519 12.7778 14.8228 12.7778C13.6936 12.7778 12.7783 13.6932 12.7783 14.8223C12.7783 15.9514 13.6936 16.8667 14.8228 16.8667Z" stroke="#235753" stroke-width="2" stroke-linecap="round" stroke-linejoin="round"/>
</svg>
