<svg fill="none" height="80" width="80" xmlns="http://www.w3.org/2000/svg"><clipPath id="a"><path d="M0 0h32v32H0z" transform="translate(24 24)"/></clipPath><path clip-rule="evenodd" d="M45.346.038c16.033.604 29.355 12.167 33.71 27.684 3.884 13.836-4.767 26.605-15.958 35.56-13.565 10.855-30.504 22.673-45.144 13.334-16.7-10.653-21.791-33.055-15.1-51.761C8.981 7.726 27.247-.643 45.346.038z" fill="#fff" fill-rule="evenodd"/><g clip-path="url(#a)"><g stroke="#235753" stroke-width="2"><path d="M38.012 42.321c.503-1.96.703-6.93-3.667-8.595-5.845-2.226-9.923 2.94-8.629 7.916s11.001 11.988 19.198 13.12c8.197 1.13 9.276-2.037 9.491-3.62.173-1.266.072-11.083 0-15.833 0-1.055-.345-3.483-1.725-4.75-.934-.856-2.774-2.865-4.312-4.542a2.942 2.942 0 0 0-4.015-.3l-2.759 2.207a3 3 0 0 0-.265 4.446l2.127 2.164a3 3 0 0 0 4.148.126L50 32.5" stroke-linecap="round"/><path d="M47.501 49c-.155-1.71-.281-4.205-3.501-6-2.188-1.22-4.992-.889-6-.5" stroke-linecap="round"/><path d="M45.5 43.5l3.5-10"/></g><path d="M45.63 29.91a1 1 0 0 0-1.244-1.564l1.245 1.565zm-4.23 2.088l.623.783 3.608-2.87-.623-.783-.622-.782-3.608 2.87.623.782zm6.285-.024a1 1 0 0 0-1.245-1.565zm-4.23 2.087l.622.783 3.608-2.87-.623-.783-.622-.782-3.608 2.87z" fill="#235753"/></g></svg>