<svg width="32" height="32" viewBox="0 0 32 32" fill="none" xmlns="http://www.w3.org/2000/svg">
<g clip-path="url(#clip0_568_1817)">
<path d="M14.0121 18.321C14.5154 16.3607 14.7152 11.3903 10.3451 9.72595C4.50049 7.5 0.422396 12.6664 1.71666 17.6424C3.01092 22.6185 12.7177 29.6302 20.9147 30.7612C29.1116 31.8921 30.1902 28.7255 30.4059 27.1422C30.5785 25.8756 30.4778 16.0591 30.4059 11.3093C30.4059 10.2537 30.0608 7.826 28.6802 6.55937C27.7465 5.70266 25.9066 3.69394 24.3686 2.01692C23.317 0.870257 21.5681 0.745872 20.3532 1.71782L17.595 3.92437C16.2069 5.03484 16.0834 7.10194 17.3294 8.36978L19.4565 10.5341C20.5826 11.68 22.4115 11.7353 23.6048 10.6596L26.0005 8.5" stroke="#235753" stroke-width="2" stroke-linecap="round"/>
<path d="M23.501 25C23.3459 23.2903 23.22 20.795 20 19C17.8115 17.78 15.0078 18.1114 14 18.5" stroke="#235753" stroke-width="2" stroke-linecap="round"/>
<path d="M21.5 19.5L25 9.5" stroke="#235753" stroke-width="2"/>
<path d="M21.6304 5.9109C22.0626 5.56709 22.1343 4.938 21.7905 4.50578C21.4467 4.07356 20.8176 4.00189 20.3854 4.3457L21.6304 5.9109ZM17.4003 7.99798L18.0228 8.78059L21.6304 5.9109L21.0079 5.1283L20.3854 4.3457L16.7778 7.21538L17.4003 7.99798Z" fill="#235753"/>
<path d="M23.6841 7.97404C24.1164 7.63023 24.188 7.00114 23.8442 6.56892C23.5004 6.1367 22.8713 6.06503 22.4391 6.40884L23.6841 7.97404ZM19.454 10.0611L20.0765 10.8437L23.6841 7.97404L23.0616 7.19144L22.4391 6.40884L18.8315 9.27852L19.454 10.0611Z" fill="#235753"/>
</g>
<defs>
<clipPath id="clip0_568_1817">
<rect width="32" height="32" fill="white"/>
</clipPath>
</defs>
</svg>
