<svg width="32" height="32" viewBox="0 0 32 32" fill="none" xmlns="http://www.w3.org/2000/svg">
<path d="M14.6665 22.6666L17.3332 25.3333C17.5958 25.5959 17.9076 25.8043 18.2508 25.9464C18.5939 26.0885 18.9617 26.1617 19.3332 26.1617C19.7046 26.1617 20.0724 26.0885 20.4156 25.9464C20.7587 25.8043 21.0705 25.5959 21.3332 25.3333C21.5958 25.0706 21.8042 24.7588 21.9463 24.4157C22.0884 24.0725 22.1616 23.7047 22.1616 23.3333C22.1616 22.9618 22.0884 22.594 21.9463 22.2509C21.8042 21.9077 21.5958 21.5959 21.3332 21.3333M18.6665 18.6666L21.9998 21.9999C22.5303 22.5304 23.2497 22.8284 23.9998 22.8284C24.75 22.8284 25.4694 22.5304 25.9998 21.9999C26.5303 21.4695 26.8283 20.7501 26.8283 19.9999C26.8283 19.2498 26.5303 18.5304 25.9998 17.9999L20.8265 12.8266C20.0765 12.0775 19.0598 11.6568 17.9998 11.6568C16.9398 11.6568 15.9232 12.0775 15.1732 12.8266L13.9998 13.9999C13.4694 14.5304 12.75 14.8284 11.9998 14.8284C11.2497 14.8284 10.5303 14.5304 9.99984 13.9999C9.4694 13.4695 9.17141 12.7501 9.17141 11.9999C9.17141 11.2498 9.4694 10.5304 9.99984 9.99994L13.7465 6.25327C14.9628 5.04013 16.549 4.26734 18.254 4.05724C19.959 3.84713 21.6854 4.21171 23.1598 5.09327L23.7865 5.46661C24.3542 5.80925 25.0292 5.92809 25.6798 5.79994L27.9998 5.33327M27.9998 3.99994L29.3332 18.6666H26.6665M3.99984 3.99994L2.6665 18.6666L11.3332 27.3333C11.8636 27.8637 12.583 28.1617 13.3332 28.1617C14.0833 28.1617 14.8027 27.8637 15.3332 27.3333C15.8636 26.8028 16.1616 26.0834 16.1616 25.3333C16.1616 24.5831 15.8636 23.8637 15.3332 23.3333M3.99984 5.33327H14.6665" stroke="#235753" stroke-width="2" stroke-linecap="round" stroke-linejoin="round"/>
</svg>
