<svg width="82" height="83" fill="none" xmlns="http://www.w3.org/2000/svg"><path fill-rule="evenodd" clip-rule="evenodd" d="M80.946 46.177C79.03 56.457 64.864 56.85 56.881 63.282c-7.75 6.243-11.476 18.437-21.253 19.403-10.721 1.058-21.13-5.746-27.715-14.567-6.487-8.69-8.164-20.197-6.309-31.008 1.737-10.127 7.9-18.576 15.87-24.72 7.662-5.907 17.073-9.642 26.485-7.934 8.95 1.624 14.667 9.586 20.81 16.516 6.85 7.726 18.096 14.91 16.177 25.205z" fill="#F5CDE2"/><path d="M39.667 46.667l2.667 2.666a2.827 2.827 0 1 0 4-4m-2.667-2.666L47 46a2.828 2.828 0 1 0 4-4l-5.173-5.173a4 4 0 0 0-5.653 0L39 38a2.828 2.828 0 1 1-4-4l3.747-3.747a7.72 7.72 0 0 1 9.413-1.16l.627.374a2.666 2.666 0 0 0 1.893.333l2.32-.467M53 28l1.334 14.667h-2.667M29 28l-1.333 14.667 8.667 8.666a2.828 2.828 0 0 0 4-4M29 29.333h10.667" stroke="#235753" stroke-width="2" stroke-linecap="round" stroke-linejoin="round"/></svg>