<svg width="32" height="32" fill="none" xmlns="http://www.w3.org/2000/svg"><path d="M2.666 28c.8.667 1.6 1.333 3.333 1.333 3.334 0 3.334-2.666 6.667-2.666 1.733 0 2.533.666 3.333 1.333.8.667 1.6 1.333 3.334 1.333 3.333 0 3.333-2.666 6.666-2.666 1.734 0 2.534.666 3.334 1.333m-3.494-1.333a15.466 15.466 0 0 0 2.16-8l-12-5.334m0 0L4 18.667c0 3.866 1.254 7.12 3.747 10.346m8.253-15.68v5.334m9.334-1.334v-8a2.667 2.667 0 0 0-2.667-2.666H9.333a2.667 2.667 0 0 0-2.667 2.666v8m9.333-14.666v4" stroke="#235753" stroke-width="2" stroke-linecap="round" stroke-linejoin="round"/></svg>