<svg width="19" height="20" viewBox="0 0 19 20" fill="none" xmlns="http://www.w3.org/2000/svg">
<g clip-path="url(#clip0_620_1654)">
<path d="M15.2193 18.3857C15.0728 18.3857 14.9274 18.3424 14.8026 18.2577L10.0881 15.0598L7.55949 16.8793C7.36117 17.0219 7.10556 17.0578 6.87529 16.9754C6.64531 16.8929 6.47064 16.7024 6.4083 16.4662L5.13866 11.6546L0.602097 9.91998C0.316502 9.81073 0.127095 9.53751 0.125017 9.23173C0.122939 8.92594 0.308586 8.65015 0.592795 8.53704L17.8425 1.67326C17.9208 1.64001 18.0036 1.62081 18.0871 1.61567C18.117 1.61389 18.147 1.61389 18.1768 1.61557C18.3497 1.62586 18.5197 1.69632 18.6523 1.82635C18.666 1.83981 18.6791 1.85356 18.6914 1.86791C18.8013 1.99339 18.8617 2.14638 18.873 2.30224C18.8758 2.34143 18.8756 2.38111 18.8721 2.4208C18.8698 2.4491 18.8657 2.4773 18.86 2.50531L15.9483 17.7824C15.9015 18.0279 15.7345 18.2333 15.5037 18.329C15.4122 18.367 15.3155 18.3857 15.2193 18.3857ZM10.502 13.5469L14.7015 16.3954L16.9671 4.50813L8.7845 12.3819L10.4822 13.5336C10.4891 13.5378 10.4956 13.5424 10.502 13.5469ZM7.00611 12.9135L7.56839 15.0441L8.77985 14.1723L7.19354 13.0963C7.11981 13.0464 7.05668 12.9842 7.00611 12.9135ZM2.90932 9.21282L6.02434 10.4038C6.24749 10.4891 6.41592 10.6767 6.47688 10.9077L6.87192 12.4048C6.89003 12.2322 6.96831 12.0697 7.09547 11.9473L14.8923 4.4448L2.90932 9.21282Z" fill="white"/>
</g>
<defs>
<clipPath id="clip0_620_1654">
<rect width="18.75" height="18.75" fill="white" transform="translate(0.125 0.625)"/>
</clipPath>
</defs>
</svg>
