<svg width="47" height="47" fill="none" xmlns="http://www.w3.org/2000/svg"><path d="M26.242 4.35l.741.517.877-.214 3.248-.793 1.867 2.775.503.749.896.117 3.314.434.74 3.261.199.881.793.433 2.933 1.601-.489 3.308-.132.893.583.69 2.157 2.555-1.652 2.907-.445.785.294.854 1.088 3.16-2.589 2.115-.7.571-.033.903-.127 3.34-3.18 1.036-.858.28-.358.83-1.325 3.068-3.338-.181-.901-.05-.634.644-2.345 2.383-3.046-1.375-.823-.372-.823.372-3.047 1.375-2.344-2.383-.634-.643-.901.049-3.339.181-1.324-3.068-.358-.83-.859-.28-3.18-1.036-.126-3.34-.034-.903-.699-.571-2.59-2.115 1.09-3.16.293-.854-.445-.785-1.653-2.907 2.159-2.554.583-.69-.133-.894-.49-3.308L7.58 12.51l.793-.433.2-.88.738-3.262 3.315-.434.896-.117.503-.75 1.866-2.774 3.249.793.877.214.74-.516L23.5 2.438l2.742 1.913z" fill="#fff" stroke="#A9D8D8" stroke-width="4"/><path d="M23.884 17.5v6.902m.11 5.598h.013" stroke="#A9D8D8" stroke-width="2.5" stroke-linecap="round" stroke-linejoin="round"/></svg>