<svg width="47" height="47" fill="none" xmlns="http://www.w3.org/2000/svg"><path d="M23.5 0l3.886 2.71 4.603-1.123 2.645 3.93 4.698.616 1.046 4.621 4.158 2.271-.693 4.687 3.057 3.62-2.34 4.12 1.543 4.48-3.67 2.995-.18 4.735-4.504 1.468-1.878 4.35-4.73-.258-3.323 3.378-4.318-1.95-4.318 1.95-3.322-3.378-4.731.258-1.878-4.35-4.504-1.468-.18-4.735-3.67-2.996 1.543-4.48-2.34-4.12 3.057-3.619-.693-4.687 4.158-2.27 1.046-4.622 4.698-.615 2.645-3.931 4.603 1.123L23.5 0z" fill="#235753"/><path d="M32 19L21 30l-5-5" stroke="#C8FF00" stroke-width="2.5" stroke-linecap="round" stroke-linejoin="round"/></svg>