<svg width="80" height="80" fill="none" xmlns="http://www.w3.org/2000/svg"><path fill-rule="evenodd" clip-rule="evenodd" d="M36.843 1.528c8.744 2.263 12.497 12.76 19.332 19.258 8.059 7.663 22.04 9.912 23.64 21.6 1.633 11.919-7.883 22.377-16.654 29.404-7.518 6.024-17.089 4.292-26.318 5.024-10.487.831-22.304 7.046-30.338-.532C-1.692 68.55.456 54.37.341 42.385.225 30.198-1.856 16.382 5.85 7.757c7.71-8.63 20.363-8.982 30.993-6.23z" fill="#F5CDE2"/><path d="M36 40l2.666 2.667L44 37.333m9.333 12H26.667m4-16c0-1.466 1.2-2.666 2.666-2.666h13.334a2.667 2.667 0 0 1 2.666 2.666v16H30.667v-16z" stroke="#235753" stroke-width="2" stroke-linecap="round" stroke-linejoin="round"/></svg>