<svg width="20" height="20" viewBox="0 0 20 20" fill="none" xmlns="http://www.w3.org/2000/svg">
<path d="M9.8125 0.474609C14.8926 0.47461 19.0254 4.60739 19.0254 9.6875C19.0254 14.7676 14.8926 18.9004 9.8125 18.9004C8.15583 18.9004 6.53984 18.4565 5.12305 17.6172L1.59375 18.7031C1.42108 18.756 1.23148 18.7118 1.10059 18.5859C0.969203 18.4595 0.917984 18.2711 0.96582 18.0957L0.966797 18.0947V18.0928C0.967191 18.0913 0.968056 18.0894 0.96875 18.0869C0.970179 18.0817 0.972007 18.074 0.974609 18.0645C0.979811 18.0454 0.98757 18.0182 0.99707 17.9834C1.01612 17.9137 1.04355 17.8141 1.07715 17.6914C1.14433 17.446 1.23624 17.1078 1.33984 16.7314C1.5403 16.0032 1.78219 15.1303 1.95996 14.5059C1.06958 13.0582 0.599609 11.3975 0.599609 9.6875C0.599609 4.60739 4.73239 0.474609 9.8125 0.474609ZM9.8125 1.47168C5.28288 1.47168 1.59668 5.15788 1.59668 9.6875C1.59668 11.2819 2.05438 12.8278 2.91895 14.1582L2.9668 14.2539C2.9917 14.3202 3.00263 14.3911 2.99805 14.4619L2.97949 14.5674C2.76307 15.3216 2.40513 16.6191 2.16797 17.4834L5.04297 16.5996L5.04395 16.5986L5.11621 16.583C5.14037 16.5794 5.16483 16.5772 5.18945 16.5771C5.28132 16.5771 5.3744 16.6027 5.45508 16.6533L5.70117 16.8018C6.94693 17.5228 8.36198 17.9033 9.8125 17.9033C14.3421 17.9033 18.0283 14.2171 18.0283 9.6875C18.0283 5.15788 14.3421 1.47168 9.8125 1.47168Z" fill="white" stroke="white" stroke-width="0.3"/>
<path d="M6.65234 5.15332C6.79346 5.16265 6.88811 5.19025 6.94922 5.22461L7 5.26074C7.0102 5.27039 7.03777 5.30406 7.08301 5.36816C7.1256 5.42854 7.17773 5.50789 7.23633 5.60059C7.3536 5.78612 7.49415 6.0225 7.62891 6.2666C7.76394 6.51122 7.89226 6.76152 7.98633 6.97363C8.03341 7.0798 8.07118 7.17451 8.09668 7.25293C8.12313 7.33433 8.13273 7.38615 8.13281 7.41211C8.13281 7.73856 7.97073 8.0457 7.41113 8.58887L7.35352 8.64453L7.36816 8.72266C7.41578 8.98687 7.59419 9.2895 7.85742 9.60352C8.05743 9.84206 8.31396 10.0959 8.61719 10.3555L8.93555 10.6172C9.37166 10.9597 9.80953 11.248 10.1621 11.4551C10.3384 11.5586 10.4947 11.6429 10.6201 11.7031C10.7383 11.7599 10.8468 11.8048 10.9189 11.8154L10.9443 11.8184L10.9688 11.8145C11.017 11.8053 11.0623 11.78 11.0977 11.7578C11.1362 11.7335 11.1786 11.7028 11.2217 11.667C11.3081 11.5952 11.4087 11.498 11.5156 11.3857C11.6763 11.217 11.8549 11.0085 12.0244 10.7871L12.1895 10.5625L12.209 10.541L12.21 10.54C12.2828 10.471 12.5216 10.3502 12.8672 10.5127V10.5117C12.9347 10.5437 13.0157 10.5892 13.1143 10.6475L13.4668 10.8613C13.7343 11.0263 14.0779 11.2392 14.4775 11.4629L14.8955 11.6895C14.941 11.7132 14.9674 11.7522 14.9736 11.793L14.9727 11.834V11.835C14.8296 12.6445 14.5081 13.2366 14.0225 13.6279C13.5357 14.02 12.8659 14.2246 12.001 14.2246C11.7811 14.2246 11.5491 14.2122 11.3047 14.1855L11.0566 14.1543C8.29175 13.7631 6.06846 11.4724 5.05176 9.34961L4.86523 8.92773C4.46672 7.95047 4.68415 7.05723 5.01855 6.38965C5.35156 5.72501 5.79468 5.29706 5.83203 5.26172C5.85427 5.2409 5.88407 5.22502 5.91699 5.21875L5.91602 5.21777C6.22184 5.16029 6.46706 5.14113 6.65234 5.15332Z" fill="white" stroke="white" stroke-width="0.3"/>
</svg>
