<svg width="213" height="58" fill="none" xmlns="http://www.w3.org/2000/svg"><g clip-path="url(#clip0_327_328)" fill-rule="evenodd" clip-rule="evenodd"><path d="M.642.638A2.2 2.2 0 0 1 2.192 0h122.679c.582 0 1.139.23 1.55.639.411.408.642.963.642 1.54v24.779h83.722a2.22 2.22 0 0 1 1.566.645c.416.412.649.972.649 1.556v26.639a2.197 2.197 0 0 1-1.367 2.034 2.223 2.223 0 0 1-.848.168H2.21a2.221 2.221 0 0 1-1.563-.647A2.194 2.194 0 0 1 0 55.8V29.16c0-.12.01-.24.03-.356a2.166 2.166 0 0 1-.03-.355V2.179C0 1.601.231 1.047.642.64z" fill="#235753"/><path d="M16.95 4.82c.037.09.056.189.055.288V25.26a.741.741 0 0 1-.754.75H14.17a.753.753 0 0 1-.699-.462.737.737 0 0 1-.055-.288v-8.308a.322.322 0 0 0-.3-.298h-3.23a.325.325 0 0 0-.3.298v8.308a.739.739 0 0 1-.465.695.753.753 0 0 1-.29.055H6.75a.753.753 0 0 1-.7-.462.74.74 0 0 1-.055-.288V5.108a.739.739 0 0 1 .465-.695.752.752 0 0 1 .29-.055h2.08a.752.752 0 0 1 .7.462c.037.09.056.189.055.288v8.067a.321.321 0 0 0 .3.298h3.229a.325.325 0 0 0 .3-.299V5.108a.737.737 0 0 1 .464-.695.75.75 0 0 1 .29-.055h2.081a.752.752 0 0 1 .7.462zm4.69 20.97a.876.876 0 0 1-.562.22h-1.961a.657.657 0 0 1-.618-.474.645.645 0 0 1-.016-.275l3.56-20.153a.894.894 0 0 1 .876-.75h2.746a.904.904 0 0 1 .874.75L30.1 25.26a.645.645 0 0 1-.364.687.657.657 0 0 1-.27.063h-1.96a.904.904 0 0 1-.875-.75l-.484-3.449a.327.327 0 0 0-.332-.298h-3.048a.312.312 0 0 0-.302.178.306.306 0 0 0-.029.12l-.513 3.449a.866.866 0 0 1-.283.53zm3.95-7.556a.275.275 0 0 0 .014-.111l-1.237-8.336c-.03-.061-.09-.061-.09 0l-1.268 8.336a.254.254 0 0 0 .24.298h2.084a.28.28 0 0 0 .257-.187zM46.278 4.82c.037.09.056.189.055.288l.001 20.153a.738.738 0 0 1-.465.695.753.753 0 0 1-.29.055h-1.75a.752.752 0 0 1-.698-.462.737.737 0 0 1-.056-.288V9.966c0-.03-.06-.03-.06 0l-2.91 15.295a.925.925 0 0 1-.902.75h-.693a.967.967 0 0 1-.9-.75L34.806 9.997c0-.03-.06-.03-.06 0V25.26a.74.74 0 0 1-.465.695.754.754 0 0 1-.29.055h-1.659a.753.753 0 0 1-.7-.462.738.738 0 0 1-.055-.288V5.108a.738.738 0 0 1 .465-.695.752.752 0 0 1 .29-.055h3.327a.934.934 0 0 1 .9.75l2.351 12.506a.063.063 0 0 0 .12 0l2.39-12.506a.924.924 0 0 1 .9-.75h3.26a.752.752 0 0 1 .699.462zm8.08-.462c3.712 0 4.95 2.009 4.95 5.938v.002c0 2.188-.392 3.537-2.051 4.377a.126.126 0 0 0-.09.12.125.125 0 0 0 .09.12c1.87.869 2.292 2.369 2.292 4.888 0 4.108-1.115 6.208-5.43 6.208h-4.617a.754.754 0 0 1-.7-.462.74.74 0 0 1-.055-.288V5.108a.74.74 0 0 1 .465-.695.752.752 0 0 1 .29-.055h4.856zm1.42 6.028c0-2.16-.423-3.03-1.992-3.03l-1.113.003a.325.325 0 0 0-.3.298v5.55a.322.322 0 0 0 .3.298h1.113c1.57 0 1.992-.958 1.992-3.119zm-2.142 12.626c1.99 0 2.383-.87 2.383-3.27l.003.004c0-2.189-.332-3.418-2.383-3.418h-.966a.326.326 0 0 0-.3.298v6.087a.322.322 0 0 0 .3.299h.963zm15.097-18.6a.752.752 0 0 1 .29-.054h2.11a.751.751 0 0 1 .7.462.74.74 0 0 1 .055.288v15.924a5.002 5.002 0 0 1-1.502 3.911 5.068 5.068 0 0 1-3.96 1.428 5.091 5.091 0 0 1-3.958-1.428 5.028 5.028 0 0 1-1.502-3.91V5.107a.738.738 0 0 1 .464-.695.752.752 0 0 1 .29-.055h2.112a.751.751 0 0 1 .7.461c.037.092.056.19.054.289v16.014c0 1.139.394 2.099 1.842 2.099s1.84-.96 1.84-2.099V5.108a.74.74 0 0 1 .465-.695zM82.458 16.56a.333.333 0 0 0-.007.245l2.539 8.487a.558.558 0 0 1-.29.66.568.568 0 0 1-.254.06h-2.022a1.005 1.005 0 0 1-.965-.72l-2.173-7.978a.412.412 0 0 0-.392-.298h-.699a.325.325 0 0 0-.3.298v7.948a.74.74 0 0 1-.465.695.753.753 0 0 1-.29.055h-2.112a.753.753 0 0 1-.699-.462.737.737 0 0 1-.055-.288V5.109a.737.737 0 0 1 .464-.695.75.75 0 0 1 .29-.055h4.888c4.225 0 5.07 2.789 5.07 6.477 0 3.389-.695 4.679-2.354 5.548a.337.337 0 0 0-.174.175zm-4.47-9.107a.321.321 0 0 0-.095.205v6.18a.321.321 0 0 0 .3.3h1.116c1.63 0 2.112-.75 2.112-3.39 0-2.638-.483-3.388-2.112-3.388h-1.116a.325.325 0 0 0-.206.093zm13.784-3.451c3.228 0 5.22 2.04 5.22 5.247l-.001 1.918a.74.74 0 0 1-.465.695.751.751 0 0 1-.29.055h-1.991a.752.752 0 0 1-.7-.462.741.741 0 0 1-.055-.288v-2.01c0-1.2-.482-1.98-1.72-1.98-1.266 0-1.81.776-1.81 2.07v11.817c0 1.32.574 2.07 1.842 2.07 1.33 0 1.93-.84 1.93-2.28v-2.668a.322.322 0 0 0-.3-.299h-1.087a.752.752 0 0 1-.699-.462.74.74 0 0 1-.055-.288v-1.293a.74.74 0 0 1 .464-.695.754.754 0 0 1 .29-.055h4.073a.753.753 0 0 1 .7.462c.037.092.056.19.055.288v9.416a.738.738 0 0 1-.465.695.753.753 0 0 1-.29.055h-.12a1.133 1.133 0 0 1-1.025-.69l-.181-.54c-.059-.15-.21-.179-.3-.06a4.184 4.184 0 0 1-3.53 1.65c-3.29 0-4.92-2.368-4.92-5.458V9.338a5.025 5.025 0 0 1 1.5-3.89A5.113 5.113 0 0 1 91.773 4zm16.675 3.451a.75.75 0 0 1-.29.055l-4.677.002a.324.324 0 0 0-.301.298v5.19a.324.324 0 0 0 .301.298h3.168a.753.753 0 0 1 .536.218.735.735 0 0 1 .219.532v1.53a.732.732 0 0 1-.219.533.744.744 0 0 1-.536.218h-3.168a.324.324 0 0 0-.301.298v5.88a.324.324 0 0 0 .301.298h4.919a.75.75 0 0 1 .699.462c.037.091.056.19.055.288v1.709a.748.748 0 0 1-.219.532.747.747 0 0 1-.535.218h-8.057a.755.755 0 0 1-.535-.218.743.743 0 0 1-.219-.532V5.108a.74.74 0 0 1 .464-.695.754.754 0 0 1 .29-.055h7.815a.75.75 0 0 1 .699.462c.038.09.057.189.056.288v1.65a.73.73 0 0 1-.219.532.745.745 0 0 1-.246.162zm10.55 9.107a.33.33 0 0 0-.007.245l2.537 8.487a.554.554 0 0 1-.092.496.566.566 0 0 1-.456.224h-2.021c-.218 0-.43-.07-.605-.2a.995.995 0 0 1-.361-.52l-2.173-7.978a.416.416 0 0 0-.392-.298h-.693a.324.324 0 0 0-.301.298v7.948a.73.73 0 0 1-.218.533.757.757 0 0 1-.536.217h-2.112a.755.755 0 0 1-.536-.218.753.753 0 0 1-.219-.532V5.109a.75.75 0 0 1 .465-.695.754.754 0 0 1 .29-.055h4.89c4.224 0 5.07 2.789 5.07 6.477 0 3.389-.701 4.678-2.356 5.548a.337.337 0 0 0-.174.175zm-4.47-9.11a.324.324 0 0 0-.094.204l.001 6.181a.324.324 0 0 0 .301.298h1.115c1.629 0 2.112-.75 2.112-3.389 0-2.638-.482-3.388-2.112-3.388h-1.116a.329.329 0 0 0-.207.093zM16.62 32.114a.74.74 0 0 1 .055.288v.87a4.516 4.516 0 0 1-.27 1.44l-5.974 15.144a.189.189 0 0 0 .086.25c.03.014.062.021.095.02h5.159a.751.751 0 0 1 .699.461.74.74 0 0 1 .055.288v1.679a.741.741 0 0 1-.754.75H7.11a.751.751 0 0 1-.7-.462.739.739 0 0 1-.055-.288v-.87c.012-.49.103-.977.272-1.439L12.661 35.1a.19.19 0 0 0-.18-.27H7.682a.75.75 0 0 1-.699-.461.738.738 0 0 1-.055-.288v-1.68a.74.74 0 0 1 .465-.694.753.753 0 0 1 .29-.055h8.237a.753.753 0 0 1 .699.462zm9.39-.407a.752.752 0 0 1 .29-.055h2.112a.753.753 0 0 1 .699.462.74.74 0 0 1 .055.288v15.924a5.004 5.004 0 0 1-1.502 3.91 5.068 5.068 0 0 1-3.959 1.428 5.09 5.09 0 0 1-3.958-1.428 5.005 5.005 0 0 1-1.502-3.91V32.404a.739.739 0 0 1 .464-.695.752.752 0 0 1 .29-.055h2.114a.753.753 0 0 1 .696.462.74.74 0 0 1 .056.288v16.014c0 1.14.39 2.1 1.84 2.1 1.45 0 1.842-.96 1.842-2.1V32.403a.737.737 0 0 1 .463-.695zm5.975 0a.752.752 0 0 1 .29-.055h2.083a.753.753 0 0 1 .699.462.74.74 0 0 1 .055.288V40.5a.064.064 0 0 0 .05.059.066.066 0 0 0 .07-.029l3.41-8.187a1.15 1.15 0 0 1 1.056-.69h2.051a.491.491 0 0 1 .496.451.482.482 0 0 1-.043.239l-3.345 7.677a.912.912 0 0 0-.03.57l3.769 11.995a.56.56 0 0 1-.543.72H39.88a1.005 1.005 0 0 1-.966-.72L36.5 44.008a.113.113 0 0 0-.163-.08.112.112 0 0 0-.048.05l-1.056 2.25a1.737 1.737 0 0 0-.12.57v5.758a.74.74 0 0 1-.465.695.751.751 0 0 1-.29.055h-2.082a.752.752 0 0 1-.7-.462.74.74 0 0 1-.055-.288V32.403a.738.738 0 0 1 .464-.695zm19.733 0a.753.753 0 0 1 .29-.055h2.111a.753.753 0 0 1 .7.462.745.745 0 0 1 .055.288v15.925a5.003 5.003 0 0 1-1.502 3.91 5.066 5.066 0 0 1-3.96 1.428 5.091 5.091 0 0 1-3.959-1.427 5.028 5.028 0 0 1-1.502-3.911V32.403a.74.74 0 0 1 .465-.695.754.754 0 0 1 .29-.055h2.112a.754.754 0 0 1 .7.462.74.74 0 0 1 .055.288v16.014c0 1.14.392 2.1 1.84 2.1 1.449 0 1.84-.96 1.84-2.1V32.403a.74.74 0 0 1 .465-.695zm16.589.407a.74.74 0 0 1 .055.288v20.154a.74.74 0 0 1-.464.695.752.752 0 0 1-.29.055h-1.449a1.147 1.147 0 0 1-1.025-.72L60.638 40.26c0-.06-.09-.031-.09.03v12.265a.738.738 0 0 1-.465.695.75.75 0 0 1-.29.055h-1.75a.75.75 0 0 1-.7-.462.739.739 0 0 1-.055-.288V32.403a.739.739 0 0 1 .464-.695.752.752 0 0 1 .29-.055h1.745a1.076 1.076 0 0 1 1.001.72l4.225 11.786c0 .06.09.03.09-.03V32.403a.741.741 0 0 1 .754-.75h1.75a.754.754 0 0 1 .7.462zm11.478 2.602a.753.753 0 0 1-.289.055l-4.798.002a.325.325 0 0 0-.3.298v5.308a.321.321 0 0 0 .3.298h3.317a.752.752 0 0 1 .699.462c.037.092.056.19.055.288v1.592a.741.741 0 0 1-.754.75h-3.319a.325.325 0 0 0-.3.298v8.488a.737.737 0 0 1-.465.695.752.752 0 0 1-.29.055H71.53a.752.752 0 0 1-.7-.462.737.737 0 0 1-.055-.288V32.403a.738.738 0 0 1 .465-.695.753.753 0 0 1 .29-.055h7.965a.753.753 0 0 1 .7.462.74.74 0 0 1 .055.288v1.62a.739.739 0 0 1-.465.694zm12.266-2.602a.74.74 0 0 1 .055.288l-.001 1.71a.74.74 0 0 1-.465.695.753.753 0 0 1-.29.056h-2.715a.325.325 0 0 0-.3.298v17.394a.737.737 0 0 1-.465.695.752.752 0 0 1-.29.055h-2.082a.752.752 0 0 1-.7-.462.74.74 0 0 1-.055-.288V35.161a.322.322 0 0 0-.3-.298h-2.775a.753.753 0 0 1-.7-.462.738.738 0 0 1-.055-.288v-1.71a.738.738 0 0 1 .465-.695.75.75 0 0 1 .29-.055h9.683a.753.753 0 0 1 .7.462zm6.15 2.267c-1.207 0-1.75.9-1.75 2.01h.005c0 1.669 1.253 2.893 3.135 4.735l.034.033c2.233 2.19 3.953 4.048 3.953 7.017a5.083 5.083 0 0 1-1.445 3.952 5.15 5.15 0 0 1-3.937 1.537c-3.32 0-5.371-2.31-5.371-5.518v-1.5a.737.737 0 0 1 .464-.694.752.752 0 0 1 .29-.055h1.842a.752.752 0 0 1 .699.462c.037.09.056.189.055.288v1.23c0 1.679.574 2.639 1.992 2.639.965 0 1.931-.45 1.931-2.07 0-1.937-1.403-3.262-3.153-4.914l-.196-.185c-1.81-1.734-3.772-3.718-3.772-6.807 0-2.762 1.539-5.248 5.22-5.248 3.172 0 5.103 1.829 5.103 5.877v.72a.67.67 0 0 1-.664.66h-2.112a.59.59 0 0 1-.573-.57v-.63c0-2.189-.603-2.969-1.75-2.969zm15.803.363a.75.75 0 0 1-.289.055l-4.681.004a.324.324 0 0 0-.3.298v5.19a.324.324 0 0 0 .3.298h3.168a.748.748 0 0 1 .755.75v1.53a.748.748 0 0 1-.219.533.747.747 0 0 1-.536.218h-3.168a.324.324 0 0 0-.3.298v5.88a.324.324 0 0 0 .3.298h4.918a.752.752 0 0 1 .699.462c.037.092.056.19.055.288v1.709a.748.748 0 0 1-.219.532.743.743 0 0 1-.535.218h-8.057a.748.748 0 0 1-.754-.75V32.403a.748.748 0 0 1 .219-.533.747.747 0 0 1 .535-.217h7.82a.75.75 0 0 1 .698.462.73.73 0 0 1 .055.288v1.648a.746.746 0 0 1-.218.532.757.757 0 0 1-.246.162zm13.41-2.63a.73.73 0 0 1 .055.288v20.154a.73.73 0 0 1-.218.532.757.757 0 0 1-.536.218h-1.448a1.134 1.134 0 0 1-1.026-.72l-4.496-12.326c0-.06-.09-.031-.09.03v12.265a.748.748 0 0 1-.219.532.743.743 0 0 1-.535.218h-1.751a.753.753 0 0 1-.699-.462.748.748 0 0 1-.055-.288V32.403a.748.748 0 0 1 .219-.533.753.753 0 0 1 .535-.217h1.751a1.074 1.074 0 0 1 .996.72l4.223 11.786c0 .06.091.03.091-.03V32.403a.748.748 0 0 1 .218-.533.746.746 0 0 1 .536-.217h1.75a.755.755 0 0 1 .536.217.75.75 0 0 1 .163.245zm12.371 0a.745.745 0 0 1 .055.288l-.005 1.71a.748.748 0 0 1-.219.533.743.743 0 0 1-.535.218h-2.715a.324.324 0 0 0-.301.298v17.394a.748.748 0 0 1-.219.532.743.743 0 0 1-.535.218h-2.083a.753.753 0 0 1-.535-.218.737.737 0 0 1-.219-.532V35.161a.324.324 0 0 0-.3-.298h-2.776a.755.755 0 0 1-.536-.218.752.752 0 0 1-.219-.532v-1.71a.731.731 0 0 1 .219-.533.757.757 0 0 1 .536-.217h9.688a.755.755 0 0 1 .535.217.74.74 0 0 1 .164.245zm6.15 2.267c-1.207 0-1.75.9-1.75 2.01h-.004c0 1.67 1.252 2.894 3.135 4.736l.033.033c2.234 2.19 3.953 4.048 3.953 7.017a5.094 5.094 0 0 1-1.441 3.947 5.147 5.147 0 0 1-3.93 1.541c-3.32 0-5.371-2.31-5.371-5.518v-1.5a.748.748 0 0 1 .218-.532.747.747 0 0 1 .535-.217h1.842a.753.753 0 0 1 .699.462.73.73 0 0 1 .055.288v1.23c0 1.679.574 2.639 1.992 2.639.966 0 1.932-.45 1.932-2.07 0-1.937-1.404-3.262-3.154-4.914l-.196-.185c-1.812-1.734-3.772-3.718-3.772-6.807 0-2.762 1.539-5.248 5.22-5.248 3.173 0 5.104 1.829 5.104 5.877v.72a.663.663 0 0 1-.664.66h-2.112a.593.593 0 0 1-.574-.57v-.63c0-2.189-.603-2.969-1.75-2.969zm17.126.093c.242.66.338 1.366.279 2.068l.005 2.428a.729.729 0 0 1-.219.531.74.74 0 0 1-.535.218H160.6a.752.752 0 0 1-.535-.218.735.735 0 0 1-.219-.531v-2.519c0-1.2-.483-1.98-1.72-1.98-1.358 0-1.902.776-1.902 2.07v11.875c0 1.32.545 2.07 1.902 2.07 1.237 0 1.72-.78 1.72-1.98v-2.759a.748.748 0 0 1 .218-.532.746.746 0 0 1 .536-.218h1.991a.75.75 0 0 1 .699.462c.037.092.056.19.055.288v2.67a4.837 4.837 0 0 1-1.405 3.83 4.895 4.895 0 0 1-3.844 1.418 5.147 5.147 0 0 1-3.961-1.435 5.065 5.065 0 0 1-1.532-3.903V36.633a5.059 5.059 0 0 1 1.531-3.901 5.12 5.12 0 0 1 3.957-1.437 4.918 4.918 0 0 1 3.844 1.419c.499.499.883 1.1 1.126 1.76zm13.018-2.36a.728.728 0 0 1 .056.288v20.153a.73.73 0 0 1-.219.532.747.747 0 0 1-.536.218h-2.082a.75.75 0 0 1-.699-.462.748.748 0 0 1-.055-.288v-8.308a.324.324 0 0 0-.3-.298h-3.229a.324.324 0 0 0-.3.298v8.308a.748.748 0 0 1-.219.532.747.747 0 0 1-.536.218h-2.082a.75.75 0 0 1-.699-.462.748.748 0 0 1-.055-.288V32.403a.748.748 0 0 1 .218-.533.756.756 0 0 1 .536-.217h2.082a.752.752 0 0 1 .7.462.745.745 0 0 1 .055.288v8.067a.324.324 0 0 0 .3.298h3.229a.323.323 0 0 0 .3-.298v-8.067a.748.748 0 0 1 .218-.533.756.756 0 0 1 .536-.217h2.082a.752.752 0 0 1 .699.462zm11.328 2.632a.748.748 0 0 1-.289.055l-4.677.002a.324.324 0 0 0-.3.298v5.19a.324.324 0 0 0 .3.298h3.168a.748.748 0 0 1 .755.75v1.53a.731.731 0 0 1-.219.533.747.747 0 0 1-.536.218h-3.168a.324.324 0 0 0-.3.298v5.88a.324.324 0 0 0 .3.298h4.918a.752.752 0 0 1 .699.462c.037.092.056.19.055.288v1.709a.748.748 0 0 1-.219.532.743.743 0 0 1-.535.218h-8.057a.745.745 0 0 1-.754-.75V32.403a.748.748 0 0 1 .219-.533.747.747 0 0 1 .535-.217h7.816a.751.751 0 0 1 .699.462c.037.09.056.189.055.288v1.65a.748.748 0 0 1-.219.532.746.746 0 0 1-.246.162zm2.83-3.04a.755.755 0 0 1 .29-.054h2.082a.755.755 0 0 1 .536.217.753.753 0 0 1 .218.533v20.153a.73.73 0 0 1-.218.532.757.757 0 0 1-.536.218h-2.082a.753.753 0 0 1-.699-.462.748.748 0 0 1-.055-.288V32.403a.748.748 0 0 1 .219-.533.743.743 0 0 1 .245-.162zm10.698-.054c4.257 0 5.705 2.459 5.705 5.848v9.957c0 3.39-1.45 5.848-5.705 5.848h-4.403a.751.751 0 0 1-.699-.462.732.732 0 0 1-.056-.288V32.403a.731.731 0 0 1 .219-.533.745.745 0 0 1 .536-.217h4.403zm2.083 5.61c0-1.708-.451-2.548-2.202-2.548l-1.143-.002a.324.324 0 0 0-.3.298v14.937a.324.324 0 0 0 .3.298h1.143c1.75 0 2.202-.84 2.202-2.549V37.264z" fill="#fff"/></g><defs><clipPath id="clip0_327_328"><path fill="#fff" d="M0 0h213v58H0z"/></clipPath></defs></svg>