<svg width="39" height="39" fill="none" xmlns="http://www.w3.org/2000/svg"><circle cx="20.28" cy="20.413" r="10.5" transform="rotate(-15 20.28 20.413)" stroke="#235753" stroke-width="3"/><path d="M24.26 3.047c-.005.024-.064.101-.08.14-.05-.078.093-.23.08-.14zm3.293 6.439l-.007-.12c-.055.082-.102.206-.16.279-.01.012-.043-.049-.061-.019-.018.03.055.06.04.11-.018.055-.186.265-.226.347-.149.306-.264.632-.447.922.107-.34-.106-.05-.128.049-.004.022.128.085-.064.383-.122.19-.216-.09-.291.292.26-.19.124.058.026.261-.017.035-.178.306-.235.433-.02.043.016.143-.01.2-.019.039-.07.05-.098.108-.127.272-.257.537-.405.799-.097-.246-.138.085-.152.094-.08.04.052-.257-.036-.158l-.225.488c.087-.12.06.249-.026.276.168.054-.503.66-.51.8 0 .03.155-.087-.063.258-.023.037-.063-.002-.069.021-.003.014.108.164-.015.202-.044.014-.048-.222-.215.206.234-.086-.203.608-.309.722l.102-.05c-.122.106-.083.156-.1.184-.072.115-.208.254-.26.368-.06.134.034.182-.08.316.04-.025.078-.051.117-.077l-.174.31c-.002-.308-.033.049-.04.07-.011.033-.04-.037-.06.018-.001.006.05.023.015.106-.073.174-.12.116-.155.187-.003.007.052.006 0 .133-.162.404-.032-.018-.03-.036.002-.024-.247.018-.016-.28-.077.101-.163.072-.17.083a3.82 3.82 0 0 0-.096.22c-.02.108.077.052.077.076 0 .019-.187.213-.05.35-.207.034-.106-.133-.036-.33-.017-.042-.15.146-.155.157-.132.262.066.18.117.277.027.052-.113.116.05.073-.109.244-.101.067-.118.078-.026.016-.036.116-.046.124-.014.012-.026-.06-.07-.007-.007.009.011.14.106.03-.094.163-.03.178-.173.177.16.225-.17.019-.206.058-.093.105.096.156.1.166.032.071-.195.376-.212.471-.107-.094.132-.266.134-.33.008-.213-.184.214-.275.01l.047.223c-.148.046-.122-.113-.217.166.065.085.08-.191.124-.112.026.047-.041.202-.022.216.024.015.063-.136.09-.095.06.089-.27.547-.124.145-.052.106-.246.077-.24.195.004.076.4-.142.107.337-.084-.029.078-.212.074-.22a1.041 1.041 0 0 0-.213-.06c-.04.008-.202.567-.346.63.124.009-.175.395-.168.457.003.017.089.002.089.019-.003.103-.227.27-.282.373-.062.115 0 .127-.004.134-.029.05-.045-.01-.06.022-.024.047-.195.368-.195.389 0 .005.088-.017.064.06-.004.014-.073-.031-.147.195-.089.272.18-.13.203.014-.19.107-.08.156-.11.196-.01.014-.16.08-.216.207.03-.096.06-.192.088-.288-.06.08-.124.258-.178.32-.027.031-.088-.036-.124.041-.007.017.145.173.162-.067.074.017-.016.09-.02.143 0 .008.097.09 0 .111-.023.006-.27-.302-.228.192.001.017.063-.006.065.01.002.011-.063.1-.063.113.001.014.068-.01.07.007.011.089-.206.089-.124-.042l-.134.106c.156.016.001.09-.027.156-.178.42.044.19.053.282.015.148-.167-.05-.183.15-.002.019.195-.135-.056.232l.076-.18c-.144-.03-.097.214-.102.229-.06.163-.053.036-.103.298-.004.024-.058.053-.064.104-.027.215.159-.22.216-.206.028.007-.206.458-.225.468-.086.04.08-.218-.012-.199-.033.007-.309.678-.4.795-.104.135-.31.117-.117.214-.21-.052-.1.05-.111.068-.133.223-.136.223-.217.43-.018.046-.094.055-.092.075.002.012.072.026.069.08-.005.074-.253.412-.3.422-.048.01.063-.163-.01-.158-.072.13-.122.264-.194.395-.03.054-.055.006-.068.03-.006.01-.067.219-.048.218.043-.003.316-.606.306-.416-.001.037-.145.098-.026.136-.29.517-.578 1.033-.866 1.55.069-.345.313-.65.464-.973.02-.044.105-.186.04-.196-.149.264-.288.615-.454.857-.005.008-.04-.048-.063-.02-.044.05-.058.28-.094.302-.008.003-.02-.138-.078-.126-.15.03.078.17.039.242-.03.055-.333.374-.307.504.028.138.183-.255.233-.196-.064.287-.26.512-.372.757-.002.004.066-.008.046.05-.034.099-.117.089-.15.129-.037.043-.113.222-.15.232a.328.328 0 0 1-.057-.075c.009-.09.113-.072.117-.078.017-.024-.005-.067.008-.09.023-.037.066-.042.094-.092.02-.034-.059-.03-.039-.064.008-.012.215-.077.078-.16-.043-.027-.65 1.05-.669 1.178l.193-.258c-.137.171-.137.46-.315.392l-1.102 2.122c-.077.12-.152-.004-.224.222l.185-.111c-.078.095-.36.549-.376.637-.002.011.09.074.04.197-.045.11-.127.09-.17.14-.034.041-.041.104-.052.116-.009.01-.056-.008-.077.014-.065.07.096.066-.091.075l.012-.067c-.07.088-.203.191-.164.029.007-.028.04.015.05-.004.352-.737-.021-.193-.08.097-.097.034-.24.423-.258.43-.027.008-.048-.081-.134-.02-.018.012-.225.525-.223.304 0-.045.135-.273.16-.332-.203.067-.16.48-.183.513-.092.132.015-.334-.159-.02-.134.242.072.055.065.17-.005.064-.244.294-.108.351-.034.103-.075.013-.086.022-.01.01-.064.218-.122.266-.007.006-.064-.05-.073-.046a.998.998 0 0 0-.09.21c.001.007.082-.008.088.017.006.03-.094.198-.081.216.019.027.108-.199.157-.13a.57.57 0 0 0-.08.37c-.007-.025.038-.123.06-.154.09.064-.013.272-.055.162.019.066.056.046.083.09.007.012-.023.078-.012.098.003.004.072-.045.086-.022.024.042-.08.233-.097.244-.049.032-.003-.143-.038-.176-.005-.005-.152.09-.16.089-.081-.03.048-.153-.03-.17l-.098.09c0-.177.166-.425.12-.532-.08.224-.192.445-.371.357-.075-.037-.075-.15-.096-.156-.075-.02-.063.144-.069.147-.067.02.007-.215-.009-.234-.025-.032-.199-.016-.228-.031-.005-.006.027-.15-.046-.132-.074.018-.13.13-.138.132-.042.007.026-.206.01-.22-.007-.008-.116.07-.134.065-.018-.005-.015-.104-.051-.161-.028-.043-.091.012-.091-.004 0-.01.092-.197.09-.21-.004-.018-.071.003-.08-.01-.012-.017.034-.069.013-.07-.015 0-.29.157-.332.134-.072-.038.217-.205-.183-.114-.003 0-.01.067-.013.067-.07.01-.063-.211-.156.017.109-.456-.085-.105-.178-.226-.035-.046.023-.215.016-.22-.067-.013-.045.06-.083.063-.021.002-.015-.172-.072-.16-.029.007-.095.161-.103.166-.068.04-.074-.054-.108-.054-.023 0-.069.09-.073.09-.01.001-.024-.16-.037-.198-.01-.03-.079.029-.08.01-.013-.108.207-.217-.064-.14-.017.004-.043.07-.047.071-.073.013-.02-.107-.053-.15-.058-.072-.099.118-.083-.05-.1.082-.128.142-.174.273.129-.361-.008-.578-.189-.196.063-.119-.054-.16-.039-.197.01-.023.206-.144-.08-.184-.035-.005-.048.12-.095.056.141-.248-.037-.025-.046-.029-.143-.074.282-.64.318-.756.041-.133-.018-.3-.005-.327.043-.09.065.013.096.004.031-.01.044-.318.057-.327.048-.037.092.046.098.043.072-.04.186-.407.248-.494-.046-.019-.143.17-.156.016-.015-.18.185-.091.196-.09.31-.638.622-1.274.934-1.911-.109-.044-.235.41-.253.413-.11.016.239-.686.318-.753l-.164.162c-.065-.17.213-.34.24-.529.008-.06-.088.017-.09.014-.017-.082.065-.159.093-.057.01-.173.067-.12.126-.227.003-.005-.069.018-.046-.079.01-.045.118-.263.09-.313-.012-.02-.254-.003-.1.09-.195.198.037.112-.012.202-.008.014-.082-.063-.154.19-.14-.125.113-.331.115-.387.007-.114-.27.232-.178.366-.11-.096-.03.02-.078.103-.053.092-.07.032-.096.083-.07.14.048.126-.09.201.306.012-.064.215-.174.273l.18-.46-.052.005c.02-.038.042-.076.063-.113l.028.037c.017-.24.133-.244.143-.26.114-.204.233-.446.338-.658.016-.032-.077-.05.102-.25.057-.065.086.037.118-.052-.12-.19.016-.12.032-.15.044-.09.028-.166.032-.175.048-.113.135-.272.19-.396 0-.003-.085.034-.03-.037.02-.025.37-.16.403-.414l-.13.146c.054-.056.228-.549.11-.465-.07.051-.01.294-.159.243.119-.134.48-1.02.546-1.07.01-.007.027.072.04.062.008-.007.095-.208.125-.226.018-.01.003.09.023.092.015 0 .156-.235.106-.278-.007.072-.11.23-.115.118 0-.014.066-.055.065-.073-.006-.163-.18.229-.21.288.047-.277.318-.607.41-.909.103-.089-.011.203.092.095.213-.223-.03-.103-.033-.114-.015-.09.353-.185.158-.283.077-.08.086-.038.128-.186l-.067.034c-.039-.207.406-.383.416-.348.026.093-.148.213-.152.229-.008.022.162.179-.13.32.087.16.271-.319.258-.066.055-.147.436-.678.419-.79-.003-.014-.158-.034-.02-.143.066-.052-.014.112.032.096.14-.049.728-1.374.847-1.623.007-.016.046.01.053-.005.023-.05.05-.255.112-.332-.166.14.002-.21.055-.294.08-.128.148-.083.192-.133.171-.194.172-.625.42-.718-.164-.07.228-.261.3-.4.057-.11.031-.323-.107-.207.102-.186.173-.401.253-.585.013-.03.04.034.06-.018.002-.005-.04-.035-.024-.08.139-.377.15-.154.212-.206a.377.377 0 0 0 .07-.072c-.096.212-.198.461-.229.526.13-.004.212-.47.3-.576.002-.003.051.04.054.035.027-.043.148-.337.052-.312-.026.007-.091.137-.163.295.008-.048-.07-.048-.07-.057.015-.105.186-.294.234-.368.01-.017-.03-.036-.029-.039.045-.066.145.02.063-.112.208-.056-.1.252.007.273.082.016.455-.823.34-.878.014.003.035 0 .064-.015.063-.032.166-.266.165-.316 0-.009-.112-.061-.108-.07.007-.022.233-.257.221-.394l-.13.145c.169-.34.11-.304.02-.207-.003.005-.01.009-.013.014-.068.076-.148.176-.158.174-.036-.01.235-.596.281-.434.006.023-.173.266-.034.17.024-.016.09-.198.102-.202.084-.034-.034.376.065.368-.026-.127.07-.224.104-.338.016-.051-.034-.09-.032-.097.03-.095.063-.016.076-.046.007-.017-.03-.25.124-.133.16-.629-.046-.219-.211.134-.007-.141.131-.342.166-.446.012-.037-.055-.045-.037-.11.038-.131.393-.674.483-.816-.026.102.05.106.08.033.032-.074-.08-.055-.082-.074-.002-.02.205-.333.223-.394-.097.266-.007.24.106.03l.007.12c.038-.138.264-.353.272-.44.002-.013-.07.002-.07-.006.01-.074.171-.263.159-.282-.01-.016-.1.054-.104.01-.001-.01.113-.063.14-.16.01-.035-.048-.04-.047-.05.01-.08.073.002.122-.128.036-.096-.01-.204.08-.317-.31.361-.093.036-.037-.152.01-.03-.091-.051.035-.195-.017.433.135-.058.184-.15.003-.004.062.024.086-.021.002-.004-.04-.018-.022-.062.173-.414.089-.136.166-.192.033-.024.075-.247.1-.3.006-.012.044.014.066-.033.039-.084.032-.18.056-.236.003-.006.068.026.1-.088.008-.032.002-.076-.038-.044-.13.106-.155.418-.294.541-.126.113.092-.333.104-.356.004-.009-.008.094.043.01.043-.073 0-.267.082-.367a.61.61 0 0 1 .15-.042c.001.005-.047.153-.01.147.004 0 .048-.088.074-.09.032 0 .294.085.31.069.04-.04-.032-.037-.013-.066.042-.063.23-.256.15-.306l-.073.106c.098-.216.017-.144.016-.182 0-.04.069.006.112-.062.01-.015.145-.321.11-.332-.033.19-.094.083-.1.09-.02.026.013.089-.008.127-.146.269-.088-.047-.141.006-.019.019.003.085-.004.094-.023.027-.08-.002-.086.02-.013.054.096.04.098.045.03.069-.118.203-.154.055-.063.046.04.108-.027.135-.135.055-.039-.08-.033-.128.021-.168.084-.19.172-.4.032-.075.023-.188.037-.223.01-.022.293-.132.011-.281.067-.064.317-.092.349-.177.029-.077-.084-.104-.084-.113-.001-.014.051-.097.052-.134 0-.043-.047-.045-.035-.108.03-.156.132-.101.145-.112.16-.124-.022-.126-.016-.168.007-.04.302-.484.315-.602v.153c.101-.04.035-.17.151-.113-.178-.109.021-.196.04-.243.006-.019-.026-.033-.016-.056.038-.09.162-.272.17-.327.033-.238-.344.223-.372.26.044-.08.236-.564.04-.396-.031.025.023.126.016.146-.041.136-.066 0-.078.006-.02.01.01.13-.01.147-.006.006-.05-.075-.111.044-.036-.092.187-.4.194-.452.002-.019-.187.01.093-.21l-.043-.009.226-.487c.02.032.035.152.08.033.025-.069-.066-.054-.064-.061.01-.068.555-1.089.648-1.293.032-.07.075-.286.081-.3.039-.09.228-.379.252-.444.014-.04-.06-.032-.04-.065.019-.03.056.03.063.021.059-.068.287-.695.41-.81-.06.078-.169.561-.127.572.007 0 .1-.083.091-.115.065-.012-.015-.205.046-.258.007-.006.071.064.146-.047.025-.038.017-.176.141-.249.045-.172.562-.938.505-1.037-.004-.004-.091.096-.087 0 .006-.126.116.046.19-.068.011-.017.165-.36.16-.376-.036-.146-.22.129-.228.12-.02-.024.087-.275.098-.282.011-.006.027.251.104-.01l-.083.061c.03-.126.115-.096.134-.12.058-.077-.018-.23.202-.29.058-.015.073.067.081.066.076-.016-.041-.144.1-.154.01-.001-.001.182.132-.08l-.059.038c-.004-.049.117-.322.14-.355.07-.097.098.032.142-.078-.136.016.012-.31.09-.248-.087-.1.135-.33.203-.456.042-.08.077-.268.096-.291.022-.028.093.02.138-.028.013-.014.042-.21.194-.317.03-.021.188-.017.193.052.008.118-.181.238-.105.274.082.038.151-.217.193-.274.194-.263.195-.054.225-.048.073.012.15-.146.16-.15.038-.014.032.123.07.144.048.027.215-.079.215-.036-.001.062-.147.163-.148.173-.01.14.186.04.265.026.024-.004.026.063.037.054.162-.127-.145-.117-.073-.22.064-.091.076.074.082.073.007-.003.07-.119.107-.124.018-.002.01.38.084.4l.104-.316c.09.036-.044.145-.043.164.003.038.088-.021.114-.004.016.01.03.138.1.064.023-.025-.006-.118.11-.196-.111.418.07.18.106.185.036.005.017.222.115-.004.173.075.05.032.049.109-.002.094.142-.054-.04.204.086.023.194-.203.206-.212.01-.007.024.062.046.05.258-.132.116-.023.244-.035.011 0 .148-.181.086-.023-.114.288-.283.347-.068.514.206-.152.177-.476.206-.54.044-.096.043.027.062.022.007-.002.044-.085.048-.085.212.034-.18.365-.216.514l.136-.065-.07.146c.171-.202.025.002.143.134.027.03.046-.15.051.069.086-.117.095-.06.112-.197.058.033-.007.325-.028.443.249-.327-.072-.231.2-.485-.044-.095-.105.061-.11.043-.022-.065.099-.133.009-.333-.015-.032-.135.014-.068-.11a.41.41 0 0 1 .118-.057c.046.036-.013.106.007.12.019.013.051-.081.057-.079.066.03-.013.087.013.086.056-.002.355-.25.105.144.101-.381-.049-.08-.089.069-.01.037.024.065.013.12-.015.072-.07.136-.08.172-.01.04.182-.113.01.16.164-.1.198-.407.334-.518.274-.225.054.28.04.338-.003.015.072-.004.07.006-.002.018-.167.284-.138.333.03.05.05-.103.099-.089.033.01-.083.373.03.201.077-.118.072-.41.222-.383l-.247.57c.1-.077.201-.153.302-.228-.089.215-.235.365-.264.598.398-.393.05.217.065.234.01.008.234-.113.272-.13-.033.19-.262.702.045.49-.063.035-.039.208-.031.21.078.02.175-.285.215-.207.047.09-.09.114-.124.2-.17.44.255.51-.015.902l.052-.006-.755 1.34c.021.235-.15.745-.281.972a2.35 2.35 0 0 1-.221.26c-.036.021.046-.16-.032-.098-.016.013-.238.391-.162.395.03-.04.068-.193.094-.208.185-.105-.509 1.058-.496 1.139l.101-.05-.145.214zM24.28 3.445c-.04-.078.066-.168.082-.245.022-.106-.14-.387.069-.196l-.15.44zM23.175 5.4c.08-.075.18.065.085.112-.01.005-.194-.01-.085-.112zm.551-.931a.71.71 0 0 1-.047.084c-.09.043.042-.19.047-.084zm-2.284 4.692c.045-.105-.116-.094-.097-.005a.25.25 0 0 0 .097.005zm.04-.07c.15-.024.006-.295-.035-.158a.621.621 0 0 0 .034.157zM23.393 5.1c.037.032-.031.117-.062.152-.038-.02.047-.11.062-.152zM22.19 7.511c.031.02.196-.31.164-.354-.008.061-.192.335-.164.354zm-.38.87c.01-.006.058-.125.027-.136-.067.036-.073.16-.028.135zm-.852 1.679c.004.01.234.019.009.16-.033.02-.028-.111-.04-.104a.145.145 0 0 0-.048.043c.032-.102.074-.203.09-.207.077-.017-.013.104-.011.108zm-.307.953c.02.035-.058.15-.085.172-.005.004-.074-.058-.096.001-.018.047.098.022.04.103-.057.081-.056-.066-.064-.06-.01.007-.043.162-.088.134-.034-.021.064-.155.074-.195.014-.052-.073-.025-.022-.096.033-.045.123.035.133.027.009-.007.035-.207.108-.086zm.22-.826c0-.009.002-.018.008-.028l-.008.028zm3.322-6.454c-.057.032-.026-.13.043-.163.034.016-.035.158-.044.163zm-3.282 6.584c-.097.127-.08.006-.04-.13 0 .05.073.088.04.13zm1.964-3.992c-.01.002-.024 0-.044-.01.029-.004.041 0 .044.01zm-.2.308c.004.143.116-.086.072-.106-.016-.008-.072.1-.072.106zM21.37 9.29c.011-.008.113.243.093-.057-.084.113-.038-.027-.055-.033-.048-.019-.109.21-.152.246.064.078.077-.133.114-.156zm-1.567 3.293c-.033-.053.027-.134.06-.193.034.053-.026.134-.06.193zm-7.899 15.74c.161-.436.384-.392.119-.052-.006.006-.111.087-.118.052zm1.815-3.52c.105.004.054.14-.023.206-.018.015-.14.043-.116-.046.102.054.204-.051.139-.16zm7.207-14.378c.036.07-.068.174-.11.236-.026-.064.063-.187.11-.236zm-8.245 16.59c.028-.04-.031-.106-.041-.102-.046.02-.026.131.041.103zm8.458-16.99c.037.011-.014.194-.104.163.024-.033.08-.17.104-.163zm-1.253 2.457c.03-.017-.006.132-.044.164-.034-.021.024-.153.044-.164zm-6.881 13.82c.025-.036.076-.132.051-.158-.03-.032-.089.117-.051.158zm-3.528 7.297c-.016-.002-.039-.201.019-.256.11-.105-.006.255-.019.256zm3.038-6.152c-.132.088.004-.015-.073-.046-.044.081-.15.285-.006.18.028-.02.055-.098.079-.134zm.081-.101c-.018-.025-.05-.152-.082-.072-.015.036.04.135.082.072zm-2.691 5.299c.12-.078-.164.411-.183.42a.072.072 0 0 1-.024.007c.011.03-.032.127-.09.112.018-.027.052-.107.062-.114a.042.042 0 0 1 .012-.005c-.03-.056.2-.405.223-.42zm.481-.805c.035.174-.142.115-.141.101 0-.17.077-.021.085-.022.014-.005.006-.131.056-.08zm-.37.646c0 .007-.057.11-.062.113-.098.06.064-.233.063-.113zM20.43 11.737c-.054.067-.077-.038-.03-.077.004-.003.079.017.03.076zm-7.82 15.54c.02-.013.287-.44.181-.46-.008.044-.31.532-.181.46zm1.695-3.348c-.04.08-.084-.05-.03-.076.02-.01.04.057.03.076zm7.026-14.09c-.006-.106.144-.008.054.035a.208.208 0 0 1-.054-.035zm-7.392 14.698c.084-.3.327-.097.057.212l-.02-.052c-.246.39-.034.018.001-.09.013-.04-.049-.032-.038-.07zm.58-1.021c.326-.166-.052.273-.099.43-.01-.18.093-.356-.113-.15.164-.37.167-.18.18-.191.016-.014.018-.082.031-.09zm-.346.694c-.002.018-.099.113-.113.157-.037-.09.125-.277.113-.157zm-3.399 6.727c.048.035.075.078.01.159-.012-.041-.006-.11-.01-.16zM24.6 3.497c.035-.06.117-.174.043-.164-.006.002-.074.148-.043.163zM13.302 25.991c.013-.01.188-.35.07-.261-.034.027-.182.342-.07.26zm-.89 1.772c.015-.029.063-.15.052-.159-.039-.029-.087.126-.052.159zM24.81 3.21c.01-.006.096-.2.06-.192-.067.015-.092.21-.06.192zm-4.396 8.862c-.006.016-.074.009-.077.014-.007.013-.132.314-.149.166-.002-.024.236-.428.27-.479.089.019-.075.16-.089.207-.002.009.06.046.044.091zm-9.818 19.363c.044.038-.093.397-.15.363l.15-.363zm.095-.17c.07-.056-.002.121-.043.164-.033-.016.032-.156.043-.164zm2.229-4.06c.005-.04-.12.03-.122-.001-.002-.02.064-.083.053-.119-.003-.01-.11.034-.119.058-.012.035.057.03.04.065-.057.117-.146.202-.2.312-.004.01.071-.048.029.036-.007.013-.102.063-.143.169.063.309-.19.387-.267.701.022-.002.171-.192.179-.203.146-.223.36-.644.482-.892.032-.063-.02-.05-.008-.079.01-.022.065.038.076-.047zm11.7-23.658c.083.005.092-.12.13-.185-.074-.007-.082.128-.13.185zM11.504 29.753c.014-.035.086-.128.07-.147-.022-.025-.113.116-.07.146zm8.065-16.054a.704.704 0 0 1-.048.084c-.09.044.042-.19.047-.084zm-.978 1.906c-.022.065-.032.137-.097.13.027-.035.062-.157.097-.13zm-1.328 2.64c.079.024-.06.184-.084.215-.025-.029.027-.231.084-.214zm-6.255 12.791c-.06.11.062.14-.023.187-.014.008-.261-.068-.114-.149.026-.014.037.1.137-.038zm2.957-6.23c.033.052-.025.133-.06.192-.028-.032.042-.148.06-.193zm11.073-21.91c.094-.018.166-.285.091-.248-.01.006-.072.215-.091.248zM21 10.817c.003.127.124-.071.105-.162-.012.03-.105.154-.105.162zm-3.378 6.814c0 .006-.059.109-.064.112-.099.059.066-.232.064-.112zm1.374-2.611c.024.06-.137.292-.21.326-.036-.086.179-.4.21-.326zm-7.79 15.54a.916.916 0 0 1-.144.214c-.03-.034.111-.22.143-.215zM17.43 18.02c-.003.005-.01.009-.013.014l.013-.014zm-5.314 10.76c.048-.059-.027-.078-.03-.075-.048.04-.024.144.03.076zM24.758 3.524c.073.007.082-.128.13-.186-.058-.005-.11.13-.13.186zm-9.974 19.774c.108-.051.014.329-.065.38-.043-.016.05-.373.065-.38zm6.463-12.742c.051.017.066-.155.028-.136-.024.012-.06.125-.028.136zm-6.641 13.28c-.002.039-.086.09-.102.05-.02-.053.102-.061.102-.05zm-1.4 2.901c.015-.01.06-.224-.028-.17-.06.037.004.08-.002.093-.007.014-.243.276.03.077zm2.578-5.332c-.018.08-.082.156-.118.23-.014-.044.063-.22.118-.23zm5.197-10.291c.028-.008.277-.472.083-.235-.011.014-.167.258-.083.235zm-9.973 19.923a.273.273 0 0 1 .032-.046c-.01.018-.022.033-.032.046zm.637-1.27c.022.043.096-.082.096-.13-.037-.033-.099.124-.096.13zm4.066-8.101c-.001.053-.062.12-.086.174-.028-.025.044-.172.086-.174zm1.55-2.995c-.063.075-.107.184-.068.206a.05.05 0 0 0-.026.003c-.01.004-.037.104-.07.137-.2.197.413-.94.188-.215l-.025-.131zm1.998-3.941c.072-.024.08-.19.044-.164-.026.018-.117.188-.044.164zm-.909 1.873c.016-.01.05-.16.026-.175-.065.062-.099.22-.026.175zm1.152-2.216c.023-.027-.035-.105-.04-.103-.044.017-.028.132.04.103zm-8.17 16.521c.045-.034.06-.207.025-.263.012-.001.033-.01.063-.032.04-.029.64-1.185.154-.45-.016.022.047.012-.01.107-.004.007-.043-.009-.055.01-.027.046-.175.284-.17.349a.032.032 0 0 0-.024 0c-.085.035-.017.306.018.28zm6.893-14.04c.028-.02.057-.11.028-.135-.037.033-.091.18-.028.135zm2.9-5.7c.054-.04.072-.203.024-.176-.029.017-.087.223-.025.176zm-2.493 4.848c-.195.291-.034.076-.01.148l.01-.148zM10.494 32.29c.036-.044.103.062.024.09-.025.01-.044-.065-.024-.09zM9.42 34.555c.106 0-.046.182-.065.073 0-.005.06-.072.065-.073zm.806-1.556c-.04-.062-.037-.087.024-.176-.053.15.063.044-.024.176zM17.2 18.88l-.007-.003a.03.03 0 0 1 .007.002zm2.435-4.793c.068-.014.12-.125.054-.117-.006 0-.082.083-.054.117zm-8.278 16.558c-.012 0-.016-.005-.017-.016a.037.037 0 0 1 .017.016zM19.38 14.69c-.035-.022-.133.137-.132.145.015.128.1-.075.131-.145zm2.35-4.594c0-.01-.122-.003-.102.05.015.04.1-.01.101-.05zM10.09 33.334c-.026.053-.062.128-.114.12.024-.033.082-.137.114-.12zm-.57 1.17c-.022-.089.048-.231.102-.318.07.032-.09.251-.102.318zm1.716-3.467c.005-.002.091-.125.035-.13-.08-.007-.079.155-.035.13zm10.314-20.71c.002.075.169-.01.124-.11-.022-.052-.124.098-.124.11zm-1.68 3.452c.013-.092-.132.077-.097.128.022-.034.093-.096.097-.128zm-1.284 2.668c.264-.174-.059-.17-.058-.115 0 .008.052.12.058.115zM25.624 2.43c-.002-.044-.138.05-.1.09.024.025.101-.061.1-.09zM16.64 20.09zm3.774-6.922c-.285.073-.123.131-.132.146-.018.031-.11.08-.132.145l.04-.243c-.043.048-.357.49-.33.516.038.038.1-.12.106-.123.009-.003.148.037.16.026.019-.02.224-.419.288-.467zm-1.591 2.756c-.035.032-.091.018-.088.042 0 .008.048.033.05.06l.038-.102zm1.569-3.154c.083-.02-.05.188-.06.192-.058.017-.008-.176.06-.192zm-.928 1.86c.007-.006.11-.165.077-.18-.047.032-.168.253-.077.18zm-.69 1.425c-.035.056-.14.143-.06.167l.06-.167zm2.827-5.45c.17-.05-.002-.072-.087.006.036.055.059.003.087-.005zm.262-.306c.036-.02.172-.344.087-.327-.03.006-.067.213-.075.22-.013.01-.05-.082-.086.02.025.006.062.094.074.087zm-.143.254c.142-.065-.006-.17-.048-.09-.017.032.028.099.048.09zm-.238.436c.035-.031.11-.124.093-.223l-.16.281c.025.027.036-.03.067-.058zM9.614 35.365c.088-.065.008.144-.008.147-.05.007-.032-.118.008-.147zm17.814-32.87c.03-.014.098 0 .094-.068l-.213.092c.08.093.086-.007.12-.023zm.473-.015c-.001.009.175.047.022.091-.103.03.008-.36.11-.39-.004.087-.12.225-.132.3zm.99-.283c.014.003-.036.147-.053.158-.087.06-.025-.169.052-.158zm-.248.417c.062-.048.01.102-.028.135-.03-.01.019-.127.028-.135zM12.316 35.598c.14-.017-.059-.19-.065-.062 0 .006.058.062.065.062zM28.98 2.41c-.062.048-.01-.102.028-.135.03.01-.019.128-.028.135zM12.593 35.674c.122-.054-.151-.148-.167-.142-.064.028-.042.239-.034.284.08-.26.144-.117.202-.142zm.053-.498c.014-.099-.145.093-.093.17.017-.045.09-.142.093-.17zm.336-.475c.032-.041.12-.166.091-.21-.017.054-.123.17-.091.21zm.172-.044c.09-.044-.062-.14-.054-.035 0 .005.05.036.054.035zm.255-.373c.087-.015-.042-.145-.083-.071-.013.022.073.072.083.071zm-.482 1.411c.06-.053-.009-.194-.091-.057l.023-.176c-.155.157.006.219-.027.27-.046.07-.17.002-.202-.033.047.1-.08.363-.14.522.099-.117.261-.306.346-.427.025-.034.008-.088.027-.118.032-.048.06.022.063.02zm.744-1.937c.14-.102-.059-.092-.07 0 .001.004.067.002.07 0zM29.544 2.465c-.157.15-.176-.026-.24.423-.01-.207-.061-.042-.082-.093-.017-.04.055-.122-.032-.097.1-.04.241-.362.259-.37.01-.005.145.09.095.137zM13.39 34.9c.211.047-.08-.118.121-.131-.168-.232-.163.331-.382.292.264-.48-.35.23.106.03-.243.23-.01.11.006.17.016.067-.105.205-.03.232l.129-.3c-.2.02-.056-.157.101-.164l-.051-.129zm-.414.483c.008-.008.09-.23.054-.232-.034.019-.158.332-.054.232zm-.426.951c.038-.076.126-.18.089-.249-.038.076-.126.18-.089.25zm1.943-3.92c0-.12-.16.171-.063.112a1.03 1.03 0 0 0 .063-.113zm-1.023 2.251c.106-.07-.1-.114-.089-.017.001.005.084.02.089.017zM29.49 2.625c.042.03-.124.279-.147.326-.029-.048.1-.36.147-.326zM12.653 36.55c.237-.072.15-.37.166-.39.015-.02.068.05.073.045.01-.01.12-.252.122-.266 0-.01-.121-.015-.128-.08.01.124-.24.544-.24.572 0 .022.17-.06.007.12zm.215-.436c-.071.04.006-.131.041-.164.079-.073-.032.159-.041.164zm.236-.384c.019-.015.112-.183.073-.22-.1.051-.116.252-.073.22zm.938-1.924c.016-.048.113-.154.076-.18-.017.047-.113.153-.076.18zM29.386 3.709c.071-.057-.002.122-.044.164-.028-.01.038-.159.044-.164zm-15.52 31.13c.026-.02.261-.577.28-.662-.068.06-.334.595-.331.626.001.01.048.039.051.036zm-.556 1.18c.035.08-.052.077-.056.083-.04.057-.088.19-.132.134.076-.097.118-.373.188-.216zm1.021-2.117c.069-.195-.168.127-.083.111a.647.647 0 0 0 .084-.111zm-.477 1.006c.028.065-.28.586-.322.673-.051-.122.047-.152.094-.258.013-.03-.028-.04-.026-.043.022-.05.047.008.062-.022.01-.019.152-.44.192-.35zm-.516 1.16c.019.047-.132.393-.148.402-.118.069.123-.381.148-.402zm.62-1.17c.075.109-.127.344-.088.134.004-.02.085-.072.088-.134zm.462-.928c.008-.008.123-.19.092-.209-.027.021-.176.295-.092.209zm.063.154c.001-.005-.084.009-.032-.077.005-.007.083.014.112-.112.006-.026-.024-.084-.028-.083-.17.062-.13.522-.052.272zm-1.09 1.979c.038-.004.106.084.041.102-.027.007-.066-.05-.042-.102zm1.356-2.727c-.001.139.182-.206.177-.23-.04-.006-.177.217-.177.23zM29.714 4.093c-.059.087-.074.007-.078.01-.166.166-.038.165-.042.202-.008.08-.126.007-.132.145.019-.224-.035-.039-.082-.056-.19-.07.21-.205.219-.317.001-.015-.104.051-.104.01.002-.135.447-.328.22.006zM13.427 36.24c.032.07-.181.374-.182.266 0-.018.137-.368.182-.266zm7.724-15.337c.006.102.152-.054.134-.106-.01-.026-.136.061-.134.106zm.841-1.185c.038-.099-.103-.293-.132-.162-.003.014.1.16.132.162zm-3.19 6.114c.117-.064-.012-.121-.046-.048-.012.025.043.05.046.048zm1.858-3.75c.01-.007.058-.125.027-.135-.038.033-.089.184-.027.135zm-1.855 3.79c.006-.069-.136-.015-.082.101.011-.04.081-.093.082-.1zm-4.467 8.962c-.028-.075.056-.205.086-.29.072.026-.07.227-.086.29zm7.377-14.756c-.003-.113-.137.058-.066.072a.516.516 0 0 0 .066-.073zm-4.466 8.932c-.008-.085-.164.094-.065.072a.559.559 0 0 0 .065-.072zm-.469.885c.038-.042.138-.254.058-.192-.012.01-.093.17-.058.192zm12.86-25.56c.082.01-.012.154-.035.17-.01.006-.073-.18.035-.17zM19.13 25.2c.017-.055.1-.178.075-.22-.024.066-.155.2-.075.22zm2.38-4.718c.115-.04.174-.176.06-.192-.068.149.096.026-.06.192zm-2.789 5.757c.026-.038-.052-.116-.06-.114-.063.023.004.136.06.114zm1.45-3.092c.042.018.09-.121.055-.117-.012.001-.088.103-.054.117zm-4.967 9.985c.066-.042.012.159-.058.192-.075-.005.05-.187.058-.192zm2.93-5.776c.057.035.125-.185.035-.13-.022.014-.053.117-.035.13zm-.9 1.988c-.003-.172-.34.377-.176.27a2.5 2.5 0 0 0 .176-.27zm-.51.916c.019-.02.214.092.088.152-.016.008-.04-.079-.057-.075-.01.003-.144.202-.144.214 0 .013.07.033.073.047.002.016-.12.119-.154.187-.065.128-.019.169-.024.18-.015.03-.079.064-.11.126-.155.316-.348.82-.586 1.014.156-.2.212-.436.307-.664.08.12.075-.369.091-.076.024-.12.452-1.04.515-1.104zm5.51-10.885c.04.092.173-.212.106-.277-.03.034-.11.266-.106.277zm-.52 1.448c-.002.034.12.127-.021.237-.041.033-.05-.032-.065-.03-.007 0-.14.098-.095-.016.067-.175.108.034.154-.054.005-.01.017-.215-.004-.213-.002 0-.012.058-.023.063-.04.02-.075-.017-.08-.014-.012.012-.074.314-.155.32-.027.003.146-.456.165-.468.012-.007.126.056.143.05.008-.002.053-.2.075-.217a.095.095 0 0 1 .017-.01c-.05.008.033-.15.071-.124.015.01-.05.115-.054.118l-.006.002c.055 0-.133.369-.028.322-.018.125-.088-.064-.094.034zm-.187.552l-.02-.052c-.064.203-.232.39-.34.606-.028.055.079.03.022.091-.045.05-.146.079-.146.04 0-.01.104-.105.129-.166.073-.18-.013-.168-.01-.18.004-.011.104-.098.132-.158.07-.153.065-.241.22-.42-.018.14.106.12.013.239zm-3.64 6.932c.037.028-.06.133-.077.18-.037-.027.06-.132.077-.18zm9.26-18.28c-.048-.07-.207.204-.114.157a.76.76 0 0 0 .113-.157zm-.683 1.25c0 .047.124-.081.073-.107-.017-.008-.073.101-.073.107zm-6.22 12.492a.842.842 0 0 1-.074.106c-.104.034.108-.288.074-.106zm5.521-10.907c.023-.154-.196.234-.08.14.006-.004.079-.133.08-.14zm-.266.557c.013-.032.106-.162.086-.174-.03-.019-.134.13-.086.175zm-6.541 12.972c.082.022-.067.18-.09.248-.082-.022.067-.179.09-.248zm.64-1.141c-.332.81-.406.558-.014-.065.049.023.034.014.013.065zm-.51.995c-.033-.052.026-.134.06-.192.027.028-.046.145-.06.192zm8.33-16.503c.036.08-.148.259-.153.208 0-.012.13-.242.154-.208zm-7.143 14.124c.082.018-.066.238-.09.248-.102.04.096-.22.09-.248zm-1.806 3.666c.036.07-.052.172-.09.248-.032-.059.057-.185.09-.248zm.317-.524c0 .006-.058.108-.063.112-.099.059.064-.233.063-.112zM30.325 4.239a.696.696 0 0 1-.048.084c-.09.044.042-.19.048-.084z" fill="#CC0070"/><path d="M6.746 13.672c.021.01.069.084.098.107-.087.028-.172-.142-.098-.107zm6.78-1.533l-.105-.017c.051.067.143.134.186.2.007.012-.056.031-.037.054.02.022.07-.04.108-.015.042.027.167.22.224.271.215.194.459.357.65.574-.26-.156-.078.089.001.126.018.008.113-.103.31.123.126.143-.144.183.162.314-.085-.27.087-.105.233.016.024.02.211.211.303.281.031.024.127.005.169.038.028.023.022.073.065.106.198.155.39.312.578.484-.24.057.038.14.04.154.014.08-.21-.083-.146.012.123.093.24.181.365.273-.083-.097.232-.025.233.058.089-.151.45.55.574.572.026.004-.04-.156.21.088.026.027-.017.06.002.068.01.005.17-.083.175.037.002.043-.207.022.13.224-.021-.229.486.255.565.367l-.021-.102c.065.126.12.095.14.114.083.078.175.22.267.28.107.073.17-.012.264.109l-.043-.119.237.196c-.275-.03.038.036.056.045.028.014-.042.034.004.06.005.002.03-.047.099-.004.141.088.079.126.135.166.005.004.016-.048.118.011.324.19-.023.03-.039.026-.02-.004-.035.237-.252-.01.074.082.03.161.038.17.008.008.165.106.175.11.092.028.063-.068.084-.067.017.002.15.196.3.076-.015.199-.14.09-.3.008-.041.013.097.154.105.16.204.145.173-.05.27-.09.05-.022.077.114.074-.042.19.12.038.1.043.117.009.026.094.041.099.051.008.014-.058.02-.02.066.006.007.124-.001.048-.098.123.1.149.04.119.175.229-.136-.018.164.01.2.073.095.155-.081.165-.085.068-.025.294.21.375.232-.104.096-.21-.142-.266-.148-.186-.022.153.189-.044.263.069-.01.137-.02.206-.032.013.144-.123.11.106.218.088-.056-.154-.087-.075-.125.046-.022.17.051.186.034.018-.022-.108-.068-.067-.092.09-.052.433.289.105.128.084.055.023.238.129.24.068 0-.053-.39.317-.085-.04.079-.173-.085-.18-.082a1.202 1.202 0 0 0-.093.2c0 .04.467.223.498.363.03-.118.322.187.378.182.016-.002.017-.085.031-.084.09.007.203.229.286.286.092.063.113.005.118.008.04.03-.016.043.01.059.038.024.297.2.315.2.005 0 0-.085.064-.06.01.005-.04.07.15.148.228.093-.088-.176.043-.195.067.186.127.081.158.112.01.01.048.156.152.213a55 55 0 0 1-.243-.093c.061.06.21.127.258.18.024.027-.044.084.019.12.014.008.174-.135-.037-.157.026-.07.078.018.125.023.007 0 .093-.091.099.002 0 .023-.308.255.138.224.015 0 .003-.06.018-.062.01-.002.08.062.092.062.012 0 0-.065.015-.067.08-.009.051.2-.054.12l.076.13c.036-.15.08 0 .135.029.35.178.175-.04.258-.047.134-.011-.067.16.11.18.016 0-.096-.19.199.056l-.15-.076c-.046.139.178.096.19.101.138.06.025.052.253.102.02.005.04.057.085.063.187.027-.177-.155-.157-.21.01-.027.382.201.388.22.025.084-.184-.078-.178.011.002.032.567.3.661.388.108.1.07.3.178.113-.07.204.033.096.048.107.184.128.184.13.36.207.04.017.04.09.058.089.01-.002.03-.07.078-.067.066.004.342.24.347.286.005.047-.14-.059-.143.011.11.069.224.115.334.184.046.028 0 .053.02.065.009.005.19.061.191.043.002-.041-.511-.297-.342-.29.033 0 .073.138.119.023.433.273.87.543 1.308.81-.303-.059-.556-.289-.83-.43-.038-.019-.157-.098-.172-.035.222.14.524.268.727.423.007.005-.046.04-.023.062.042.041.246.05.263.084.002.008-.125.023-.12.08.016.143.16-.08.22-.045.047.028.31.313.429.284.125-.032-.215-.17-.158-.22.252.053.438.236.65.337.004.002-.002-.064.048-.047.087.03.071.111.105.143.036.034.191.101.198.137a.347.347 0 0 1-.07.058c-.081-.005-.058-.107-.063-.112-.02-.015-.06.008-.08-.004-.031-.021-.033-.063-.076-.088-.03-.018-.032.058-.06.04-.01-.007-.054-.207-.139-.07-.027.043.898.595 1.014.607l-.22-.178c.145.128.403.116.332.292.613.329 1.228.652 1.848.971.105.07-.01.149.191.207a73.741 73.741 0 0 1-.093-.175c.083.071.479.321.572.339.011.002.074-.09.19-.044.101.04.08.122.123.162.037.032.092.035.102.045.007.008-.012.055.006.073.054.057.064-.096.054.08-.017 0-.035-.003-.054-.005.069.06.127.17.01.154-.022-.003.015-.04.001-.046-.625-.298-.136.05.065.062.021.092.219.125.224.14.002.024-.054.065-.023.13-.008.01.38.09.211.138-.044.008-.2-.064-.232-.074.024.173.353.044.366.053.095.052-.235.07-.007.155.19.067.035-.082.121-.104.046-.012.25.155.28.011.085.005.019.069.028.077.008.007.183.003.233.046.006.005-.032.074-.026.082.01.013.183.037.192.032.006-.003-.02-.077 0-.09.023-.013.189.04.203.023.019-.025-.195-.053-.143-.118a.49.49 0 0 0 .343-.016c-.02.013-.119-.007-.15-.02.038-.103.249-.054.158.014.056-.035.03-.066.066-.103.009-.01.076.004.093-.012.003-.003-.057-.059-.038-.077.032-.034.239.023.254.038.042.04-.138.035-.162.076-.004.007.12.128.12.137-.01.085-.157-.013-.156.066l.108.076c-.173.038-.433-.06-.518.011.214.02.45.078.403.272-.02.082-.126.108-.127.13-.004.077.147.027.152.032.032.061-.202.044-.217.064-.023.032.025.196.018.228-.005.006-.143.01-.112.077.031.066.145.095.148.101.014.04-.193.024-.203.043-.006.01.086.096.085.114-.001.019-.091.04-.136.09-.033.036.028.084.015.088-.01.002-.194-.04-.204-.035-.016.008.016.068.007.08-.014.015-.068-.016-.065.005.003.015.193.24.18.286-.02.078-.22-.158-.067.205.001.002.06-.007.062-.005.02.065-.174.113.042.147-.418.009-.076.107-.165.227-.034.046-.191.033-.194.04 0 .069.06.03.07.065.005.02-.147.058-.126.11.01.026.156.05.161.056.047.055-.033.085-.027.118.003.022.089.043.09.047.002.008-.133.063-.164.086-.023.018.038.068.023.075-.09.04-.223-.144-.11.097.007.015.068.023.07.026.023.067-.088.047-.118.09-.053.074.116.064-.029.092.087.076.142.086.257.097-.321-.03-.482.157-.133.231-.108-.028-.124.094-.158.089-.02-.004-.158-.16-.142.125.002.035.11.015.064.076-.234-.07-.014.043-.017.052-.03.158-.612-.106-.739-.118-.136-.01-.29.082-.32.074-.1-.025-.001-.066-.018-.095-.015-.028-.336.013-.352.001-.053-.043.03-.1.024-.105-.07-.067-.46-.126-.586-.192-.012.05.226.134.051.16-.208.026-.148-.188-.148-.198-.925-.367-1.269-.59-1.885-.877-.044.109.369.212.37.23.011.106-.621-.204-.681-.28l.144.155c-.16.071-.307-.195-.48-.214-.056-.006.012.085.009.087-.076.02-.144-.057-.05-.088-.159-.005-.107-.061-.204-.116-.005-.002.014.067-.075.048-.041-.009-.237-.106-.285-.077-.02.012-.013.25.08.094.174.185.104-.04.185.006.013.007-.062.082.169.144-.12.143-.301-.099-.352-.1-.105-.001.204.257.331.162-.093.112.017.03.093.073.083.049.027.068.073.091.127.064.118-.052.184.08.02-.3.195.055.245.16l-.42-.157.004.05-.103-.057.036-.03c-.222-.007-.221-.121-.235-.13-.186-.105-.404-.212-.596-.309-.029-.014-.05.077-.227-.092-.056-.054.038-.085-.042-.114-.181.125-.11-.012-.138-.026-.081-.041-.152-.024-.16-.027-.103-.044-.245-.125-.358-.175-.002 0 .028.081-.035.03-.022-.019-.13-.358-.363-.386l.129.124c-.05-.052-.497-.212-.425-.099.043.07.271.004.216.152-.118-.113-.919-.453-.961-.517-.006-.01.069-.027.06-.04-.006-.008-.187-.09-.201-.12-.009-.018.083-.004.085-.024.001-.014-.207-.15-.25-.1.066.006.206.106.102.111-.014 0-.047-.064-.063-.063-.152.008.2.174.253.203-.254-.043-.543-.306-.817-.394-.076-.101.188.01.095-.091-.193-.208-.098.03-.109.033-.084.015-.147-.346-.252-.154-.07-.076-.028-.085-.163-.126l.026.066c-.195.038-.325-.398-.292-.408.089-.025.187.145.201.15.02.007.178-.16.287.126.155-.085-.275-.265-.041-.253-.133-.053-.595-.427-.7-.411-.014.002-.045.155-.135.018-.042-.065.103.014.092-.03-.034-.136-1.211-.729-1.43-.852-.014-.008.015-.045 0-.053-.042-.023-.231-.054-.297-.117.114.165-.194-.008-.267-.062-.11-.082-.061-.147-.103-.192-.162-.173-.563-.19-.62-.436-.085.158-.216-.233-.337-.31-.095-.06-.296-.044-.205.096-.16-.108-.352-.188-.512-.276-.027-.014.037-.037-.01-.06-.004-.002-.037.038-.077.02-.333-.157-.124-.155-.164-.219a.327.327 0 0 0-.058-.072c.185.106.403.218.46.252.012-.126-.41-.232-.497-.323-.003-.003.044-.048.04-.051-.036-.029-.292-.165-.283-.07.003.026.115.098.253.177-.044-.011-.055.065-.063.064-.096-.02-.248-.2-.31-.25-.015-.012-.038.027-.04.026-.056-.048.039-.14-.096-.07-.023-.205.22.114.254.012.026-.078-.7-.497-.767-.391.005-.013.005-.034-.004-.063-.02-.064-.223-.181-.27-.184-.007 0-.073.103-.08.1-.02-.01-.204-.248-.333-.248l.115.14c-.29-.194-.266-.134-.19-.038.005.003.007.01.011.014.06.073.141.159.137.168-.015.035-.518-.28-.36-.31.022-.004.22.19.154.048-.012-.025-.17-.105-.173-.117-.018-.084.344.065.353-.032-.122.015-.197-.087-.297-.13-.046-.019-.09.025-.096.023-.083-.037-.005-.062-.03-.078-.014-.008-.238.006-.103-.132-.558-.215-.212.024.089.217-.132-.007-.296-.16-.387-.203-.032-.015-.05.049-.108.025-.116-.048-.565-.452-.68-.556.09.037.107-.035.045-.074-.063-.039-.066.072-.083.071-.02 0-.273-.235-.326-.26.229.124.221.035.049-.099l.111.008c-.12-.053-.274-.294-.351-.312-.012-.003-.013.068-.02.067-.066-.018-.209-.196-.228-.186-.017.008.03.102-.012.101-.01 0-.035-.116-.117-.153-.03-.013-.047.042-.056.04-.07-.02.017-.07-.092-.131-.079-.045-.19-.016-.276-.117.273.345.014.094-.148.017-.025-.013-.066.081-.17-.058.392.07-.025-.136-.102-.197-.004-.004.034-.057-.003-.086-.003-.002-.025.036-.062.013-.345-.221-.106-.103-.142-.185-.014-.033-.213-.106-.256-.137-.01-.008.023-.04-.016-.068-.07-.049-.159-.056-.204-.086-.006-.004.04-.06-.06-.108-.028-.013-.07-.013-.05.03.073.142.35.205.437.357.079.138-.29-.136-.308-.15-.007-.004.085.021.018-.04-.056-.05-.245-.038-.32-.13a.581.581 0 0 1-.006-.15c.005-.001.131.067.134.03 0-.004-.071-.058-.067-.083.006-.031.143-.27.133-.287-.028-.043-.042.025-.064.002-.046-.047-.184-.258-.249-.188l.083.086c-.178-.127-.13-.038-.165-.043-.038-.006.02-.065-.032-.116-.01-.011-.262-.188-.28-.158.169.063.056.104.06.11.02.025.086.003.116.028.212.18-.064.077-.027.136.013.02.079.01.085.018.02.026-.02.076 0 .085.046.021.057-.086.063-.087.07-.018.161.144.015.156.03.068.11-.022.12.047.021.138-.083.025-.126.012-.152-.047-.158-.11-.329-.226-.063-.043-.17-.053-.2-.072-.018-.012-.051-.3-.256-.056-.043-.074-.012-.319-.082-.363-.063-.04-.116.062-.124.06-.013 0-.077-.064-.11-.071-.04-.008-.053.037-.11.014-.138-.058-.061-.144-.068-.16-.075-.174-.122 0-.16-.014-.034-.012-.37-.376-.477-.412.048.01.095.02.142.028-.01-.102-.149-.066-.066-.165-.147.149-.176-.058-.214-.084-.016-.01-.038.017-.056.003-.071-.052-.209-.208-.257-.226-.21-.08.116.372.143.405-.063-.056-.46-.34-.358-.118.016.034.123.004.14.014.116.068-.017.064-.014.076.004.021.123.017.133.039.004.007-.082.033.011.115-.093.016-.322-.26-.367-.277-.017-.006-.041.18-.169-.133l-.02.04-.39-.32c.036-.014.151-.001.053-.07-.056-.039-.068.05-.074.048-.06-.024-.843-.772-.999-.91-.053-.046-.238-.137-.25-.147-.069-.057-.272-.304-.323-.342-.032-.023-.048.048-.072.021-.022-.024.045-.044.04-.053-.045-.072-.537-.437-.6-.578.051.073.45.293.474.256.003-.005-.042-.113-.074-.112.01-.063-.19-.036-.217-.105-.003-.008.081-.051.006-.147-.026-.033-.154-.06-.177-.192-.14-.083-.648-.747-.754-.718-.005.003.054.108-.029.08-.11-.036.08-.095.004-.191a3.282 3.282 0 0 0-.278-.239c-.142-.002.038.234.027.239-.027.013-.213-.146-.216-.159-.001-.011.233.037.027-.097l.026.091c-.102-.058-.047-.13-.061-.153-.047-.071-.208-.038-.185-.254.006-.057.084-.05.085-.059.012-.073-.142.003-.102-.129.003-.01.16.044-.025-.14l.014.063c-.044-.007-.243-.183-.265-.213-.062-.087.061-.082-.02-.148-.032.128-.267-.084-.185-.142-.119.056-.243-.202-.33-.292-.056-.058-.211-.135-.225-.158-.016-.027.05-.08.024-.132-.007-.015-.168-.087-.211-.252-.009-.032.049-.176.112-.164.108.02.148.222.205.16.062-.066-.139-.189-.175-.242-.164-.238.02-.19.035-.216.037-.064-.075-.17-.075-.18 0-.039.118-.001.15-.03.04-.04.005-.217.042-.206.054.015.092.171.101.175.118.04.1-.16.114-.236.005-.023.064-.01.06-.021-.055-.178-.152.105-.217.015-.06-.08.09-.052.091-.058 0-.007-.08-.093-.072-.127.004-.017.337.079.38.017l-.242-.17c.063-.074.113.075.13.078.035.006.011-.086.035-.105.015-.013.132.005.09-.076-.014-.028-.105-.023-.135-.15.333.204.184-.02.2-.052.016-.032.202.038.035-.106.125-.141.045-.04.113-.02.083.025.002-.142.166.086.05-.073-.113-.226-.117-.24-.003-.011.064-.007.061-.03-.031-.27.017-.113.05-.233.004-.01-.107-.176.01-.083.215.171.211.343.43.184-.061-.224-.36-.276-.404-.316-.07-.063.037-.033.04-.052 0-.007-.06-.06-.058-.064.102-.186.26.25.38.32a31.354 31.354 0 0 0-.013-.141l.106.099c-.12-.205.01-.022.167-.1.035-.017-.116-.077.078-.03-.073-.106-.02-.101-.135-.15.048-.044.285.084.38.13-.202-.303-.226.014-.36-.298-.1.017.02.111.001.112-.065.004-.085-.124-.29-.087-.034.006-.035.126-.12.036a.375.375 0 0 1-.01-.121c.047-.034.088.037.108.022.018-.014-.054-.066-.05-.07.048-.054.071.03.08.007.017-.052-.1-.384.162-.063-.301-.181-.086.027.03.097.029.018.065-.007.111.017.059.031.097.098.126.115.03.018-.039-.193.144.03-.032-.175-.294-.28-.344-.43-.105-.304.264.014.31.042.013.007.021-.067.03-.064.015.008.196.224.249.208.053-.015-.074-.07-.045-.112.02-.027.3.164.187.021-.077-.098-.34-.166-.265-.298l.42.363-.097-.33c.16.134.242.303.439.386-.213-.461.21.008.228-.004.011-.008-.018-.24-.022-.28.157.075.532.41.448.075.01.067.172.088.176.081.045-.067-.194-.231-.11-.249.096-.021.07.112.135.163.33.261.54-.109.79.231l.014-.048.916 1.01c.212.033.601.31.753.48.03.033.146.239.15.259.007.038-.123-.078-.096.007.006.018.258.303.288.234-.025-.036-.144-.104-.148-.13-.027-.191.743.69.818.693l-.008-.103.135.175zm-6.42 1.61c-.082.017-.126-.1-.188-.134-.087-.048-.388.036-.149-.11l.336.243zm1.356 1.49c-.04-.092.118-.15.128-.05.001.01-.073.176-.128.05zm-.643-.735a.57.57 0 0 1 .059.064c.008.094-.154-.084-.059-.064zm3.534 3.244c-.084-.066-.118.089-.03.09a.26.26 0 0 0 .03-.09zm-.054-.053c.02-.146-.27-.07-.155-.001a.578.578 0 0 0 .155.001zm-3.031-2.731c.04-.026.093.057.114.094-.031.03-.082-.07-.114-.094zm1.784 1.703c.028-.024-.222-.257-.273-.237.054.022.247.26.273.237zm.684.56c-.002-.01-.097-.083-.117-.057.014.071.126.105.117.057zm1.32 1.166c.011-.002.078-.22.151.023.011.036-.11.005-.106.018a.13.13 0 0 0 .028.054c-.087-.051-.17-.111-.17-.127.005-.076.093.033.098.032zm.808.473c.038-.014.127.083.14.113.003.005-.07.06-.022.092.04.025.044-.09.104-.022.062.07-.074.043-.07.052.003.011.14.069.102.107-.027.03-.128-.087-.162-.104-.044-.023-.04.066-.094.004-.034-.04.061-.112.057-.123-.005-.01-.184-.071-.055-.119zm-.71-.364a.049.049 0 0 1-.025-.014l.024.014zm-4.825-4.603c.01.06-.126-.01-.13-.08.026-.028.128.07.13.08zm4.955 4.59c.092.115-.014.078-.13.013.045.01.1-.052.13-.014zm-3.092-2.746c-.001.01-.008.023-.023.039.005-.028.013-.039.023-.04zm.214.26c.13.032-.04-.128-.073-.092-.012.013.067.091.073.093zm2.045 1.84c-.004-.012.256-.055-.027-.1.081.103-.036.03-.046.045-.03.041.167.149.188.196.088-.044-.103-.101-.115-.141zm2.672 2.095c-.054.026-.119-.047-.165-.087.055-.025.119.047.165.087zm13.631 8.596c-.395-.148-.343-.367-.042-.115.006.005.075.106.042.114zm-3.152-1.745c.012-.103.134-.052.19.024.013.017.03.136-.052.113.058-.1-.032-.2-.138-.137zm-12.216-8.294c.074-.022.145.097.192.149-.066.013-.158-.095-.192-.15zm14.2 9.302c-.037-.027-.102.032-.098.042.015.044.12.023.097-.042zM12.07 18.213c.02-.033.176.052.124.132-.024-.03-.136-.11-.124-.132zm1.978 1.63c-.01-.032.123.027.142.067-.027.03-.136-.046-.142-.067zm11.896 7.645c-.032-.025-.118-.074-.144-.05-.032.03.103.087.144.05zm7.037 3.251c.002.017-.204.073-.289.02-.145-.098.29-.029.29-.02zm-6.006-2.786c.074.128-.013-.004-.047.073.073.041.256.141.167.002-.017-.027-.088-.052-.12-.075zm-.089-.078c-.024.018-.143.052-.072.082.034.014.129-.042.072-.082zm4.877 2.494c-.128-.128.573.188.576.194.007.01.011.018.014.024.03-.014.154.022.149.082-.032-.015-.136-.044-.146-.054a.048.048 0 0 1-.008-.011c-.05.042-.561-.204-.585-.235zm-.838-.483c.153-.046.092.13.08.131-.15.01-.014-.074-.015-.082-.003-.014-.113.003-.065-.049zm.622.354c.006 0 .142.068.147.073.09.109-.294-.082-.147-.073zM13.483 19.203c.049.063-.053.068-.078.017-.002-.005.035-.072.078-.017zm13.34 8.66c-.01-.02-.39-.275-.414-.171.04.007.474.295.414.171zm-2.984-1.657c.07.04-.054.081-.074.029-.007-.02.057-.04.074-.03zM11.95 17.994c-.1-.016.03-.139.047-.044a.22.22 0 0 1-.047.044zm12.424 8.577c-.272-.085-.064-.32.2-.053l-.05.019c.343.243.015.033-.082-.002-.037-.013-.034.047-.068.037zm-.9-.58c-.124-.323.249.055.39.102-.168.008-.322-.096-.149.11-.329-.168-.152-.167-.162-.18-.01-.017-.074-.019-.08-.033zm.615.348c.016.002.096.098.137.112-.088.036-.248-.125-.137-.112zm6.038 3.216c.034-.048.074-.076.146-.017-.038.014-.101.011-.146.017zM7.26 13.47c-.04-.046-.113-.15-.13-.08 0 .007.106.104.13.08zm18.416 13.729c-.009-.013-.313-.183-.238-.07.023.035.305.179.238.07zm1.587.85c-.026-.015-.136-.06-.144-.049-.03.039.111.083.144.048zM7.082 13.207c-.002-.01-.142-.135-.148-.1-.01.066.153.134.148.1zm6.708 6.065c.014.009-.009.072-.005.076.011.01.26.175.12.169-.022 0-.343-.296-.38-.336.037-.081.128.098.17.119.007.003.056-.05.094-.028zm16.79 10.434c.038-.043.35.067.315.125l-.315-.125zm-.153-.085c-.05-.067.111-.003.149.034-.016.034-.142-.024-.15-.034zm-3.65-2.062c-.037-.004.02.117-.009.12-.018.001-.073-.062-.106-.051-.01.004.025.108.047.116.03.011.03-.056.062-.04.105.054.178.14.277.19.009.005-.04-.068.035-.028.012.006.053.098.148.137.29-.068.349.177.635.245-.001-.02-.169-.162-.179-.17a9.47 9.47 0 0 0-.797-.455c-.057-.03-.049.021-.074.01-.02-.01.039-.065-.04-.074zM7.314 13.463c.033-.074-.075-.113-.12-.163-.03.065.086.106.12.163zm21.745 15.42c-.032-.012-.115-.08-.133-.063-.023.022.103.107.133.064zm-13.953-8.56c.004.001.066.053.067.057.02.093-.167-.065-.067-.056zm1.556 1.176c.056.028.12.046.1.108-.026-.03-.131-.078-.1-.108zm2.235 1.554c.035-.075.162.073.187.099-.03.022-.211-.045-.187-.1zm11.329 6.268c.099.054.131-.067.171.014.007.014-.07.26-.14.12-.013-.026.092-.042-.031-.134zm-5.601-2.773c.05-.032.122.026.174.059-.032.028-.134-.04-.174-.058zM6.884 12.925c.014-.091-.192-.218-.186-.141.002.01.163.115.186.141zm5.886 5.574c.118.02-.036-.131-.125-.13.026.016.117.128.125.13zm5.611 4.154c.006 0 .092.066.095.072.038.1-.207-.085-.095-.072zm-2.176-1.61c.06-.017.24.164.257.238-.087.025-.332-.217-.257-.238zm13.588 8.105c.073.034.135.081.193.133-.032.03-.2-.101-.194-.133zm-11.079-6.276c.005.003.007.01.011.014l-.011-.014zm9.476 5.442c-.053-.045-.075.028-.072.032.034.045.132.02.072-.032zM7.34 13.33c.03-.064-.086-.106-.12-.163-.026.05.077.132.12.163zm15.955 12.396c-.037-.107.307-.007.346.07-.017.043-.34-.055-.346-.07zm-10.706-7.513c.03-.045-.125-.091-.117-.052.005.026.099.08.117.052zm11.189 7.697c.036.002.076.086.037.1-.05.02-.047-.1-.037-.1zm2.582 1.375c-.009-.013-.203-.055-.16.03.031.06.075-.005.087.001.012.007.24.235.073-.03zm-4.72-2.596c.073.02.135.086.201.125-.043.012-.198-.071-.201-.125zm-8.602-6.12c0-.028-.367-.35-.195-.12.01.012.195.204.195.12zM30.226 29.32a.22.22 0 0 1-.041-.03c.016.01.03.021.04.03zm-1.149-.576c.04-.023-.072-.091-.116-.09-.032.037.11.093.116.09zm-7.203-3.975c.05.004.105.065.153.091-.027.026-.156-.05-.153-.09zm-2.582-1.68c.06.065.156.116.181.08a.05.05 0 0 0 0 .025c.001.01.09.044.116.08.154.208-.812-.474-.172-.2l-.126.014zm-3.3-2.336c-.009-.073-.16-.1-.143-.062.011.026.15.135.142.062zm1.553 1.09c-.006-.017-.14-.066-.16-.045.048.07.19.12.16.044zm-1.818-1.366c-.02-.024-.104.02-.103.026.007.045.115.043.103-.026zm14.391 8.53c-.03-.042-.188-.05-.242-.013a.139.139 0 0 0-.027-.06c-.026-.038-1.067-.584-.41-.134.02.014.013-.047.099.006.006.003-.01.042.007.053.04.025.255.16.316.152a.032.032 0 0 0 0 .025c.029.082.28.004.257-.029zm-12.346-7.015c-.014-.029-.094-.066-.122-.041.024.04.153.107.122.04zm-4.65-3.551c-.023-.06-.167-.105-.154-.055.008.031.182.123.155.055zm3.928 3.063c.233.222.064.042.135.026l-.135-.026zm14.284 8.252c-.04-.034.06-.104.086-.026.008.025-.064.045-.087.026zm2.595.832c-.02-.102.171-.002.078.044a.456.456 0 0 1-.078-.044zm-1.78-.543c-.068.043-.102.039-.224-.03.197.062.043-.062.225.03zm-12.673-6.882a.025.025 0 0 1-.003.006l.003-.006zm-4-2.853c0-.068-.09-.132-.097-.068 0 .006.06.09.097.068zm14.4 8.684c0 .011-.005.016-.015.017a.039.039 0 0 1 .015-.017zM15.98 20.634c-.028.03.1.144.108.145.12 0-.05-.106-.108-.145zm-3.687-2.966c-.01-.003-.035.115.018.106.042-.007.018-.097-.018-.107zm20.275 12.497c.067.022.145.046.145.098-.033-.018-.156-.062-.145-.098zm1.294.338c-.076.044-.223.01-.319-.023.017-.075.257.028.319.023zm-3.628-1.405c-.003-.005-.112-.084-.119-.03-.01.08.14.071.119.03zM12.458 17.882c.07.012.034-.162-.07-.14-.053.012.058.138.07.14zm2.785 2.162c-.082-.025.044.139.097.111-.026-.025-.068-.102-.097-.11zm2.2 1.554c-.115-.274-.17.038-.118.044.007 0 .12-.038.118-.044zm-10.767-9.32c-.04-.009-.004.137.045.112.03-.015-.02-.108-.045-.112zm13.85 11.51zm-5.727-4.35c.004.283.094.138.106.148.025.022.05.117.104.146a18.09 18.09 0 0 1-.216-.072c.037.05.373.41.405.388.042-.032-.09-.113-.091-.12-.002-.008.065-.136.057-.149-.013-.02-.335-.272-.365-.34zM17 21.313c.023.037 0 .09.022.09.008 0 .04-.044.066-.042l-.088-.048zm-2.573-1.91c.002-.082.163.075.163.085.003.058-.162-.016-.162-.085zm1.514 1.143c-.005-.008-.128-.126-.149-.096.02.049.197.192.149.096zm1.171.827c.046.04.107.151.144.078l-.144-.078zm-4.385-3.485c-.004-.172-.067-.012-.018.084.06-.025.019-.056.018-.084zm-.213-.307c-.008-.037-.27-.23-.278-.147-.002.03.179.106.182.115.006.014-.088.032-.003.086.012-.023.102-.041.099-.054zm.194.184c-.022-.148-.158-.027-.094.029.025.021.098-.008.094-.03zm.34.306c-.02-.04-.086-.127-.181-.129l.218.203c.031-.019-.019-.04-.037-.074zm21.538 12.122c-.066-.068.118-.045.122-.031.012.046-.092.061-.122.031zM7.355 10.642c-.002-.03.034-.09-.028-.101l.007.216c.109-.052.024-.08.021-.115zm.148-.437c.007.004.1-.15.088.002-.008.102-.318-.095-.307-.193.074.022.157.162.219.191zm.086-.975c.007-.013.119.068.123.086.022.094-.159-.017-.123-.086zm.283.325c-.02-.068.094.014.111.058-.02.026-.108-.049-.11-.058zm26.44 17.982c-.037-.13-.152.105-.043.078a.315.315 0 0 0 .042-.078zM7.807 9.197c.021.07-.094-.014-.111-.057.02-.026.107.047.11.058zM34.33 27.252c-.062-.102-.1.183-.092.197.032.055.207-.02.244-.04-.234-.01-.121-.108-.152-.157zm-.414.074c-.082.01.092.117.15.049-.04-.006-.127-.052-.15-.049zm-.404-.215c-.034-.022-.127-.08-.158-.044.037.005.127.082.158.044zm-.036-.155c-.031-.076-.103.088-.026.059a.288.288 0 0 0 .026-.06zm-.245-.165c-.002-.078-.111.062-.06.09.015.008.06-.081.06-.09zm1.07.137c-.052-.044-.157.058-.035.102l-.144.023c.145.108.175-.063.22-.044.065.025.028.162.004.202.075-.071.316-.018.467-.001-.121-.064-.309-.171-.42-.221-.032-.015-.073.015-.1.005-.043-.018.01-.063.007-.066zm-1.487-.34c-.088-.133-.086.061-.003.068a.24.24 0 0 0 .003-.068zM8.047 8.693c.08.18-.08.157.293.32-.186-.038-.058.046-.11.054-.04.007-.088-.079-.096.007 0-.101-.24-.309-.242-.328 0-.01.128-.112.155-.053zm25.607 17.985c.033-.211-.088.101-.09-.085-.168.21.229.078.226.299-.4-.15.199.281.017-.108.183.175.081-.018.126-.047.047-.032.163.049.177-.03-.08-.015-.16-.031-.23-.047.026.185-.124.088-.135-.061l-.09.079zm.393.281c-.007-.005-.187-.03-.184.006.014.027.273.07.184-.006zm.856.163c-.075-.017-.18-.074-.233-.02.072.016.178.073.233.02zm-3.287-1.278c-.108.005.148.148.1.055a.797.797 0 0 0-.1-.055zm1.877.812c-.038-.084-.083.119-.017.087a.447.447 0 0 0 .017-.087zM8.17 8.78c.04-.031.205.18.237.212-.05.015-.282-.176-.237-.212zm26.906 18.188c-.114-.21-.354-.05-.374-.059-.02-.009.03-.079.026-.082a2.123 2.123 0 0 0-.241-.047c-.009.003.005.12-.047.143.096-.041.502.09.53.083.02-.006-.087-.149.105-.038zm-.421-.094c.045.058-.111.028-.144.003-.072-.056.137-.01.144-.003zm-.35-.126c-.014-.014-.155-.06-.18-.012.05.082.212.045.18.012zm-1.43-.527c-.044-.014-.142-.106-.168-.069.045.015.14.106.167.069zM9.092 9.134c-.026-.08.108.032.132.08-.02.024-.13-.073-.132-.08zm24.541 17.113a4.054 4.054 0 0 0-.419-.144c.072.076.379.217.393.2a.217.217 0 0 0 .026-.056zm.876.23c.058-.056.068.029.074.031.051.023.171.034.132.091-.096-.048-.322-.014-.206-.123zm-1.537-.544c-.18-.061.113.162.101.078a.543.543 0 0 0-.1-.078zm.701.308c.026-.045.405.123.476.139-.087.08-.113-.006-.186-.023-.022-.005-.029.037-.03.036-.04-.01.003-.047-.022-.055-.032-.009-.301-.038-.238-.097zm.87.196c.033-.031.345.022.358.036.078.095-.342-.018-.357-.036zm-.866-.289c.065-.098.21.032.075.047-.013.002-.04-.06-.075-.047zm-.638-.304c-.006-.007-.176-.116-.197-.085.023.027.275.165.197.085zm.145-.067c-.004-.001.005.082-.072.034-.007-.004.017-.081-.102-.107-.024-.005-.08.025-.08.03.059.167.478.108.255.043zm1.38.598c-.008-.036.052-.124.076-.067.01.025-.032.077-.076.067zm-2.069-.831c.125-.007-.179-.167-.201-.161-.007.039.189.161.201.16zM9.546 8.926c.058.076-.02.07-.017.075.09.193.132.074.163.087.068.026-.039.115.083.154-.192-.07-.048.023-.078.062-.128.157-.108-.24-.204-.275-.014-.005.01.108-.027.097-.118-.033-.141-.493.08-.2zm25.123 17.38c.05-.05.346.075.253.105-.018.004-.33-.035-.252-.105zm-12.73-6.837c.09 0-.023-.148-.073-.132-.024.007.032.133.072.132zm-.904-.868c-.08-.042-.28.08-.168.116.012.004.16-.085.168-.116zm4.98 3.236c-.044-.113-.11.012-.048.046.022.011.05-.042.049-.046zm-3.105-1.849c-.006-.009-.102-.06-.117-.03.024.038.15.092.117.03zm3.142 1.847c-.062-.006-.028.131.081.078-.034-.01-.075-.078-.081-.078zm7.647 3.985c-.042.046-.104-.001-.163-.019.03-.068.139.024.163.02zm-12.396-6.933c-.1-.004.027.134.052.067a.401.401 0 0 0-.052-.067zm7.415 4.407c-.077.01.072.157.06.061a.437.437 0 0 0-.06-.061zm.76.428c-.036-.036-.218-.126-.168-.05.008.011.146.085.168.05zM9.734 9.052c.036-.072.13.047.137.073.002.01-.183.023-.137-.072zM25.488 21.52c-.047-.017-.148-.097-.188-.073.056.023.161.15.188.073zm-3.861-2.416c-.016-.11-.126-.174-.16-.066.12.072.04-.091.16.066zm4.744 2.81c-.03-.025-.109.052-.108.058.014.062.122-.003.108-.058zm-2.583-1.425c.022-.04-.096-.088-.097-.055 0 .011.08.087.097.055zm8.506 4.623c-.034-.063.144-.02.17.046-.006.073-.165-.038-.17-.046zm-4.982-2.642c.038-.056-.154-.118-.112-.032.01.022.1.05.112.032zm1.705.828c-.155.009.313.319.23.162a1.925 1.925 0 0 0-.23-.162zm.786.466c-.017-.018.096-.213.141-.092.006.016-.073.042-.07.058.002.01.17.133.182.132.011 0 .034-.07.047-.072.014-.003.098.111.157.142.112.058.151.011.16.016.027.013.053.074.107.101.273.139.715.304.877.526-.171-.143-.38-.187-.58-.269.113-.083-.326-.056-.063-.085-.106-.017-.904-.397-.958-.457zm-9.025-5.415c.089-.031-.153-.178-.223-.119a.868.868 0 0 0 .223.12zm1.187.577c.029.004.132-.108.205.032.022.04-.036.046-.037.06-.001.007.063.138-.03.09-.144-.072.048-.1-.022-.149-.009-.005-.187-.026-.19-.006 0 .002.05.014.053.025.01.04-.029.07-.026.075.008.012.265.086.257.164-.002.026-.38-.161-.387-.18-.004-.012.071-.118.07-.134-.002-.009-.168-.061-.18-.083a.08.08 0 0 1-.006-.017c-.001.048-.126-.04-.097-.075.012-.013.093.054.095.059v.006c.01-.053.303.145.28.042.108.023-.071.081.015.091zm.456.204l-.05.017c.17.07.308.238.483.35.044.028.038-.075.084-.019.036.045.046.144.012.142-.009 0-.076-.103-.127-.13-.148-.076-.151.007-.16.003-.01-.004-.071-.103-.12-.132-.124-.073-.203-.072-.336-.228.12.022.125-.097.214-.003zm5.72 3.562c.028-.037.114.055.155.07-.027.037-.113-.055-.154-.07zM13.858 12.615c-.076.03.108.226.098.133a.557.557 0 0 0-.098-.133zm.857.845c.04.009-.031-.127-.07-.084-.011.014.065.083.07.084zm9.638 6.97a.643.643 0 0 1 .084.073c.016.101-.242-.109-.084-.073zm-8.48-6.085c-.126-.043.147.214.099.093a1.154 1.154 0 0 0-.099-.093zm.408.322c-.024-.017-.11-.12-.126-.103-.026.026.075.142.126.103zm10.252 7.015c.029-.08.153.064.212.085-.028.08-.152-.063-.212-.085zm-.945-.615c.683.321.45.393-.06.013.027-.047.017-.033.06-.013zm.83.49c-.051.033-.118-.023-.166-.056.028-.027.124.044.165.056zM13.701 12.31c.08-.017.174.185.128.18-.01-.001-.165-.164-.127-.18zm10.74 8.09c.027-.078.203.067.208.091.022.098-.183-.096-.208-.09zm3.059 1.741c.066-.036.15.047.213.083-.055.032-.16-.052-.213-.083zm-.437-.3c.006 0 .092.056.094.06.043.095-.2-.06-.094-.06zM9.883 8.4a.572.572 0 0 1 .06.065c.008.094-.156-.086-.06-.065z" fill="#CC0070"/></svg>