<svg width="549" height="530" viewBox="0 0 549 530" fill="none" xmlns="http://www.w3.org/2000/svg">
<g clip-path="url(#clip0_396_4427)">
<path fill-rule="evenodd" clip-rule="evenodd" d="M255.526 270.741C257.703 272.614 260.035 274.46 262.111 276.445C262.215 276.513 263.064 277.114 263.106 277.133C263.351 277.245 263.713 277.298 263.941 277.432C264.253 277.615 271.77 284.321 271.825 284.349C271.941 284.071 272.868 283.069 273.184 282.837C275.43 281.189 277.617 279.542 280.01 278.12C280.177 278.02 281.981 276.691 282.03 276.713L281.529 275.769C279.942 272.995 279.172 271.935 277.358 269.378L276.522 268.167C277.85 267.017 279.169 265.851 280.459 264.659C283.167 262.158 285.076 261.109 288.374 259.531C289.518 258.983 290.772 258.449 291.833 257.754C292.081 257.667 292.602 257.611 292.829 257.602L292.903 257.902C294.408 257.139 296.308 256.461 297.676 255.469C298.185 255.1 298.422 254.542 298.585 253.957C298.632 253.79 298.86 253.535 298.895 253.57C299.355 253.472 299.66 253.265 299.955 253.196C299.994 253.546 300.036 253.9 300.104 254.246C302.15 253.12 303.757 251.218 305.635 249.848L305.796 249.012C306.369 248.659 307.305 247.383 307.775 246.953L307.689 246.728C308.349 246.451 308.994 246.129 309.67 245.891C310.534 244.705 311.497 243.537 312.322 242.332C313.57 240.512 315.702 234.507 315.35 232.443L314.666 232.829L314.441 232.369C313.055 232.267 311.418 231.966 310.044 232.067C310.014 231.557 310.02 230.296 310.429 230.008C310.376 229.882 310.654 229.172 310.654 229.172C308.72 229.337 303.126 226.28 300.329 226.587C300.329 226.587 299.727 226.25 299.655 226.288C299.596 226.149 299.374 225.81 299.42 225.611C299.377 225.487 299.313 225.412 299.281 225.45C299.076 225.169 298.656 225.003 298.746 224.539C298.634 224.455 298.336 223.988 298.284 223.852L297.985 223.703C297.751 223.46 297.662 223.139 297.525 222.951C297.577 222.73 297.252 220.412 297.3 219.82C297.3 219.82 297.109 218.797 297.076 218.834C296.967 218.493 296.743 218.14 296.541 217.848C296.558 217.815 296.43 217.567 296.392 217.546C296.349 217.228 296.613 216.111 296.852 216.023C296.775 215.843 297.922 215.314 297.76 214.813L297.835 214.501C297.258 215.041 293.858 212.808 293.354 212.529L293.054 212.828C290.89 211.586 290.023 211.195 288.582 209.182C287.992 208.358 287.393 207.332 286.688 206.597C286.731 206.512 286.076 206.071 286.076 206.071C285.961 205.526 285.89 204.992 285.766 204.548L286.526 204.399C286.525 202.483 286.281 200.52 286.076 198.618C286.161 198.526 286.176 198.348 286.153 198.233C288.337 194.806 289.732 191.007 291.383 187.292C292.481 187.895 296.228 190.225 297.387 190.189C297.936 187.795 300.807 184.406 303.518 184.708C303.772 184.736 304.726 185.084 304.726 185.084H305.721C306.069 185.119 306.222 185.313 306.394 185.395C307.517 185.935 307.067 185.925 308.375 185.93C308.467 185.813 308.923 185.83 309.049 185.846C309.392 185.866 310.093 186.506 310.192 186.456C310.613 186.509 310.935 186.654 311.252 186.608C311.478 186.657 311.949 186.935 312.087 186.992L312.546 186.608L313.682 187.218C314.541 186.566 314.997 185.922 315.65 185.084H316.495C316.543 184.797 316.59 184.437 316.72 184.171L316.335 184.109L316.72 182.275L318.004 182.586L318.612 181.748C319.544 180.458 319.207 179.03 320.046 178.253L320.356 178.327L320.422 178.713L322.089 178.852L322.175 177.492H322.786L322.849 176.429H323.159L323.329 174.128L323.011 173.994C322.711 173.739 320.877 172.316 320.805 172.01H316.945L316.783 168.75L315.96 167.988L313.53 168.139C313.134 168.559 303.055 172.423 301.623 173.008C301.465 172.699 300.746 168.566 300.639 168.074L299.12 168.525C299.17 168.32 298.971 168.157 298.971 168.074C298.971 167.864 299.115 166.534 298.819 166.401C298.819 166.401 298.465 165.594 298.52 165.329C298.362 164.594 298.56 163.915 298.436 163.205C298.377 162.867 298.095 162.455 298.059 162.133C297.978 161.396 297.909 160.662 297.76 159.936C297.76 159.936 296.932 158.328 296.852 157.886C295.743 158.465 295.132 159.539 294.199 160.161L291.918 161.683C291.503 161.773 290.78 161.316 290.561 160.997C290.434 160.969 289.799 160.842 289.715 160.771C288.699 160.676 288.008 162.079 287.522 162.669C287.357 162.855 286.189 163.09 285.928 163.045C285.681 163.199 285.364 163.561 285.168 163.656L284.782 164.417C284.598 164.521 284.214 164.671 284.184 164.719C284.184 164.719 283.7 164.959 283.735 165.03C283.672 165.155 283.583 165.48 283.583 165.48C283.704 165.549 283.741 166.227 283.874 166.316L283.649 166.927C283.422 167.036 283.267 167.274 283.114 167.227L282.204 167.313C281.536 167.33 280.912 166.482 280.397 166.627L279.924 166.24C279.892 166.071 279.791 165.87 279.7 165.791C279.734 165.744 279.026 165.555 279.026 165.555L278.501 164.878C278.801 164.439 279.323 164.315 279.785 164.117C278.697 163.132 277.499 162.251 276.373 161.307C276.532 161.049 276.796 160.778 277.048 160.61C276.451 160.29 275.891 160.108 275.379 159.625L274.554 159.248L274.619 158.949L272.96 158.798L272.886 159.023C272.543 158.999 272.166 159.061 271.825 159.098C271.466 158.882 270.045 158.253 269.621 158.336L268.937 158.798C268.417 158.58 267.914 158.206 267.355 158.111V157.725L264.925 156.675L264.625 157.125C264.275 156.638 264.263 156.284 264.241 155.677C265.332 154.926 265.954 152.834 266.743 151.494C267.656 149.947 268.643 148.308 269.621 146.787C271.797 143.405 274.181 140.091 276.448 136.759V136.448C277.257 135.972 278.324 134.969 278.727 134.1C278.379 132.289 278.486 130.131 278.727 128.319C278.157 128.292 277.552 128.218 276.983 128.245C276.863 127.485 277.019 126.878 276.983 126.27C276.963 126.121 277.431 125.827 277.432 125.734C277.439 125.173 277.306 123.987 277.273 123.912C277.32 123.638 277.583 123.15 277.583 123.15L277.207 122.699C277.001 118.587 277.418 114.51 277.518 110.538C277.579 108.09 277.455 103.266 277.742 101.037C277.749 100.987 279.425 98.1479 279.7 97.6907C281.404 95.8024 283.735 91.3849 283.735 91.3849L284.006 90.6606C272.656 91.0775 261.259 91.7011 249.914 92.2091C248.984 92.2505 248.235 92.717 247.325 92.6825C246.685 92.6584 244.899 92.3353 244.383 91.9839C242.384 93.7172 239.873 97.6677 238.007 100.124C238.029 100.62 238.093 101.154 238.157 101.712C238.157 101.712 235.967 110.244 235.803 110.914C236.233 112.297 236.772 113.838 237.023 115.256C237.161 116.034 236.514 117.161 236.638 117.916C236.938 119.745 237.483 121.85 237.558 123.687C237.617 125.139 237.398 126.785 237.247 128.245C236.021 129.651 234.79 131.054 233.524 132.426L233.908 138.884C233.96 139.75 233.944 142.065 233.984 142.229C233.871 142.301 233.24 143.214 233.15 143.29C231.985 143.227 230.822 143.106 229.662 142.991V142.454L228.303 142.614L226.859 143.752L226.248 143.442L225.875 142.379L224.455 141.393C225.093 142.259 226.275 144.73 226.932 145.874L227.009 146.262L232.7 157.5C232.004 157.565 230.917 157.528 230.336 157.951C230.336 157.951 230.092 158.602 230.047 158.712L231.256 158.573L231.48 159.711L229.737 159.859C229.309 163.022 229.016 166.302 228.442 169.436C228.2 170.761 227.618 172.231 227.233 173.533C226.755 175.155 225.422 176.508 223.981 177.329C222.923 177.932 221.699 178.548 221.017 179.614L220.343 180.611C219.884 180.98 217.101 183.285 217.069 183.347C216.849 183.784 216.668 184.26 216.47 184.708L215.71 184.559C213.272 186.448 210.021 188.765 208.285 191.325C208.158 191.343 207.485 191.928 207.364 192.012L206.841 193.45L206.54 193.675C206.589 193.934 206.874 195.258 206.841 195.432C207.354 195.48 209.186 195.572 209.568 195.733C209.927 195.611 210.265 194.812 210.552 194.585C211.289 194.005 212.259 193.505 213.057 192.999C214.44 194.313 215.889 192.356 216.78 191.55C216.723 191.964 216.304 195.457 216.169 195.572C216.181 195.787 216.323 198.18 216.31 198.233C216.029 199.372 215.076 200.942 214.576 202.039C214.434 202.352 214.565 202.632 214.501 202.95C214.461 203.147 214.037 204.387 214.041 204.473C214.109 205.721 214.566 207.25 214.801 208.495L215.935 209.567C215.719 209.874 215.352 210.678 215.41 211.08C216.63 211.914 219.408 213.291 220.867 213.439C220.843 215.489 220.901 217.545 220.941 219.595L223.221 220.045C223.249 220.931 223.203 226.13 222.997 226.748C221.954 227.21 220.56 227.396 219.434 227.423C219.626 227.78 220.881 230.114 220.793 230.31V230.995C220.767 231.13 220.324 231.421 220.181 231.445L217.454 231.919C217.791 234.23 218.176 236.527 218.588 238.824C219.137 241.876 219.87 242.79 221.616 245.367C222.798 247.11 224.047 248.79 225.34 250.449C227.446 248.028 229.572 245.621 231.716 243.233C231.667 243.116 231.863 243.029 231.941 243.007C232.266 241.824 236.385 240.382 237.397 240.272C238.337 240.171 239.339 240.203 240.274 240.347C240.992 240.457 241.693 241.042 242.328 241.408C242.961 243.801 241.682 243.853 243.913 246.043L244.138 246.579C243.923 246.778 243.706 247.465 243.762 247.714C243.762 247.714 244.062 248.127 244.138 248.25L244.448 248.413C244.647 248.459 244.952 248.456 245.056 248.551L245.281 248.701L246.041 248.165C246.179 248.345 246.456 248.47 246.565 248.638C246.976 249.268 250.486 254.481 250.673 255.007C250.951 255.788 251.017 256.844 251.198 257.667C251.677 259.84 252.169 262.072 252.792 264.209C253.349 266.112 254.719 268.846 255.526 270.741Z" fill="#235753" stroke="white" stroke-width="2" stroke-miterlimit="3.86"/>
<path fill-rule="evenodd" clip-rule="evenodd" d="M255.526 270.742C252.102 274.7 247.825 279.104 244.897 283.363C242.219 282.295 240.451 281.692 238.692 279.255C238.234 278.62 237.788 277.511 237.247 277.047L233.984 274.247C233.71 274.011 233.417 273.908 233.15 273.625C230.891 272.949 228.142 273.367 225.811 273.431L226.174 272.725L225.789 272.575C225.526 272.881 223.681 272.809 223.136 272.649C223.452 272.438 223.95 271.601 224.13 271.278L219.957 268.08C218.19 268.662 216.506 271.168 215.71 271.662C214.27 272.557 212.446 273.271 210.862 273.873C210.751 273.714 210.566 273.586 210.404 273.485C210.322 273.244 210.242 272.941 210.103 272.725L209.869 272.801C208.4 271.775 205.702 270.052 204.336 269.689L204.027 269.528C203.369 268.957 201.775 265.617 201.458 265.045L200.55 264.659C200.512 264.489 200.135 264.121 200.015 263.984C198.791 263.219 197.961 262.014 196.826 261.474L196.527 261.624C196.577 261.73 196.625 261.881 196.601 262.001C196.594 262.51 196.726 264.137 196.686 264.745L195.767 264.659C195.868 263.47 194.634 262.109 194.033 261.249C192.901 261.429 191.677 261.325 190.534 261.325C189.864 261.325 189.032 261.669 188.342 261.775C187.987 261.83 187.557 261.688 187.208 261.624C186.785 260.739 186.245 259.596 185.539 258.89C185.28 258.839 184.485 259.294 184.244 259.426C182.006 256.805 179.82 254.061 177.493 251.522C176.628 250.578 172.795 247.584 172.337 246.268C172.087 245.55 172.207 244.353 172.112 243.544C172.046 242.979 171.714 242.573 171.513 242.084C170.712 240.135 170.463 238.496 170.593 236.251L169.234 236.089C169.007 235.544 169.136 234.558 169.373 234.041L168.774 233.279L168.473 233.118C167.805 233.007 163.854 234.166 162.483 234.106C162.064 235.079 162.339 236.944 162.321 237.914C162.315 238.27 162.856 239.586 162.856 239.586C162.723 239.555 160.896 239.99 160.653 240.122C160.433 239.723 159.26 238.301 159.369 237.837C158.973 237.886 158.239 237.722 157.85 237.688C157.278 236.918 157.325 235.048 157.325 234.191C157.259 234.037 157.206 233.938 157.176 233.881C156.744 233.124 156.55 232.313 156.106 231.833L155.571 231.445C155.571 230.523 155.942 229.83 156.042 228.946C156.27 226.943 156.003 224.907 155.507 222.952L156.042 222.791C155.833 222.658 152.98 220.682 152.918 220.667C153.006 220.402 153.143 220.135 153.303 219.907C151.087 218.542 148.905 217.123 146.711 215.724C146.647 215.683 146.479 215.677 146.401 215.649C144.559 214.99 137.569 209.99 136.012 208.495C135.138 207.656 134.334 206.776 133.519 205.921C132.038 204.367 127.793 200.268 126.775 198.769L126.844 198.233C128.923 195.655 133.545 190.401 136.012 188.504C136.669 188 137.49 187.558 138.217 187.144L138.442 187.518C139.219 186.805 140.226 185.636 141.094 185.084C141.568 184.783 144.834 184.208 145.718 183.947C144.336 183.303 142.988 181.237 142.164 180.912C142.547 179.657 143.165 178.514 143.748 177.33L143.824 177.104C143.888 176.981 144.229 176.532 144.282 176.579C146.138 175.092 148.16 173.127 149.814 171.411L149.75 170.959C150.082 170.807 150.587 170.86 150.948 170.799C150.836 168.791 151.39 167.089 151.869 165.179C152.41 164.842 154.788 163.06 155.058 162.98C155.074 162.584 155.27 160.756 155.197 160.472C154.922 159.402 154.183 158.197 154.437 157.05C156.17 155.946 158.02 154.982 159.83 154.015C159.823 153.008 159.744 151.999 159.744 150.969C159.897 150.618 159.453 149.462 159.369 149.211L159.83 148.696L159.443 147.698L158.61 147.549C158.86 147.048 159.091 146.522 159.369 146.037L159.07 145.649L159.443 142.905H159.668L159.829 140.469L160.429 140.33C160.39 139.536 160.674 138.696 160.204 137.971C160.537 137.628 162.469 137.25 162.793 137.295L163.082 137.746L163.926 137.586L164.002 137.811L165.136 137.586L165.735 137.36C166.141 137.356 166.828 137.101 166.88 136.984C167.2 136.826 167.368 136.655 167.565 136.534L167.415 136.223C167.599 135.689 167.497 134.983 167.64 134.389L170.293 135.386L170.667 134.776L171.427 134.7C171.699 134.434 172.592 133.74 172.946 133.638V133.253L173.406 133.188C173.633 133.405 173.695 133.496 173.781 133.564L173.246 134.164L174.305 134.862L174.006 135.312C174.201 135.417 176.314 136.462 176.434 136.599H176.659C176.871 136.636 177.125 136.778 177.333 136.759C178.726 136.634 180.126 136.538 181.505 136.299L182.886 137.36L183.783 137.06C184.711 137.389 185.619 137.806 186.522 138.196L187.657 136.299L188.342 137.897C190.752 137.592 192.906 137.176 195.306 136.673C195.306 136.673 197.716 139.163 197.821 139.109C198.185 139.188 200.088 140.148 200.388 140.407L200.55 140.181C200.55 140.181 201.223 140.242 201.299 140.33C201.613 139.875 202.4 138.972 202.506 138.507L204.412 139.956C205.299 140.05 206.491 140.336 207.364 140.244C207.532 140.283 207.859 140.577 207.814 140.632L208.735 141.467L210.017 141.693L211.463 140.857L211.847 140.78C212.05 140.918 212.148 140.991 212.221 141.092C212.146 141.168 212.607 141.393 212.607 141.393L213.142 141.467C213.364 141.547 213.373 141.731 213.431 141.768L213.516 142.455C213.714 142.672 214.252 142.924 214.275 142.905C215.209 142.006 216.252 141.162 217.303 140.407C218.684 141.473 220.192 142.488 221.476 143.667L223.521 140.857C223.681 140.884 224.403 141.322 224.455 141.393C225.093 142.259 226.275 144.73 226.932 145.875L227.009 146.262L232.7 157.5C232.004 157.565 230.917 157.528 230.336 157.951C230.336 157.951 230.092 158.603 230.047 158.712L231.256 158.573L231.479 159.711L229.737 159.859C229.309 163.022 229.016 166.302 228.442 169.437C228.2 170.761 227.618 172.231 227.233 173.533C226.755 175.155 225.422 176.509 223.981 177.33C222.923 177.932 221.699 178.548 221.017 179.614L220.343 180.611C219.883 180.981 217.101 183.285 217.069 183.347C216.849 183.784 216.668 184.26 216.47 184.708L215.71 184.559C213.272 186.448 210.021 188.765 208.285 191.325C208.158 191.343 207.485 191.929 207.364 192.012L206.841 193.45L206.54 193.675C206.589 193.934 206.874 195.258 206.841 195.432C207.354 195.48 209.186 195.572 209.568 195.733C209.927 195.611 210.265 194.812 210.552 194.586C211.289 194.005 212.259 193.505 213.057 192.999C214.44 194.313 215.889 192.356 216.78 191.551C216.723 191.964 216.304 195.457 216.169 195.572C216.181 195.787 216.323 198.18 216.31 198.233C216.029 199.372 215.076 200.942 214.576 202.039C214.434 202.353 214.565 202.632 214.501 202.951C214.461 203.147 214.037 204.387 214.041 204.473C214.109 205.721 214.566 207.25 214.801 208.495L215.935 209.567C215.719 209.874 215.352 210.679 215.41 211.08C216.63 211.914 219.408 213.291 220.867 213.439C220.843 215.489 220.901 217.545 220.941 219.595L223.221 220.045C223.249 220.931 223.203 226.13 222.997 226.748C221.954 227.21 220.56 227.396 219.434 227.424C219.626 227.78 220.881 230.114 220.792 230.31V230.995C220.767 231.131 220.324 231.421 220.181 231.445L217.454 231.919C217.791 234.23 218.176 236.527 218.588 238.824C219.137 241.877 219.87 242.79 221.616 245.367C222.798 247.11 224.047 248.79 225.34 250.449C227.446 248.028 229.572 245.621 231.716 243.233C231.667 243.116 231.863 243.03 231.941 243.008C232.266 241.824 236.385 240.383 237.397 240.273C238.337 240.171 239.339 240.203 240.274 240.347C240.992 240.457 241.693 241.042 242.328 241.408C242.961 243.801 241.682 243.853 243.913 246.043L244.138 246.579C243.923 246.778 243.706 247.465 243.762 247.714C243.762 247.714 244.062 248.127 244.138 248.25L244.448 248.413C244.647 248.459 244.952 248.456 245.056 248.551L245.281 248.701L246.041 248.165C246.179 248.345 246.456 248.47 246.565 248.638C246.976 249.268 250.486 254.481 250.673 255.007C250.951 255.789 251.017 256.844 251.198 257.667C251.677 259.84 252.169 262.072 252.792 264.209C253.349 266.112 254.718 268.846 255.526 270.742Z" fill="#235753" stroke="white" stroke-width="2" stroke-miterlimit="3.86"/>
<path fill-rule="evenodd" clip-rule="evenodd" d="M41.3245 289.894C41.7278 288.993 43.5646 286.678 44.1941 285.724C56.2211 288.171 68.1677 290.926 80.0453 294.012C86.4145 295.667 92.7462 297.497 99.0909 299.246C105.335 300.967 111.458 302.486 117.814 303.73C119.562 304.072 121.305 304.396 123.057 304.717C124.984 305.07 126.886 305.643 128.812 306.014C136.042 307.406 143.704 307.154 151.024 307.826C154.193 308.117 157.335 308.459 160.516 308.632C170.036 309.149 179.581 308.849 189.09 308.253C192.767 308.022 196.503 307.854 200.163 307.45C200.304 307.434 200.561 307.355 200.698 307.312C204.48 306.118 206.864 304.224 211.312 304.031C211.268 303.348 211.191 300.649 211.002 300.159L209.269 300.545L208.734 300.384C208.764 300.213 208.533 299.014 208.51 298.795C208.402 298.831 208.294 298.884 208.199 298.947C208.165 298.82 208.123 298.686 208.059 298.57L208.285 298.334C208.141 298.291 206.659 297.487 206.616 297.348C206.941 296.514 207.116 295.848 206.99 294.915H207.44V294.689C207.717 290.912 208.981 287.078 209.876 283.41C210.216 282.017 210.425 280.573 210.777 279.192C210.818 279.033 210.886 278.875 210.938 278.719C211.638 279.312 212.295 279.947 212.981 280.553C214.328 281.743 215.01 282.017 215.099 283.89L217.689 283.439C217.485 281.984 217.424 280.494 217.303 279.03L217.528 279.107L217.689 278.57L218.139 278.656L218.449 277.584L217.829 277.432L218.449 275.459L216.47 275.611C216.248 275.155 216.076 274.523 216.084 274.012L220.482 273.787V274.386C220.733 274.302 221.069 274.304 221.327 274.324V273.625C222.829 273.614 224.309 273.505 225.811 273.431L226.174 272.725L225.789 272.576C225.525 272.881 223.681 272.809 223.135 272.649C223.451 272.438 223.95 271.601 224.129 271.278L219.956 268.08C218.19 268.662 216.506 271.168 215.71 271.662C214.27 272.557 212.446 273.272 210.862 273.873C210.751 273.714 210.565 273.586 210.403 273.486C210.321 273.244 210.242 272.942 210.103 272.725L209.869 272.801C208.4 271.775 205.702 270.052 204.336 269.689L204.027 269.528C203.369 268.958 201.775 265.617 201.458 265.045L200.55 264.659C200.512 264.489 200.135 264.121 200.015 263.984C198.791 263.219 197.961 262.014 196.825 261.474L196.527 261.624C196.577 261.731 196.624 261.881 196.601 262.001C196.594 262.51 196.726 264.137 196.686 264.745L195.767 264.659C195.868 263.47 194.633 262.109 194.033 261.249C192.901 261.43 191.677 261.325 190.534 261.325C189.863 261.325 189.032 261.669 188.342 261.776C187.987 261.831 187.557 261.688 187.208 261.624C186.785 260.739 186.245 259.596 185.539 258.89C185.28 258.839 184.484 259.295 184.244 259.426C182.006 256.805 179.819 254.061 177.493 251.522C176.628 250.578 172.794 247.585 172.336 246.268C172.087 245.551 172.207 244.354 172.112 243.544C172.046 242.98 171.714 242.573 171.512 242.084C170.712 240.135 170.462 238.497 170.592 236.251L169.234 236.089C169.007 235.544 169.135 234.559 169.373 234.041L168.773 233.279L168.473 233.119C167.805 233.008 163.853 234.166 162.483 234.106C162.064 235.079 162.338 236.944 162.321 237.914C162.315 238.27 162.856 239.586 162.856 239.586C162.722 239.555 160.896 239.99 160.653 240.122C160.433 239.723 159.259 238.301 159.369 237.837C158.973 237.886 158.239 237.723 157.85 237.689C157.277 236.918 157.324 235.048 157.324 234.191C157.258 234.038 157.206 233.938 157.176 233.881C156.744 233.124 156.55 232.313 156.106 231.833L155.571 231.445C155.571 230.523 155.941 229.831 156.042 228.947C156.27 226.943 156.003 224.907 155.507 222.952L156.042 222.791C155.833 222.658 152.979 220.682 152.918 220.668C153.005 220.402 153.142 220.136 153.303 219.907C151.087 218.543 148.905 217.123 146.711 215.724C146.647 215.683 146.478 215.677 146.401 215.649C144.559 214.99 137.569 209.99 136.012 208.495C135.138 207.656 134.334 206.777 133.519 205.921C132.037 204.367 127.792 200.269 126.775 198.769C126.889 200.27 125.78 203.478 126.309 204.548L120.403 207.971C120.329 208.261 119.604 211.149 119.558 211.241C118.865 212.639 117.568 214.178 116.68 215.488L116.99 220.045C116.812 220.536 113.12 221.336 112.358 223.016L109.019 222.48L109.319 223.091C107.799 223.794 106.082 224.089 104.546 224.765L105.081 227.124H100.45C100.379 227.325 99.9492 228.417 99.9993 228.561C100.083 228.683 100.583 229.193 100.61 229.408C100.64 229.851 100.564 230.327 100.534 230.77L100.225 230.846C100.13 230.895 100.094 230.722 99.9147 230.684L99.4644 230.846L98.8662 231.445L98.1066 231.531L96.8868 235.028L97.7201 235.864C97.7201 238.586 98.2284 237.341 97.0367 238.524C97.0367 238.524 96.5493 238.637 96.4375 238.675C95.9961 238.825 95.248 238.839 94.7684 238.91C93.7434 240.677 89.8295 242.184 87.9426 242.084L86.5728 243.843C85.7077 243.648 84.3876 243.217 83.6948 242.62V242.395C82.3324 241.608 79.724 240.915 78.7721 240.273C78.6368 240.182 77.6181 238.957 77.3919 238.749C77.2812 238.647 76.8936 238.551 76.7927 238.45C74.9016 236.554 72.9342 234.696 71.1021 232.743C71.0702 232.781 70.6789 232.349 70.6528 232.293C70.4783 231.915 70.2866 231.328 70.0536 230.995C69.9063 230.785 68.7345 229.782 68.2978 229.172L68.1598 229.548L67.4645 230.084C67.4071 230.031 67.1124 229.622 67.0899 229.548C66.8418 229.482 66.1057 228.496 66.1057 228.496C65.8957 228.199 65.7776 227.724 65.3461 227.51C65.2636 227.32 65.204 227.359 65.0358 227.124C64.8394 227.172 64.2673 226.735 63.9753 226.514C63.9095 226.55 63.5234 226.28 63.3014 226.212C63.2293 226.135 63.14 226.073 63.0778 225.987L62.6071 225.838H61.8569L61.7833 224.689C59.9 222.594 58.1745 220.328 56.3909 218.147C55.9119 217.561 54.97 214.562 54.6471 213.675L56.6265 213.214V212.067L61.2483 211.016L62.7665 207.509C62.0142 206.41 60.7463 205.003 60.2641 203.787L55.8659 206.297C55.1638 205.585 54.527 204.661 54.0479 203.787C53.8134 203.553 53.7376 203.262 53.7376 203.262C53.711 203.026 53.7836 202.732 53.8233 202.5C50.3592 202.207 49.5656 201.206 46.4625 199.617C43.3682 198.032 40.1439 196.641 36.9817 195.197L35.4746 187.595C35.432 187.376 34.9989 185.166 35.0031 185.085C35.0749 183.628 35.8045 181.765 36.073 180.236L37.5167 172.01L37.1298 171.682L35.9954 177.528L30.5412 177.866L30.3163 181.674L27.1282 182.586L25.6088 190.564C25.4032 191.645 25.3667 192.869 25.0109 193.91C24.8163 194.48 24.4295 195.111 24.1643 195.658L23.4915 195.509L22.8055 197.247L22.4317 197.021L21.2221 199.99C22.1797 200.425 23.0962 201.005 24.0162 201.514L23.7903 201.814L26.529 203.262L23.3405 216.174C21.1189 215.578 18.859 215.047 16.6656 214.351C16.3302 215.386 16.0492 216.641 15.6051 217.623C14.479 220.115 12.2674 222.4 12.4931 225.365C12.4991 225.443 13.0847 228.069 13.103 228.11C13.5967 229.226 14.5694 230.479 15.2211 231.531L14.2369 236.54L14.4618 237.152C12.7742 237.152 13.9274 236.851 12.7925 236.851L12.5681 236.625C12.1444 236.52 12.1089 236.903 11.8821 237.152C12.1773 238.092 5.69365 244.841 4.60781 247.489C6.01938 248.206 6.85627 249.805 7.17547 251.297L8.40575 251.072L8.62934 249.313L9.68983 249.087C10.324 250.73 10.9321 252.45 11.7327 254.021C11.2929 254.02 9.95365 254.04 9.60416 254.182L9.7648 254.557C9.7648 254.557 9.11362 254.814 8.9305 254.868C8.64135 254.811 8.28454 254.924 7.934 254.868C7.71092 254.832 7.48681 254.769 7.26139 254.782L6.80089 255.318H6.50152C6.33304 256.236 5.72025 256.823 5.81559 257.828L6.95106 258.579C6.54828 260.583 6.17188 262.597 5.7422 264.595C5.41412 266.12 5.03433 267.424 4.99175 269.004C4.97058 269.8 5.49143 272.215 5.36762 272.576C3.89285 276.872 2.43114 281.172 1.04492 285.498C10.9833 286.875 21.0142 287.721 30.9909 288.759C30.9909 288.759 32.858 289.745 32.8844 289.745L41.3245 289.894Z" fill="#235753" stroke="white" stroke-width="2" stroke-miterlimit="3.86"/>
<path fill-rule="evenodd" clip-rule="evenodd" d="M39.3613 307.311C39.8174 303.473 40.3868 299.599 40.7045 295.749C40.7389 295.335 41.0785 290.442 41.324 289.894C41.7273 288.993 43.5641 286.678 44.1936 285.723C56.2206 288.171 68.1672 290.925 80.0448 294.012C86.414 295.667 92.7457 297.497 99.0904 299.246C105.334 300.967 111.457 302.485 117.814 303.73C119.561 304.072 121.305 304.395 123.056 304.716C124.983 305.069 126.885 305.643 128.812 306.014C136.041 307.406 143.703 307.153 151.023 307.826C154.192 308.117 157.334 308.459 160.515 308.632C170.036 309.148 179.58 308.849 189.09 308.252C192.766 308.021 196.503 307.853 200.163 307.45C200.303 307.434 200.561 307.354 200.698 307.311C204.479 306.118 206.863 304.223 211.311 304.03C211.268 303.347 211.191 300.648 211.001 300.158L209.269 300.545L208.734 300.383C208.763 300.212 208.532 299.014 208.509 298.795C208.402 298.83 208.293 298.883 208.199 298.946C208.164 298.819 208.122 298.686 208.059 298.569L208.285 298.334C208.141 298.29 206.659 297.487 206.615 297.347C206.94 296.514 207.116 295.847 206.989 294.914H207.439V294.688C207.717 290.912 208.98 287.078 209.875 283.41C210.215 282.016 210.424 280.573 210.777 279.192C210.817 279.033 210.885 278.874 210.938 278.719C211.637 279.311 212.294 279.947 212.98 280.553C214.328 281.742 215.009 282.017 215.098 283.889L217.688 283.439C217.484 281.984 217.424 280.494 217.302 279.03L217.527 279.106L217.688 278.57L218.138 278.656L218.449 277.583L217.828 277.432L218.449 275.458L216.469 275.61C216.247 275.155 216.076 274.523 216.083 274.012L220.481 273.787V274.386C220.732 274.302 221.068 274.304 221.327 274.323V273.625C222.829 273.614 224.308 273.505 225.811 273.431C228.142 273.367 230.89 272.949 233.149 273.625C233.416 273.907 233.709 274.011 233.984 274.247L237.247 277.047C237.787 277.511 238.233 278.62 238.691 279.255C240.45 281.692 242.218 282.295 244.896 283.363C247.824 279.104 252.101 274.7 255.525 270.741C257.702 272.614 260.034 274.46 262.11 276.445C262.214 276.513 263.063 277.114 263.105 277.133C263.351 277.245 263.713 277.298 263.94 277.432C264.252 277.615 271.769 284.321 271.825 284.349C271.94 284.071 272.867 283.069 273.183 282.837C275.429 281.189 277.617 279.542 280.009 278.12C280.176 278.02 281.98 276.691 282.029 276.713C284.048 274.834 287.576 273.514 290.25 273.026C294.51 272.247 295.63 272.348 299.793 270.516C301.257 269.872 302.725 269.233 304.201 268.616C305.371 271.803 306.736 274.965 307.998 278.12C308.172 278.086 309.868 278.444 310.191 278.57C310.386 277.741 311.042 277.75 311.787 277.669C312.186 277.257 312.568 276.901 312.994 276.531L313.754 275.835L314.216 275.61V275.31L315.874 274.922C317.046 274.421 318.625 274.169 319.82 273.873C324.062 272.82 328.477 272.7 332.563 271.728C334.403 271.29 345.041 268.521 345.98 268.541C356.603 267.339 363.339 263.695 374.332 266.869C377.087 267.665 379.855 268.892 382.546 269.914C382.464 270.385 382.869 271.228 383.212 271.437C383.409 271.556 383.828 271.657 384.048 271.728C385.983 272.357 387.807 273.351 389.654 274.161C390.47 274.518 391.284 274.996 392.158 275.233L392.768 275.384L392.158 275.835C392.218 275.956 393.282 277.675 393.376 277.743C393.376 277.743 393.585 278.255 393.601 278.345C393.692 278.718 393.875 279.279 393.825 279.642C393.892 279.857 394 280.165 393.977 280.327C393.783 280.708 393.673 282.007 393.677 282.452C393.489 282.615 393.479 282.764 393.376 282.989C392.879 284.07 392.028 284.648 391.398 285.561C391.198 285.852 391.032 286.377 390.949 286.71L390.873 287.395L390.949 287.686L390.873 287.931C390.862 288.187 390.418 288.425 390.338 288.533L389.654 288.381C389.319 288.78 385.128 293.887 384.807 294.012C384.394 295.45 384.075 297.382 383.437 298.71C383.628 298.829 385.592 300.029 385.642 300.082C385.712 300.154 387.16 302.504 387.31 302.743L386.775 304.266C386.747 304.237 386.326 304.566 386.326 304.566C386.271 304.986 386.688 307.156 386.851 307.761L388.221 307.685C388.588 309.48 388.925 311.206 389.244 313.01L386.926 313.992C386.977 314.102 386.92 314.233 386.999 314.378C387.445 314.172 390.748 312.758 391.024 312.63L391.398 312.695C391.409 312.527 391.632 311.945 391.632 311.945C391.616 311.741 392.056 311.647 392.081 311.557H392.531C392.659 311.613 392.894 311.728 392.841 311.782H393.151L393.527 311.183C393.527 311.183 394.495 311.033 394.512 311.021C394.512 311.021 394.287 310.637 394.201 310.572V310.347C394.368 310.368 394.986 310.743 395.047 310.797H396.179V311.108L397.698 311.183C397.89 310.882 401.237 311.215 401.637 311.246V310.872C401.834 310.89 402.109 311.047 402.246 311.183L401.935 315.355H399.594C399.565 315.43 399.416 315.737 399.442 315.804C398.92 316.524 399.347 318.036 398.534 319.472C398.427 319.512 397.925 319.729 397.837 319.697C397.885 320.206 397.201 322.069 396.79 322.358C397.017 322.485 397.264 322.817 397.464 322.883C397.697 323.138 397.885 323.658 397.837 323.944C397.876 324.417 396.809 325.175 396.79 325.241L396.331 326.916C395.761 328.992 396.403 331.646 396.583 333.758L393.452 334.046L393.752 335.27L391.097 339.365C390.751 339.299 390.464 339.059 390.189 338.852L389.588 339.677C389.372 339.634 388.324 338.715 388.069 338.541C385.484 336.776 383.116 334.747 380.398 333.222C379.934 332.961 379.14 332.567 378.816 332.149C378.689 332.214 377.243 330.998 376.835 330.938C376.701 330.723 373.463 328.952 373.048 328.727L372.064 328.965C371.356 329.769 370.759 330.73 370.171 331.623L369.497 332.31C369.155 332.467 368.851 332.486 368.652 332.461C368.183 332.471 367.75 332.751 367.358 332.686C367.239 332.774 366.901 332.946 366.757 332.911C366.47 333.106 365.997 333.533 365.997 333.533C365.816 334.089 361.098 339.002 360.691 339.365C360.231 338.577 359.421 337.954 359.023 337.167C358.898 337.228 357.824 336.053 357.739 336.105C357.648 336.042 356.578 335.225 356.603 335.195L355.984 334.357C355.984 334.357 355.17 333.81 354.999 333.758C354.662 333.571 354.313 333.306 354.014 333.371C354.014 333.371 352.478 332.802 352.347 332.834C351.834 332.64 351.481 332.419 351.138 332.235C351.068 332.198 350.577 331.859 350.613 331.772C350.613 331.772 350.204 331.1 350.142 331.163C350.142 331.163 350.032 330.133 350.142 330.025H348.932V331.011L347.96 331.322C347.664 331.706 347.373 332.291 347.115 332.609L340.525 340.749C340.386 340.8 339.9 341.024 339.765 340.974L339.303 341.199C337.663 342.467 337.035 343.516 335.826 345.158L335.516 344.996C334.854 345.801 333.886 346.745 333.399 347.657L333.934 347.968C334.021 348.552 332.235 350.022 331.88 350.541C331.425 351.206 331.381 352.087 330.895 352.751C330.619 352.727 330.319 352.764 330.05 352.827C328.042 351.226 326.333 349.326 324.519 347.506L310.118 333.06L310.267 331.772L308.289 331.474L307.24 332.384L307.774 332.911L308.374 342.113C308.909 342.639 314.74 348.209 315.039 349.405C315.331 350.572 315.476 351.856 315.649 353.052L311.787 353.427C311.556 355.762 312.756 360.316 313.146 362.168C313.152 362.197 310.803 368.996 310.428 370.145C307.047 368.239 303.843 364.494 303.292 360.729L301.846 360.268C301.559 360.849 301.309 361.418 301.088 362.027C299.023 367.705 295.328 373.742 295.781 379.959C295.842 380.798 295.89 381.628 295.929 382.469C296.313 390.722 296.146 391.593 300.863 398.512L302.306 400.635C306.955 407.428 306.246 411.179 307.079 418.878C307.117 419.228 307.117 419.583 307.153 419.928C307.671 424.933 310.464 431.381 313.956 435C314.891 435.969 315.875 436.623 316.944 437.409C318.647 438.659 321.156 440.244 322.608 441.528C318.418 439.159 314.697 440.68 311.475 438.097C306.483 434.092 301.569 430.127 296.789 425.869C293.723 423.138 292.204 419.188 288.73 416.744C286.711 415.323 284.603 414.161 282.513 412.861C281.504 412.233 280.628 411.626 279.515 411.173C272.314 408.245 264.378 411.699 257.263 413.172C256.962 413.234 256.653 413.261 256.354 413.334C253.029 414.147 252.351 413.564 249.219 413.172C248.925 413.135 243.209 411.442 240.884 410.739C238.993 410.166 236.967 409.692 235.043 409.215C233.663 408.873 231.14 408.424 229.822 407.929C225.545 406.323 223.021 404.092 219.497 401.312C216.972 399.32 213.767 397.308 212.014 394.469C211.458 393.753 210.519 391.911 210.102 391.048C207.865 386.422 205.508 381.846 203.266 377.225C201.761 374.124 198.535 371.917 196.685 369.01C196.576 368.837 196.5 368.648 196.375 368.484C195.853 367.477 195.362 366.659 195.007 365.587L194.856 365.299C193.402 357.205 192.657 347.02 192.129 338.766L188.341 338.005C187.656 338.831 186.484 338.979 185.827 339.839C184.985 340.942 184.248 342.246 183.484 343.41C183.342 343.627 182.598 344.151 182.35 344.086C181.842 345.079 181.73 346.996 180.606 347.592H178.327C178.232 347.592 175.191 348.72 174.005 349.405C173.846 349.497 173.695 349.611 173.545 349.716L172.496 348.805C171.743 349.039 170.655 349.211 169.993 349.629L170.217 350.391L169.682 350.626L169.458 349.865L168.163 350.541L168.388 351.152L167.789 351.463L167.478 350.767C161.279 354.156 153.465 348.276 152.543 348.494C152.283 348.316 151.215 347.719 151.023 347.592C146.92 344.862 149.116 345.859 144.282 345.383C144.115 345.367 143.62 345.131 143.523 345.158C143.34 344.946 142.764 344.172 142.764 344.172C142.803 343.886 142.653 343.62 142.689 343.324C141.652 343.07 140.801 343.549 139.811 343.635C138.862 343.718 136.589 343.461 136.546 343.473L136.397 343.784C134.959 343.464 133.544 343.19 132.15 342.723C129.017 341.675 125.227 342.855 122.296 344.086C121.031 344.617 120.388 344.78 119.643 346.068C119.005 346.218 118.294 346.528 117.664 346.745C114.924 347.69 111.553 348.28 108.634 348.193C99.4561 347.921 94.0512 347.96 91.0045 338.121C90.4366 336.287 89.5344 333.403 89.385 331.547C89.2831 330.277 89.3834 328.866 89.4613 327.592C88.6583 328.186 87.7624 328.576 86.9563 329.114C86.2604 329.579 86.0938 330.185 85.1268 330.336C84.6984 330.403 82.2953 329.843 81.8006 329.64L81.425 328.353C80.1942 327.962 77.2875 327.328 76.1194 326.605C75.6372 326.307 74.8227 325.874 74.2899 325.692C74.1002 325.736 73.9247 325.893 73.7549 325.93C73.186 326.051 71.6903 325.4 71.1016 325.241C69.2094 324.731 67.4583 323.919 65.7949 322.883C63.5579 321.489 63.4461 321.493 61.0969 320.449C61.0321 320.42 60.9229 320.349 60.8722 320.299C60.3111 319.751 59.9361 318.991 59.3541 318.476C58.3202 317.56 56.8047 317.585 55.5655 317.039C54.3269 316.493 51.0331 315.051 50.6345 314.904C50.5942 314.815 49.925 314.003 49.7986 313.907C49.0766 313.362 48.1023 313.15 47.3699 312.544C46.9405 312.188 43.2078 309.158 42.9848 309.049C41.7514 308.446 40.6512 307.802 39.3613 307.311Z" fill="#235753" stroke="white" stroke-width="2" stroke-miterlimit="3.86"/>
<path d="M296.773 425.869L295.107 427.081C294.978 427.836 293.999 429.615 293.973 429.742C293.689 429.908 293.432 430.161 293.129 430.341C292.884 430.248 292.144 430.59 291.918 430.804L291.769 431.715L291.072 433.462C290.812 433.434 290.5 433.283 290.25 433.314C290.036 433.56 289.599 433.741 289.49 434.075C289.174 435.045 287.96 437.764 288.581 438.707L290.25 439.845L287.67 444.939L294.797 447.524L291.234 452.766L290.475 452.092L289.94 452.766L288.891 452.316L288.282 453.303L284.184 453.369L284.867 452.155L284.259 451.78L283.809 452.606L283.2 452.381L283.809 451.393L282.513 451.469C281.351 453.152 280.399 454.864 279.412 456.65C276.841 456.015 273.954 455.515 271.825 453.99L271.965 452.766C271.718 452.687 270.68 451.659 270.231 451.469C267.967 454.344 265.714 457.232 263.405 460.071V460.297C263.405 460.297 264.058 460.622 264.09 460.595C264.175 460.758 264.856 461.505 264.924 461.594C265.015 461.556 267.417 462.343 267.417 462.343C267.596 462.371 268.798 463.18 268.798 463.18C268.987 463.13 271.591 464.703 271.591 464.703C272.009 465.155 272.728 465.249 273.034 465.616C273.112 465.578 273.569 465.99 273.569 465.99C274.405 467.209 276.234 469.663 276.758 470.783L271.29 475.341C270.854 475.705 270.454 476.409 270.007 476.854C270.015 476.881 269.867 477.429 269.846 477.466C269.635 477.685 269.539 477.796 269.472 477.926C268.209 478.543 268.024 478.38 266.433 478.453L267.354 479.75L266.208 480.435L265.525 479.588L264.465 480.124L264.241 479.75C262.962 480.365 261.352 480.694 259.992 481.123L259.008 479.449C258.412 479.793 257.663 480.364 256.954 480.276C256.228 481.385 255.164 482.325 254.301 483.322C253.155 484.646 252.126 486.051 251.049 487.429C249.718 486.458 248.355 485.526 247.1 484.457C245.774 487.611 244.945 490.987 243.998 494.271L243.913 494.645C242.463 494.267 241.004 493.895 239.59 493.424L239.365 495.258L238.542 495.321C238.508 496.49 238.163 497.285 238.606 498.453L237.247 498.293L237.022 499.203L236.487 499.654L236.338 500.726C235.805 500.757 235.265 500.838 234.744 500.951L235.279 502.626H234.144L233.46 502.786C233.276 502.751 232.735 503.317 232.7 503.301C232.185 503.327 229.66 503.813 229.062 503.999C229.131 503.386 228.846 502.797 228.902 502.165C228.891 501.624 228.647 501.033 228.602 500.576C228.515 499.68 228.527 498.753 228.527 497.843L228.067 497.607C228.153 496.815 228.067 496.196 228.067 495.482C228.067 495.482 227.487 495.135 227.458 495.096C227.446 494.823 227.275 494.433 227.308 494.109L227.458 493.585C227.517 493.457 228.129 492.639 228.067 492.523L228.153 492.146C227.913 491.888 227.606 491.792 227.308 491.676V492.598C227.308 492.598 226.881 493.409 226.932 493.51L225.189 492.598L224.269 493.049C223.394 492.1 222.345 491.336 221.476 490.388L221.241 488.866C220.016 489.052 218.761 489.118 217.528 489.24L217.454 488.641L217.069 488.416L216.78 489.015L215.935 488.727L215.859 487.504L213.965 487.118C213.876 486.207 213.86 485.22 213.965 484.308C213.55 484.192 212.273 483.418 211.997 483.408C209.501 483.31 206.982 483.101 204.485 483.159L203.266 481.722C202.435 481.463 199.16 480.813 198.719 480.501L197.821 482.024L201.372 484.457C200.492 487.159 198.627 490.617 197.436 493.199C194.784 493.077 187.514 492.699 186.522 492.749C186.439 493.458 186.342 494.168 186.211 494.87L183.868 494.334L181.741 496.168L181.366 496.083C180.667 497.43 176.572 501.53 175.214 502.926C174.979 503.169 174.571 503.499 174.39 503.774C174.352 503.833 174.197 504.42 174.166 504.522C172.846 503.886 171.099 503.58 169.683 503.162C169.377 503.544 169.263 504.3 168.998 504.76L168.41 504.537C168.726 504.244 168.821 503.47 169.095 503.101L164.75 501.714C165.521 498.273 167.438 493.709 170.218 491.451L170.442 490.239C171.255 489.375 172.265 488.307 173.32 487.729C173.331 487.488 172.976 486.562 172.785 486.516L172.721 486.066C172.721 486.066 173.341 484.964 173.406 484.845L171.427 479.899C172.713 478.203 176.786 473.335 176.819 473.282C176.962 473.06 177.083 472.619 177.044 472.372C176.994 472.116 176.859 471.918 176.883 471.845C177.185 471.268 178.124 470.145 178.852 470.088L177.418 467.663C177.305 467.476 176.074 465.509 176.059 465.454C175.699 464.038 175.737 462.004 175.598 460.522L174.166 460.972L173.545 459.76L174.08 458.086C174.132 457.914 174.186 457.307 174.305 457.41V457.176C174.37 456.721 173.607 455.599 173.695 454.891C173.748 454.093 172.95 453.604 172.721 452.992C172.641 452.966 170.695 451.147 170.442 451.02L169.234 450.707C169.155 450.662 168.473 449.947 168.473 449.947L168.324 448.811C168.324 448.811 166.874 446.116 166.953 445.7C166.893 445.668 165.895 444.714 165.895 444.714L165.671 443.952C165.6 443.84 165.077 443.507 164.986 443.35L164.066 443.114L163.841 442.966L162.096 440.381C162.168 439.933 161.875 438.912 161.871 438.322C161.769 438.553 161.329 439.512 160.878 439.768L160.653 439.845C160.373 439.902 160.061 439.62 159.743 439.62C159.522 439.62 159.292 439.723 159.07 439.695V438.322L158.759 437.872L158.224 437.795C157.658 437.802 157.627 437.615 157.465 437.495C157.44 437.337 157.014 436.733 157.014 436.733C156.619 437.277 156.376 438.951 156.789 439.469C156.693 439.762 156.122 441.305 156.192 441.516L157.774 442.589C157.282 442.514 156.765 442.474 156.266 442.503L155.881 442.729L155.805 443.265C154.646 443.481 153.808 441.359 153.762 440.304C153.388 440.279 152.998 440.33 152.629 440.381L152.157 441.205C152.037 441.253 151 443.094 150.799 443.191L150.575 444.177C150.575 444.177 149.62 445.169 149.44 445.25C149.383 445.393 148.371 446.686 148.371 446.686C148.382 446.719 148.02 447.809 147.996 447.983C147.891 448.031 147.638 448.674 147.47 448.585C147.323 448.637 146.018 449.352 145.866 449.432L145.491 449.722L145.118 449.432C142.499 452.076 140.087 455.005 137.617 457.785C136.409 459.144 135.281 460.545 133.894 461.734C133.545 461.593 133.375 461.148 132.91 461.208C132.91 461.208 131.711 460.843 131.601 460.812C131.359 460.552 131.041 460.221 130.78 459.986C130.78 459.986 130.431 459.06 130.482 458.847C130.424 458.672 130.019 458.189 129.947 458.086C129.553 458.375 129.279 458.757 128.962 459.072C128.828 459.267 128.389 459.972 128.363 459.986V460.297C128.185 461.183 128.611 462.171 128.501 462.955C128.55 463.299 128.708 463.538 128.661 463.782C128.644 463.873 128.43 464.519 128.437 464.543C128.437 464.543 127.674 465.343 127.604 465.305L126.844 465.391C126.844 465.391 125.537 464.728 125.473 464.629C124.678 464.603 124.825 464.656 124.191 465.004C123.915 465.565 123.195 466.828 123.195 466.828C122.646 467.282 122.595 468.636 122.595 469.187L122.522 469.711L122.211 470.472V470.935C122.499 471.216 123.353 471.99 123.353 471.99C123.353 471.99 124.021 472.703 123.954 472.908C123.954 472.908 124.299 474.267 124.265 474.507C124.265 474.507 125.097 475.097 125.175 475.03L125.71 475.943L125.783 476.791L126.233 477.315V477.691L126.084 477.926V478.827C126.165 479.038 126.309 479.525 126.309 479.525C126.309 479.525 125.705 480.282 125.624 480.35L124.576 480.435C124.576 480.435 123.951 480.908 123.88 480.972C123.945 481.038 123.355 481.422 123.355 481.422L123.281 480.886C123.318 480.869 123.506 480.276 123.506 480.276V479.674C123.506 479.674 123.254 479.263 123.195 479.214L123.121 478.453C123.121 478.453 122.83 477.716 122.522 477.615C122.388 477.343 121.836 476.403 121.836 476.403L121.676 475.566C121.645 475.358 121.314 474.634 121.227 474.507C120.978 474.388 120.425 473.51 120.166 473.593C120.012 473.383 118.653 472.652 118.509 472.683C118.394 472.545 118.151 472.495 118.039 472.372C116.432 470.612 107.332 458.351 104.173 454.289C102.978 452.752 101.295 450.177 100.075 448.896C99.4653 448.255 98.4863 447.723 97.7962 447.147L82.9446 434.751L78.4617 431.029C78.3781 430.96 73.7417 430.198 73.2313 430.116V429.431L73.0056 428.445C73.0349 428.275 73.306 427.908 73.306 427.908V427.306C73.306 427.306 73.003 426.504 72.9315 426.472C72.968 426.407 71.8459 424.245 71.7106 423.887C71.6369 423.925 70.9573 424.42 70.6527 424.486C70.6527 424.486 69.9124 424.69 69.7432 424.648C69.7531 424.609 69.1408 420.987 69.2082 420.464C68.7563 420.464 66.6029 420.384 66.4039 420.55C66.4316 417.453 66.605 414.366 66.7795 411.275C66.2477 411.49 65.3236 411.815 64.7348 411.811C64.7944 411.732 65.0362 410.648 65.0357 410.428C65.2525 410.205 65.4839 409.499 65.5064 409.375C65.5519 409.127 66.4232 403.842 66.4039 403.745C66.5721 403.163 65.9541 401.434 66.4039 400.551C66.2503 400.41 66.1087 399.04 66.1056 398.802C66.079 396.693 66.8459 395.564 66.8652 393.792C66.7795 392.787 66.5612 391.959 66.9389 391.134C67.0036 390.993 67.1295 390.837 67.0898 390.672C67.4785 390.278 68.1796 388.697 68.2977 388.625C68.2924 388.091 68.2198 387.676 68.1597 387.175C68.037 386.149 68.2339 385.02 68.224 383.981C68.2794 383.818 68.4042 383.185 68.4486 383.068H67.4644L67.2398 383.154C67.106 383.353 66.4791 383.566 66.266 383.531L64.5102 383.604C64.4375 383.604 63.6921 383.338 63.6769 383.306C62.7648 383.527 60.6542 382.051 59.729 382.306L59.1298 382.167L58.8195 382.469C58.8195 382.469 58.0939 382.66 57.8353 382.617C57.8045 382.719 55.8386 383.368 55.6312 383.604C55.52 383.571 49.8142 385.422 49.2761 385.59L50.2603 382.081H50.0357C50.4019 379.306 50.7953 376.341 51.6191 373.653L50.1856 373.568L49.799 372.892C49.6543 373.026 49.5044 373.247 49.3403 373.342C49.1956 373.424 48.6941 373.741 48.6654 373.727H48.4308L48.5165 372.29C48.5358 371.92 48.6272 371.256 48.6654 371.217C48.3702 371.258 46.7262 371.059 46.5371 370.906C46.0298 370.563 45.5628 370.306 45.1783 369.92C43.5593 368.293 41.9921 368.509 40.2462 367.262C40.2059 367.28 38.4569 366.096 38.4167 366.049C38.4167 366.049 37.1201 365.724 36.9816 365.673C36.8267 365.229 35.9088 364.389 35.8477 364.227C35.5991 363.397 33.651 362.607 33.581 362.479C33.581 362.479 32.4121 361.502 32.3494 361.406C32.1357 360.899 34.5318 353.189 34.9395 351.913L34.8632 350.851C35.2522 349.619 36.8307 344.392 36.9816 343.099C37.83 342.24 38.3347 341.548 38.8017 340.365C39.5352 340.608 40.6547 340.839 41.3161 341.199C41.9493 341.545 42.5119 342.314 43.1242 342.723C44.7306 343.798 46.476 344.754 48.1304 345.757L48.4308 345.158C48.2908 344.963 47.2512 343.458 47.1457 343.41C47.0396 343.196 46.9117 342.788 46.9117 342.788C46.9608 342.502 46.0068 338.663 45.9274 338.316C45.9138 338.256 45.7368 338.148 45.7017 338.091C45.6589 338.021 45.1344 335.541 45.1783 335.271L41.99 335.721L41.605 335.119C41.8422 334.681 42.0172 334.257 42.3646 333.907V333.533C42.165 333.315 42.0522 333.033 41.839 332.834C41.7382 332.632 41.6896 332.01 41.6896 332.01L41.7654 331.699C41.7654 331.699 41.3474 331.104 41.3161 330.938L40.6197 330.872C39.7321 330.644 37.9403 329.126 37.6676 328.353C38.0228 328.249 38.4047 326.37 38.8017 325.844L37.5166 321.822L37.1428 321.885L33.495 310.572C33.798 310.698 34.3787 310.859 34.7151 310.797L34.8632 309.124C35.3002 308.93 36.3492 308.634 36.8333 308.824L37.5166 308.673C38.168 308.35 38.8069 307.789 39.345 307.312C40.6349 307.802 41.7518 308.446 42.9852 309.049C43.2083 309.158 46.9409 312.188 47.3703 312.544C48.1027 313.15 49.077 313.362 49.799 313.907C49.9254 314.003 50.5946 314.815 50.6349 314.905C51.0335 315.051 54.3273 316.493 55.5659 317.039C56.8051 317.585 58.3206 317.56 59.3545 318.476C59.9365 318.991 60.3115 319.751 60.8726 320.299C60.9233 320.349 61.0325 320.42 61.0973 320.449C63.4465 321.493 63.5583 321.489 65.7953 322.883C67.4587 323.919 69.2098 324.731 71.102 325.242C71.6907 325.4 73.1864 326.051 73.7553 325.93C73.9251 325.893 74.1006 325.736 74.2903 325.692C74.8231 325.874 75.6376 326.307 76.1198 326.605C77.2879 327.328 80.1946 327.962 81.4254 328.353L81.801 329.64C82.2957 329.843 84.6988 330.403 85.1272 330.336C86.0942 330.185 86.2608 329.579 86.9567 329.114C87.7628 328.576 88.6587 328.187 89.4617 327.592C89.3838 328.866 89.2835 330.278 89.3854 331.547C89.5348 333.403 90.437 336.287 91.0049 338.121C94.0516 347.96 99.4565 347.921 108.634 348.193C111.553 348.28 114.925 347.69 117.664 346.745C118.295 346.528 119.006 346.218 119.644 346.068C120.388 344.78 121.032 344.617 122.297 344.086C125.227 342.855 129.018 341.675 132.151 342.723C133.544 343.19 134.959 343.464 136.397 343.784L136.547 343.473C136.59 343.461 138.862 343.718 139.811 343.635C140.802 343.55 141.653 343.07 142.689 343.324C142.653 343.62 142.804 343.886 142.764 344.172C142.764 344.172 143.34 344.946 143.524 345.158C143.621 345.131 144.115 345.367 144.282 345.383C149.116 345.859 146.92 344.862 151.024 347.592C151.216 347.719 152.283 348.316 152.543 348.494C153.465 348.276 161.28 354.156 167.479 350.767L167.789 351.463L168.388 351.152L168.164 350.541L169.458 349.865L169.683 350.626L170.218 350.391L169.993 349.629C170.656 349.211 171.744 349.04 172.497 348.805L173.545 349.716C173.695 349.611 173.846 349.497 174.005 349.405C175.191 348.72 178.233 347.592 178.328 347.592H180.606C181.731 346.996 181.842 345.079 182.35 344.086C182.598 344.151 183.342 343.627 183.484 343.41C184.249 342.246 184.985 340.942 185.827 339.839C186.485 338.979 187.656 338.831 188.342 338.005L192.129 338.766C192.657 347.02 193.402 357.205 194.856 365.299L195.007 365.587C195.363 366.659 195.854 367.477 196.376 368.484C196.5 368.648 196.576 368.837 196.686 369.01C198.536 371.917 201.762 374.124 203.266 377.225C205.508 381.846 207.865 386.422 210.102 391.048C210.52 391.911 211.459 393.753 212.014 394.469C213.767 397.308 216.973 399.32 219.498 401.312C223.022 404.092 225.545 406.323 229.822 407.929C231.14 408.424 233.663 408.873 235.043 409.215C236.968 409.692 238.993 410.166 240.885 410.739C243.209 411.442 248.926 413.135 249.219 413.172C252.352 413.564 253.029 414.147 256.354 413.334C256.654 413.261 256.963 413.234 257.264 413.172C264.378 411.699 272.315 408.245 279.515 411.173C280.629 411.626 281.505 412.233 282.513 412.861C284.604 414.161 286.711 415.323 288.731 416.744C292.204 419.188 293.707 423.138 296.773 425.869Z" fill="#235753" stroke="white" stroke-width="2" stroke-miterlimit="3.86"/>
<path d="M396.583 333.758L396.629 334.509C397.475 335.414 398.517 336.2 399.443 337.019C399.526 337.07 399.931 337.592 399.893 337.629C400.082 337.708 400.717 337.897 400.803 337.929L401.028 337.629C402.126 338.164 402.945 338.917 403.99 339.528C405.463 340.39 407.03 341.156 408.537 341.962C408.84 342.124 409.469 342.169 409.748 342.338C409.905 342.433 410.459 343.096 410.657 343.248L414.83 346.446C415.463 346.931 416.549 347.172 417.258 347.592C418.364 348.249 419.441 349.014 420.52 349.716L420.295 350.702C420.538 350.686 421.483 350.674 421.656 350.542C421.721 349.834 421.782 349.123 421.88 348.419C424.98 347.262 428.421 347.123 431.668 346.52C434.383 343.416 437.614 340.549 440.614 337.704C441.071 338.001 443.432 344.05 443.642 344.546L443.193 345.532L443.417 346.52C444.029 346.589 444.649 346.68 445.247 346.83L445.085 347.055L444.325 347.346C444.376 347.604 444.46 347.861 444.55 348.108C447.283 349.329 447.263 349.516 449.108 351.688L448.573 355.946L450.081 356.172L450.926 357.994C451.065 358.047 451.905 358.406 451.996 358.371C452.408 358.419 452.624 358.559 452.895 358.521L453.357 358.908V359.818C453.358 360.204 452.749 360.381 452.67 360.655C452.632 360.79 452.68 360.943 452.511 361.029C452.58 361.51 452.318 362.048 452.372 362.552C452.372 362.552 451.079 364.065 451.003 364.151C450.984 364.173 450.794 364.239 450.778 364.313L449.856 364.227C449.68 364.333 449.553 364.657 449.407 364.601L448.872 364.688C448.762 364.794 448.607 364.856 448.423 364.988L448.573 365.524C448.685 365.553 448.764 365.621 448.81 365.587C448.238 366.759 448.455 368.14 448.123 369.169C448.297 369.125 449.259 369.01 449.259 369.01C449.664 368.9 450.047 369.065 450.329 369.01C450.329 369.01 450.837 369.366 450.926 369.321C450.965 369.431 450.926 369.771 450.926 369.771L450.702 370.533L451.003 370.681L451.376 370.619C451.221 370.464 452.151 370.464 451.996 370.619C452.096 370.647 452.221 370.992 452.221 370.992L451.837 371.294C451.825 371.306 452.523 372.054 452.597 372.131C452.866 372.433 452.822 372.634 452.822 372.892L452.756 373.117L451.996 373.125L451.762 373.428C452.223 373.498 452.661 373.434 453.132 373.428C453.439 373.394 453.917 373.05 454.19 373.117C454.547 373.474 454.668 373.74 454.876 373.952C455.149 374.231 455.268 373.987 455.635 374.038C455.935 373.98 456.299 373.84 456.458 373.879C456.696 373.908 456.972 374.069 457.069 374.19C457.115 374.167 458.203 374.488 458.203 374.488C458.203 374.488 458.637 373.67 458.737 373.428C459.003 373.395 461.216 372.412 461.315 372.29L462.151 372.204L462.911 372.429C463.091 372.484 464.045 372.966 464.045 372.966L465.403 373.277C465.209 375.715 463.416 381.906 463.594 382.769C463.594 382.769 463.81 383.587 463.97 383.69C463.871 383.873 464.388 384.206 464.58 384.206C465.162 384.206 465.729 384.177 466.311 384.14C466.529 384.828 467.294 393.632 467.233 394.469C470.047 395.618 473.767 396.983 476.637 397.976C477.409 399.381 479.039 400.947 480.051 402.223C480.051 402.223 480.643 401.961 480.81 401.933C481.265 401.857 481.683 401.848 482.169 401.848C482.169 401.848 482.425 401.231 482.392 401.172C482.415 401.011 483.342 400.652 483.687 400.701C483.992 400.71 485.009 401.655 485.197 401.773C485.501 401.965 487.251 402.683 487.251 402.683L485.807 403.832L487.625 407.092C488.542 406.736 490.783 406.053 491.486 405.493L492.333 407.854L493.392 408.303C492.75 410.518 492.316 412.752 491.798 414.996C493.896 415.126 497.053 416.898 498.623 418.18C497.731 419.619 496.976 421.174 496.196 422.675C496.218 422.721 497.638 423.437 497.638 423.437C497.876 423.493 498.474 423.973 498.474 423.973L499.758 424.572C499.963 424.79 500.178 424.859 500.366 425.108C500.313 425.195 500.901 425.558 500.901 425.558H501.126L504.006 427.909C504.006 427.909 505.402 428.757 505.514 428.83C505.854 429.125 506.234 429.274 506.509 429.58C506.726 429.758 507.78 430.948 507.879 431.03C507.859 431.102 508.314 431.772 508.414 431.95L509.546 430.653C509.721 431.092 511.203 432.088 511.29 432.175C511.522 432.277 512.157 432.939 512.116 433.089C512.216 433.144 512.747 433.702 512.799 433.85C513.012 433.944 514.36 434.913 514.394 434.899C514.501 434.997 515.231 435.707 515.454 435.886C517.942 437.877 517.737 439.484 520.834 440.831C522.203 441.427 521.426 440.539 522.89 441.827C523.136 442.044 523.336 442.189 523.488 442.503L519.476 446.237C520 446.673 520.088 447.351 520.609 447.823C521.178 448.339 521.874 448.739 522.28 449.432C522.316 449.494 522.332 449.589 522.355 449.657C522.573 450.122 524.425 453.287 524.334 453.528L526.226 455.127C527.302 455.188 528.202 454.992 529.105 454.977C529.706 454.968 530.204 455.073 530.773 455.127C531.352 455.182 531.995 455.041 532.592 455.041C532.904 454.751 533.536 454.484 533.589 454.13C534.291 449.421 535.001 444.714 535.62 439.994C535.931 439.994 539.5 439.974 539.569 439.994C541.35 440.513 545.974 442.746 547.904 443.575C545.378 447.471 542.769 451.297 540.254 455.203C539.71 456.047 538.729 457.096 538.359 458.012C538.331 458.083 538.218 459.023 538.2 459.158C539.864 459.845 541.244 461.033 542.597 462.193C541.914 463.037 541.401 464.759 541.548 465.841C539.849 465.838 532.676 465.957 531.684 467.288L532.068 468.576C532.068 468.576 530.779 469.004 530.548 469.102C528.185 470.105 526.761 471.388 524.931 473.134C522.943 475.031 520.724 477.121 518.267 478.377C517.799 478.616 517.328 478.849 516.887 479.138C513.14 481.944 509.172 483.975 504.765 485.596C504.488 485.698 498.07 488.615 494.987 489.714C493.926 490.092 492.972 490.514 491.959 491.001C486.857 493.454 485.499 494.764 482.927 499.816C482.485 500.686 482.129 501.584 481.719 502.475C479.855 506.531 478.315 510.897 476.921 515.137C476.472 516.501 476.118 517.918 475.643 519.269C473.613 525.042 468.725 529.011 462.524 529.073C461.416 529.084 460.306 529.082 459.198 529.073C453.358 529.024 447.511 527.095 441.842 525.868C439.453 525.351 437.113 525.057 434.696 524.74C434.12 524.665 433.538 524.515 432.953 524.515C429.499 524.515 426.045 526.115 422.725 526.948C418.215 528.079 414.784 528.603 410.131 527.325C404.221 525.701 399.611 521.592 395.36 517.376C394.546 516.569 393.564 515.743 392.841 514.863C390.807 512.383 389.006 509.393 387.535 506.497C385.113 501.729 383.112 496.65 379.352 492.749C376.41 489.698 375.191 488.286 371.006 486.968C369.33 486.44 367.227 486.615 365.463 486.582C361.735 486.513 358.126 485.767 354.549 484.768C352.087 484.08 350.951 483.954 349.009 482.11C348.393 481.525 347.815 480.86 347.265 480.21C343.883 476.216 341.626 469.41 339.8 464.492C339.257 463.029 338.754 461.358 338.021 459.986C337.699 459.381 337.267 458.737 336.876 458.172C335.466 456.128 323.832 442.413 322.592 441.528C321.139 440.244 318.647 438.659 316.944 437.409C315.875 436.623 314.891 435.969 313.956 435C310.464 431.381 307.671 424.933 307.153 419.928C307.118 419.583 307.117 419.228 307.079 418.879C306.246 411.179 306.955 407.428 302.306 400.636L300.863 398.513C296.146 391.594 296.313 390.722 295.93 382.469C295.89 381.628 295.842 380.798 295.781 379.96C295.329 373.743 299.023 367.705 301.088 362.027C301.309 361.418 301.559 360.849 301.846 360.268L303.292 360.729C303.844 364.494 307.048 368.239 310.429 370.145C310.804 368.996 313.152 362.197 313.146 362.168C312.756 360.317 311.556 355.762 311.787 353.427L315.65 353.052C315.476 351.856 315.331 350.572 315.039 349.405C314.741 348.209 308.909 342.639 308.374 342.113L307.775 332.911L307.24 332.384L308.289 331.474L310.268 331.773L310.118 333.06L324.519 347.506C326.333 349.326 328.042 351.226 330.05 352.827C330.319 352.764 330.619 352.727 330.896 352.751C331.382 352.087 331.425 351.206 331.88 350.542C332.236 350.023 334.021 348.552 333.934 347.968L333.399 347.657C333.887 346.746 334.855 345.801 335.516 344.996L335.826 345.158C337.035 343.516 337.664 342.467 339.303 341.2L339.765 340.974C339.9 341.024 340.386 340.801 340.525 340.749L347.116 332.609C347.374 332.291 347.665 331.706 347.96 331.322L348.933 331.011V330.025H350.142C350.032 330.133 350.142 331.163 350.142 331.163C350.205 331.1 350.614 331.773 350.614 331.773C350.577 331.86 351.069 332.198 351.138 332.236C351.481 332.419 351.835 332.64 352.347 332.835C352.478 332.802 354.015 333.371 354.015 333.371C354.313 333.306 354.662 333.571 354.999 333.758C355.17 333.81 355.984 334.357 355.984 334.357L356.604 335.195C356.578 335.225 357.648 336.043 357.739 336.105C357.825 336.053 358.899 337.229 359.023 337.167C359.421 337.954 360.231 338.578 360.691 339.366C361.098 339.002 365.816 334.089 365.998 333.533C365.998 333.533 366.47 333.106 366.757 332.911C366.901 332.947 367.239 332.774 367.358 332.686C367.75 332.751 368.183 332.471 368.653 332.461C368.851 332.486 369.156 332.468 369.498 332.31L370.172 331.623C370.759 330.731 371.357 329.77 372.064 328.965L373.048 328.727C373.463 328.952 376.701 330.723 376.836 330.938C377.244 330.998 378.689 332.214 378.817 332.15C379.14 332.568 379.934 332.961 380.398 333.222C383.116 334.747 385.485 336.776 388.07 338.541C388.324 338.715 389.372 339.634 389.589 339.677L390.19 338.852C390.464 339.059 390.752 339.3 391.097 339.366L393.752 335.271L393.453 334.046L396.583 333.758Z" fill="#40827D" stroke="white" stroke-width="2" stroke-miterlimit="3.86"/>
<path fill-rule="evenodd" clip-rule="evenodd" d="M282.03 276.713L281.529 275.77C279.942 272.995 279.172 271.935 277.358 269.378L276.523 268.167C277.851 267.017 279.169 265.851 280.46 264.659C283.167 262.158 285.077 261.109 288.374 259.531C289.518 258.983 290.772 258.449 291.833 257.754C292.081 257.667 292.602 257.611 292.829 257.602L292.903 257.902C294.408 257.139 296.308 256.461 297.676 255.47C298.185 255.1 298.422 254.542 298.585 253.957C298.632 253.79 298.86 253.535 298.895 253.57C299.355 253.472 299.66 253.265 299.955 253.196C299.994 253.546 300.036 253.9 300.104 254.246C302.151 253.12 303.758 251.219 305.636 249.849L305.797 249.012C306.37 248.659 307.305 247.383 307.775 246.953L307.689 246.728C308.349 246.451 308.994 246.129 309.67 245.891C310.534 244.705 311.497 243.537 312.323 242.332C313.57 240.512 315.703 234.507 315.35 232.443L314.666 232.829L314.441 232.369C313.055 232.267 311.418 231.966 310.044 232.067C310.015 231.557 310.02 230.296 310.429 230.008C310.376 229.882 310.654 229.172 310.654 229.172C308.72 229.337 303.126 226.28 300.329 226.587C300.329 226.587 299.727 226.25 299.655 226.288C299.596 226.15 299.375 225.81 299.42 225.611C299.377 225.488 299.313 225.412 299.281 225.45C299.076 225.169 298.656 225.003 298.746 224.539C298.634 224.455 298.336 223.988 298.284 223.852L297.985 223.703C297.751 223.461 297.662 223.139 297.525 222.952C297.577 222.731 297.252 220.412 297.3 219.82C297.3 219.82 297.109 218.797 297.076 218.835C296.967 218.493 296.743 218.14 296.541 217.848C296.558 217.816 296.43 217.567 296.392 217.546C296.349 217.228 296.613 216.112 296.852 216.024C296.775 215.843 297.922 215.314 297.76 214.813L297.835 214.501C297.258 215.041 293.858 212.808 293.354 212.529L293.054 212.828C290.891 211.586 290.023 211.195 288.582 209.182C287.992 208.358 287.393 207.332 286.688 206.597C286.731 206.512 286.076 206.071 286.076 206.071C285.962 205.526 285.891 204.992 285.766 204.548L286.526 204.399C286.525 202.483 286.281 200.52 286.076 198.618C286.161 198.526 286.176 198.349 286.153 198.233C288.337 194.806 289.732 191.007 291.383 187.293C292.481 187.895 296.228 190.225 297.387 190.189C297.936 187.795 300.807 184.406 303.518 184.708C303.772 184.736 304.727 185.084 304.727 185.084H305.721C306.069 185.119 306.222 185.313 306.394 185.395C307.517 185.935 307.067 185.925 308.375 185.931C308.467 185.813 308.923 185.83 309.049 185.846C309.392 185.866 310.093 186.506 310.192 186.456C310.613 186.509 310.935 186.654 311.253 186.608C311.478 186.657 311.949 186.935 312.087 186.993L312.546 186.608L313.682 187.218C314.541 186.566 314.997 185.922 315.65 185.084H316.496C316.543 184.797 316.591 184.437 316.72 184.172L316.335 184.109L316.72 182.275L318.004 182.586L318.612 181.748C319.544 180.458 319.207 179.03 320.046 178.253L320.356 178.327L320.422 178.713L322.09 178.852L322.175 177.492H322.786L322.849 176.429H323.159L323.329 174.128L323.011 173.994C322.711 173.739 320.877 172.316 320.805 172.01H316.945L316.783 168.75L315.961 167.989L313.53 168.139C313.134 168.559 303.055 172.423 301.623 173.008C301.465 172.699 300.746 168.566 300.639 168.074L299.12 168.525C299.17 168.321 298.971 168.157 298.971 168.074C298.971 167.864 299.115 166.534 298.819 166.401C298.819 166.401 298.465 165.594 298.52 165.329C298.363 164.594 298.56 163.916 298.436 163.205C298.377 162.867 298.095 162.456 298.06 162.133C297.978 161.396 297.909 160.662 297.76 159.936C297.76 159.936 296.932 158.328 296.852 157.886C295.743 158.465 295.132 159.539 294.199 160.161L291.918 161.683C291.503 161.773 290.78 161.316 290.561 160.997C290.434 160.969 289.799 160.842 289.716 160.771C288.699 160.676 288.008 162.08 287.523 162.669C287.357 162.855 286.189 163.09 285.928 163.045C285.682 163.199 285.364 163.562 285.169 163.656L284.782 164.417C284.599 164.521 284.214 164.671 284.184 164.719C284.184 164.719 283.701 164.959 283.735 165.03C283.672 165.155 283.584 165.48 283.584 165.48C283.704 165.549 283.741 166.227 283.874 166.317L283.649 166.927C283.422 167.037 283.267 167.274 283.114 167.227L282.204 167.313C281.536 167.33 280.912 166.482 280.397 166.628L279.925 166.241C279.892 166.071 279.791 165.87 279.7 165.791C279.734 165.744 279.026 165.555 279.026 165.555L278.502 164.879C278.801 164.439 279.323 164.315 279.786 164.117C278.697 163.132 277.5 162.251 276.373 161.307C276.533 161.049 276.796 160.778 277.048 160.61C276.451 160.29 275.891 160.108 275.379 159.625L274.554 159.248L274.619 158.949L272.96 158.798L272.886 159.023C272.543 158.999 272.166 159.061 271.826 159.098C271.466 158.882 270.045 158.253 269.622 158.337L268.937 158.798C268.417 158.58 267.914 158.206 267.355 158.111V157.725L264.925 156.675L264.625 157.125C264.275 156.638 264.263 156.284 264.241 155.677C265.333 154.926 265.954 152.834 266.744 151.494C267.656 149.948 268.643 148.309 269.622 146.787C271.797 143.406 274.181 140.091 276.448 136.759V136.448C277.257 135.972 278.324 134.969 278.727 134.1C278.379 132.289 278.486 130.131 278.727 128.319C278.157 128.292 277.552 128.218 276.983 128.245C276.863 127.485 277.019 126.878 276.983 126.27C276.964 126.121 277.431 125.827 277.432 125.734C277.439 125.173 277.306 123.987 277.273 123.912C277.32 123.638 277.583 123.151 277.583 123.151L277.207 122.699C277.001 118.587 277.419 114.51 277.518 110.538C277.579 108.09 277.455 103.266 277.742 101.037C277.749 100.987 279.425 98.148 279.7 97.6909C281.404 95.8026 283.735 91.385 283.735 91.385L284.006 90.6608C286.541 92.89 288.963 95.2506 291.545 97.4657C292.853 96.931 294.175 96.8865 295.557 96.6278C299.68 95.8555 303.8 95.0799 307.913 94.2688C306.829 91.5033 305.768 88.7154 304.588 85.9893L305.797 85.5295L305.347 84.4665C303.881 84.479 302.564 84.1659 301.089 84.1659L300.554 80.8951L299.88 81.1203L299.73 80.5841C300.107 80.5139 302.137 80.0882 302.382 80.1337C302.791 80.1133 303.417 79.7902 303.591 79.8337C303.591 79.8337 304.527 79.3409 304.651 79.3723L304.588 77.0127L305.186 76.8734C306.779 74.1059 305.616 72.5145 306.481 70.5576H307.08L307.913 68.1331L309.049 69.1841H309.284C309.284 69.1841 309.484 67.8184 309.433 67.4466C309.433 67.4466 310.755 65.7394 310.718 65.6127C310.809 65.442 311.414 64.7131 311.414 64.7131C311.625 64.7948 312.807 64.3193 312.847 64.3366C313.097 64.2816 315.039 63.6474 315.274 63.5752C315.042 63.2029 314.033 61.4669 313.682 61.2051C313.875 60.0745 315.669 57.2264 316.496 56.4969C313.421 55.3412 310.353 54.1625 307.305 52.9366C308.314 50.6838 309.107 49.5852 310.344 47.6827L309.208 47.1465L308.673 47.6827C308.055 47.0617 307.455 46.4207 306.854 45.7834L308.149 43.4987C309.413 43.7244 310.68 43.9391 311.936 44.1973C312.618 43.2526 313.707 42.4153 314.591 41.6759C314.189 41.5858 313.781 41.5057 313.372 41.4507C315.229 38.1265 316.862 34.6573 318.612 31.2729C322.56 31.6615 326.605 31.9977 330.52 32.635L334.083 36.5074H336.052L336.877 38.8659C338.98 39.2807 341.081 39.7054 343.177 40.1531C343.368 40.1939 345.633 39.4477 345.832 39.4771L346.131 40.0133L347.201 39.7787V39.3912C347.201 39.3912 348.208 37.9941 348.25 37.8684C348.413 37.7678 349.415 37.1552 349.468 37.118C349.52 37.3107 349.823 37.7757 349.855 37.8055C350.068 38.0579 350.207 38.0658 350.39 38.1794C350.974 38.5428 351.546 40.2222 351.139 40.7747L352.348 41.2255L352.423 41.7618L354.092 41.9126C354.504 39.5111 354.666 38.99 355.696 36.6671C355.928 36.6263 356.216 36.7802 356.446 36.8184C357.164 35.2752 356.846 35.0511 358.04 33.5466L359.097 32.1752L360.157 30.888C361.484 29.913 362.63 29.2348 363.432 27.9912C363.824 27.9147 364.345 27.368 364.791 27.2298L365.09 26.4684C366.453 25.5504 370.042 23.5582 370.932 22.3718C371.967 22.6404 372.995 22.9384 374.046 23.1332C374.928 21.6882 375.87 20.2788 376.697 18.8005C376.814 18.6693 377.398 18.0126 377.457 17.9747C377.799 17.7822 377.891 17.5458 377.972 17.2777C382.105 14.7152 386.833 12.864 390.788 10.0612C390.808 8.19566 390.785 6.29086 390.95 4.43083L391.547 4.14019L391.323 2.99338L393.453 0.720188C394.866 1.04695 394.363 0.94196 395.421 0.720188C395.697 0.662319 396.332 0.868905 396.332 0.868905C398.85 1.77876 399.821 2.09635 400.706 2.57472C401.625 3.0714 402.45 3.74117 404.816 5.42681L404.366 5.5771L404.976 5.95361C405.457 6.86844 405.924 7.79164 406.421 8.69809C407.805 9.48384 409.141 10.4586 410.657 10.9713L411.642 10.8226C412.442 11.1577 412.741 12.0668 412.86 12.8805C413.261 13.1712 414.323 13.118 414.766 13.0308L415.515 13.7063C416.995 12.7837 418.268 12.482 419.986 13.1057C420.206 14.9749 418.494 21.663 418.701 23.2081C418.701 23.2081 418.359 24.8272 418.391 25.1922C418.403 25.3237 418.495 25.4284 418.466 25.5687C418.632 26.1353 410.259 45.607 409.372 47.5314C409.311 47.4136 409.071 47.0208 408.924 46.9952C408.09 46.9936 407.798 46.238 406.794 46.3197C406.376 46.2982 406.14 45.939 405.886 46.0086C405.802 45.9012 405.385 45.1126 405.285 45.0215L404.816 44.9466C404.615 44.7738 404.487 44.6633 404.366 44.6476C404.129 44.4633 403.965 44.2706 403.917 44.1114C403.917 44.1114 403.356 43.8915 403.393 43.8098L403.307 43.0484C403.307 43.0484 402.843 42.5378 402.633 42.3634C402.561 42.2498 402.443 42.0686 402.471 41.9869L400.963 42.2121V42.674C400.404 43.2636 399.796 43.35 399.219 43.35C398.347 43.35 397.863 43.5045 397.079 43.7239C397.079 43.7239 396.577 43.8459 396.481 43.8862L395.807 43.7239L395.722 44.1973L395.807 44.711C395.775 45.1697 395.605 45.5326 395.645 45.9342L395.87 46.094C395.87 46.094 396.145 45.6719 396.107 45.6342H396.567C396.567 45.6342 396.745 46.2757 396.706 46.3197C396.81 46.3778 396.967 46.5019 397.016 46.5448L397.164 46.9213H396.567V47.3062L396.935 47.3612L397.016 47.6827H397.389L397.614 47.8314C394.155 49.9585 390.722 52.1495 387.225 54.2138L386.852 55.4355L387.311 56.4969V56.7331C387.351 56.7158 387.846 56.9582 387.846 56.9582L387.911 57.2583C387.976 57.2934 388.269 57.5123 388.295 57.5599C388.33 57.6851 388.645 57.9799 388.605 58.0103L388.446 58.2559L389.88 59.2314L390.039 59.9934C389.97 60.1981 389.903 60.4076 389.814 60.6045C389.996 60.6961 390.075 60.8118 390.114 60.8296C390.114 62.276 389.966 63.716 389.966 65.1624L390.114 65.8489C390.238 66.3312 390.15 66.8318 390.039 67.2214L389.741 68.1985L389.431 69.7203C389.351 71.6007 389.011 74.4196 389.279 75.9628H389.88C389.637 76.3749 389.548 76.5561 389.206 76.9378C389.067 77.0211 388.575 77.8207 388.605 77.86H388.295C388.264 77.6652 388.192 77.5573 388.136 77.4741C388.049 77.4091 387.673 77.4903 387.535 77.5489C387.423 77.6411 387.086 77.86 387.086 77.86C387.086 77.86 386.758 78.2334 386.703 78.3103C386.842 78.3407 386.947 78.5905 387 78.5355V78.8466C386.859 78.8968 386.534 79.3393 386.551 79.3723C386.437 79.4095 385.954 79.5975 385.954 79.5975C385.994 79.6331 386.052 79.8865 386.092 79.9845C386.092 79.9845 385.881 80.394 385.792 80.3589L385.706 81.1203L385.481 81.5078L385.257 81.5706L384.124 81.9581C384.003 82.1749 383.867 82.299 383.973 82.4179L384.124 82.6431C384.051 83.3872 384.265 84.4795 384.434 85.2278L383.213 88.4986C381.004 89.8789 378.896 91.5285 376.612 92.7454C376.528 92.7905 376.476 92.6454 376.387 92.6826L376.077 92.2092C375.923 92.0563 375.867 92.0846 375.852 92.0699L375.789 91.6102C375.715 91.6767 375.541 91.3316 375.479 91.385L374.27 92.1464L372.375 92.0699L374.558 97.3892C374.718 97.2237 375.594 96.4901 375.628 96.3278C375.964 96.4938 376.369 97.0761 376.539 97.3892C376.52 97.4243 376.836 98.2904 376.836 98.2904C377.192 98.3716 381.614 99.3801 381.694 99.3629C381.829 99.411 382.658 99.7745 382.678 99.8132C382.678 99.8132 384.113 100.339 384.434 100.276C384.79 100.303 385.018 100.49 385.257 100.435L384.659 99.2126L385.257 98.3758C385.257 98.3758 385.974 99.3362 386.016 99.3629C385.986 99.5425 386.42 100.644 386.465 100.726L385.706 101.037L385.481 101.713C385.481 101.713 386.051 103.186 386.107 103.265C386.219 103.312 386.365 103.122 386.327 103.159L386.016 101.647L386.403 101.573C386.442 101.744 386.852 103.61 386.852 103.61C386.852 103.61 387.508 104.18 387.462 104.232H388.446H389.741L390.339 104.457C390.635 104.622 391.666 105.414 391.709 105.37V105.669C391.567 105.744 391.491 105.688 391.364 105.806C390.935 105.715 386.906 104.739 386.403 104.608C386.58 105.536 386.665 106.607 387 107.492L389.589 107.879L389.814 106.516C390.18 106.58 390.511 106.646 390.874 106.741L390.935 106.236C390.989 106.273 391.772 106.27 391.772 106.27C391.833 106.183 392.064 106.144 392.159 106.131C393.2 106.973 394.722 108.544 395.187 109.851C395.501 110.345 396.112 110.381 396.18 110.538C396.258 110.512 396.615 110.675 396.706 110.689C397.373 110.789 398.083 110.824 398.76 110.914C399.656 110.492 400.608 109.914 401.339 109.24C401.367 109.264 401.874 109.09 401.874 109.09C402.032 109.117 402.398 109.315 402.398 109.315L402.633 109.465L402.858 110.162C402.947 110.189 403.393 110.914 403.393 110.914C403.358 111.003 403.68 111.599 403.68 111.599L403.842 112.06V112.737L403.617 112.886C403.191 113.358 403.233 113.116 403.231 113.648C403.142 113.89 402.873 114.021 402.772 114.109L402.696 114.409L402.92 114.87L403.231 115.482C403.486 115.714 403.587 116.001 403.68 116.082L404.142 116.157C404.147 116.168 404.377 116.318 404.441 116.393C404.513 116.51 404.843 116.933 404.816 116.995C404.816 116.995 405.21 117.446 405.285 117.531C405.527 117.563 405.564 117.711 405.661 117.669C405.85 117.699 405.976 118.03 405.961 118.056C406.202 118.196 406.267 118.287 406.335 118.367L406.956 118.431L407.405 118.206C407.636 118.221 408.329 118.132 408.537 118.056C408.627 117.901 408.778 117.691 408.762 117.669H409.224H409.673C409.926 117.608 410.166 117.566 410.367 117.756C410.884 117.67 410.998 117.603 411.417 117.605V118.056H411.952L412.027 117.669L412.262 117.444H412.487C413.673 119.928 414.942 122.37 416.189 124.823L415.439 127.032L415.59 127.257C415.622 127.38 416.479 128.177 416.499 128.245C416.888 128.316 416.99 128.682 417.483 128.619H418.243L418.617 128.695C418.729 128.758 419.226 129.006 419.226 129.006C419.537 129.232 419.625 129.37 419.848 129.457L420.821 129.768C421.379 129.77 421.997 129.917 422.502 129.917C422.798 129.961 423.091 130.106 423.249 130.067C423.249 130.067 423.69 130.337 423.773 130.292C423.954 130.428 424.22 130.742 424.16 130.98L424.395 132.577C424.352 132.742 424.093 132.954 424.083 132.962C423.939 133.233 423.658 133.279 423.473 133.488C423.217 133.806 423.253 133.781 423.249 134.015C423.217 134.323 423.269 134.531 423.4 134.636C423.6 134.831 423.792 135.05 423.86 135.011C424.021 135.051 424.116 135.18 424.16 135.236C424.194 135.401 424.345 135.619 424.308 135.849C424.365 136.102 424.769 137.135 424.769 137.135V137.586L424.618 138.282C424.745 138.486 424.952 138.602 424.909 138.658C425.084 138.747 425.256 138.922 425.292 138.884L425.444 139.569L425.378 139.87C425.485 139.982 425.827 140.555 425.827 140.555L425.979 141.091L426.663 141.853C426.663 141.853 426.822 142.816 426.811 142.84L424.083 148.761C424.04 148.856 423.977 149.32 423.935 149.371C422.183 151.499 420.496 153.735 418.617 155.752C419.841 155.712 421.366 156.292 422.565 156.139C422.634 156.276 423.043 156.307 423.175 156.364C423.577 156.537 425.566 158.063 425.603 158.337C425.952 158.601 427.036 158.436 427.584 158.798C427.85 158.558 428.005 158.351 427.958 158.188C428.012 158.058 428.056 157.983 428.096 157.951L428.717 158.262L430.301 157.811L430.526 157.886C430.993 157.935 433.91 158.04 434.099 158.337C434.618 158.578 436.027 158.508 436.367 158.262C437.514 158.16 447.083 162.804 447.589 162.594L443.728 166.241L443.566 165.865L442.883 166.176C443.726 167.989 443.24 169.383 443.643 171.111C443.792 171.036 443.93 171.51 444.027 171.411C444.065 171.522 444.53 172.626 444.636 172.546L444.326 174.22C444.326 174.22 443.626 174.509 443.566 174.605C443.518 174.685 443.055 175.402 442.969 175.517C442.969 175.517 441.872 175.993 441.833 176.053C441.578 176.201 440.944 176.591 440.763 176.654C440.56 176.76 439.743 177.806 439.63 177.952L439.244 178.028L439.095 178.552C438.962 178.481 438.352 179.171 438.422 179.089C438.292 179.051 437.896 178.717 437.811 178.627C437.607 178.41 437.452 178.086 437.127 177.952C436.435 177.516 435.861 177.078 435.308 176.654L435.007 177.641L434.472 178.028C434.249 178.074 434.098 177.906 433.874 177.952L434.024 181.374C433.417 181.497 432.58 182.414 432.27 182.897L429.615 183.798C429.461 184.021 427.94 186.253 427.872 186.317C426.095 187.973 423.506 189.074 421.881 190.874C420.726 192.154 419.654 193.566 418.553 194.896C419.087 195.529 420.043 197.356 420.447 198.167C420.74 198.754 420.595 199.313 421.046 199.905L422.64 199.154C423.185 200.43 424.13 202.093 424.46 203.413C424.477 203.482 424.46 206.196 424.46 206.448C424.46 207.811 424.601 209.364 425.292 210.555C425.379 210.704 425.46 211.249 425.603 211.305C425.664 211.582 426.227 214.017 426.203 214.125L426.289 214.726L426.663 215.487C426.171 215.871 425.579 216.442 425.292 217.01L425.444 217.697C425.308 217.776 425.192 217.823 425.153 217.922C425.153 217.922 424.663 217.756 424.618 217.772L423.635 218.458L424.083 218.908C424.014 218.965 423.964 219.063 423.935 219.146C423.807 219.253 423.16 219.823 423.1 219.756C423.042 220.046 423.305 220.316 423.249 220.667C423.187 220.702 422.79 220.968 422.79 220.968C422.79 220.968 421.977 220.761 421.881 220.667L421.581 221.804C421.581 221.804 423.603 227.447 423.935 228.41L424.308 228.11C424.891 228.934 425.118 230.117 425.668 230.995C427.336 233.655 429.068 236.284 430.685 238.975L427.958 241.945L425.378 238.148C422.951 238.459 420.51 238.741 418.093 239.135L417.794 236.85L417.303 236.947L417.591 239.22C410.983 240.244 404.427 240.963 397.838 242.084L395.722 239.511L396.792 238.212L396.032 237.526L395.87 237.013L394.586 236.927L394.513 237.526C394.45 237.663 394.361 237.987 394.361 237.987C394.213 238.171 393.907 238.688 393.826 238.749C393.792 239.059 393.35 240.108 393.377 240.187L392.694 242.246C392.694 242.246 392.268 243.096 392.307 243.233C392.307 243.233 391.991 244.118 392.02 244.229L391.485 244.745C391.264 245.124 390.095 246.249 389.655 246.502C389.535 246.622 388.693 247.388 388.605 247.34C388.456 247.458 387.74 248.191 387.687 248.25C387.656 248.424 387.218 248.908 387.311 249.012L386.241 249.312C386.241 249.312 385.368 252.795 385.419 253.957C385.436 254.37 385.941 256.456 385.706 256.681C385.805 257.733 385.124 258.58 385.194 259.651C385.134 259.755 384.434 260.877 384.434 260.949C384.434 261.064 384.419 262.78 384.434 262.848C384.215 263.129 383.551 263.966 383.438 263.909L382.156 265.27C382.156 265.27 382.764 265.555 382.915 265.646C383.026 266.45 382.459 266.558 382.229 267.17L382.547 269.914C379.856 268.892 377.088 267.665 374.333 266.87C363.34 263.695 356.604 267.339 345.981 268.541C345.042 268.521 334.404 271.29 332.564 271.728C328.478 272.7 324.063 272.82 319.821 273.873C318.626 274.169 317.047 274.421 315.875 274.922L314.217 275.31V275.61L313.755 275.836L312.995 276.531C312.569 276.901 312.187 277.257 311.788 277.669C311.043 277.75 310.387 277.741 310.192 278.57C309.869 278.444 308.172 278.086 307.999 278.12C306.737 274.965 305.372 271.803 304.202 268.616C302.726 269.233 301.258 269.872 299.794 270.516C295.631 272.348 294.511 272.247 290.251 273.026C287.577 273.514 284.049 274.834 282.03 276.713Z" fill="#235753" stroke="white" stroke-width="2" stroke-miterlimit="3.86"/>
<text fill="white" xml:space="preserve" style="white-space: pre" font-family="Inter" font-size="16" letter-spacing="0em"><tspan x="77.4339" y="271.65">Altona</tspan></text>
<text fill="white" xml:space="preserve" style="white-space: pre" font-family="Inter" font-size="16" letter-spacing="0em"><tspan x="199.414" y="326.203">Hamburg-Mitte</tspan></text>
<text fill="white" xml:space="preserve" style="white-space: pre" font-family="Inter" font-size="16" letter-spacing="0em"><tspan x="311.767" y="143.883">Wandsbek</tspan></text>
<text fill="white" xml:space="preserve" style="white-space: pre" font-family="Inter" font-size="16" letter-spacing="0em"><tspan x="235.061" y="183.483">Ham-</tspan></text>
<text fill="white" xml:space="preserve" style="white-space: pre" font-family="Inter" font-size="16" letter-spacing="0em"><tspan x="234.84" y="207.626">burg-</tspan></text>
<text fill="white" xml:space="preserve" style="white-space: pre" font-family="Inter" font-size="16" letter-spacing="0em"><tspan x="237.246" y="231.769">Nord</tspan></text>
<text fill="white" xml:space="preserve" style="white-space: pre" font-family="Inter" font-size="16" letter-spacing="0em"><tspan x="155.351" y="185.724">Eims-</tspan></text>
<text fill="white" xml:space="preserve" style="white-space: pre" font-family="Inter" font-size="16" letter-spacing="0em"><tspan x="155.173" y="209.867">b&#xfc;ttel</tspan></text>
<text fill="white" xml:space="preserve" style="white-space: pre" font-family="Inter" font-size="16" letter-spacing="0em"><tspan x="120.28" y="405.394">Harburg</tspan></text>
<text fill="white" xml:space="preserve" style="white-space: pre" font-family="Inter" font-size="16" letter-spacing="0em"><tspan x="364.591" y="427.062">Bergedorf</tspan></text>
</g>
<defs>
<clipPath id="clip0_396_4427">
<rect width="548" height="529" fill="white" transform="translate(0.5 0.384766)"/>
</clipPath>
</defs>
</svg>
