<svg width="287" height="153" viewBox="0 0 287 153" fill="none" xmlns="http://www.w3.org/2000/svg">
<rect x="10" width="2" height="5" fill="#235753"/>
<rect x="30" width="2" height="5" fill="#235753"/>
<mask id="path-3-outside-1_305_4544" maskUnits="userSpaceOnUse" x="0" y="5" width="42" height="42" fill="black">
<rect fill="white" y="5" width="42" height="42"/>
<path d="M0 11H42V47H0V11Z"/>
</mask>
<path d="M0 11H42V47H0V11Z" fill="white"/>
<path d="M0 11V17H42V11V5H0V11Z" fill="#CC0070" mask="url(#path-3-outside-1_305_4544)"/>
<path d="M14.6181 24.2727H16.4419V30.358C16.4419 30.9205 16.3155 31.4091 16.0627 31.8239C15.8127 32.2386 15.4647 32.5582 15.0186 32.7827C14.5726 33.0071 14.0542 33.1193 13.4632 33.1193C12.9377 33.1193 12.4604 33.027 12.0314 32.8423C11.6053 32.6548 11.2672 32.3707 11.0172 31.9901C10.7672 31.6065 10.6436 31.125 10.6465 30.5455H12.4831C12.4888 30.7756 12.5357 30.973 12.6238 31.1378C12.7147 31.2997 12.8382 31.4247 12.9945 31.5128C13.1536 31.598 13.3411 31.6406 13.557 31.6406C13.7843 31.6406 13.976 31.5923 14.1323 31.4957C14.2914 31.3963 14.4121 31.2514 14.4945 31.0611C14.5769 30.8707 14.6181 30.6364 14.6181 30.358V24.2727ZM19.7999 33.1236C19.3823 33.1236 19.0101 33.0511 18.6834 32.9062C18.3567 32.7585 18.0982 32.5412 17.9078 32.2543C17.7203 31.9645 17.6266 31.6037 17.6266 31.1719C17.6266 30.8082 17.6934 30.5028 17.8269 30.2557C17.9604 30.0085 18.1422 29.8097 18.3723 29.6591C18.6025 29.5085 18.8638 29.3949 19.1564 29.3182C19.4519 29.2415 19.7615 29.1875 20.0854 29.1562C20.4661 29.1165 20.7729 29.0795 21.0059 29.0455C21.2388 29.0085 21.4078 28.9545 21.513 28.8835C21.6181 28.8125 21.6706 28.7074 21.6706 28.5682V28.5426C21.6706 28.2727 21.5854 28.0639 21.415 27.9162C21.2473 27.7685 21.0087 27.6946 20.699 27.6946C20.3723 27.6946 20.1124 27.767 19.9192 27.9119C19.726 28.054 19.5982 28.233 19.5357 28.4489L17.8567 28.3125C17.9419 27.9148 18.1096 27.571 18.3596 27.2812C18.6096 26.9886 18.932 26.7642 19.3269 26.608C19.7246 26.4489 20.1848 26.3693 20.7076 26.3693C21.0712 26.3693 21.4192 26.4119 21.7516 26.4972C22.0868 26.5824 22.3837 26.7145 22.6422 26.8935C22.9036 27.0724 23.1096 27.3026 23.2601 27.5838C23.4107 27.8622 23.486 28.196 23.486 28.5852V33H21.7644V32.0923H21.7132C21.6081 32.2969 21.4675 32.4773 21.2914 32.6335C21.1152 32.7869 20.9036 32.9077 20.6564 32.9957C20.4093 33.081 20.1238 33.1236 19.7999 33.1236ZM20.3198 31.8707C20.5868 31.8707 20.8226 31.8182 21.0272 31.7131C21.2317 31.6051 21.3922 31.4602 21.5087 31.2784C21.6252 31.0966 21.6834 30.8906 21.6834 30.6605V29.9659C21.6266 30.0028 21.5485 30.0369 21.449 30.0682C21.3525 30.0966 21.2431 30.1236 21.1209 30.1491C20.9988 30.1719 20.8766 30.1932 20.7544 30.2131C20.6323 30.2301 20.5215 30.2457 20.4221 30.2599C20.209 30.2912 20.0229 30.3409 19.8638 30.4091C19.7047 30.4773 19.5811 30.5696 19.4931 30.6861C19.405 30.7997 19.361 30.9418 19.361 31.1122C19.361 31.3594 19.4505 31.5483 19.6294 31.679C19.8113 31.8068 20.0414 31.8707 20.3198 31.8707ZM26.7097 29.2159V33H24.8944V26.4545H26.6245V27.6094H26.7012C26.8461 27.2287 27.089 26.9276 27.4299 26.706C27.7708 26.4815 28.1841 26.3693 28.6699 26.3693C29.1245 26.3693 29.5208 26.4688 29.8588 26.6676C30.1969 26.8665 30.4597 27.1506 30.6472 27.5199C30.8347 27.8864 30.9284 28.3239 30.9284 28.8324V33H29.1131V29.1562C29.1159 28.7557 29.0137 28.4432 28.8063 28.2188C28.5989 27.9915 28.3134 27.8778 27.9498 27.8778C27.7054 27.8778 27.4895 27.9304 27.302 28.0355C27.1174 28.1406 26.9725 28.294 26.8674 28.4957C26.7651 28.6946 26.7125 28.9347 26.7097 29.2159Z" fill="#235753"/>
<rect x="58" width="2" height="5" fill="#235753"/>
<rect x="78" width="2" height="5" fill="#235753"/>
<mask id="path-8-outside-2_305_4544" maskUnits="userSpaceOnUse" x="48" y="5" width="42" height="42" fill="black">
<rect fill="white" x="48" y="5" width="42" height="42"/>
<path d="M48 11H90V47H48V11Z"/>
</mask>
<path d="M48 11H90V47H48V11Z" fill="white"/>
<path d="M48 11V17H90V11V5H48V11Z" fill="#CC0070" mask="url(#path-8-outside-2_305_4544)"/>
<path d="M59.0886 33V24.2727H64.867V25.794H60.9338V27.8736H64.4835V29.3949H60.9338V33H59.0886ZM68.5765 33.1278C67.9032 33.1278 67.3237 32.9915 66.8379 32.7188C66.3549 32.4432 65.9828 32.054 65.7214 31.5511C65.46 31.0455 65.3294 30.4474 65.3294 29.7571C65.3294 29.0838 65.46 28.4929 65.7214 27.9844C65.9828 27.4759 66.3507 27.0795 66.8251 26.7955C67.3024 26.5114 67.862 26.3693 68.5041 26.3693C68.9359 26.3693 69.3379 26.4389 69.71 26.5781C70.085 26.7145 70.4118 26.9205 70.6902 27.196C70.9714 27.4716 71.1902 27.8182 71.3464 28.2358C71.5027 28.6506 71.5808 29.1364 71.5808 29.6932V30.1918H66.0538V29.0668H69.872C69.872 28.8054 69.8152 28.5739 69.7015 28.3722C69.5879 28.1705 69.4302 28.0128 69.2285 27.8991C69.0297 27.7827 68.7981 27.7244 68.5339 27.7244C68.2583 27.7244 68.014 27.7884 67.801 27.9162C67.5907 28.0412 67.426 28.2102 67.3066 28.4233C67.1873 28.6335 67.1262 28.8679 67.1234 29.1264V30.196C67.1234 30.5199 67.1831 30.7997 67.3024 31.0355C67.4245 31.2713 67.5964 31.4531 67.818 31.581C68.0396 31.7088 68.3024 31.7727 68.6064 31.7727C68.8081 31.7727 68.9927 31.7443 69.1603 31.6875C69.3279 31.6307 69.4714 31.5455 69.5907 31.4318C69.71 31.3182 69.801 31.179 69.8635 31.0142L71.5424 31.125C71.4572 31.5284 71.2825 31.8807 71.0183 32.1818C70.7569 32.4801 70.4189 32.7131 70.0041 32.8807C69.5922 33.0455 69.1163 33.1278 68.5765 33.1278ZM72.7995 33V24.2727H74.6149V27.554H74.6703C74.7498 27.3778 74.8649 27.1989 75.0154 27.017C75.1689 26.8324 75.3677 26.679 75.612 26.5568C75.8592 26.4318 76.166 26.3693 76.5325 26.3693C77.0098 26.3693 77.4501 26.4943 77.8535 26.7443C78.2569 26.9915 78.5794 27.3651 78.8208 27.8651C79.0623 28.3622 79.1831 28.9858 79.1831 29.7358C79.1831 30.4659 79.0652 31.0824 78.8294 31.5852C78.5964 32.0852 78.2782 32.4645 77.8748 32.723C77.4743 32.9787 77.0254 33.1065 76.5282 33.1065C76.176 33.1065 75.8762 33.0483 75.6291 32.9318C75.3848 32.8153 75.1845 32.669 75.0282 32.4929C74.872 32.3139 74.7527 32.1335 74.6703 31.9517H74.5893V33H72.7995ZM74.5765 29.7273C74.5765 30.1165 74.6305 30.456 74.7385 30.7457C74.8464 31.0355 75.0027 31.2614 75.2072 31.4233C75.4118 31.5824 75.6603 31.6619 75.9529 31.6619C76.2484 31.6619 76.4984 31.581 76.7029 31.419C76.9075 31.2543 77.0623 31.027 77.1674 30.7372C77.2754 30.4446 77.3294 30.108 77.3294 29.7273C77.3294 29.3494 77.2768 29.017 77.1717 28.7301C77.0666 28.4432 76.9118 28.2187 76.7072 28.0568C76.5027 27.8949 76.2512 27.8139 75.9529 27.8139C75.6575 27.8139 75.4075 27.892 75.2029 28.0483C75.0012 28.2045 74.8464 28.4261 74.7385 28.7131C74.6305 29 74.5765 29.3381 74.5765 29.7273Z" fill="#235753"/>
<rect x="106" width="2" height="5" fill="#235753"/>
<rect x="126" width="2" height="5" fill="#235753"/>
<mask id="path-13-outside-3_305_4544" maskUnits="userSpaceOnUse" x="96" y="5" width="42" height="42" fill="black">
<rect fill="white" x="96" y="5" width="42" height="42"/>
<path d="M96 11H138V47H96V11Z"/>
</mask>
<path d="M96 11H138V47H96V11Z" fill="white"/>
<path d="M96 11V17H138V11V5H96V11Z" fill="#CC0070" mask="url(#path-13-outside-3_305_4544)"/>
<path d="M106.333 24.2727H108.608L111.012 30.1364H111.114L113.517 24.2727H115.793V33H114.003V27.3196H113.931L111.672 32.9574H110.453L108.195 27.2983H108.123V33H106.333V24.2727ZM119.146 33.1236C118.728 33.1236 118.356 33.0511 118.029 32.9062C117.702 32.7585 117.444 32.5412 117.254 32.2543C117.066 31.9645 116.972 31.6037 116.972 31.1719C116.972 30.8082 117.039 30.5028 117.173 30.2557C117.306 30.0085 117.488 29.8097 117.718 29.6591C117.948 29.5085 118.21 29.3949 118.502 29.3182C118.798 29.2415 119.107 29.1875 119.431 29.1562C119.812 29.1165 120.119 29.0795 120.352 29.0455C120.585 29.0085 120.754 28.9545 120.859 28.8835C120.964 28.8125 121.016 28.7074 121.016 28.5682V28.5426C121.016 28.2727 120.931 28.0639 120.761 27.9162C120.593 27.7685 120.354 27.6946 120.045 27.6946C119.718 27.6946 119.458 27.767 119.265 27.9119C119.072 28.054 118.944 28.233 118.881 28.4489L117.202 28.3125C117.288 27.9148 117.455 27.571 117.705 27.2812C117.955 26.9886 118.278 26.7642 118.673 26.608C119.07 26.4489 119.531 26.3693 120.053 26.3693C120.417 26.3693 120.765 26.4119 121.097 26.4972C121.433 26.5824 121.729 26.7145 121.988 26.8935C122.249 27.0724 122.455 27.3026 122.606 27.5838C122.756 27.8622 122.832 28.196 122.832 28.5852V33H121.11V32.0923H121.059C120.954 32.2969 120.813 32.4773 120.637 32.6335C120.461 32.7869 120.249 32.9077 120.002 32.9957C119.755 33.081 119.469 33.1236 119.146 33.1236ZM119.665 31.8707C119.933 31.8707 120.168 31.8182 120.373 31.7131C120.577 31.6051 120.738 31.4602 120.854 31.2784C120.971 31.0966 121.029 30.8906 121.029 30.6605V29.9659C120.972 30.0028 120.894 30.0369 120.795 30.0682C120.698 30.0966 120.589 30.1236 120.467 30.1491C120.344 30.1719 120.222 30.1932 120.1 30.2131C119.978 30.2301 119.867 30.2457 119.768 30.2599C119.555 30.2912 119.369 30.3409 119.21 30.4091C119.05 30.4773 118.927 30.5696 118.839 30.6861C118.751 30.7997 118.707 30.9418 118.707 31.1122C118.707 31.3594 118.796 31.5483 118.975 31.679C119.157 31.8068 119.387 31.8707 119.665 31.8707ZM118.822 25.5597C118.577 25.5597 118.367 25.4744 118.191 25.304C118.015 25.1307 117.927 24.9261 117.927 24.6903C117.927 24.4489 118.015 24.2443 118.191 24.0767C118.367 23.9091 118.577 23.8253 118.822 23.8253C119.069 23.8253 119.278 23.9091 119.448 24.0767C119.621 24.2443 119.708 24.4489 119.708 24.6903C119.708 24.9261 119.621 25.1307 119.448 25.304C119.278 25.4744 119.069 25.5597 118.822 25.5597ZM121.43 25.5597C121.185 25.5597 120.975 25.4744 120.799 25.304C120.623 25.1307 120.535 24.9261 120.535 24.6903C120.535 24.4489 120.623 24.2443 120.799 24.0767C120.975 23.9091 121.185 23.8253 121.43 23.8253C121.677 23.8253 121.886 23.9091 122.056 24.0767C122.229 24.2443 122.316 24.4489 122.316 24.6903C122.316 24.9261 122.229 25.1307 122.056 25.304C121.886 25.4744 121.677 25.5597 121.43 25.5597ZM124.24 33V26.4545H126V27.5966H126.068C126.188 27.1903 126.388 26.8835 126.669 26.6761C126.95 26.4659 127.274 26.3608 127.641 26.3608C127.732 26.3608 127.83 26.3665 127.935 26.3778C128.04 26.3892 128.132 26.4048 128.212 26.4247V28.0355C128.126 28.0099 128.009 27.9872 127.858 27.9673C127.707 27.9474 127.57 27.9375 127.445 27.9375C127.178 27.9375 126.939 27.9957 126.729 28.1122C126.521 28.2259 126.357 28.3849 126.234 28.5895C126.115 28.794 126.055 29.0298 126.055 29.2969V33H124.24Z" fill="#235753"/>
<rect x="154" width="2" height="5" fill="#235753"/>
<rect x="174" width="2" height="5" fill="#235753"/>
<mask id="path-18-outside-4_305_4544" maskUnits="userSpaceOnUse" x="144" y="5" width="42" height="42" fill="black">
<rect fill="white" x="144" y="5" width="42" height="42"/>
<path d="M144 11H186V47H144V11Z"/>
</mask>
<path d="M144 11H186V47H144V11Z" fill="white"/>
<path d="M144 11V17H186V11V5H144V11Z" fill="#CC0070" mask="url(#path-18-outside-4_305_4544)"/>
<path d="M156.523 33H154.545L157.558 24.2727H159.936L162.944 33H160.967L158.781 26.267H158.713L156.523 33ZM156.399 29.5696H161.069V31.0099H156.399V29.5696ZM163.961 35.4545V26.4545H165.751V27.554H165.831C165.911 27.3778 166.026 27.1989 166.177 27.017C166.33 26.8324 166.529 26.679 166.773 26.5568C167.02 26.4318 167.327 26.3693 167.694 26.3693C168.171 26.3693 168.611 26.4943 169.015 26.7443C169.418 26.9915 169.741 27.3651 169.982 27.8651C170.224 28.3622 170.344 28.9858 170.344 29.7358C170.344 30.4659 170.226 31.0824 169.991 31.5852C169.758 32.0852 169.439 32.4645 169.036 32.723C168.635 32.9787 168.187 33.1065 167.689 33.1065C167.337 33.1065 167.037 33.0483 166.79 32.9318C166.546 32.8153 166.346 32.669 166.189 32.4929C166.033 32.3139 165.914 32.1335 165.831 31.9517H165.776V35.4545H163.961ZM165.738 29.7273C165.738 30.1165 165.792 30.456 165.9 30.7457C166.008 31.0355 166.164 31.2614 166.368 31.4233C166.573 31.5824 166.822 31.6619 167.114 31.6619C167.41 31.6619 167.66 31.581 167.864 31.419C168.069 31.2543 168.224 31.027 168.329 30.7372C168.437 30.4446 168.491 30.108 168.491 29.7273C168.491 29.3494 168.438 29.017 168.333 28.7301C168.228 28.4432 168.073 28.2187 167.868 28.0568C167.664 27.8949 167.412 27.8139 167.114 27.8139C166.819 27.8139 166.569 27.892 166.364 28.0483C166.162 28.2045 166.008 28.4261 165.9 28.7131C165.792 29 165.738 29.3381 165.738 29.7273ZM171.555 33V26.4545H173.314V27.5966H173.383C173.502 27.1903 173.702 26.8835 173.983 26.6761C174.265 26.4659 174.589 26.3608 174.955 26.3608C175.046 26.3608 175.144 26.3665 175.249 26.3778C175.354 26.3892 175.447 26.4048 175.526 26.4247V28.0355C175.441 28.0099 175.323 27.9872 175.172 27.9673C175.022 27.9474 174.884 27.9375 174.759 27.9375C174.492 27.9375 174.253 27.9957 174.043 28.1122C173.836 28.2259 173.671 28.3849 173.549 28.5895C173.43 28.794 173.37 29.0298 173.37 29.2969V33H171.555Z" fill="#235753"/>
<rect x="202" width="2" height="5" fill="#235753"/>
<rect x="222" width="2" height="5" fill="#235753"/>
<mask id="path-23-outside-5_305_4544" maskUnits="userSpaceOnUse" x="192" y="5" width="42" height="42" fill="black">
<rect fill="white" x="192" y="5" width="42" height="42"/>
<path d="M192 11H234V47H192V11Z"/>
</mask>
<path d="M192 11H234V47H192V11Z" fill="white"/>
<path d="M192 11V17H234V11V5H192V11Z" fill="#CC0070" mask="url(#path-23-outside-5_305_4544)"/>
<path d="M203.153 24.2727H205.429L207.832 30.1364H207.934L210.338 24.2727H212.613V33H210.824V27.3196H210.751L208.493 32.9574H207.274L205.015 27.2983H204.943V33H203.153V24.2727ZM215.966 33.1236C215.548 33.1236 215.176 33.0511 214.849 32.9062C214.523 32.7585 214.264 32.5412 214.074 32.2543C213.886 31.9645 213.793 31.6037 213.793 31.1719C213.793 30.8082 213.859 30.5028 213.993 30.2557C214.126 30.0085 214.308 29.8097 214.538 29.6591C214.768 29.5085 215.03 29.3949 215.322 29.3182C215.618 29.2415 215.928 29.1875 216.251 29.1562C216.632 29.1165 216.939 29.0795 217.172 29.0455C217.405 29.0085 217.574 28.9545 217.679 28.8835C217.784 28.8125 217.837 28.7074 217.837 28.5682V28.5426C217.837 28.2727 217.751 28.0639 217.581 27.9162C217.413 27.7685 217.175 27.6946 216.865 27.6946C216.538 27.6946 216.278 27.767 216.085 27.9119C215.892 28.054 215.764 28.233 215.702 28.4489L214.023 28.3125C214.108 27.9148 214.276 27.571 214.526 27.2812C214.776 26.9886 215.098 26.7642 215.493 26.608C215.891 26.4489 216.351 26.3693 216.874 26.3693C217.237 26.3693 217.585 26.4119 217.918 26.4972C218.253 26.5824 218.55 26.7145 218.808 26.8935C219.07 27.0724 219.276 27.3026 219.426 27.5838C219.577 27.8622 219.652 28.196 219.652 28.5852V33H217.93V32.0923H217.879C217.774 32.2969 217.634 32.4773 217.457 32.6335C217.281 32.7869 217.07 32.9077 216.822 32.9957C216.575 33.081 216.29 33.1236 215.966 33.1236ZM216.486 31.8707C216.753 31.8707 216.989 31.8182 217.193 31.7131C217.398 31.6051 217.558 31.4602 217.675 31.2784C217.791 31.0966 217.849 30.8906 217.849 30.6605V29.9659C217.793 30.0028 217.714 30.0369 217.615 30.0682C217.518 30.0966 217.409 30.1236 217.287 30.1491C217.165 30.1719 217.043 30.1932 216.92 30.2131C216.798 30.2301 216.688 30.2457 216.588 30.2599C216.375 30.2912 216.189 30.3409 216.03 30.4091C215.871 30.4773 215.747 30.5696 215.659 30.6861C215.571 30.7997 215.527 30.9418 215.527 31.1122C215.527 31.3594 215.616 31.5483 215.795 31.679C215.977 31.8068 216.207 31.8707 216.486 31.8707ZM221.06 33V26.4545H222.876V33H221.06ZM221.972 25.6108C221.702 25.6108 221.471 25.5213 221.278 25.3423C221.087 25.1605 220.992 24.9432 220.992 24.6903C220.992 24.4403 221.087 24.2259 221.278 24.0469C221.471 23.8651 221.702 23.7741 221.972 23.7741C222.242 23.7741 222.472 23.8651 222.663 24.0469C222.856 24.2259 222.952 24.4403 222.952 24.6903C222.952 24.9432 222.856 25.1605 222.663 25.3423C222.472 25.5213 222.242 25.6108 221.972 25.6108Z" fill="#235753"/>
<rect x="250" width="2" height="5" fill="#235753"/>
<rect x="270" width="2" height="5" fill="#235753"/>
<mask id="path-28-outside-6_305_4544" maskUnits="userSpaceOnUse" x="240" y="5" width="42" height="42" fill="black">
<rect fill="white" x="240" y="5" width="42" height="42"/>
<path d="M240 11H282V47H240V11Z"/>
</mask>
<path d="M240 11H282V47H240V11Z" fill="white"/>
<path d="M240 11V17H282V11V5H240V11Z" fill="#CC0070" mask="url(#path-28-outside-6_305_4544)"/>
<path d="M254.366 24.2727H256.19V30.358C256.19 30.9205 256.064 31.4091 255.811 31.8239C255.561 32.2386 255.213 32.5582 254.767 32.7827C254.321 33.0071 253.802 33.1193 253.211 33.1193C252.686 33.1193 252.208 33.027 251.779 32.8423C251.353 32.6548 251.015 32.3707 250.765 31.9901C250.515 31.6065 250.392 31.125 250.395 30.5455H252.231C252.237 30.7756 252.284 30.973 252.372 31.1378C252.463 31.2997 252.586 31.4247 252.743 31.5128C252.902 31.598 253.089 31.6406 253.305 31.6406C253.532 31.6406 253.724 31.5923 253.88 31.4957C254.039 31.3963 254.16 31.2514 254.243 31.0611C254.325 30.8707 254.366 30.6364 254.366 30.358V24.2727ZM261.879 30.2131V26.4545H263.694V33H261.951V31.8111H261.883C261.735 32.1946 261.49 32.5028 261.146 32.7358C260.805 32.9687 260.389 33.0852 259.897 33.0852C259.46 33.0852 259.075 32.9858 258.743 32.7869C258.41 32.5881 258.15 32.3054 257.963 31.9389C257.778 31.5724 257.684 31.1335 257.681 30.6222V26.4545H259.497V30.2983C259.5 30.6847 259.603 30.9901 259.808 31.2145C260.012 31.4389 260.287 31.5511 260.63 31.5511C260.849 31.5511 261.054 31.5014 261.244 31.402C261.434 31.2997 261.588 31.1491 261.704 30.9503C261.824 30.7514 261.882 30.5057 261.879 30.2131ZM266.962 29.2159V33H265.146V26.4545H266.876V27.6094H266.953C267.098 27.2287 267.341 26.9276 267.682 26.706C268.023 26.4815 268.436 26.3693 268.922 26.3693C269.376 26.3693 269.773 26.4688 270.111 26.6676C270.449 26.8665 270.712 27.1506 270.899 27.5199C271.087 27.8864 271.18 28.3239 271.18 28.8324V33H269.365V29.1562C269.368 28.7557 269.266 28.4432 269.058 28.2188C268.851 27.9915 268.565 27.8778 268.202 27.8778C267.957 27.8778 267.741 27.9304 267.554 28.0355C267.369 28.1406 267.224 28.294 267.119 28.4957C267.017 28.6946 266.964 28.9347 266.962 29.2159Z" fill="#235753"/>
<rect x="10" y="53" width="2" height="5" fill="#235753"/>
<rect x="30" y="53" width="2" height="5" fill="#235753"/>
<mask id="path-33-outside-7_305_4544" maskUnits="userSpaceOnUse" x="0" y="58" width="42" height="42" fill="black">
<rect fill="white" y="58" width="42" height="42"/>
<path d="M0 64H42V100H0V64Z"/>
</mask>
<path d="M0 64H42V100H0V64Z" fill="white"/>
<path d="M0 64V70H42V64V58H0V64Z" fill="#CC0070" mask="url(#path-33-outside-7_305_4544)"/>
<path d="M16.4638 77.2727H18.2876V83.358C18.2876 83.9205 18.1612 84.4091 17.9084 84.8239C17.6584 85.2386 17.3104 85.5582 16.8643 85.7827C16.4183 86.0071 15.8999 86.1193 15.3089 86.1193C14.7834 86.1193 14.3061 86.027 13.8771 85.8423C13.451 85.6548 13.1129 85.3707 12.8629 84.9901C12.6129 84.6065 12.4893 84.125 12.4922 83.5455H14.3288C14.3345 83.7756 14.3814 83.973 14.4695 84.1378C14.5604 84.2997 14.6839 84.4247 14.8402 84.5128C14.9993 84.598 15.1868 84.6406 15.4027 84.6406C15.63 84.6406 15.8217 84.5923 15.978 84.4957C16.1371 84.3963 16.2578 84.2514 16.3402 84.0611C16.4226 83.8707 16.4638 83.6364 16.4638 83.358V77.2727ZM23.9766 83.2131V79.4545H25.7919V86H24.049V84.8111H23.9808C23.8331 85.1946 23.5874 85.5028 23.2436 85.7358C22.9027 85.9687 22.4865 86.0852 21.995 86.0852C21.5575 86.0852 21.1726 85.9858 20.8402 85.7869C20.5078 85.5881 20.2479 85.3054 20.0604 84.9389C19.8757 84.5724 19.782 84.1335 19.7791 83.6222V79.4545H21.5945V83.2983C21.5973 83.6847 21.701 83.9901 21.9055 84.2145C22.1101 84.4389 22.3842 84.5511 22.728 84.5511C22.9467 84.5511 23.1513 84.5014 23.3416 84.402C23.532 84.2997 23.6854 84.1491 23.8018 83.9503C23.9212 83.7514 23.9794 83.5057 23.9766 83.2131ZM29.0593 77.2727V86H27.244V77.2727H29.0593Z" fill="#235753"/>
<rect x="58" y="53" width="2" height="5" fill="#235753"/>
<rect x="78" y="53" width="2" height="5" fill="#235753"/>
<mask id="path-38-outside-8_305_4544" maskUnits="userSpaceOnUse" x="48" y="58" width="42" height="42" fill="black">
<rect fill="white" x="48" y="58" width="42" height="42"/>
<path d="M48 64H90V100H48V64Z"/>
</mask>
<path d="M48 64H90V100H48V64Z" fill="white"/>
<path d="M48 64V70H90V64V58H48V64Z" fill="#CC0070" mask="url(#path-38-outside-8_305_4544)"/>
<path d="M59.2452 86H57.2679L60.2807 77.2727H62.6586L65.6671 86H63.6898L61.5037 79.267H61.4355L59.2452 86ZM59.1216 82.5696H63.7921V84.0099H59.1216V82.5696ZM70.8809 83.2131V79.4545H72.6962V86H70.9533V84.8111H70.8851C70.7374 85.1946 70.4917 85.5028 70.1479 85.7358C69.807 85.9687 69.3908 86.0852 68.8993 86.0852C68.4618 86.0852 68.0769 85.9858 67.7445 85.7869C67.4121 85.5881 67.1522 85.3054 66.9647 84.9389C66.78 84.5724 66.6863 84.1335 66.6834 83.6222V79.4545H68.4988V83.2983C68.5016 83.6847 68.6053 83.9901 68.8098 84.2145C69.0144 84.4389 69.2885 84.5511 69.6323 84.5511C69.851 84.5511 70.0556 84.5014 70.2459 84.402C70.4363 84.2997 70.5897 84.1491 70.7061 83.9503C70.8255 83.7514 70.8837 83.5057 70.8809 83.2131ZM77.0971 88.5909C76.5091 88.5909 76.0048 88.5099 75.5843 88.348C75.1667 88.1889 74.8343 87.9716 74.5872 87.696C74.34 87.4205 74.1795 87.1108 74.1056 86.767L75.7846 86.5412C75.8358 86.6719 75.9167 86.794 76.0275 86.9077C76.1383 87.0213 76.2846 87.1122 76.4664 87.1804C76.6511 87.2514 76.8755 87.2869 77.1397 87.2869C77.5346 87.2869 77.8599 87.1903 78.1156 86.9972C78.3741 86.8068 78.5034 86.4872 78.5034 86.0384V84.8409H78.4267C78.3471 85.0227 78.2278 85.1946 78.0687 85.3565C77.9096 85.5185 77.7051 85.6506 77.4551 85.7528C77.2051 85.8551 76.9068 85.9062 76.5602 85.9062C76.0687 85.9062 75.6213 85.7926 75.2179 85.5653C74.8173 85.3352 74.4977 84.9844 74.2591 84.5128C74.0233 84.0384 73.9054 83.4389 73.9054 82.7145C73.9054 81.973 74.0261 81.3537 74.2676 80.8565C74.5091 80.3594 74.8301 79.9872 75.2306 79.7401C75.6341 79.4929 76.0758 79.3693 76.5559 79.3693C76.9224 79.3693 77.2292 79.4318 77.4764 79.5568C77.7235 79.679 77.9224 79.8324 78.073 80.017C78.2264 80.1989 78.3443 80.3778 78.4267 80.554H78.4949V79.4545H80.2974V86.0639C80.2974 86.6207 80.161 87.0866 79.8883 87.4616C79.6156 87.8366 79.2377 88.1179 78.7548 88.3054C78.2747 88.4957 77.7221 88.5909 77.0971 88.5909ZM77.1355 84.5426C77.4281 84.5426 77.6752 84.4702 77.877 84.3253C78.0815 84.1776 78.2377 83.9673 78.3457 83.6946C78.4565 83.419 78.5119 83.0895 78.5119 82.706C78.5119 82.3224 78.4579 81.9901 78.35 81.7088C78.242 81.4247 78.0858 81.2045 77.8812 81.0483C77.6767 80.892 77.4281 80.8139 77.1355 80.8139C76.8372 80.8139 76.5858 80.8949 76.3812 81.0568C76.1767 81.2159 76.0218 81.4375 75.9167 81.7216C75.8116 82.0057 75.7591 82.3338 75.7591 82.706C75.7591 83.0838 75.8116 83.4105 75.9167 83.6861C76.0247 83.9588 76.1795 84.1705 76.3812 84.321C76.5858 84.4687 76.8372 84.5426 77.1355 84.5426Z" fill="#235753"/>
<rect x="106" y="53" width="2" height="5" fill="#235753"/>
<rect x="126" y="53" width="2" height="5" fill="#235753"/>
<mask id="path-43-outside-9_305_4544" maskUnits="userSpaceOnUse" x="96" y="58" width="42" height="42" fill="black">
<rect fill="white" x="96" y="58" width="42" height="42"/>
<path d="M96 64H138V100H96V64Z"/>
</mask>
<path d="M96 64H138V100H96V64Z" fill="white"/>
<path d="M96 64V70H138V64V58H96V64Z" fill="#CC0070" mask="url(#path-43-outside-9_305_4544)"/>
<path d="M111.178 79.7827C111.144 79.4389 110.998 79.1719 110.74 78.9815C110.481 78.7912 110.13 78.696 109.687 78.696C109.386 78.696 109.132 78.7386 108.924 78.8239C108.717 78.9062 108.558 79.0213 108.447 79.169C108.339 79.3168 108.285 79.4844 108.285 79.6719C108.279 79.8281 108.312 79.9645 108.383 80.081C108.457 80.1974 108.558 80.2983 108.686 80.3835C108.813 80.4659 108.961 80.5384 109.129 80.6009C109.296 80.6605 109.475 80.7116 109.666 80.7543L110.45 80.9418C110.83 81.027 111.18 81.1406 111.498 81.2827C111.816 81.4247 112.092 81.5994 112.325 81.8068C112.558 82.0142 112.738 82.2585 112.866 82.5398C112.997 82.821 113.063 83.1435 113.066 83.5071C113.063 84.0412 112.927 84.5043 112.657 84.8963C112.39 85.2855 112.004 85.5881 111.498 85.804C110.995 86.017 110.389 86.1236 109.678 86.1236C108.974 86.1236 108.36 86.0156 107.838 85.7997C107.318 85.5838 106.911 85.2642 106.619 84.8409C106.329 84.4148 106.177 83.8878 106.163 83.2599H107.948C107.968 83.5526 108.052 83.7969 108.2 83.9929C108.35 84.1861 108.551 84.3324 108.801 84.4318C109.053 84.5284 109.339 84.5767 109.657 84.5767C109.97 84.5767 110.241 84.5312 110.471 84.4403C110.704 84.3494 110.884 84.223 111.012 84.0611C111.14 83.8991 111.204 83.7131 111.204 83.5028C111.204 83.3068 111.146 83.142 111.029 83.0085C110.916 82.875 110.748 82.7614 110.526 82.6676C110.308 82.5739 110.039 82.4886 109.721 82.4119L108.771 82.1733C108.035 81.9943 107.454 81.7145 107.028 81.3338C106.602 80.9531 106.39 80.4403 106.393 79.7955C106.39 79.267 106.531 78.8054 106.815 78.4105C107.102 78.0156 107.495 77.7074 107.995 77.4858C108.495 77.2642 109.063 77.1534 109.7 77.1534C110.347 77.1534 110.913 77.2642 111.396 77.4858C111.882 77.7074 112.259 78.0156 112.529 78.4105C112.799 78.8054 112.938 79.2628 112.947 79.7827H111.178ZM117.256 86.1278C116.583 86.1278 116.003 85.9915 115.518 85.7188C115.035 85.4432 114.662 85.054 114.401 84.5511C114.14 84.0455 114.009 83.4474 114.009 82.7571C114.009 82.0838 114.14 81.4929 114.401 80.9844C114.662 80.4759 115.03 80.0795 115.505 79.7955C115.982 79.5114 116.542 79.3693 117.184 79.3693C117.616 79.3693 118.018 79.4389 118.39 79.5781C118.765 79.7145 119.091 79.9205 119.37 80.196C119.651 80.4716 119.87 80.8182 120.026 81.2358C120.182 81.6506 120.26 82.1364 120.26 82.6932V83.1918H114.733V82.0668H118.552C118.552 81.8054 118.495 81.5739 118.381 81.3722C118.268 81.1705 118.11 81.0128 117.908 80.8991C117.709 80.7827 117.478 80.7244 117.214 80.7244C116.938 80.7244 116.694 80.7884 116.481 80.9162C116.27 81.0412 116.106 81.2102 115.986 81.4233C115.867 81.6335 115.806 81.8679 115.803 82.1264V83.196C115.803 83.5199 115.863 83.7997 115.982 84.0355C116.104 84.2713 116.276 84.4531 116.498 84.581C116.719 84.7088 116.982 84.7727 117.286 84.7727C117.488 84.7727 117.672 84.7443 117.84 84.6875C118.008 84.6307 118.151 84.5455 118.27 84.4318C118.39 84.3182 118.481 84.179 118.543 84.0142L120.222 84.125C120.137 84.5284 119.962 84.8807 119.698 85.1818C119.437 85.4801 119.099 85.7131 118.684 85.8807C118.272 86.0455 117.796 86.1278 117.256 86.1278ZM121.445 88.4545V79.4545H123.235V80.554H123.316C123.395 80.3778 123.51 80.1989 123.661 80.017C123.814 79.8324 124.013 79.679 124.258 79.5568C124.505 79.4318 124.812 79.3693 125.178 79.3693C125.655 79.3693 126.096 79.4943 126.499 79.7443C126.903 79.9915 127.225 80.3651 127.466 80.8651C127.708 81.3622 127.829 81.9858 127.829 82.7358C127.829 83.4659 127.711 84.0824 127.475 84.5852C127.242 85.0852 126.924 85.4645 126.52 85.723C126.12 85.9787 125.671 86.1065 125.174 86.1065C124.822 86.1065 124.522 86.0483 124.275 85.9318C124.03 85.8153 123.83 85.669 123.674 85.4929C123.518 85.3139 123.398 85.1335 123.316 84.9517H123.26V88.4545H121.445ZM123.222 82.7273C123.222 83.1165 123.276 83.456 123.384 83.7457C123.492 84.0355 123.648 84.2614 123.853 84.4233C124.057 84.5824 124.306 84.6619 124.599 84.6619C124.894 84.6619 125.144 84.581 125.349 84.419C125.553 84.2543 125.708 84.027 125.813 83.7372C125.921 83.4446 125.975 83.108 125.975 82.7273C125.975 82.3494 125.922 82.017 125.817 81.7301C125.712 81.4432 125.557 81.2187 125.353 81.0568C125.148 80.8949 124.897 80.8139 124.599 80.8139C124.303 80.8139 124.053 80.892 123.849 81.0483C123.647 81.2045 123.492 81.4261 123.384 81.7131C123.276 82 123.222 82.3381 123.222 82.7273Z" fill="#235753"/>
<rect x="154" y="53" width="2" height="5" fill="#235753"/>
<rect x="174" y="53" width="2" height="5" fill="#235753"/>
<mask id="path-48-outside-10_305_4544" maskUnits="userSpaceOnUse" x="144" y="58" width="42" height="42" fill="black">
<rect fill="white" x="144" y="58" width="42" height="42"/>
<path d="M144 64H186V100H144V64Z"/>
</mask>
<path d="M144 64H186V100H144V64Z" fill="white"/>
<path d="M144 64V70H186V64V58H144V64Z" fill="#CC0070" mask="url(#path-48-outside-10_305_4544)"/>
<path d="M163.261 81.6364C163.261 82.5881 163.08 83.3977 162.72 84.0653C162.362 84.733 161.873 85.2429 161.254 85.5952C160.637 85.9446 159.944 86.1193 159.174 86.1193C158.399 86.1193 157.703 85.9432 157.086 85.5909C156.47 85.2386 155.982 84.7287 155.624 84.0611C155.267 83.3935 155.088 82.5852 155.088 81.6364C155.088 80.6847 155.267 79.875 155.624 79.2074C155.982 78.5398 156.47 78.0312 157.086 77.6818C157.703 77.3295 158.399 77.1534 159.174 77.1534C159.944 77.1534 160.637 77.3295 161.254 77.6818C161.873 78.0312 162.362 78.5398 162.72 79.2074C163.08 79.875 163.261 80.6847 163.261 81.6364ZM161.39 81.6364C161.39 81.0199 161.298 80.5 161.113 80.0767C160.931 79.6534 160.674 79.3324 160.342 79.1136C160.009 78.8949 159.62 78.7855 159.174 78.7855C158.728 78.7855 158.339 78.8949 158.007 79.1136C157.674 79.3324 157.416 79.6534 157.231 80.0767C157.049 80.5 156.958 81.0199 156.958 81.6364C156.958 82.2528 157.049 82.7727 157.231 83.196C157.416 83.6193 157.674 83.9403 158.007 84.1591C158.339 84.3778 158.728 84.4872 159.174 84.4872C159.62 84.4872 160.009 84.3778 160.342 84.1591C160.674 83.9403 160.931 83.6193 161.113 83.196C161.298 82.7727 161.39 82.2528 161.39 81.6364ZM166.238 84.1165L166.243 81.9389H166.507L168.604 79.4545H170.687L167.871 82.7443H167.44L166.238 84.1165ZM164.594 86V77.2727H166.409V86H164.594ZM168.684 86L166.758 83.1491L167.969 81.8665L170.811 86H168.684ZM175.059 79.4545V80.8182H171.118V79.4545H175.059ZM172.013 77.8864H173.828V83.9886C173.828 84.1562 173.854 84.2869 173.905 84.3807C173.956 84.4716 174.027 84.5355 174.118 84.5724C174.211 84.6094 174.319 84.6278 174.442 84.6278C174.527 84.6278 174.612 84.6207 174.697 84.6065C174.782 84.5895 174.848 84.5767 174.893 84.5682L175.179 85.919C175.088 85.9474 174.96 85.9801 174.795 86.017C174.631 86.0568 174.43 86.081 174.194 86.0895C173.757 86.1065 173.373 86.0483 173.044 85.9148C172.717 85.7812 172.463 85.5739 172.281 85.2926C172.099 85.0114 172.01 84.6562 172.013 84.2273V77.8864Z" fill="#235753"/>
<rect x="202" y="53" width="2" height="5" fill="#235753"/>
<rect x="222" y="53" width="2" height="5" fill="#235753"/>
<mask id="path-53-outside-11_305_4544" maskUnits="userSpaceOnUse" x="192" y="58" width="42" height="42" fill="black">
<rect fill="white" x="192" y="58" width="42" height="42"/>
<path d="M192 64H234V100H192V64Z"/>
</mask>
<path d="M192 64H234V100H192V64Z" fill="white"/>
<path d="M192 64V70H234V64V58H192V64Z" fill="#CC0070" mask="url(#path-53-outside-11_305_4544)"/>
<path d="M209.556 77.2727V86H207.963L204.166 80.5071H204.102V86H202.257V77.2727H203.876L207.643 82.7614H207.72V77.2727H209.556ZM214.004 86.1278C213.342 86.1278 212.77 85.9872 212.287 85.706C211.807 85.4219 211.436 85.027 211.175 84.5213C210.913 84.0128 210.782 83.4233 210.782 82.7528C210.782 82.0767 210.913 81.4858 211.175 80.9801C211.436 80.4716 211.807 80.0767 212.287 79.7955C212.77 79.5114 213.342 79.3693 214.004 79.3693C214.666 79.3693 215.237 79.5114 215.717 79.7955C216.2 80.0767 216.572 80.4716 216.834 80.9801C217.095 81.4858 217.226 82.0767 217.226 82.7528C217.226 83.4233 217.095 84.0128 216.834 84.5213C216.572 85.027 216.2 85.4219 215.717 85.706C215.237 85.9872 214.666 86.1278 214.004 86.1278ZM214.013 84.7216C214.314 84.7216 214.565 84.6364 214.767 84.4659C214.969 84.2926 215.121 84.0568 215.223 83.7585C215.328 83.4602 215.381 83.1207 215.381 82.7401C215.381 82.3594 215.328 82.0199 215.223 81.7216C215.121 81.4233 214.969 81.1875 214.767 81.0142C214.565 80.8409 214.314 80.7543 214.013 80.7543C213.709 80.7543 213.453 80.8409 213.246 81.0142C213.041 81.1875 212.886 81.4233 212.781 81.7216C212.679 82.0199 212.628 82.3594 212.628 82.7401C212.628 83.1207 212.679 83.4602 212.781 83.7585C212.886 84.0568 213.041 84.2926 213.246 84.4659C213.453 84.6364 213.709 84.7216 214.013 84.7216ZM224.297 79.4545L222.009 86H219.964L217.675 79.4545H219.593L220.952 84.1378H221.02L222.376 79.4545H224.297Z" fill="#235753"/>
<rect x="250" y="53" width="2" height="5" fill="#235753"/>
<rect x="270" y="53" width="2" height="5" fill="#235753"/>
<mask id="path-58-outside-12_305_4544" maskUnits="userSpaceOnUse" x="240" y="58" width="42" height="42" fill="black">
<rect fill="white" x="240" y="58" width="42" height="42"/>
<path d="M240 64H282V100H240V64Z"/>
</mask>
<path d="M240 64H282V100H240V64Z" fill="white"/>
<path d="M240 64V70H282V64V58H240V64Z" fill="#CC0070" mask="url(#path-58-outside-12_305_4544)"/>
<path d="M253.473 86H250.38V77.2727H253.499C254.377 77.2727 255.132 77.4474 255.766 77.7969C256.4 78.1435 256.887 78.642 257.228 79.2926C257.571 79.9432 257.743 80.7216 257.743 81.6278C257.743 82.5369 257.571 83.3182 257.228 83.9716C256.887 84.625 256.397 85.1264 255.757 85.4759C255.121 85.8253 254.36 86 253.473 86ZM252.225 84.419H253.397C253.942 84.419 254.401 84.3224 254.773 84.1293C255.148 83.9332 255.429 83.6307 255.617 83.2216C255.807 82.8097 255.902 82.2784 255.902 81.6278C255.902 80.983 255.807 80.456 255.617 80.0469C255.429 79.6378 255.15 79.3366 254.777 79.1435C254.405 78.9503 253.946 78.8537 253.401 78.8537H252.225V84.419ZM262.059 86.1278C261.386 86.1278 260.806 85.9915 260.32 85.7188C259.837 85.4432 259.465 85.054 259.204 84.5511C258.942 84.0455 258.812 83.4474 258.812 82.7571C258.812 82.0838 258.942 81.4929 259.204 80.9844C259.465 80.4759 259.833 80.0795 260.308 79.7955C260.785 79.5114 261.344 79.3693 261.987 79.3693C262.418 79.3693 262.82 79.4389 263.192 79.5781C263.567 79.7145 263.894 79.9205 264.173 80.196C264.454 80.4716 264.673 80.8182 264.829 81.2358C264.985 81.6506 265.063 82.1364 265.063 82.6932V83.1918H259.536V82.0668H263.354C263.354 81.8054 263.298 81.5739 263.184 81.3722C263.07 81.1705 262.913 81.0128 262.711 80.8991C262.512 80.7827 262.281 80.7244 262.016 80.7244C261.741 80.7244 261.496 80.7884 261.283 80.9162C261.073 81.0412 260.908 81.2102 260.789 81.4233C260.67 81.6335 260.609 81.8679 260.606 82.1264V83.196C260.606 83.5199 260.665 83.7997 260.785 84.0355C260.907 84.2713 261.079 84.4531 261.3 84.581C261.522 84.7088 261.785 84.7727 262.089 84.7727C262.29 84.7727 262.475 84.7443 262.643 84.6875C262.81 84.6307 262.954 84.5455 263.073 84.4318C263.192 84.3182 263.283 84.179 263.346 84.0142L265.025 84.125C264.94 84.5284 264.765 84.8807 264.501 85.1818C264.239 85.4801 263.901 85.7131 263.487 85.8807C263.075 86.0455 262.599 86.1278 262.059 86.1278ZM266.214 86V84.9176L269.418 80.9503V80.9034H266.325V79.4545H271.604V80.6349L268.596 84.5043V84.5511H271.715V86H266.214Z" fill="#235753"/>
<rect x="10" y="106" width="2" height="5" fill="#235753"/>
<rect x="30" y="106" width="2" height="5" fill="#235753"/>
<mask id="path-63-outside-13_305_4544" maskUnits="userSpaceOnUse" x="0" y="111" width="42" height="42" fill="black">
<rect fill="white" y="111" width="42" height="42"/>
<path d="M0 117H42V153H0V117Z"/>
</mask>
<path d="M0 117H42V153H0V117Z" fill="white"/>
<path d="M0 117V123H42V117V111H0V117Z" fill="#CC0070" mask="url(#path-63-outside-13_305_4544)"/>
<path d="M14.6181 130.273H16.4419V136.358C16.4419 136.92 16.3155 137.409 16.0627 137.824C15.8127 138.239 15.4647 138.558 15.0186 138.783C14.5726 139.007 14.0542 139.119 13.4632 139.119C12.9377 139.119 12.4604 139.027 12.0314 138.842C11.6053 138.655 11.2672 138.371 11.0172 137.99C10.7672 137.607 10.6436 137.125 10.6465 136.545H12.4831C12.4888 136.776 12.5357 136.973 12.6238 137.138C12.7147 137.3 12.8382 137.425 12.9945 137.513C13.1536 137.598 13.3411 137.641 13.557 137.641C13.7843 137.641 13.976 137.592 14.1323 137.496C14.2914 137.396 14.4121 137.251 14.4945 137.061C14.5769 136.871 14.6181 136.636 14.6181 136.358V130.273ZM19.7999 139.124C19.3823 139.124 19.0101 139.051 18.6834 138.906C18.3567 138.759 18.0982 138.541 17.9078 138.254C17.7203 137.964 17.6266 137.604 17.6266 137.172C17.6266 136.808 17.6934 136.503 17.8269 136.256C17.9604 136.009 18.1422 135.81 18.3723 135.659C18.6025 135.509 18.8638 135.395 19.1564 135.318C19.4519 135.241 19.7615 135.188 20.0854 135.156C20.4661 135.116 20.7729 135.08 21.0059 135.045C21.2388 135.009 21.4078 134.955 21.513 134.884C21.6181 134.812 21.6706 134.707 21.6706 134.568V134.543C21.6706 134.273 21.5854 134.064 21.415 133.916C21.2473 133.768 21.0087 133.695 20.699 133.695C20.3723 133.695 20.1124 133.767 19.9192 133.912C19.726 134.054 19.5982 134.233 19.5357 134.449L17.8567 134.312C17.9419 133.915 18.1096 133.571 18.3596 133.281C18.6096 132.989 18.932 132.764 19.3269 132.608C19.7246 132.449 20.1848 132.369 20.7076 132.369C21.0712 132.369 21.4192 132.412 21.7516 132.497C22.0868 132.582 22.3837 132.714 22.6422 132.893C22.9036 133.072 23.1096 133.303 23.2601 133.584C23.4107 133.862 23.486 134.196 23.486 134.585V139H21.7644V138.092H21.7132C21.6081 138.297 21.4675 138.477 21.2914 138.634C21.1152 138.787 20.9036 138.908 20.6564 138.996C20.4093 139.081 20.1238 139.124 19.7999 139.124ZM20.3198 137.871C20.5868 137.871 20.8226 137.818 21.0272 137.713C21.2317 137.605 21.3922 137.46 21.5087 137.278C21.6252 137.097 21.6834 136.891 21.6834 136.661V135.966C21.6266 136.003 21.5485 136.037 21.449 136.068C21.3525 136.097 21.2431 136.124 21.1209 136.149C20.9988 136.172 20.8766 136.193 20.7544 136.213C20.6323 136.23 20.5215 136.246 20.4221 136.26C20.209 136.291 20.0229 136.341 19.8638 136.409C19.7047 136.477 19.5811 136.57 19.4931 136.686C19.405 136.8 19.361 136.942 19.361 137.112C19.361 137.359 19.4505 137.548 19.6294 137.679C19.8113 137.807 20.0414 137.871 20.3198 137.871ZM26.7097 135.216V139H24.8944V132.455H26.6245V133.609H26.7012C26.8461 133.229 27.089 132.928 27.4299 132.706C27.7708 132.482 28.1841 132.369 28.6699 132.369C29.1245 132.369 29.5208 132.469 29.8588 132.668C30.1969 132.866 30.4597 133.151 30.6472 133.52C30.8347 133.886 30.9284 134.324 30.9284 134.832V139H29.1131V135.156C29.1159 134.756 29.0137 134.443 28.8063 134.219C28.5989 133.991 28.3134 133.878 27.9498 133.878C27.7054 133.878 27.4895 133.93 27.302 134.036C27.1174 134.141 26.9725 134.294 26.8674 134.496C26.7651 134.695 26.7125 134.935 26.7097 135.216Z" fill="#235753"/>
<rect x="58" y="106" width="2" height="5" fill="#235753"/>
<rect x="78" y="106" width="2" height="5" fill="#235753"/>
<mask id="path-68-outside-14_305_4544" maskUnits="userSpaceOnUse" x="48" y="111" width="42" height="42" fill="black">
<rect fill="white" x="48" y="111" width="42" height="42"/>
<path d="M48 117H90V153H48V117Z"/>
</mask>
<path d="M48 117H90V153H48V117Z" fill="white"/>
<path d="M48 117V123H90V117V111H48V117Z" fill="#CC0070" mask="url(#path-68-outside-14_305_4544)"/>
<path d="M59.0886 139V130.273H64.867V131.794H60.9338V133.874H64.4835V135.395H60.9338V139H59.0886ZM68.5765 139.128C67.9032 139.128 67.3237 138.991 66.8379 138.719C66.3549 138.443 65.9828 138.054 65.7214 137.551C65.46 137.045 65.3294 136.447 65.3294 135.757C65.3294 135.084 65.46 134.493 65.7214 133.984C65.9828 133.476 66.3507 133.08 66.8251 132.795C67.3024 132.511 67.862 132.369 68.5041 132.369C68.9359 132.369 69.3379 132.439 69.71 132.578C70.085 132.714 70.4118 132.92 70.6902 133.196C70.9714 133.472 71.1902 133.818 71.3464 134.236C71.5027 134.651 71.5808 135.136 71.5808 135.693V136.192H66.0538V135.067H69.872C69.872 134.805 69.8152 134.574 69.7015 134.372C69.5879 134.17 69.4302 134.013 69.2285 133.899C69.0297 133.783 68.7981 133.724 68.5339 133.724C68.2583 133.724 68.014 133.788 67.801 133.916C67.5907 134.041 67.426 134.21 67.3066 134.423C67.1873 134.634 67.1262 134.868 67.1234 135.126V136.196C67.1234 136.52 67.1831 136.8 67.3024 137.036C67.4245 137.271 67.5964 137.453 67.818 137.581C68.0396 137.709 68.3024 137.773 68.6064 137.773C68.8081 137.773 68.9927 137.744 69.1603 137.688C69.3279 137.631 69.4714 137.545 69.5907 137.432C69.71 137.318 69.801 137.179 69.8635 137.014L71.5424 137.125C71.4572 137.528 71.2825 137.881 71.0183 138.182C70.7569 138.48 70.4189 138.713 70.0041 138.881C69.5922 139.045 69.1163 139.128 68.5765 139.128ZM72.7995 139V130.273H74.6149V133.554H74.6703C74.7498 133.378 74.8649 133.199 75.0154 133.017C75.1689 132.832 75.3677 132.679 75.612 132.557C75.8592 132.432 76.166 132.369 76.5325 132.369C77.0098 132.369 77.4501 132.494 77.8535 132.744C78.2569 132.991 78.5794 133.365 78.8208 133.865C79.0623 134.362 79.1831 134.986 79.1831 135.736C79.1831 136.466 79.0652 137.082 78.8294 137.585C78.5964 138.085 78.2782 138.464 77.8748 138.723C77.4743 138.979 77.0254 139.107 76.5282 139.107C76.176 139.107 75.8762 139.048 75.6291 138.932C75.3848 138.815 75.1845 138.669 75.0282 138.493C74.872 138.314 74.7527 138.134 74.6703 137.952H74.5893V139H72.7995ZM74.5765 135.727C74.5765 136.116 74.6305 136.456 74.7385 136.746C74.8464 137.036 75.0027 137.261 75.2072 137.423C75.4118 137.582 75.6603 137.662 75.9529 137.662C76.2484 137.662 76.4984 137.581 76.7029 137.419C76.9075 137.254 77.0623 137.027 77.1674 136.737C77.2754 136.445 77.3294 136.108 77.3294 135.727C77.3294 135.349 77.2768 135.017 77.1717 134.73C77.0666 134.443 76.9118 134.219 76.7072 134.057C76.5027 133.895 76.2512 133.814 75.9529 133.814C75.6575 133.814 75.4075 133.892 75.2029 134.048C75.0012 134.205 74.8464 134.426 74.7385 134.713C74.6305 135 74.5765 135.338 74.5765 135.727Z" fill="#235753"/>
<rect x="106" y="106" width="2" height="5" fill="#235753"/>
<rect x="126" y="106" width="2" height="5" fill="#235753"/>
<mask id="path-73-outside-15_305_4544" maskUnits="userSpaceOnUse" x="96" y="111" width="42" height="42" fill="black">
<rect fill="white" x="96" y="111" width="42" height="42"/>
<path d="M96 117H138V153H96V117Z"/>
</mask>
<path d="M96 117H138V153H96V117Z" fill="white"/>
<path d="M96 117V123H138V117V111H96V117Z" fill="#CC0070" mask="url(#path-73-outside-15_305_4544)"/>
<path d="M106.333 130.273H108.608L111.012 136.136H111.114L113.517 130.273H115.793V139H114.003V133.32H113.931L111.672 138.957H110.453L108.195 133.298H108.123V139H106.333V130.273ZM119.146 139.124C118.728 139.124 118.356 139.051 118.029 138.906C117.702 138.759 117.444 138.541 117.254 138.254C117.066 137.964 116.972 137.604 116.972 137.172C116.972 136.808 117.039 136.503 117.173 136.256C117.306 136.009 117.488 135.81 117.718 135.659C117.948 135.509 118.21 135.395 118.502 135.318C118.798 135.241 119.107 135.188 119.431 135.156C119.812 135.116 120.119 135.08 120.352 135.045C120.585 135.009 120.754 134.955 120.859 134.884C120.964 134.812 121.016 134.707 121.016 134.568V134.543C121.016 134.273 120.931 134.064 120.761 133.916C120.593 133.768 120.354 133.695 120.045 133.695C119.718 133.695 119.458 133.767 119.265 133.912C119.072 134.054 118.944 134.233 118.881 134.449L117.202 134.312C117.288 133.915 117.455 133.571 117.705 133.281C117.955 132.989 118.278 132.764 118.673 132.608C119.07 132.449 119.531 132.369 120.053 132.369C120.417 132.369 120.765 132.412 121.097 132.497C121.433 132.582 121.729 132.714 121.988 132.893C122.249 133.072 122.455 133.303 122.606 133.584C122.756 133.862 122.832 134.196 122.832 134.585V139H121.11V138.092H121.059C120.954 138.297 120.813 138.477 120.637 138.634C120.461 138.787 120.249 138.908 120.002 138.996C119.755 139.081 119.469 139.124 119.146 139.124ZM119.665 137.871C119.933 137.871 120.168 137.818 120.373 137.713C120.577 137.605 120.738 137.46 120.854 137.278C120.971 137.097 121.029 136.891 121.029 136.661V135.966C120.972 136.003 120.894 136.037 120.795 136.068C120.698 136.097 120.589 136.124 120.467 136.149C120.344 136.172 120.222 136.193 120.1 136.213C119.978 136.23 119.867 136.246 119.768 136.26C119.555 136.291 119.369 136.341 119.21 136.409C119.05 136.477 118.927 136.57 118.839 136.686C118.751 136.8 118.707 136.942 118.707 137.112C118.707 137.359 118.796 137.548 118.975 137.679C119.157 137.807 119.387 137.871 119.665 137.871ZM118.822 131.56C118.577 131.56 118.367 131.474 118.191 131.304C118.015 131.131 117.927 130.926 117.927 130.69C117.927 130.449 118.015 130.244 118.191 130.077C118.367 129.909 118.577 129.825 118.822 129.825C119.069 129.825 119.278 129.909 119.448 130.077C119.621 130.244 119.708 130.449 119.708 130.69C119.708 130.926 119.621 131.131 119.448 131.304C119.278 131.474 119.069 131.56 118.822 131.56ZM121.43 131.56C121.185 131.56 120.975 131.474 120.799 131.304C120.623 131.131 120.535 130.926 120.535 130.69C120.535 130.449 120.623 130.244 120.799 130.077C120.975 129.909 121.185 129.825 121.43 129.825C121.677 129.825 121.886 129.909 122.056 130.077C122.229 130.244 122.316 130.449 122.316 130.69C122.316 130.926 122.229 131.131 122.056 131.304C121.886 131.474 121.677 131.56 121.43 131.56ZM124.24 139V132.455H126V133.597H126.068C126.188 133.19 126.388 132.884 126.669 132.676C126.95 132.466 127.274 132.361 127.641 132.361C127.732 132.361 127.83 132.366 127.935 132.378C128.04 132.389 128.132 132.405 128.212 132.425V134.036C128.126 134.01 128.009 133.987 127.858 133.967C127.707 133.947 127.57 133.938 127.445 133.938C127.178 133.938 126.939 133.996 126.729 134.112C126.521 134.226 126.357 134.385 126.234 134.589C126.115 134.794 126.055 135.03 126.055 135.297V139H124.24Z" fill="#235753"/>
<rect x="154" y="106" width="2" height="5" fill="#235753"/>
<rect x="174" y="106" width="2" height="5" fill="#235753"/>
<mask id="path-78-outside-16_305_4544" maskUnits="userSpaceOnUse" x="144" y="111" width="42" height="42" fill="black">
<rect fill="white" x="144" y="111" width="42" height="42"/>
<path d="M144 117H186V153H144V117Z"/>
</mask>
<path d="M144 117H186V153H144V117Z" fill="white"/>
<path d="M144 117V123H186V117V111H144V117Z" fill="#CC0070" mask="url(#path-78-outside-16_305_4544)"/>
<path d="M156.523 139H154.545L157.558 130.273H159.936L162.944 139H160.967L158.781 132.267H158.713L156.523 139ZM156.399 135.57H161.069V137.01H156.399V135.57ZM163.961 141.455V132.455H165.751V133.554H165.831C165.911 133.378 166.026 133.199 166.177 133.017C166.33 132.832 166.529 132.679 166.773 132.557C167.02 132.432 167.327 132.369 167.694 132.369C168.171 132.369 168.611 132.494 169.015 132.744C169.418 132.991 169.741 133.365 169.982 133.865C170.224 134.362 170.344 134.986 170.344 135.736C170.344 136.466 170.226 137.082 169.991 137.585C169.758 138.085 169.439 138.464 169.036 138.723C168.635 138.979 168.187 139.107 167.689 139.107C167.337 139.107 167.037 139.048 166.79 138.932C166.546 138.815 166.346 138.669 166.189 138.493C166.033 138.314 165.914 138.134 165.831 137.952H165.776V141.455H163.961ZM165.738 135.727C165.738 136.116 165.792 136.456 165.9 136.746C166.008 137.036 166.164 137.261 166.368 137.423C166.573 137.582 166.822 137.662 167.114 137.662C167.41 137.662 167.66 137.581 167.864 137.419C168.069 137.254 168.224 137.027 168.329 136.737C168.437 136.445 168.491 136.108 168.491 135.727C168.491 135.349 168.438 135.017 168.333 134.73C168.228 134.443 168.073 134.219 167.868 134.057C167.664 133.895 167.412 133.814 167.114 133.814C166.819 133.814 166.569 133.892 166.364 134.048C166.162 134.205 166.008 134.426 165.9 134.713C165.792 135 165.738 135.338 165.738 135.727ZM171.555 139V132.455H173.314V133.597H173.383C173.502 133.19 173.702 132.884 173.983 132.676C174.265 132.466 174.589 132.361 174.955 132.361C175.046 132.361 175.144 132.366 175.249 132.378C175.354 132.389 175.447 132.405 175.526 132.425V134.036C175.441 134.01 175.323 133.987 175.172 133.967C175.022 133.947 174.884 133.938 174.759 133.938C174.492 133.938 174.253 133.996 174.043 134.112C173.836 134.226 173.671 134.385 173.549 134.589C173.43 134.794 173.37 135.03 173.37 135.297V139H171.555Z" fill="#235753"/>
<rect x="202" y="106" width="2" height="5" fill="#235753"/>
<rect x="222" y="106" width="2" height="5" fill="#235753"/>
<mask id="path-83-outside-17_305_4544" maskUnits="userSpaceOnUse" x="192" y="111" width="42" height="42" fill="black">
<rect fill="white" x="192" y="111" width="42" height="42"/>
<path d="M192 117H234V153H192V117Z"/>
</mask>
<path d="M192 117H234V153H192V117Z" fill="white"/>
<path d="M192 117V123H234V117V111H192V117Z" fill="#CC0070" mask="url(#path-83-outside-17_305_4544)"/>
<path d="M203.153 130.273H205.429L207.832 136.136H207.934L210.338 130.273H212.613V139H210.824V133.32H210.751L208.493 138.957H207.274L205.015 133.298H204.943V139H203.153V130.273ZM215.966 139.124C215.548 139.124 215.176 139.051 214.849 138.906C214.523 138.759 214.264 138.541 214.074 138.254C213.886 137.964 213.793 137.604 213.793 137.172C213.793 136.808 213.859 136.503 213.993 136.256C214.126 136.009 214.308 135.81 214.538 135.659C214.768 135.509 215.03 135.395 215.322 135.318C215.618 135.241 215.928 135.188 216.251 135.156C216.632 135.116 216.939 135.08 217.172 135.045C217.405 135.009 217.574 134.955 217.679 134.884C217.784 134.812 217.837 134.707 217.837 134.568V134.543C217.837 134.273 217.751 134.064 217.581 133.916C217.413 133.768 217.175 133.695 216.865 133.695C216.538 133.695 216.278 133.767 216.085 133.912C215.892 134.054 215.764 134.233 215.702 134.449L214.023 134.312C214.108 133.915 214.276 133.571 214.526 133.281C214.776 132.989 215.098 132.764 215.493 132.608C215.891 132.449 216.351 132.369 216.874 132.369C217.237 132.369 217.585 132.412 217.918 132.497C218.253 132.582 218.55 132.714 218.808 132.893C219.07 133.072 219.276 133.303 219.426 133.584C219.577 133.862 219.652 134.196 219.652 134.585V139H217.93V138.092H217.879C217.774 138.297 217.634 138.477 217.457 138.634C217.281 138.787 217.07 138.908 216.822 138.996C216.575 139.081 216.29 139.124 215.966 139.124ZM216.486 137.871C216.753 137.871 216.989 137.818 217.193 137.713C217.398 137.605 217.558 137.46 217.675 137.278C217.791 137.097 217.849 136.891 217.849 136.661V135.966C217.793 136.003 217.714 136.037 217.615 136.068C217.518 136.097 217.409 136.124 217.287 136.149C217.165 136.172 217.043 136.193 216.92 136.213C216.798 136.23 216.688 136.246 216.588 136.26C216.375 136.291 216.189 136.341 216.03 136.409C215.871 136.477 215.747 136.57 215.659 136.686C215.571 136.8 215.527 136.942 215.527 137.112C215.527 137.359 215.616 137.548 215.795 137.679C215.977 137.807 216.207 137.871 216.486 137.871ZM221.06 139V132.455H222.876V139H221.06ZM221.972 131.611C221.702 131.611 221.471 131.521 221.278 131.342C221.087 131.161 220.992 130.943 220.992 130.69C220.992 130.44 221.087 130.226 221.278 130.047C221.471 129.865 221.702 129.774 221.972 129.774C222.242 129.774 222.472 129.865 222.663 130.047C222.856 130.226 222.952 130.44 222.952 130.69C222.952 130.943 222.856 131.161 222.663 131.342C222.472 131.521 222.242 131.611 221.972 131.611Z" fill="#235753"/>
<rect x="250" y="106" width="2" height="5" fill="#235753"/>
<rect x="270" y="106" width="2" height="5" fill="#235753"/>
<mask id="path-88-outside-18_305_4544" maskUnits="userSpaceOnUse" x="240" y="111" width="42" height="42" fill="black">
<rect fill="white" x="240" y="111" width="42" height="42"/>
<path d="M240 117H282V153H240V117Z"/>
</mask>
<path d="M240 117H282V153H240V117Z" fill="white"/>
<path d="M240 117V123H282V117V111H240V117Z" fill="#CC0070" mask="url(#path-88-outside-18_305_4544)"/>
<path d="M254.366 130.273H256.19V136.358C256.19 136.92 256.064 137.409 255.811 137.824C255.561 138.239 255.213 138.558 254.767 138.783C254.321 139.007 253.802 139.119 253.211 139.119C252.686 139.119 252.208 139.027 251.779 138.842C251.353 138.655 251.015 138.371 250.765 137.99C250.515 137.607 250.392 137.125 250.395 136.545H252.231C252.237 136.776 252.284 136.973 252.372 137.138C252.463 137.3 252.586 137.425 252.743 137.513C252.902 137.598 253.089 137.641 253.305 137.641C253.532 137.641 253.724 137.592 253.88 137.496C254.039 137.396 254.16 137.251 254.243 137.061C254.325 136.871 254.366 136.636 254.366 136.358V130.273ZM261.879 136.213V132.455H263.694V139H261.951V137.811H261.883C261.735 138.195 261.49 138.503 261.146 138.736C260.805 138.969 260.389 139.085 259.897 139.085C259.46 139.085 259.075 138.986 258.743 138.787C258.41 138.588 258.15 138.305 257.963 137.939C257.778 137.572 257.684 137.134 257.681 136.622V132.455H259.497V136.298C259.5 136.685 259.603 136.99 259.808 137.214C260.012 137.439 260.287 137.551 260.63 137.551C260.849 137.551 261.054 137.501 261.244 137.402C261.434 137.3 261.588 137.149 261.704 136.95C261.824 136.751 261.882 136.506 261.879 136.213ZM266.962 135.216V139H265.146V132.455H266.876V133.609H266.953C267.098 133.229 267.341 132.928 267.682 132.706C268.023 132.482 268.436 132.369 268.922 132.369C269.376 132.369 269.773 132.469 270.111 132.668C270.449 132.866 270.712 133.151 270.899 133.52C271.087 133.886 271.18 134.324 271.18 134.832V139H269.365V135.156C269.368 134.756 269.266 134.443 269.058 134.219C268.851 133.991 268.565 133.878 268.202 133.878C267.957 133.878 267.741 133.93 267.554 134.036C267.369 134.141 267.224 134.294 267.119 134.496C267.017 134.695 266.964 134.935 266.962 135.216Z" fill="#235753"/>
<rect width="141" height="47" transform="matrix(1 0 0 -1 141 153)" fill="#A9D8D8" fill-opacity="0.8"/>
</svg>
