 <svg width="186" height="47" viewBox="0 0 186 47" fill="none" xmlns="http://www.w3.org/2000/svg">
<g clip-path="url(#clip0_305_4516)">
<rect x="10" width="2" height="5" fill="#235753"/>
<rect x="30" width="2" height="5" fill="#235753"/>
<mask id="path-3-outside-1_305_4516" maskUnits="userSpaceOnUse" x="0" y="5" width="42" height="42" fill="black">
<rect fill="white" y="5" width="42" height="42"/>
<path d="M0 11H42V47H0V11Z"/>
</mask>
<path d="M0 11H42V47H0V11Z" fill="white"/>
<path d="M0 11V17H42V11V5H0V11Z" fill="#CC0070" mask="url(#path-3-outside-1_305_4516)"/>
<path d="M14.6181 24.2727H16.4419V30.358C16.4419 30.9205 16.3155 31.4091 16.0627 31.8239C15.8127 32.2386 15.4647 32.5582 15.0186 32.7827C14.5726 33.0071 14.0542 33.1193 13.4632 33.1193C12.9377 33.1193 12.4604 33.027 12.0314 32.8423C11.6053 32.6548 11.2672 32.3707 11.0172 31.9901C10.7672 31.6065 10.6436 31.125 10.6465 30.5455H12.4831C12.4888 30.7756 12.5357 30.973 12.6238 31.1378C12.7147 31.2997 12.8382 31.4247 12.9945 31.5128C13.1536 31.598 13.3411 31.6406 13.557 31.6406C13.7843 31.6406 13.976 31.5923 14.1323 31.4957C14.2914 31.3963 14.4121 31.2514 14.4945 31.0611C14.5769 30.8707 14.6181 30.6364 14.6181 30.358V24.2727ZM19.7999 33.1236C19.3823 33.1236 19.0101 33.0511 18.6834 32.9062C18.3567 32.7585 18.0982 32.5412 17.9078 32.2543C17.7203 31.9645 17.6266 31.6037 17.6266 31.1719C17.6266 30.8082 17.6934 30.5028 17.8269 30.2557C17.9604 30.0085 18.1422 29.8097 18.3723 29.6591C18.6025 29.5085 18.8638 29.3949 19.1564 29.3182C19.4519 29.2415 19.7615 29.1875 20.0854 29.1562C20.4661 29.1165 20.7729 29.0795 21.0059 29.0455C21.2388 29.0085 21.4078 28.9545 21.513 28.8835C21.6181 28.8125 21.6706 28.7074 21.6706 28.5682V28.5426C21.6706 28.2727 21.5854 28.0639 21.415 27.9162C21.2473 27.7685 21.0087 27.6946 20.699 27.6946C20.3723 27.6946 20.1124 27.767 19.9192 27.9119C19.726 28.054 19.5982 28.233 19.5357 28.4489L17.8567 28.3125C17.9419 27.9148 18.1096 27.571 18.3596 27.2812C18.6096 26.9886 18.932 26.7642 19.3269 26.608C19.7246 26.4489 20.1848 26.3693 20.7076 26.3693C21.0712 26.3693 21.4192 26.4119 21.7516 26.4972C22.0868 26.5824 22.3837 26.7145 22.6422 26.8935C22.9036 27.0724 23.1096 27.3026 23.2601 27.5838C23.4107 27.8622 23.486 28.196 23.486 28.5852V33H21.7644V32.0923H21.7132C21.6081 32.2969 21.4675 32.4773 21.2914 32.6335C21.1152 32.7869 20.9036 32.9077 20.6564 32.9957C20.4093 33.081 20.1238 33.1236 19.7999 33.1236ZM20.3198 31.8707C20.5868 31.8707 20.8226 31.8182 21.0272 31.7131C21.2317 31.6051 21.3922 31.4602 21.5087 31.2784C21.6252 31.0966 21.6834 30.8906 21.6834 30.6605V29.9659C21.6266 30.0028 21.5485 30.0369 21.449 30.0682C21.3525 30.0966 21.2431 30.1236 21.1209 30.1491C20.9988 30.1719 20.8766 30.1932 20.7544 30.2131C20.6323 30.2301 20.5215 30.2457 20.4221 30.2599C20.209 30.2912 20.0229 30.3409 19.8638 30.4091C19.7047 30.4773 19.5811 30.5696 19.4931 30.6861C19.405 30.7997 19.361 30.9418 19.361 31.1122C19.361 31.3594 19.4505 31.5483 19.6294 31.679C19.8113 31.8068 20.0414 31.8707 20.3198 31.8707ZM26.7097 29.2159V33H24.8944V26.4545H26.6245V27.6094H26.7012C26.8461 27.2287 27.089 26.9276 27.4299 26.706C27.7708 26.4815 28.1841 26.3693 28.6699 26.3693C29.1245 26.3693 29.5208 26.4688 29.8588 26.6676C30.1969 26.8665 30.4597 27.1506 30.6472 27.5199C30.8347 27.8864 30.9284 28.3239 30.9284 28.8324V33H29.1131V29.1562C29.1159 28.7557 29.0137 28.4432 28.8063 28.2188C28.5989 27.9915 28.3134 27.8778 27.9498 27.8778C27.7054 27.8778 27.4895 27.9304 27.302 28.0355C27.1174 28.1406 26.9725 28.294 26.8674 28.4957C26.7651 28.6946 26.7125 28.9347 26.7097 29.2159Z" fill="#235753"/>
<rect x="58" width="2" height="5" fill="#235753"/>
<rect x="78" width="2" height="5" fill="#235753"/>
<mask id="path-8-outside-2_305_4516" maskUnits="userSpaceOnUse" x="48" y="5" width="42" height="42" fill="black">
<rect fill="white" x="48" y="5" width="42" height="42"/>
<path d="M48 11H90V47H48V11Z"/>
</mask>
<path d="M48 11H90V47H48V11Z" fill="white"/>
<path d="M48 11V17H90V11V5H48V11Z" fill="#CC0070" mask="url(#path-8-outside-2_305_4516)"/>
<path d="M59.0886 33V24.2727H64.867V25.794H60.9338V27.8736H64.4835V29.3949H60.9338V33H59.0886ZM68.5765 33.1278C67.9032 33.1278 67.3237 32.9915 66.8379 32.7188C66.3549 32.4432 65.9828 32.054 65.7214 31.5511C65.46 31.0455 65.3294 30.4474 65.3294 29.7571C65.3294 29.0838 65.46 28.4929 65.7214 27.9844C65.9828 27.4759 66.3507 27.0795 66.8251 26.7955C67.3024 26.5114 67.862 26.3693 68.5041 26.3693C68.9359 26.3693 69.3379 26.4389 69.71 26.5781C70.085 26.7145 70.4118 26.9205 70.6902 27.196C70.9714 27.4716 71.1902 27.8182 71.3464 28.2358C71.5027 28.6506 71.5808 29.1364 71.5808 29.6932V30.1918H66.0538V29.0668H69.872C69.872 28.8054 69.8152 28.5739 69.7015 28.3722C69.5879 28.1705 69.4302 28.0128 69.2285 27.8991C69.0297 27.7827 68.7981 27.7244 68.5339 27.7244C68.2583 27.7244 68.014 27.7884 67.801 27.9162C67.5907 28.0412 67.426 28.2102 67.3066 28.4233C67.1873 28.6335 67.1262 28.8679 67.1234 29.1264V30.196C67.1234 30.5199 67.1831 30.7997 67.3024 31.0355C67.4245 31.2713 67.5964 31.4531 67.818 31.581C68.0396 31.7088 68.3024 31.7727 68.6064 31.7727C68.8081 31.7727 68.9927 31.7443 69.1603 31.6875C69.3279 31.6307 69.4714 31.5455 69.5907 31.4318C69.71 31.3182 69.801 31.179 69.8635 31.0142L71.5424 31.125C71.4572 31.5284 71.2825 31.8807 71.0183 32.1818C70.7569 32.4801 70.4189 32.7131 70.0041 32.8807C69.5922 33.0455 69.1163 33.1278 68.5765 33.1278ZM72.7995 33V24.2727H74.6149V27.554H74.6703C74.7498 27.3778 74.8649 27.1989 75.0154 27.017C75.1689 26.8324 75.3677 26.679 75.612 26.5568C75.8592 26.4318 76.166 26.3693 76.5325 26.3693C77.0098 26.3693 77.4501 26.4943 77.8535 26.7443C78.2569 26.9915 78.5794 27.3651 78.8208 27.8651C79.0623 28.3622 79.1831 28.9858 79.1831 29.7358C79.1831 30.4659 79.0652 31.0824 78.8294 31.5852C78.5964 32.0852 78.2782 32.4645 77.8748 32.723C77.4743 32.9787 77.0254 33.1065 76.5282 33.1065C76.176 33.1065 75.8762 33.0483 75.6291 32.9318C75.3848 32.8153 75.1845 32.669 75.0282 32.4929C74.872 32.3139 74.7527 32.1335 74.6703 31.9517H74.5893V33H72.7995ZM74.5765 29.7273C74.5765 30.1165 74.6305 30.456 74.7385 30.7457C74.8464 31.0355 75.0027 31.2614 75.2072 31.4233C75.4118 31.5824 75.6603 31.6619 75.9529 31.6619C76.2484 31.6619 76.4984 31.581 76.7029 31.419C76.9075 31.2543 77.0623 31.027 77.1674 30.7372C77.2754 30.4446 77.3294 30.108 77.3294 29.7273C77.3294 29.3494 77.2768 29.017 77.1717 28.7301C77.0666 28.4432 76.9118 28.2187 76.7072 28.0568C76.5027 27.8949 76.2512 27.8139 75.9529 27.8139C75.6575 27.8139 75.4075 27.892 75.2029 28.0483C75.0012 28.2045 74.8464 28.4261 74.7385 28.7131C74.6305 29 74.5765 29.3381 74.5765 29.7273Z" fill="#235753"/>
<rect x="106" width="2" height="5" fill="#235753"/>
<rect x="126" width="2" height="5" fill="#235753"/>
<mask id="path-13-outside-3_305_4516" maskUnits="userSpaceOnUse" x="96" y="5" width="42" height="42" fill="black">
<rect fill="white" x="96" y="5" width="42" height="42"/>
<path d="M96 11H138V47H96V11Z"/>
</mask>
<path d="M96 11H138V47H96V11Z" fill="white"/>
<path d="M96 11V17H138V11V5H96V11Z" fill="#CC0070" mask="url(#path-13-outside-3_305_4516)"/>
<path d="M106.333 24.2727H108.608L111.012 30.1364H111.114L113.517 24.2727H115.793V33H114.003V27.3196H113.931L111.672 32.9574H110.453L108.195 27.2983H108.123V33H106.333V24.2727ZM119.146 33.1236C118.728 33.1236 118.356 33.0511 118.029 32.9062C117.702 32.7585 117.444 32.5412 117.254 32.2543C117.066 31.9645 116.972 31.6037 116.972 31.1719C116.972 30.8082 117.039 30.5028 117.173 30.2557C117.306 30.0085 117.488 29.8097 117.718 29.6591C117.948 29.5085 118.21 29.3949 118.502 29.3182C118.798 29.2415 119.107 29.1875 119.431 29.1562C119.812 29.1165 120.119 29.0795 120.352 29.0455C120.585 29.0085 120.754 28.9545 120.859 28.8835C120.964 28.8125 121.016 28.7074 121.016 28.5682V28.5426C121.016 28.2727 120.931 28.0639 120.761 27.9162C120.593 27.7685 120.354 27.6946 120.045 27.6946C119.718 27.6946 119.458 27.767 119.265 27.9119C119.072 28.054 118.944 28.233 118.881 28.4489L117.202 28.3125C117.288 27.9148 117.455 27.571 117.705 27.2812C117.955 26.9886 118.278 26.7642 118.673 26.608C119.07 26.4489 119.531 26.3693 120.053 26.3693C120.417 26.3693 120.765 26.4119 121.097 26.4972C121.433 26.5824 121.729 26.7145 121.988 26.8935C122.249 27.0724 122.455 27.3026 122.606 27.5838C122.756 27.8622 122.832 28.196 122.832 28.5852V33H121.11V32.0923H121.059C120.954 32.2969 120.813 32.4773 120.637 32.6335C120.461 32.7869 120.249 32.9077 120.002 32.9957C119.755 33.081 119.469 33.1236 119.146 33.1236ZM119.665 31.8707C119.933 31.8707 120.168 31.8182 120.373 31.7131C120.577 31.6051 120.738 31.4602 120.854 31.2784C120.971 31.0966 121.029 30.8906 121.029 30.6605V29.9659C120.972 30.0028 120.894 30.0369 120.795 30.0682C120.698 30.0966 120.589 30.1236 120.467 30.1491C120.344 30.1719 120.222 30.1932 120.1 30.2131C119.978 30.2301 119.867 30.2457 119.768 30.2599C119.555 30.2912 119.369 30.3409 119.21 30.4091C119.05 30.4773 118.927 30.5696 118.839 30.6861C118.751 30.7997 118.707 30.9418 118.707 31.1122C118.707 31.3594 118.796 31.5483 118.975 31.679C119.157 31.8068 119.387 31.8707 119.665 31.8707ZM118.822 25.5597C118.577 25.5597 118.367 25.4744 118.191 25.304C118.015 25.1307 117.927 24.9261 117.927 24.6903C117.927 24.4489 118.015 24.2443 118.191 24.0767C118.367 23.9091 118.577 23.8253 118.822 23.8253C119.069 23.8253 119.278 23.9091 119.448 24.0767C119.621 24.2443 119.708 24.4489 119.708 24.6903C119.708 24.9261 119.621 25.1307 119.448 25.304C119.278 25.4744 119.069 25.5597 118.822 25.5597ZM121.43 25.5597C121.185 25.5597 120.975 25.4744 120.799 25.304C120.623 25.1307 120.535 24.9261 120.535 24.6903C120.535 24.4489 120.623 24.2443 120.799 24.0767C120.975 23.9091 121.185 23.8253 121.43 23.8253C121.677 23.8253 121.886 23.9091 122.056 24.0767C122.229 24.2443 122.316 24.4489 122.316 24.6903C122.316 24.9261 122.229 25.1307 122.056 25.304C121.886 25.4744 121.677 25.5597 121.43 25.5597ZM124.24 33V26.4545H126V27.5966H126.068C126.188 27.1903 126.388 26.8835 126.669 26.6761C126.95 26.4659 127.274 26.3608 127.641 26.3608C127.732 26.3608 127.83 26.3665 127.935 26.3778C128.04 26.3892 128.132 26.4048 128.212 26.4247V28.0355C128.126 28.0099 128.009 27.9872 127.858 27.9673C127.707 27.9474 127.57 27.9375 127.445 27.9375C127.178 27.9375 126.939 27.9957 126.729 28.1122C126.521 28.2259 126.357 28.3849 126.234 28.5895C126.115 28.794 126.055 29.0298 126.055 29.2969V33H124.24Z" fill="#235753"/>
<rect x="154" width="2" height="5" fill="#235753"/>
<rect x="174" width="2" height="5" fill="#235753"/>
<mask id="path-18-outside-4_305_4516" maskUnits="userSpaceOnUse" x="144" y="5" width="42" height="42" fill="black">
<rect fill="white" x="144" y="5" width="42" height="42"/>
<path d="M144 11H186V47H144V11Z"/>
</mask>
<path d="M144 11H186V47H144V11Z" fill="white"/>
<path d="M144 11V17H186V11V5H144V11Z" fill="#CC0070" mask="url(#path-18-outside-4_305_4516)"/>
<path d="M156.523 33H154.545L157.558 24.2727H159.936L162.944 33H160.967L158.781 26.267H158.713L156.523 33ZM156.399 29.5696H161.069V31.0099H156.399V29.5696ZM163.961 35.4545V26.4545H165.751V27.554H165.831C165.911 27.3778 166.026 27.1989 166.177 27.017C166.33 26.8324 166.529 26.679 166.773 26.5568C167.02 26.4318 167.327 26.3693 167.694 26.3693C168.171 26.3693 168.611 26.4943 169.015 26.7443C169.418 26.9915 169.741 27.3651 169.982 27.8651C170.224 28.3622 170.344 28.9858 170.344 29.7358C170.344 30.4659 170.226 31.0824 169.991 31.5852C169.758 32.0852 169.439 32.4645 169.036 32.723C168.635 32.9787 168.187 33.1065 167.689 33.1065C167.337 33.1065 167.037 33.0483 166.79 32.9318C166.546 32.8153 166.346 32.669 166.189 32.4929C166.033 32.3139 165.914 32.1335 165.831 31.9517H165.776V35.4545H163.961ZM165.738 29.7273C165.738 30.1165 165.792 30.456 165.9 30.7457C166.008 31.0355 166.164 31.2614 166.368 31.4233C166.573 31.5824 166.822 31.6619 167.114 31.6619C167.41 31.6619 167.66 31.581 167.864 31.419C168.069 31.2543 168.224 31.027 168.329 30.7372C168.437 30.4446 168.491 30.108 168.491 29.7273C168.491 29.3494 168.438 29.017 168.333 28.7301C168.228 28.4432 168.073 28.2187 167.868 28.0568C167.664 27.8949 167.412 27.8139 167.114 27.8139C166.819 27.8139 166.569 27.892 166.364 28.0483C166.162 28.2045 166.008 28.4261 165.9 28.7131C165.792 29 165.738 29.3381 165.738 29.7273ZM171.555 33V26.4545H173.314V27.5966H173.383C173.502 27.1903 173.702 26.8835 173.983 26.6761C174.265 26.4659 174.589 26.3608 174.955 26.3608C175.046 26.3608 175.144 26.3665 175.249 26.3778C175.354 26.3892 175.447 26.4048 175.526 26.4247V28.0355C175.441 28.0099 175.323 27.9872 175.172 27.9673C175.022 27.9474 174.884 27.9375 174.759 27.9375C174.492 27.9375 174.253 27.9957 174.043 28.1122C173.836 28.2259 173.671 28.3849 173.549 28.5895C173.43 28.794 173.37 29.0298 173.37 29.2969V33H171.555Z" fill="#235753"/>
</g>
<rect x="165" width="21" height="47" fill="#A9D8D8" fill-opacity="0.8"/>
<defs>
<clipPath id="clip0_305_4516">
<rect width="186" height="47" fill="white"/>
</clipPath>
</defs>
</svg>
