<svg xmlns="http://www.w3.org/2000/svg" width="46" height="43" viewBox="0 0 46 43">
    <path d="M15.276 42.6203H5.33414C2.75663 42.6203 0.731445 40.6112 0.731445 38.0542V28.5568C0.731445 16.3197 5.15003 7.91811 8.09575 3.53468C9.38451 1.89089 12.8826 0.0644531 14.9077 0.0644531H16.1965C18.2217 0.0644531 19.3263 2.07353 18.2217 3.89996C15.8283 7.55282 12.6984 13.3974 11.962 18.3288C11.7779 19.242 12.5143 20.1552 13.4349 20.1552H16.0124C18.0376 20.1552 19.8786 21.9816 19.8786 23.9907V38.0542C19.8786 40.6112 17.8535 42.6203 15.276 42.6203ZM40.8669 42.6203H30.9251C28.3476 42.6203 26.3224 40.6112 26.3224 38.0542V28.5568C26.3224 16.3197 30.741 7.91811 33.6867 3.53468C34.9755 1.89089 38.4735 0.0644531 40.4987 0.0644531H41.7875C43.8126 0.0644531 44.9173 2.07353 43.8126 3.89996C41.4192 7.55282 38.2894 13.3974 37.553 18.3288C37.3689 19.242 38.1053 20.1552 39.0258 20.1552H41.6033C43.6285 20.1552 45.4696 21.9816 45.4696 23.9907V38.0542C45.4696 40.6112 43.4444 42.6203 40.8669 42.6203Z" fill="currentFill"/>
</svg>